%TF.GenerationSoftware,KiCad,Pcbnew,9.0.1-9.0.1-0~ubuntu24.10.1*%
%TF.CreationDate,2025-04-11T20:09:19+02:00*%
%TF.ProjectId,usb_uart_1V8,7573625f-7561-4727-945f-3156382e6b69,0.4*%
%TF.SameCoordinates,Original*%
%TF.FileFunction,Legend,Bot*%
%TF.FilePolarity,Positive*%
%FSLAX46Y46*%
G04 Gerber Fmt 4.6, Leading zero omitted, Abs format (unit mm)*
G04 Created by KiCad (PCBNEW 9.0.1-9.0.1-0~ubuntu24.10.1) date 2025-04-11 20:09:19*
%MOMM*%
%LPD*%
G01*
G04 APERTURE LIST*
%ADD10C,0.153000*%
%ADD11C,0.000000*%
G04 APERTURE END LIST*
D10*
X144187247Y-137045663D02*
X144187247Y-137855186D01*
X144187247Y-137855186D02*
X144139628Y-137950424D01*
X144139628Y-137950424D02*
X144092009Y-137998044D01*
X144092009Y-137998044D02*
X143996771Y-138045663D01*
X143996771Y-138045663D02*
X143806295Y-138045663D01*
X143806295Y-138045663D02*
X143711057Y-137998044D01*
X143711057Y-137998044D02*
X143663438Y-137950424D01*
X143663438Y-137950424D02*
X143615819Y-137855186D01*
X143615819Y-137855186D02*
X143615819Y-137045663D01*
X143187247Y-137998044D02*
X143044390Y-138045663D01*
X143044390Y-138045663D02*
X142806295Y-138045663D01*
X142806295Y-138045663D02*
X142711057Y-137998044D01*
X142711057Y-137998044D02*
X142663438Y-137950424D01*
X142663438Y-137950424D02*
X142615819Y-137855186D01*
X142615819Y-137855186D02*
X142615819Y-137759948D01*
X142615819Y-137759948D02*
X142663438Y-137664710D01*
X142663438Y-137664710D02*
X142711057Y-137617091D01*
X142711057Y-137617091D02*
X142806295Y-137569472D01*
X142806295Y-137569472D02*
X142996771Y-137521853D01*
X142996771Y-137521853D02*
X143092009Y-137474234D01*
X143092009Y-137474234D02*
X143139628Y-137426615D01*
X143139628Y-137426615D02*
X143187247Y-137331377D01*
X143187247Y-137331377D02*
X143187247Y-137236139D01*
X143187247Y-137236139D02*
X143139628Y-137140901D01*
X143139628Y-137140901D02*
X143092009Y-137093282D01*
X143092009Y-137093282D02*
X142996771Y-137045663D01*
X142996771Y-137045663D02*
X142758676Y-137045663D01*
X142758676Y-137045663D02*
X142615819Y-137093282D01*
X141853914Y-137521853D02*
X141711057Y-137569472D01*
X141711057Y-137569472D02*
X141663438Y-137617091D01*
X141663438Y-137617091D02*
X141615819Y-137712329D01*
X141615819Y-137712329D02*
X141615819Y-137855186D01*
X141615819Y-137855186D02*
X141663438Y-137950424D01*
X141663438Y-137950424D02*
X141711057Y-137998044D01*
X141711057Y-137998044D02*
X141806295Y-138045663D01*
X141806295Y-138045663D02*
X142187247Y-138045663D01*
X142187247Y-138045663D02*
X142187247Y-137045663D01*
X142187247Y-137045663D02*
X141853914Y-137045663D01*
X141853914Y-137045663D02*
X141758676Y-137093282D01*
X141758676Y-137093282D02*
X141711057Y-137140901D01*
X141711057Y-137140901D02*
X141663438Y-137236139D01*
X141663438Y-137236139D02*
X141663438Y-137331377D01*
X141663438Y-137331377D02*
X141711057Y-137426615D01*
X141711057Y-137426615D02*
X141758676Y-137474234D01*
X141758676Y-137474234D02*
X141853914Y-137521853D01*
X141853914Y-137521853D02*
X142187247Y-137521853D01*
X140472962Y-136998044D02*
X141330104Y-138283758D01*
X140139628Y-137045663D02*
X140139628Y-137855186D01*
X140139628Y-137855186D02*
X140092009Y-137950424D01*
X140092009Y-137950424D02*
X140044390Y-137998044D01*
X140044390Y-137998044D02*
X139949152Y-138045663D01*
X139949152Y-138045663D02*
X139758676Y-138045663D01*
X139758676Y-138045663D02*
X139663438Y-137998044D01*
X139663438Y-137998044D02*
X139615819Y-137950424D01*
X139615819Y-137950424D02*
X139568200Y-137855186D01*
X139568200Y-137855186D02*
X139568200Y-137045663D01*
X138663438Y-138045663D02*
X138663438Y-137521853D01*
X138663438Y-137521853D02*
X138711057Y-137426615D01*
X138711057Y-137426615D02*
X138806295Y-137378996D01*
X138806295Y-137378996D02*
X138996771Y-137378996D01*
X138996771Y-137378996D02*
X139092009Y-137426615D01*
X138663438Y-137998044D02*
X138758676Y-138045663D01*
X138758676Y-138045663D02*
X138996771Y-138045663D01*
X138996771Y-138045663D02*
X139092009Y-137998044D01*
X139092009Y-137998044D02*
X139139628Y-137902805D01*
X139139628Y-137902805D02*
X139139628Y-137807567D01*
X139139628Y-137807567D02*
X139092009Y-137712329D01*
X139092009Y-137712329D02*
X138996771Y-137664710D01*
X138996771Y-137664710D02*
X138758676Y-137664710D01*
X138758676Y-137664710D02*
X138663438Y-137617091D01*
X138187247Y-138045663D02*
X138187247Y-137378996D01*
X138187247Y-137569472D02*
X138139628Y-137474234D01*
X138139628Y-137474234D02*
X138092009Y-137426615D01*
X138092009Y-137426615D02*
X137996771Y-137378996D01*
X137996771Y-137378996D02*
X137901533Y-137378996D01*
X137711056Y-137378996D02*
X137330104Y-137378996D01*
X137568199Y-137045663D02*
X137568199Y-137902805D01*
X137568199Y-137902805D02*
X137520580Y-137998044D01*
X137520580Y-137998044D02*
X137425342Y-138045663D01*
X137425342Y-138045663D02*
X137330104Y-138045663D01*
X136330103Y-137378996D02*
X136092008Y-138045663D01*
X136092008Y-138045663D02*
X135853913Y-137378996D01*
X135282484Y-137045663D02*
X135187246Y-137045663D01*
X135187246Y-137045663D02*
X135092008Y-137093282D01*
X135092008Y-137093282D02*
X135044389Y-137140901D01*
X135044389Y-137140901D02*
X134996770Y-137236139D01*
X134996770Y-137236139D02*
X134949151Y-137426615D01*
X134949151Y-137426615D02*
X134949151Y-137664710D01*
X134949151Y-137664710D02*
X134996770Y-137855186D01*
X134996770Y-137855186D02*
X135044389Y-137950424D01*
X135044389Y-137950424D02*
X135092008Y-137998044D01*
X135092008Y-137998044D02*
X135187246Y-138045663D01*
X135187246Y-138045663D02*
X135282484Y-138045663D01*
X135282484Y-138045663D02*
X135377722Y-137998044D01*
X135377722Y-137998044D02*
X135425341Y-137950424D01*
X135425341Y-137950424D02*
X135472960Y-137855186D01*
X135472960Y-137855186D02*
X135520579Y-137664710D01*
X135520579Y-137664710D02*
X135520579Y-137426615D01*
X135520579Y-137426615D02*
X135472960Y-137236139D01*
X135472960Y-137236139D02*
X135425341Y-137140901D01*
X135425341Y-137140901D02*
X135377722Y-137093282D01*
X135377722Y-137093282D02*
X135282484Y-137045663D01*
X134520579Y-137950424D02*
X134472960Y-137998044D01*
X134472960Y-137998044D02*
X134520579Y-138045663D01*
X134520579Y-138045663D02*
X134568198Y-137998044D01*
X134568198Y-137998044D02*
X134520579Y-137950424D01*
X134520579Y-137950424D02*
X134520579Y-138045663D01*
X133615818Y-137378996D02*
X133615818Y-138045663D01*
X133853913Y-136998044D02*
X134092008Y-137712329D01*
X134092008Y-137712329D02*
X133472961Y-137712329D01*
D11*
%TO.C,G\u002A\u002A\u002A*%
G36*
X157624834Y-124731558D02*
G01*
X157870865Y-124732963D01*
X157899669Y-124746408D01*
X157913050Y-124753250D01*
X157944449Y-124775432D01*
X157969702Y-124803638D01*
X157989006Y-124838283D01*
X158002559Y-124879781D01*
X158010558Y-124928546D01*
X158013200Y-124984995D01*
X158013183Y-124990558D01*
X158010919Y-125038565D01*
X158004547Y-125079305D01*
X157993621Y-125114250D01*
X157977695Y-125144872D01*
X157956322Y-125172642D01*
X157949337Y-125180340D01*
X157939091Y-125190572D01*
X157930780Y-125195458D01*
X157922834Y-125194554D01*
X157913682Y-125187417D01*
X157901754Y-125173606D01*
X157885478Y-125152677D01*
X157848481Y-125104638D01*
X157865095Y-125086249D01*
X157874112Y-125075265D01*
X157884028Y-125058326D01*
X157890246Y-125038743D01*
X157893399Y-125014253D01*
X157894121Y-124982594D01*
X157893962Y-124972117D01*
X157892051Y-124939827D01*
X157887751Y-124914793D01*
X157880674Y-124895326D01*
X157870431Y-124879740D01*
X157858860Y-124869249D01*
X157841747Y-124861250D01*
X157818698Y-124856798D01*
X157788055Y-124855405D01*
X157753251Y-124855378D01*
X157753251Y-124938315D01*
X157752788Y-124983844D01*
X157751149Y-125025187D01*
X157748178Y-125059374D01*
X157743725Y-125087646D01*
X157737638Y-125111245D01*
X157729767Y-125131413D01*
X157717613Y-125153329D01*
X157692144Y-125184092D01*
X157660551Y-125208009D01*
X157623788Y-125224423D01*
X157582808Y-125232677D01*
X157578200Y-125232789D01*
X157554627Y-125233363D01*
X157514052Y-125227081D01*
X157477127Y-125212455D01*
X157444628Y-125190068D01*
X157417336Y-125160501D01*
X157396027Y-125124338D01*
X157381481Y-125082158D01*
X157378253Y-125064706D01*
X157375399Y-125034809D01*
X157374597Y-125002353D01*
X157375208Y-124987890D01*
X157494405Y-124987890D01*
X157494946Y-125014607D01*
X157497080Y-125037630D01*
X157500901Y-125054326D01*
X157503823Y-125061530D01*
X157518346Y-125085709D01*
X157536512Y-125102727D01*
X157556928Y-125112383D01*
X157578200Y-125114476D01*
X157598938Y-125108806D01*
X157617747Y-125095172D01*
X157633235Y-125073374D01*
X157635028Y-125069840D01*
X157638668Y-125061786D01*
X157641373Y-125053373D01*
X157643315Y-125043059D01*
X157644669Y-125029305D01*
X157645609Y-125010570D01*
X157646309Y-124985315D01*
X157646942Y-124951999D01*
X157648647Y-124853927D01*
X157600098Y-124856602D01*
X157572508Y-124858912D01*
X157547859Y-124863525D01*
X157529709Y-124870858D01*
X157516450Y-124881597D01*
X157506471Y-124896427D01*
X157506324Y-124896712D01*
X157501418Y-124911889D01*
X157497734Y-124933899D01*
X157495365Y-124960110D01*
X157494405Y-124987890D01*
X157375208Y-124987890D01*
X157375909Y-124971303D01*
X157379395Y-124945626D01*
X157387635Y-124916967D01*
X157401368Y-124890802D01*
X157420563Y-124870244D01*
X157438598Y-124855378D01*
X157408701Y-124855378D01*
X157378803Y-124855378D01*
X157378803Y-124792766D01*
X157378803Y-124730154D01*
X157624834Y-124731558D01*
G37*
G36*
X158261054Y-123730837D02*
G01*
X158262393Y-123794445D01*
X158103679Y-123794445D01*
X157944964Y-123794445D01*
X157964108Y-123819801D01*
X157967478Y-123824356D01*
X157991948Y-123865103D01*
X158007579Y-123907018D01*
X158014400Y-123949214D01*
X158012444Y-123990803D01*
X158001740Y-124030897D01*
X157982321Y-124068608D01*
X157954216Y-124103049D01*
X157950608Y-124106623D01*
X157933484Y-124122169D01*
X157916255Y-124134810D01*
X157897739Y-124144830D01*
X157876749Y-124152516D01*
X157852102Y-124158153D01*
X157822612Y-124162026D01*
X157787096Y-124164420D01*
X157744368Y-124165621D01*
X157695870Y-124165900D01*
X157693243Y-124165915D01*
X157681419Y-124165887D01*
X157632474Y-124165329D01*
X157591675Y-124163857D01*
X157557843Y-124161190D01*
X157529795Y-124157046D01*
X157506352Y-124151144D01*
X157486332Y-124143202D01*
X157468555Y-124132938D01*
X157451838Y-124120070D01*
X157435002Y-124104318D01*
X157422379Y-124090672D01*
X157397360Y-124054338D01*
X157381229Y-124014387D01*
X157379002Y-124004928D01*
X157375602Y-123974424D01*
X157376104Y-123940727D01*
X157378772Y-123919844D01*
X157499669Y-123919844D01*
X157500847Y-123930719D01*
X157503832Y-123946497D01*
X157507178Y-123960419D01*
X157516582Y-123983659D01*
X157530503Y-124002263D01*
X157549741Y-124016618D01*
X157575097Y-124027111D01*
X157607371Y-124034127D01*
X157647361Y-124038053D01*
X157695870Y-124039275D01*
X157700751Y-124039268D01*
X157739229Y-124038510D01*
X157770123Y-124036322D01*
X157795184Y-124032443D01*
X157816165Y-124026612D01*
X157834818Y-124018567D01*
X157847972Y-124010095D01*
X157866400Y-123990209D01*
X157879300Y-123965264D01*
X157886476Y-123937155D01*
X157887736Y-123907779D01*
X157882883Y-123879034D01*
X157871724Y-123852815D01*
X157854063Y-123831020D01*
X157844112Y-123822920D01*
X157827759Y-123813254D01*
X157808165Y-123806098D01*
X157783751Y-123801053D01*
X157752937Y-123797722D01*
X157714146Y-123795706D01*
X157687923Y-123795148D01*
X157640216Y-123796507D01*
X157600656Y-123801476D01*
X157568631Y-123810327D01*
X157543533Y-123823334D01*
X157524752Y-123840771D01*
X157511678Y-123862909D01*
X157503701Y-123890024D01*
X157502697Y-123895332D01*
X157500290Y-123909504D01*
X157499669Y-123919844D01*
X157378772Y-123919844D01*
X157380305Y-123907843D01*
X157388005Y-123879777D01*
X157395473Y-123863500D01*
X157407245Y-123842486D01*
X157419898Y-123823369D01*
X157441191Y-123794445D01*
X157409858Y-123794445D01*
X157378525Y-123794445D01*
X157379864Y-123730837D01*
X157381204Y-123667229D01*
X157820459Y-123667229D01*
X158259714Y-123667229D01*
X158261054Y-123730837D01*
G37*
G36*
X157622434Y-122201638D02*
G01*
X157635875Y-122201716D01*
X157688388Y-122202032D01*
X157732366Y-122202346D01*
X157768677Y-122202697D01*
X157798187Y-122203125D01*
X157821763Y-122203670D01*
X157840271Y-122204371D01*
X157854578Y-122205269D01*
X157865552Y-122206404D01*
X157874058Y-122207814D01*
X157880962Y-122209541D01*
X157887133Y-122211625D01*
X157893436Y-122214104D01*
X157901583Y-122217620D01*
X157935541Y-122238237D01*
X157963335Y-122266035D01*
X157984996Y-122301076D01*
X158000557Y-122343422D01*
X158010049Y-122393134D01*
X158013502Y-122450275D01*
X158013508Y-122463244D01*
X158011978Y-122503513D01*
X158007765Y-122537199D01*
X158000514Y-122566446D01*
X157989872Y-122593400D01*
X157985709Y-122601280D01*
X157975686Y-122616772D01*
X157963478Y-122632937D01*
X157950598Y-122648046D01*
X157938555Y-122660375D01*
X157928860Y-122668197D01*
X157923025Y-122669786D01*
X157918536Y-122665161D01*
X157909543Y-122654415D01*
X157897405Y-122639195D01*
X157883441Y-122621124D01*
X157848625Y-122575408D01*
X157864730Y-122559304D01*
X157869785Y-122553702D01*
X157883917Y-122529315D01*
X157892568Y-122497910D01*
X157895584Y-122460262D01*
X157892812Y-122417145D01*
X157888155Y-122388742D01*
X157880613Y-122364703D01*
X157869366Y-122347772D01*
X157853107Y-122336672D01*
X157830528Y-122330126D01*
X157800319Y-122326857D01*
X157754567Y-122324127D01*
X157751987Y-122436408D01*
X157751847Y-122442363D01*
X157750720Y-122482149D01*
X157749262Y-122514028D01*
X157747206Y-122539493D01*
X157744285Y-122560039D01*
X157740232Y-122577161D01*
X157734777Y-122592354D01*
X157727655Y-122607112D01*
X157718597Y-122622931D01*
X157699661Y-122648146D01*
X157671768Y-122672085D01*
X157639334Y-122689490D01*
X157603831Y-122700226D01*
X157581050Y-122702641D01*
X157566731Y-122704159D01*
X157529507Y-122701154D01*
X157493631Y-122691076D01*
X157460575Y-122673790D01*
X157431811Y-122649163D01*
X157418537Y-122632445D01*
X157401605Y-122604559D01*
X157387694Y-122574291D01*
X157378917Y-122545767D01*
X157377579Y-122536023D01*
X157376359Y-122517145D01*
X157375822Y-122493968D01*
X157376079Y-122469478D01*
X157376179Y-122466176D01*
X157376522Y-122460679D01*
X157495212Y-122460679D01*
X157495983Y-122492196D01*
X157498911Y-122516676D01*
X157504421Y-122535845D01*
X157512938Y-122551433D01*
X157524888Y-122565166D01*
X157536847Y-122575206D01*
X157549603Y-122580869D01*
X157567073Y-122583352D01*
X157581050Y-122583466D01*
X157603428Y-122577996D01*
X157620949Y-122564558D01*
X157634594Y-122542559D01*
X157637144Y-122536580D01*
X157640147Y-122527493D01*
X157642371Y-122516720D01*
X157643981Y-122502679D01*
X157645142Y-122483787D01*
X157646017Y-122458459D01*
X157646769Y-122425113D01*
X157646811Y-122423007D01*
X157647375Y-122390972D01*
X157647577Y-122367180D01*
X157647330Y-122350352D01*
X157646547Y-122339208D01*
X157645142Y-122332466D01*
X157643026Y-122328848D01*
X157640114Y-122327072D01*
X157636986Y-122326456D01*
X157624883Y-122326105D01*
X157607196Y-122326874D01*
X157586552Y-122328684D01*
X157566979Y-122331216D01*
X157544937Y-122336086D01*
X157528881Y-122343294D01*
X157516669Y-122353913D01*
X157506163Y-122369019D01*
X157502850Y-122375571D01*
X157499675Y-122385662D01*
X157497568Y-122399308D01*
X157496244Y-122418525D01*
X157495421Y-122445326D01*
X157495212Y-122460679D01*
X157376522Y-122460679D01*
X157378351Y-122431384D01*
X157382737Y-122403947D01*
X157389962Y-122381907D01*
X157400652Y-122363306D01*
X157415431Y-122346186D01*
X157436158Y-122325460D01*
X157407481Y-122325460D01*
X157378803Y-122325460D01*
X157378803Y-122262846D01*
X157378803Y-122200232D01*
X157622434Y-122201638D01*
G37*
G36*
X157725647Y-121121821D02*
G01*
X157744393Y-121122568D01*
X157781837Y-121124960D01*
X157810265Y-121128275D01*
X157830060Y-121132552D01*
X157867631Y-121146981D01*
X157909858Y-121171729D01*
X157945669Y-121203053D01*
X157974517Y-121240217D01*
X157995855Y-121282485D01*
X158009135Y-121329122D01*
X158013808Y-121379391D01*
X158013797Y-121383451D01*
X158009060Y-121433023D01*
X157995958Y-121478036D01*
X157974705Y-121518229D01*
X157945518Y-121553337D01*
X157908612Y-121583098D01*
X157864200Y-121607248D01*
X157812499Y-121625525D01*
X157800219Y-121628697D01*
X157784969Y-121631768D01*
X157770001Y-121633652D01*
X157768501Y-121633841D01*
X157748721Y-121635094D01*
X157723533Y-121635704D01*
X157690843Y-121635848D01*
X157673342Y-121635810D01*
X157646262Y-121635522D01*
X157625538Y-121634767D01*
X157609042Y-121633323D01*
X157594647Y-121630971D01*
X157580226Y-121627489D01*
X157563653Y-121622657D01*
X157557018Y-121620565D01*
X157533673Y-121612243D01*
X157511551Y-121603103D01*
X157494683Y-121594775D01*
X157478402Y-121584373D01*
X157445151Y-121555438D01*
X157417038Y-121519873D01*
X157395204Y-121479279D01*
X157380792Y-121435258D01*
X157380210Y-121432599D01*
X157375955Y-121400636D01*
X157374996Y-121363861D01*
X157377147Y-121325791D01*
X157382223Y-121289943D01*
X157390040Y-121259834D01*
X157391425Y-121256010D01*
X157404589Y-121226637D01*
X157421863Y-121196421D01*
X157441134Y-121168754D01*
X157460288Y-121147032D01*
X157475160Y-121132783D01*
X157485789Y-121145572D01*
X157488075Y-121148323D01*
X157497704Y-121159910D01*
X157510555Y-121175376D01*
X157524495Y-121192153D01*
X157552571Y-121225946D01*
X157537619Y-121244823D01*
X157525245Y-121262372D01*
X157507244Y-121298812D01*
X157496851Y-121337616D01*
X157494497Y-121376799D01*
X157500615Y-121414379D01*
X157501304Y-121416661D01*
X157515376Y-121446540D01*
X157536634Y-121472059D01*
X157563348Y-121491907D01*
X157593785Y-121504776D01*
X157626215Y-121509357D01*
X157647637Y-121509357D01*
X157647637Y-121379088D01*
X157753251Y-121379088D01*
X157753251Y-121509357D01*
X157770001Y-121509357D01*
X157785972Y-121507411D01*
X157808890Y-121500687D01*
X157832064Y-121490572D01*
X157851574Y-121478546D01*
X157866488Y-121463438D01*
X157880975Y-121439370D01*
X157890702Y-121411476D01*
X157894338Y-121382738D01*
X157893889Y-121369850D01*
X157891617Y-121350074D01*
X157888044Y-121334539D01*
X157880525Y-121318265D01*
X157862020Y-121294615D01*
X157837041Y-121274759D01*
X157807421Y-121260040D01*
X157774995Y-121251800D01*
X157753251Y-121248819D01*
X157753251Y-121379088D01*
X157647637Y-121379088D01*
X157647637Y-121314260D01*
X157647637Y-121119163D01*
X157725647Y-121121821D01*
G37*
G36*
X157639349Y-125321090D02*
G01*
X157694840Y-125321378D01*
X157742288Y-125321910D01*
X157781381Y-125322679D01*
X157811810Y-125323678D01*
X157833262Y-125324902D01*
X157845426Y-125326342D01*
X157870246Y-125333042D01*
X157909054Y-125350523D01*
X157942386Y-125374544D01*
X157969857Y-125404005D01*
X157991082Y-125437806D01*
X158005677Y-125474850D01*
X158013257Y-125514036D01*
X158013438Y-125554266D01*
X158005835Y-125594439D01*
X157990064Y-125633458D01*
X157965740Y-125670223D01*
X157945164Y-125695484D01*
X158190424Y-125695484D01*
X158435685Y-125695484D01*
X158418196Y-125675082D01*
X158417255Y-125673963D01*
X158406167Y-125658716D01*
X158393928Y-125639043D01*
X158383017Y-125618907D01*
X158378583Y-125609857D01*
X158372281Y-125595824D01*
X158368379Y-125583711D01*
X158366301Y-125570639D01*
X158365696Y-125558254D01*
X158490236Y-125558254D01*
X158491025Y-125590366D01*
X158497971Y-125620684D01*
X158510890Y-125646275D01*
X158522564Y-125658679D01*
X158546240Y-125673174D01*
X158577810Y-125684085D01*
X158616622Y-125691257D01*
X158662026Y-125694539D01*
X158713372Y-125693778D01*
X158739612Y-125691923D01*
X158777006Y-125686815D01*
X158806836Y-125678817D01*
X158830226Y-125667471D01*
X158848303Y-125652315D01*
X158862190Y-125632890D01*
X158869209Y-125615360D01*
X158874040Y-125588747D01*
X158874644Y-125559877D01*
X158870998Y-125532275D01*
X158863075Y-125509466D01*
X158854566Y-125495737D01*
X158840189Y-125480523D01*
X158821546Y-125468809D01*
X158797604Y-125460252D01*
X158767328Y-125454510D01*
X158729687Y-125451241D01*
X158683645Y-125450104D01*
X158653230Y-125450411D01*
X158611557Y-125452810D01*
X158577736Y-125457827D01*
X158550836Y-125465772D01*
X158529924Y-125476953D01*
X158514068Y-125491681D01*
X158502338Y-125510262D01*
X158495788Y-125527281D01*
X158490236Y-125558254D01*
X158365696Y-125558254D01*
X158365475Y-125553728D01*
X158365328Y-125530096D01*
X158365334Y-125524089D01*
X158365646Y-125501763D01*
X158366790Y-125485597D01*
X158369265Y-125472770D01*
X158373568Y-125460462D01*
X158380197Y-125445853D01*
X158386679Y-125433236D01*
X158412246Y-125396333D01*
X158444032Y-125366475D01*
X158481409Y-125344169D01*
X158523748Y-125329924D01*
X158530402Y-125328670D01*
X158547324Y-125326707D01*
X158570643Y-125325244D01*
X158601157Y-125324248D01*
X158639665Y-125323687D01*
X158686968Y-125323532D01*
X158714048Y-125323608D01*
X158758282Y-125324158D01*
X158794782Y-125325466D01*
X158824763Y-125327798D01*
X158849441Y-125331422D01*
X158870030Y-125336607D01*
X158887746Y-125343618D01*
X158903804Y-125352723D01*
X158919419Y-125364191D01*
X158935806Y-125378287D01*
X158963291Y-125408206D01*
X158984519Y-125444357D01*
X158997199Y-125484808D01*
X159001408Y-125529744D01*
X159001404Y-125531513D01*
X158998527Y-125572067D01*
X158989640Y-125607653D01*
X158973753Y-125641062D01*
X158949876Y-125675082D01*
X158933557Y-125695484D01*
X158965082Y-125695484D01*
X158996607Y-125695484D01*
X158996607Y-125757892D01*
X158996607Y-125820300D01*
X158662026Y-125820300D01*
X158187705Y-125820300D01*
X157378803Y-125820300D01*
X157378803Y-125757892D01*
X157378803Y-125695484D01*
X157577157Y-125695484D01*
X157584709Y-125695484D01*
X157636219Y-125695419D01*
X157679208Y-125695182D01*
X157714630Y-125694683D01*
X157743436Y-125693829D01*
X157766582Y-125692530D01*
X157785019Y-125690692D01*
X157799700Y-125688226D01*
X157811580Y-125685038D01*
X157821610Y-125681038D01*
X157830745Y-125676134D01*
X157839936Y-125670235D01*
X157859905Y-125651515D01*
X157875158Y-125626209D01*
X157884562Y-125596850D01*
X157887400Y-125565689D01*
X157882956Y-125534980D01*
X157879534Y-125525304D01*
X157865686Y-125501460D01*
X157846153Y-125479879D01*
X157823544Y-125463689D01*
X157822408Y-125463086D01*
X157817425Y-125460637D01*
X157812007Y-125458607D01*
X157805238Y-125456944D01*
X157796200Y-125455597D01*
X157783977Y-125454513D01*
X157767652Y-125453641D01*
X157746310Y-125452930D01*
X157719033Y-125452327D01*
X157684905Y-125451781D01*
X157643010Y-125451240D01*
X157592430Y-125450653D01*
X157381204Y-125448253D01*
X157379864Y-125384645D01*
X157378525Y-125321037D01*
X157599256Y-125321037D01*
X157639349Y-125321090D01*
G37*
G36*
X157976305Y-124180858D02*
G01*
X157983935Y-124194114D01*
X157993970Y-124215040D01*
X158007844Y-124251952D01*
X158013940Y-124290393D01*
X158012168Y-124332089D01*
X158003470Y-124372137D01*
X157986728Y-124409355D01*
X157961756Y-124442373D01*
X157939160Y-124466529D01*
X157973421Y-124466529D01*
X158007683Y-124466529D01*
X158007683Y-124528937D01*
X158007683Y-124591345D01*
X157693243Y-124591345D01*
X157378803Y-124591345D01*
X157378803Y-124529174D01*
X157378803Y-124467002D01*
X157586430Y-124465566D01*
X157599108Y-124465478D01*
X157647059Y-124465127D01*
X157686574Y-124464774D01*
X157718595Y-124464367D01*
X157744063Y-124463856D01*
X157763921Y-124463189D01*
X157779110Y-124462317D01*
X157790573Y-124461188D01*
X157799251Y-124459752D01*
X157806087Y-124457958D01*
X157812022Y-124455755D01*
X157817999Y-124453093D01*
X157834884Y-124444320D01*
X157858103Y-124426636D01*
X157873660Y-124404959D01*
X157882404Y-124377910D01*
X157885184Y-124344114D01*
X157885185Y-124343792D01*
X157884767Y-124323040D01*
X157882910Y-124308305D01*
X157878846Y-124296068D01*
X157871808Y-124282813D01*
X157858350Y-124259916D01*
X157871808Y-124248587D01*
X157877935Y-124243423D01*
X157891145Y-124232278D01*
X157907893Y-124218140D01*
X157925982Y-124202863D01*
X157932005Y-124197761D01*
X157948929Y-124183723D01*
X157960693Y-124176001D01*
X157969188Y-124174933D01*
X157976305Y-124180858D01*
G37*
G36*
X158004543Y-122715096D02*
G01*
X158005778Y-122722400D01*
X158006775Y-122737008D01*
X158007440Y-122757209D01*
X158007683Y-122781291D01*
X158007683Y-122848274D01*
X157992081Y-122852516D01*
X157983585Y-122854827D01*
X157911091Y-122874549D01*
X157847305Y-122891925D01*
X157791720Y-122907095D01*
X157743831Y-122920200D01*
X157703131Y-122931381D01*
X157669115Y-122940779D01*
X157641276Y-122948535D01*
X157619108Y-122954789D01*
X157602106Y-122959683D01*
X157589763Y-122963358D01*
X157581573Y-122965953D01*
X157577030Y-122967611D01*
X157575628Y-122968473D01*
X157579923Y-122970388D01*
X157592484Y-122974940D01*
X157612423Y-122981823D01*
X157638849Y-122990737D01*
X157670870Y-123001386D01*
X157707596Y-123013471D01*
X157748136Y-123026694D01*
X157791600Y-123040756D01*
X158007572Y-123110358D01*
X158007627Y-123156848D01*
X158007683Y-123203338D01*
X157872066Y-123247152D01*
X157846079Y-123255552D01*
X157788370Y-123274237D01*
X157739009Y-123290281D01*
X157697429Y-123303875D01*
X157663061Y-123315213D01*
X157635336Y-123324489D01*
X157613687Y-123331895D01*
X157597544Y-123337626D01*
X157586340Y-123341875D01*
X157579505Y-123344835D01*
X157576473Y-123346700D01*
X157576674Y-123347662D01*
X157580781Y-123348871D01*
X157593449Y-123352437D01*
X157613640Y-123358056D01*
X157640400Y-123365465D01*
X157672776Y-123374399D01*
X157709813Y-123384596D01*
X157750557Y-123395791D01*
X157794056Y-123407721D01*
X158005282Y-123465603D01*
X158006618Y-123531612D01*
X158006758Y-123539262D01*
X158006893Y-123565972D01*
X158006251Y-123584077D01*
X158004780Y-123594365D01*
X158002432Y-123597620D01*
X157998423Y-123596551D01*
X157986027Y-123592832D01*
X157966168Y-123586723D01*
X157939745Y-123578508D01*
X157907659Y-123568472D01*
X157870811Y-123556900D01*
X157830100Y-123544077D01*
X157786427Y-123530288D01*
X157740693Y-123515818D01*
X157693798Y-123500951D01*
X157646642Y-123485974D01*
X157600126Y-123471170D01*
X157555150Y-123456824D01*
X157512615Y-123443222D01*
X157473421Y-123430649D01*
X157438469Y-123419389D01*
X157408659Y-123409727D01*
X157378506Y-123399913D01*
X157379855Y-123344185D01*
X157381204Y-123288457D01*
X157598472Y-123223692D01*
X157641856Y-123210675D01*
X157682399Y-123198345D01*
X157718999Y-123187048D01*
X157750775Y-123177063D01*
X157776851Y-123168669D01*
X157796349Y-123162144D01*
X157808391Y-123157769D01*
X157812099Y-123155821D01*
X157807587Y-123154100D01*
X157794688Y-123149881D01*
X157774355Y-123143490D01*
X157747512Y-123135209D01*
X157715081Y-123125319D01*
X157677984Y-123114105D01*
X157637144Y-123101849D01*
X157593484Y-123088833D01*
X157378511Y-123024951D01*
X157379857Y-122969243D01*
X157381204Y-122913534D01*
X157690843Y-122814193D01*
X157720017Y-122804837D01*
X157771030Y-122788496D01*
X157818942Y-122773174D01*
X157862998Y-122759109D01*
X157902443Y-122746543D01*
X157936523Y-122735714D01*
X157964481Y-122726863D01*
X157985564Y-122720231D01*
X157999016Y-122716056D01*
X158004082Y-122714580D01*
X158004543Y-122715096D01*
G37*
G36*
X157975128Y-121651218D02*
G01*
X157985965Y-121668166D01*
X157997503Y-121692804D01*
X158006867Y-121719600D01*
X158012490Y-121744636D01*
X158014392Y-121769192D01*
X158011101Y-121810247D01*
X158000358Y-121849876D01*
X157982835Y-121885918D01*
X157959203Y-121916208D01*
X157938978Y-121936611D01*
X157973330Y-121936611D01*
X158007683Y-121936611D01*
X158007683Y-121999018D01*
X158007683Y-122061426D01*
X157693243Y-122061426D01*
X157378803Y-122061426D01*
X157378803Y-121999253D01*
X157378803Y-121937079D01*
X157588830Y-121935645D01*
X157588872Y-121935644D01*
X157641811Y-121935266D01*
X157686060Y-121934842D01*
X157722529Y-121934265D01*
X157752130Y-121933423D01*
X157775772Y-121932206D01*
X157794365Y-121930505D01*
X157808822Y-121928209D01*
X157820050Y-121925208D01*
X157828963Y-121921392D01*
X157836468Y-121916650D01*
X157843478Y-121910874D01*
X157850902Y-121903952D01*
X157860315Y-121893717D01*
X157876230Y-121867134D01*
X157885103Y-121837025D01*
X157886704Y-121805611D01*
X157880802Y-121775114D01*
X157867164Y-121747755D01*
X157864339Y-121743817D01*
X157861500Y-121739123D01*
X157860907Y-121734672D01*
X157863400Y-121729378D01*
X157869814Y-121722156D01*
X157880989Y-121711922D01*
X157897762Y-121697591D01*
X157920971Y-121678077D01*
X157966275Y-121639964D01*
X157975128Y-121651218D01*
G37*
G36*
X158727046Y-125930162D02*
G01*
X158767990Y-125933100D01*
X158804212Y-125937946D01*
X158833387Y-125944701D01*
X158843933Y-125948255D01*
X158885596Y-125968337D01*
X158922520Y-125996024D01*
X158953663Y-126030221D01*
X158977982Y-126069834D01*
X158994434Y-126113768D01*
X158995905Y-126120413D01*
X158998679Y-126140037D01*
X159000611Y-126163774D01*
X159001351Y-126187875D01*
X159000015Y-126221565D01*
X158993080Y-126263591D01*
X158979570Y-126300783D01*
X158958753Y-126334992D01*
X158929895Y-126368065D01*
X158922653Y-126375113D01*
X158890912Y-126401006D01*
X158857037Y-126419873D01*
X158817711Y-126433656D01*
X158812367Y-126434932D01*
X158790893Y-126438136D01*
X158762595Y-126440477D01*
X158729519Y-126441959D01*
X158693712Y-126442587D01*
X158685146Y-126442535D01*
X158657221Y-126442365D01*
X158622092Y-126441298D01*
X158590373Y-126439389D01*
X158564110Y-126436644D01*
X158545350Y-126433066D01*
X158529384Y-126428186D01*
X158495536Y-126413889D01*
X158465124Y-126394323D01*
X158434910Y-126367569D01*
X158407164Y-126335584D01*
X158385467Y-126298884D01*
X158370573Y-126257155D01*
X158367809Y-126244334D01*
X158364399Y-126214229D01*
X158363793Y-126187226D01*
X158489747Y-126187226D01*
X158493388Y-126219394D01*
X158504626Y-126248915D01*
X158522951Y-126274493D01*
X158547854Y-126294834D01*
X158578826Y-126308643D01*
X158579900Y-126308953D01*
X158598353Y-126312423D01*
X158623601Y-126314884D01*
X158653311Y-126316337D01*
X158685146Y-126316784D01*
X158716773Y-126316225D01*
X158745855Y-126314662D01*
X158770058Y-126312096D01*
X158787048Y-126308529D01*
X158813948Y-126297191D01*
X158840388Y-126277944D01*
X158859205Y-126252885D01*
X158870455Y-126221937D01*
X158874192Y-126185018D01*
X158874101Y-126175957D01*
X158872687Y-126156430D01*
X158868908Y-126140825D01*
X158861928Y-126125054D01*
X158859660Y-126120902D01*
X158840878Y-126096632D01*
X158816230Y-126076857D01*
X158788779Y-126064128D01*
X158777565Y-126061950D01*
X158757218Y-126059969D01*
X158731273Y-126058640D01*
X158701888Y-126057960D01*
X158671223Y-126057929D01*
X158641438Y-126058545D01*
X158614692Y-126059807D01*
X158593144Y-126061714D01*
X158578955Y-126064263D01*
X158549199Y-126076745D01*
X158524193Y-126096436D01*
X158505838Y-126122932D01*
X158494210Y-126153705D01*
X158489747Y-126187226D01*
X158363793Y-126187226D01*
X158363647Y-126180735D01*
X158365565Y-126147718D01*
X158370165Y-126119046D01*
X158381069Y-126084177D01*
X158400839Y-126046399D01*
X158428947Y-126011464D01*
X158460027Y-125982750D01*
X158494336Y-125960023D01*
X158531254Y-125944650D01*
X158532998Y-125944119D01*
X158562625Y-125937507D01*
X158599171Y-125932805D01*
X158640309Y-125930014D01*
X158683710Y-125929133D01*
X158727046Y-125930162D01*
G37*
G36*
X158719372Y-124722143D02*
G01*
X158739469Y-124722753D01*
X158767157Y-124723951D01*
X158788231Y-124725533D01*
X158804576Y-124727712D01*
X158818072Y-124730701D01*
X158830603Y-124734712D01*
X158869286Y-124751688D01*
X158909749Y-124778025D01*
X158943157Y-124810814D01*
X158969746Y-124850295D01*
X158989748Y-124896705D01*
X158990743Y-124899680D01*
X158996007Y-124916679D01*
X158999272Y-124931283D01*
X159000879Y-124946486D01*
X159001173Y-124965281D01*
X159000493Y-124990662D01*
X158999827Y-125008014D01*
X158998603Y-125027616D01*
X158996511Y-125042453D01*
X158992891Y-125055413D01*
X158987084Y-125069384D01*
X158978430Y-125087254D01*
X158974688Y-125094552D01*
X158949501Y-125133489D01*
X158918539Y-125165836D01*
X158881352Y-125191856D01*
X158837488Y-125211815D01*
X158786497Y-125225979D01*
X158737218Y-125233242D01*
X158727929Y-125234611D01*
X158717917Y-125235476D01*
X158657522Y-125236783D01*
X158600687Y-125231277D01*
X158548265Y-125219209D01*
X158501109Y-125200830D01*
X158460072Y-125176389D01*
X158426008Y-125146136D01*
X158421619Y-125141064D01*
X158404734Y-125116892D01*
X158389025Y-125087887D01*
X158376338Y-125057773D01*
X158368522Y-125030272D01*
X158367954Y-125027115D01*
X158364990Y-125000950D01*
X158363766Y-124970172D01*
X158364244Y-124938301D01*
X158366384Y-124908859D01*
X158370148Y-124885365D01*
X158373264Y-124873659D01*
X158388548Y-124833895D01*
X158409871Y-124795501D01*
X158435119Y-124762481D01*
X158437558Y-124759830D01*
X158449494Y-124747406D01*
X158458722Y-124738666D01*
X158463416Y-124735363D01*
X158467690Y-124738826D01*
X158476739Y-124748262D01*
X158489234Y-124762229D01*
X158503849Y-124779286D01*
X158515077Y-124792711D01*
X158526833Y-124807292D01*
X158533713Y-124817131D01*
X158536538Y-124823739D01*
X158536134Y-124828623D01*
X158533322Y-124833293D01*
X158512215Y-124863983D01*
X158497192Y-124891645D01*
X158488017Y-124917822D01*
X158483884Y-124944830D01*
X158483986Y-124974985D01*
X158486628Y-124997422D01*
X158497220Y-125032456D01*
X158515106Y-125061362D01*
X158539967Y-125083803D01*
X158571484Y-125099439D01*
X158609338Y-125107933D01*
X158636562Y-125111132D01*
X158636562Y-125111068D01*
X158737218Y-125111068D01*
X158762304Y-125107740D01*
X158796021Y-125099834D01*
X158826575Y-125085379D01*
X158850615Y-125065501D01*
X158860758Y-125053290D01*
X158873266Y-125032107D01*
X158879933Y-125008554D01*
X158881959Y-124979334D01*
X158879352Y-124950704D01*
X158868736Y-124918818D01*
X158850527Y-124892123D01*
X158825349Y-124871264D01*
X158793824Y-124856888D01*
X158756577Y-124849639D01*
X158739775Y-124848177D01*
X158738496Y-124979623D01*
X158737218Y-125111068D01*
X158636562Y-125111068D01*
X158636562Y-124915502D01*
X158636562Y-124719872D01*
X158719372Y-124722143D01*
G37*
G36*
X158593903Y-123242490D02*
G01*
X158627023Y-123249532D01*
X158655591Y-123262267D01*
X158681749Y-123281415D01*
X158697413Y-123296629D01*
X158711588Y-123314663D01*
X158722738Y-123335173D01*
X158731353Y-123359580D01*
X158737924Y-123389307D01*
X158742941Y-123425774D01*
X158746893Y-123470404D01*
X158747560Y-123479382D01*
X158750347Y-123511788D01*
X158753352Y-123536498D01*
X158756939Y-123555052D01*
X158761468Y-123568988D01*
X158767301Y-123579844D01*
X158774799Y-123589159D01*
X158774926Y-123589295D01*
X158792590Y-123601903D01*
X158813350Y-123605439D01*
X158837120Y-123599887D01*
X158854155Y-123590404D01*
X158867149Y-123576120D01*
X158875761Y-123556194D01*
X158880492Y-123529455D01*
X158881839Y-123494730D01*
X158880808Y-123470607D01*
X158875400Y-123437139D01*
X158864554Y-123404038D01*
X158847363Y-123367974D01*
X158844371Y-123362271D01*
X158836726Y-123346495D01*
X158831917Y-123334651D01*
X158830881Y-123328956D01*
X158834749Y-123324734D01*
X158844428Y-123315836D01*
X158857909Y-123304132D01*
X158873353Y-123291143D01*
X158888925Y-123278391D01*
X158902785Y-123267398D01*
X158913097Y-123259686D01*
X158918024Y-123256777D01*
X158919934Y-123257589D01*
X158926839Y-123264705D01*
X158936334Y-123277560D01*
X158947185Y-123294206D01*
X158958157Y-123312697D01*
X158968016Y-123331087D01*
X158975527Y-123347429D01*
X158982753Y-123366885D01*
X158993346Y-123406101D01*
X158999372Y-123448522D01*
X159001324Y-123496999D01*
X158999546Y-123542074D01*
X158993357Y-123582345D01*
X158982201Y-123617135D01*
X158965531Y-123648129D01*
X158942799Y-123677012D01*
X158934989Y-123684969D01*
X158913500Y-123702866D01*
X158891907Y-123716222D01*
X158891041Y-123716646D01*
X158878074Y-123722536D01*
X158866383Y-123726325D01*
X158853250Y-123728468D01*
X158835956Y-123729420D01*
X158811784Y-123729636D01*
X158781039Y-123728727D01*
X158755195Y-123725245D01*
X158733852Y-123718350D01*
X158714472Y-123707205D01*
X158694516Y-123690974D01*
X158689145Y-123685990D01*
X158674110Y-123669946D01*
X158661955Y-123652661D01*
X158652195Y-123632743D01*
X158644341Y-123608798D01*
X158637907Y-123579432D01*
X158632405Y-123543252D01*
X158627348Y-123498865D01*
X158624505Y-123472363D01*
X158620615Y-123442008D01*
X158616548Y-123418989D01*
X158611918Y-123401984D01*
X158606337Y-123389671D01*
X158599419Y-123380728D01*
X158590778Y-123373834D01*
X158589569Y-123373088D01*
X158573148Y-123368042D01*
X158553209Y-123368158D01*
X158533639Y-123372993D01*
X158518323Y-123382103D01*
X158503603Y-123399116D01*
X158493439Y-123419385D01*
X158487182Y-123444870D01*
X158484103Y-123477605D01*
X158484013Y-123479653D01*
X158485835Y-123531593D01*
X158495902Y-123578857D01*
X158514362Y-123621918D01*
X158541362Y-123661250D01*
X158560361Y-123684075D01*
X158520536Y-123727258D01*
X158519977Y-123727864D01*
X158504228Y-123744420D01*
X158490494Y-123757956D01*
X158480234Y-123767090D01*
X158474907Y-123770442D01*
X158468691Y-123766625D01*
X158458861Y-123756260D01*
X158446727Y-123741065D01*
X158433587Y-123722759D01*
X158420737Y-123703063D01*
X158409474Y-123683694D01*
X158408561Y-123681993D01*
X158391906Y-123647884D01*
X158379750Y-123615145D01*
X158370090Y-123578417D01*
X158366926Y-123560073D01*
X158364220Y-123525861D01*
X158364178Y-123488020D01*
X158366656Y-123449800D01*
X158371512Y-123414451D01*
X158378601Y-123385222D01*
X158379705Y-123381884D01*
X158398276Y-123338286D01*
X158422158Y-123302481D01*
X158451680Y-123274068D01*
X158487167Y-123252649D01*
X158492718Y-123250116D01*
X158506377Y-123244883D01*
X158519956Y-123241886D01*
X158536673Y-123240584D01*
X158559752Y-123240435D01*
X158593903Y-123242490D01*
G37*
G36*
X158731190Y-122654925D02*
G01*
X158771667Y-122656925D01*
X158805452Y-122660817D01*
X158834032Y-122667031D01*
X158858895Y-122675999D01*
X158881528Y-122688153D01*
X158903419Y-122703923D01*
X158926055Y-122723742D01*
X158951961Y-122751880D01*
X158976849Y-122791103D01*
X158994271Y-122836039D01*
X158998414Y-122857793D01*
X159000593Y-122886341D01*
X159000725Y-122917960D01*
X158998895Y-122949521D01*
X158995192Y-122977892D01*
X158989702Y-122999945D01*
X158987889Y-123004755D01*
X158974194Y-123032736D01*
X158955655Y-123061600D01*
X158934658Y-123087947D01*
X158913590Y-123108377D01*
X158893096Y-123123536D01*
X158867917Y-123138221D01*
X158840737Y-123149395D01*
X158810064Y-123157434D01*
X158774406Y-123162713D01*
X158732271Y-123165605D01*
X158682168Y-123166486D01*
X158653374Y-123166241D01*
X158607954Y-123164380D01*
X158569771Y-123160317D01*
X158537377Y-123153611D01*
X158509330Y-123143820D01*
X158484184Y-123130503D01*
X158460493Y-123113218D01*
X158436814Y-123091524D01*
X158424695Y-123078919D01*
X158399752Y-123047519D01*
X158382126Y-123015158D01*
X158370392Y-122979433D01*
X158369928Y-122977425D01*
X158366723Y-122958002D01*
X158364362Y-122934282D01*
X158363327Y-122910942D01*
X158363351Y-122905846D01*
X158490042Y-122905846D01*
X158492707Y-122937761D01*
X158502101Y-122967535D01*
X158517792Y-122993242D01*
X158539345Y-123012955D01*
X158551774Y-123020674D01*
X158565245Y-123027347D01*
X158579734Y-123032120D01*
X158596955Y-123035301D01*
X158618624Y-123037192D01*
X158646457Y-123038099D01*
X158682168Y-123038326D01*
X158717629Y-123038071D01*
X158747062Y-123037082D01*
X158770032Y-123035059D01*
X158788140Y-123031699D01*
X158802990Y-123026699D01*
X158816183Y-123019757D01*
X158829322Y-123010571D01*
X158840987Y-123000512D01*
X158859663Y-122976032D01*
X158870591Y-122946519D01*
X158874092Y-122911262D01*
X158873785Y-122900582D01*
X158867892Y-122865114D01*
X158854539Y-122835639D01*
X158833759Y-122812216D01*
X158805586Y-122794902D01*
X158798001Y-122791971D01*
X158773330Y-122785834D01*
X158742459Y-122781488D01*
X158707711Y-122778995D01*
X158671411Y-122778416D01*
X158635881Y-122779814D01*
X158603445Y-122783251D01*
X158576425Y-122788788D01*
X158568685Y-122791328D01*
X158542059Y-122805626D01*
X158519132Y-122826265D01*
X158502799Y-122850806D01*
X158494542Y-122873715D01*
X158490042Y-122905846D01*
X158363351Y-122905846D01*
X158363375Y-122900630D01*
X158368296Y-122851454D01*
X158381212Y-122807247D01*
X158402366Y-122767374D01*
X158432001Y-122731202D01*
X158435048Y-122728128D01*
X158457427Y-122707398D01*
X158479640Y-122690792D01*
X158503072Y-122677892D01*
X158529107Y-122668281D01*
X158559130Y-122661541D01*
X158594524Y-122657257D01*
X158636676Y-122655010D01*
X158686968Y-122654384D01*
X158731190Y-122654925D01*
G37*
G36*
X158996607Y-122106997D02*
G01*
X158996607Y-122171840D01*
X158796182Y-122171867D01*
X158789842Y-122171870D01*
X158742982Y-122172018D01*
X158700141Y-122172377D01*
X158662250Y-122172925D01*
X158630240Y-122173642D01*
X158605039Y-122174508D01*
X158587579Y-122175504D01*
X158578789Y-122176608D01*
X158550107Y-122188704D01*
X158524121Y-122208726D01*
X158504728Y-122234597D01*
X158499687Y-122245073D01*
X158491294Y-122275640D01*
X158490515Y-122307348D01*
X158497000Y-122338080D01*
X158510393Y-122365719D01*
X158530343Y-122388146D01*
X158533942Y-122391079D01*
X158542131Y-122397177D01*
X158550668Y-122402223D01*
X158560479Y-122406316D01*
X158572489Y-122409555D01*
X158587623Y-122412039D01*
X158606807Y-122413869D01*
X158630966Y-122415143D01*
X158661024Y-122415960D01*
X158697908Y-122416421D01*
X158742543Y-122416625D01*
X158795853Y-122416671D01*
X158996607Y-122416671D01*
X158996607Y-122481479D01*
X158996607Y-122546287D01*
X158779380Y-122546204D01*
X158745551Y-122546173D01*
X158693722Y-122546004D01*
X158650048Y-122545618D01*
X158613610Y-122544934D01*
X158583490Y-122543869D01*
X158558770Y-122542343D01*
X158538531Y-122540273D01*
X158521855Y-122537578D01*
X158507823Y-122534177D01*
X158495518Y-122529987D01*
X158484021Y-122524927D01*
X158472413Y-122518915D01*
X158451845Y-122506115D01*
X158418789Y-122476992D01*
X158392182Y-122441090D01*
X158372575Y-122399070D01*
X158367988Y-122384410D01*
X158365028Y-122368573D01*
X158364017Y-122350065D01*
X158364583Y-122325460D01*
X158364863Y-122319753D01*
X158369073Y-122282328D01*
X158377707Y-122251183D01*
X158391641Y-122223950D01*
X158411754Y-122198260D01*
X158435900Y-122171840D01*
X158401675Y-122171840D01*
X158367449Y-122171840D01*
X158368789Y-122108232D01*
X158370128Y-122044624D01*
X158683368Y-122043389D01*
X158996607Y-122042154D01*
X158996607Y-122106997D01*
G37*
G36*
X158512657Y-121037143D02*
G01*
X158554373Y-121084198D01*
X158535242Y-121103521D01*
X158527602Y-121112109D01*
X158514035Y-121130632D01*
X158503127Y-121149279D01*
X158502789Y-121149968D01*
X158496230Y-121164881D01*
X158492466Y-121178538D01*
X158490826Y-121194548D01*
X158490640Y-121216520D01*
X158493381Y-121251675D01*
X158501435Y-121281270D01*
X158515645Y-121306491D01*
X158536865Y-121329426D01*
X158556795Y-121344856D01*
X158580526Y-121357168D01*
X158608142Y-121365329D01*
X158641427Y-121369853D01*
X158682168Y-121371253D01*
X158700335Y-121370953D01*
X158745598Y-121366790D01*
X158783274Y-121357467D01*
X158813944Y-121342645D01*
X158838184Y-121321988D01*
X158856572Y-121295158D01*
X158869687Y-121261817D01*
X158872308Y-121251564D01*
X158875990Y-121213404D01*
X158870455Y-121175507D01*
X158855953Y-121138943D01*
X158832736Y-121104783D01*
X158813405Y-121081857D01*
X158828993Y-121063978D01*
X158829099Y-121063857D01*
X158840398Y-121051026D01*
X158854977Y-121034638D01*
X158869706Y-121018209D01*
X158894831Y-120990320D01*
X158920516Y-121016655D01*
X158935562Y-121032987D01*
X158963441Y-121070743D01*
X158983042Y-121110695D01*
X158995113Y-121154602D01*
X159000404Y-121204221D01*
X159000930Y-121223893D01*
X158999881Y-121257253D01*
X158995558Y-121286367D01*
X158987349Y-121314590D01*
X158974640Y-121345279D01*
X158971640Y-121351453D01*
X158951767Y-121382793D01*
X158925580Y-121413094D01*
X158895619Y-121439714D01*
X158864422Y-121460010D01*
X158853313Y-121465650D01*
X158824165Y-121478264D01*
X158794777Y-121487258D01*
X158762848Y-121493100D01*
X158726079Y-121496262D01*
X158682168Y-121497211D01*
X158665023Y-121497089D01*
X158623918Y-121495370D01*
X158589134Y-121491258D01*
X158558392Y-121484283D01*
X158529412Y-121473980D01*
X158499913Y-121459882D01*
X158471118Y-121441554D01*
X158437165Y-121411020D01*
X158408164Y-121374443D01*
X158385505Y-121333643D01*
X158370579Y-121290444D01*
X158369087Y-121283636D01*
X158364888Y-121251619D01*
X158363687Y-121215796D01*
X158365491Y-121180436D01*
X158370308Y-121149806D01*
X158375227Y-121132400D01*
X158391763Y-121092895D01*
X158414658Y-121054528D01*
X158442137Y-121020493D01*
X158470941Y-120990088D01*
X158512657Y-121037143D01*
G37*
G36*
X158713152Y-120443639D02*
G01*
X158744771Y-120444238D01*
X158769955Y-120445863D01*
X158791293Y-120448746D01*
X158811374Y-120453119D01*
X158823596Y-120456509D01*
X158869747Y-120474889D01*
X158909513Y-120500436D01*
X158942819Y-120533077D01*
X158969589Y-120572744D01*
X158989748Y-120619366D01*
X158990743Y-120622341D01*
X158996007Y-120639340D01*
X158999272Y-120653944D01*
X159000879Y-120669147D01*
X159001173Y-120687942D01*
X159000493Y-120713323D01*
X158999827Y-120730676D01*
X158998603Y-120750277D01*
X158996511Y-120765114D01*
X158992891Y-120778074D01*
X158987084Y-120792045D01*
X158978430Y-120809915D01*
X158973369Y-120819677D01*
X158948293Y-120857752D01*
X158917625Y-120889363D01*
X158880832Y-120914823D01*
X158837378Y-120934449D01*
X158786729Y-120948556D01*
X158737218Y-120956106D01*
X158728351Y-120957458D01*
X158713588Y-120958764D01*
X158654829Y-120959732D01*
X158599067Y-120953923D01*
X158547304Y-120941632D01*
X158500539Y-120923152D01*
X158459774Y-120898776D01*
X158426008Y-120868797D01*
X158421619Y-120863725D01*
X158404734Y-120839553D01*
X158389025Y-120810548D01*
X158376338Y-120780434D01*
X158368522Y-120752933D01*
X158367954Y-120749776D01*
X158364990Y-120723611D01*
X158363766Y-120692833D01*
X158364244Y-120660962D01*
X158366384Y-120631520D01*
X158370148Y-120608026D01*
X158375542Y-120589699D01*
X158384198Y-120566473D01*
X158393780Y-120545133D01*
X158399420Y-120534930D01*
X158410442Y-120517837D01*
X158423235Y-120500238D01*
X158436399Y-120483848D01*
X158448536Y-120470377D01*
X158458246Y-120461537D01*
X158464131Y-120459041D01*
X158464545Y-120459275D01*
X158469942Y-120464400D01*
X158479553Y-120474752D01*
X158491856Y-120488566D01*
X158505331Y-120504077D01*
X158518459Y-120519519D01*
X158529718Y-120533126D01*
X158537588Y-120543133D01*
X158540550Y-120547775D01*
X158539741Y-120549532D01*
X158534303Y-120556987D01*
X158525433Y-120567585D01*
X158518902Y-120575920D01*
X158507551Y-120593345D01*
X158497830Y-120611425D01*
X158494733Y-120618265D01*
X158489861Y-120631481D01*
X158487012Y-120645156D01*
X158485677Y-120662332D01*
X158485346Y-120686053D01*
X158485465Y-120702811D01*
X158486298Y-120721008D01*
X158488375Y-120734462D01*
X158492208Y-120746047D01*
X158498312Y-120758637D01*
X158515610Y-120784094D01*
X158541691Y-120807211D01*
X158573569Y-120823045D01*
X158610519Y-120831127D01*
X158636562Y-120833815D01*
X158636562Y-120833729D01*
X158737218Y-120833729D01*
X158762304Y-120830401D01*
X158796021Y-120822495D01*
X158826575Y-120808040D01*
X158850615Y-120788162D01*
X158860758Y-120775951D01*
X158873266Y-120754768D01*
X158879933Y-120731215D01*
X158881959Y-120701995D01*
X158879352Y-120673366D01*
X158868736Y-120641479D01*
X158850527Y-120614784D01*
X158825349Y-120593926D01*
X158793824Y-120579549D01*
X158756577Y-120572300D01*
X158739775Y-120570839D01*
X158738496Y-120702284D01*
X158737218Y-120833729D01*
X158636562Y-120833729D01*
X158636562Y-120638719D01*
X158636562Y-120443622D01*
X158705403Y-120443622D01*
X158713152Y-120443639D01*
G37*
G36*
X158666080Y-124112119D02*
G01*
X158709675Y-124112400D01*
X158747473Y-124112934D01*
X158778525Y-124113706D01*
X158801879Y-124114701D01*
X158816585Y-124115907D01*
X158850168Y-124122758D01*
X158891621Y-124139217D01*
X158927961Y-124163507D01*
X158958492Y-124195133D01*
X158982516Y-124233599D01*
X158988174Y-124245313D01*
X158993324Y-124257564D01*
X158996514Y-124269047D01*
X158998212Y-124282354D01*
X158998887Y-124300078D01*
X158999008Y-124324811D01*
X158999006Y-124327585D01*
X158998742Y-124352537D01*
X158997777Y-124370634D01*
X158995755Y-124384383D01*
X158992322Y-124396291D01*
X158987124Y-124408864D01*
X158980399Y-124421958D01*
X158967886Y-124442306D01*
X158954664Y-124460471D01*
X158934089Y-124485732D01*
X158965348Y-124485732D01*
X158996607Y-124485732D01*
X158996607Y-124550540D01*
X158996607Y-124615348D01*
X158685368Y-124615348D01*
X158666570Y-124615342D01*
X158613653Y-124615258D01*
X158563860Y-124615083D01*
X158518001Y-124614825D01*
X158476885Y-124614492D01*
X158441322Y-124614093D01*
X158412121Y-124613637D01*
X158390093Y-124613132D01*
X158376047Y-124612588D01*
X158370792Y-124612011D01*
X158370669Y-124611845D01*
X158369535Y-124605236D01*
X158368804Y-124591160D01*
X158368536Y-124571566D01*
X158368792Y-124548403D01*
X158370128Y-124488132D01*
X158578955Y-124485732D01*
X158631067Y-124485123D01*
X158674564Y-124484527D01*
X158710319Y-124483831D01*
X158739263Y-124482925D01*
X158762326Y-124481696D01*
X158780437Y-124480032D01*
X158794526Y-124477822D01*
X158805524Y-124474953D01*
X158814360Y-124471313D01*
X158821964Y-124466791D01*
X158829267Y-124461274D01*
X158837198Y-124454651D01*
X158850300Y-124441884D01*
X158864030Y-124420793D01*
X158871689Y-124395290D01*
X158874109Y-124363316D01*
X158873705Y-124342518D01*
X158871872Y-124327684D01*
X158867851Y-124315436D01*
X158860883Y-124302271D01*
X158855924Y-124294605D01*
X158843435Y-124278908D01*
X158831096Y-124267062D01*
X158828292Y-124264948D01*
X158820066Y-124259228D01*
X158811556Y-124254493D01*
X158801831Y-124250650D01*
X158789957Y-124247607D01*
X158775005Y-124245271D01*
X158756041Y-124243549D01*
X158732135Y-124242348D01*
X158702355Y-124241576D01*
X158665768Y-124241139D01*
X158621444Y-124240945D01*
X158568451Y-124240901D01*
X158367449Y-124240901D01*
X158368789Y-124177293D01*
X158370128Y-124113685D01*
X158574154Y-124112305D01*
X158617640Y-124112103D01*
X158666080Y-124112119D01*
G37*
G36*
X158958890Y-121491065D02*
G01*
X158965989Y-121498190D01*
X158973769Y-121512215D01*
X158983951Y-121533360D01*
X158987047Y-121539858D01*
X158992602Y-121552773D01*
X158996107Y-121564534D01*
X158998031Y-121577828D01*
X158998841Y-121595344D01*
X158999008Y-121619771D01*
X158998987Y-121630708D01*
X158998608Y-121652055D01*
X158997384Y-121667620D01*
X158994845Y-121680118D01*
X158990521Y-121692264D01*
X158983942Y-121706774D01*
X158974819Y-121723935D01*
X158962543Y-121743346D01*
X158950980Y-121758380D01*
X158933082Y-121778191D01*
X158964845Y-121778191D01*
X158996607Y-121778191D01*
X158996607Y-121842999D01*
X158996607Y-121907807D01*
X158682028Y-121907807D01*
X158367449Y-121907807D01*
X158368789Y-121844199D01*
X158370128Y-121780591D01*
X158581355Y-121778191D01*
X158595739Y-121778028D01*
X158646353Y-121777435D01*
X158688508Y-121776819D01*
X158723112Y-121776057D01*
X158751074Y-121775022D01*
X158773303Y-121773589D01*
X158790708Y-121771634D01*
X158804197Y-121769030D01*
X158814679Y-121765653D01*
X158823062Y-121761377D01*
X158830257Y-121756078D01*
X158837171Y-121749629D01*
X158844713Y-121741907D01*
X158844728Y-121741892D01*
X158862032Y-121717522D01*
X158872410Y-121688577D01*
X158875624Y-121657370D01*
X158871436Y-121626214D01*
X158859606Y-121597421D01*
X158857465Y-121593722D01*
X158851405Y-121581720D01*
X158850198Y-121574498D01*
X158853282Y-121569569D01*
X158853616Y-121569266D01*
X158860341Y-121563413D01*
X158872596Y-121552916D01*
X158888753Y-121539167D01*
X158907182Y-121523557D01*
X158924476Y-121508891D01*
X158939854Y-121496635D01*
X158950752Y-121490620D01*
X158958890Y-121491065D01*
G37*
G36*
X161664518Y-121121708D02*
G01*
X161664692Y-121121901D01*
X161667056Y-121125652D01*
X161669690Y-121132159D01*
X161672734Y-121142093D01*
X161676331Y-121156123D01*
X161680624Y-121174917D01*
X161685754Y-121199147D01*
X161691864Y-121229480D01*
X161699095Y-121266587D01*
X161707589Y-121311137D01*
X161717489Y-121363800D01*
X161728937Y-121425244D01*
X161735575Y-121460911D01*
X161746304Y-121518172D01*
X161755566Y-121566968D01*
X161763496Y-121607936D01*
X161770226Y-121641712D01*
X161775891Y-121668932D01*
X161780625Y-121690232D01*
X161784563Y-121706248D01*
X161787837Y-121717617D01*
X161790583Y-121724974D01*
X161792934Y-121728957D01*
X161795428Y-121730838D01*
X161806264Y-121736829D01*
X161824334Y-121745754D01*
X161848575Y-121757156D01*
X161877922Y-121770575D01*
X161911313Y-121785554D01*
X161947684Y-121801634D01*
X161985972Y-121818358D01*
X162025113Y-121835266D01*
X162064046Y-121851901D01*
X162101705Y-121867805D01*
X162137028Y-121882519D01*
X162168952Y-121895586D01*
X162196413Y-121906546D01*
X162218348Y-121914942D01*
X162233694Y-121920316D01*
X162241388Y-121922209D01*
X162241499Y-121922207D01*
X162247234Y-121920289D01*
X162258011Y-121914624D01*
X162274177Y-121904985D01*
X162296082Y-121891146D01*
X162324073Y-121872879D01*
X162358497Y-121849957D01*
X162399704Y-121822154D01*
X162448039Y-121789242D01*
X162503853Y-121750994D01*
X162509494Y-121747120D01*
X162553841Y-121716795D01*
X162595873Y-121688268D01*
X162634896Y-121662000D01*
X162670212Y-121638449D01*
X162701124Y-121618077D01*
X162726936Y-121601341D01*
X162746950Y-121588702D01*
X162760471Y-121580618D01*
X162766802Y-121577551D01*
X162769050Y-121577416D01*
X162772691Y-121578174D01*
X162777427Y-121580464D01*
X162783774Y-121584766D01*
X162792247Y-121591561D01*
X162803361Y-121601327D01*
X162817633Y-121614545D01*
X162835577Y-121631696D01*
X162857709Y-121653258D01*
X162884545Y-121679713D01*
X162916601Y-121711540D01*
X162954391Y-121749219D01*
X162998431Y-121793230D01*
X163027860Y-121822687D01*
X163069381Y-121864373D01*
X163104736Y-121900065D01*
X163134347Y-121930209D01*
X163158638Y-121955251D01*
X163178031Y-121975638D01*
X163192950Y-121991817D01*
X163203817Y-122004235D01*
X163211056Y-122013338D01*
X163215088Y-122019574D01*
X163216339Y-122023388D01*
X163213913Y-122029994D01*
X163205893Y-122044473D01*
X163192256Y-122066616D01*
X163172989Y-122096439D01*
X163148084Y-122133958D01*
X163117528Y-122179192D01*
X163081311Y-122232155D01*
X163050134Y-122277529D01*
X163014889Y-122328834D01*
X162984450Y-122373181D01*
X162958464Y-122411107D01*
X162936580Y-122443149D01*
X162918446Y-122469845D01*
X162903709Y-122491733D01*
X162892018Y-122509348D01*
X162883021Y-122523229D01*
X162876365Y-122533913D01*
X162871699Y-122541937D01*
X162868671Y-122547838D01*
X162866928Y-122552154D01*
X162866119Y-122555422D01*
X162865892Y-122558179D01*
X162865895Y-122560962D01*
X162865930Y-122561553D01*
X162868244Y-122570590D01*
X162873847Y-122587171D01*
X162882287Y-122610196D01*
X162893114Y-122638565D01*
X162905874Y-122671181D01*
X162920116Y-122706942D01*
X162935388Y-122744751D01*
X162951239Y-122783508D01*
X162967216Y-122822113D01*
X162982867Y-122859468D01*
X162997741Y-122894474D01*
X163011386Y-122926030D01*
X163023350Y-122953038D01*
X163033181Y-122974399D01*
X163040428Y-122989014D01*
X163044637Y-122995782D01*
X163046080Y-122996998D01*
X163050335Y-122999449D01*
X163057050Y-123002103D01*
X163066926Y-123005107D01*
X163080660Y-123008613D01*
X163098952Y-123012769D01*
X163122501Y-123017725D01*
X163152005Y-123023630D01*
X163188164Y-123030634D01*
X163231676Y-123038888D01*
X163283240Y-123048539D01*
X163343555Y-123059737D01*
X163344563Y-123059924D01*
X163396282Y-123069499D01*
X163445527Y-123078613D01*
X163491429Y-123087105D01*
X163533117Y-123094814D01*
X163569719Y-123101578D01*
X163600364Y-123107238D01*
X163624182Y-123111631D01*
X163640301Y-123114597D01*
X163647851Y-123115975D01*
X163647923Y-123115988D01*
X163661998Y-123120667D01*
X163673054Y-123127818D01*
X163673443Y-123128218D01*
X163675192Y-123130505D01*
X163676685Y-123133847D01*
X163677943Y-123138959D01*
X163678985Y-123146551D01*
X163679832Y-123157336D01*
X163680504Y-123172026D01*
X163681021Y-123191332D01*
X163681403Y-123215968D01*
X163681671Y-123246644D01*
X163681844Y-123284074D01*
X163681943Y-123328968D01*
X163681987Y-123382040D01*
X163681997Y-123444000D01*
X163681996Y-123479791D01*
X163681976Y-123536601D01*
X163681916Y-123584926D01*
X163681793Y-123625479D01*
X163681587Y-123658975D01*
X163681276Y-123686130D01*
X163680838Y-123707658D01*
X163680251Y-123724273D01*
X163679494Y-123736692D01*
X163678545Y-123745627D01*
X163677382Y-123751795D01*
X163675984Y-123755910D01*
X163674330Y-123758687D01*
X163672396Y-123760840D01*
X163664718Y-123767358D01*
X163658454Y-123770442D01*
X163658006Y-123770491D01*
X163650523Y-123771738D01*
X163634601Y-123774555D01*
X163611049Y-123778796D01*
X163580677Y-123784313D01*
X163544293Y-123790957D01*
X163502706Y-123798581D01*
X163456725Y-123807039D01*
X163407158Y-123816181D01*
X163354816Y-123825860D01*
X163344693Y-123827735D01*
X163285469Y-123838718D01*
X163234864Y-123848150D01*
X163192167Y-123856187D01*
X163156666Y-123862986D01*
X163127649Y-123868703D01*
X163104404Y-123873495D01*
X163086218Y-123877518D01*
X163072380Y-123880928D01*
X163062178Y-123883883D01*
X163054900Y-123886537D01*
X163049834Y-123889049D01*
X163046267Y-123891574D01*
X163043487Y-123894269D01*
X163039098Y-123901413D01*
X163031650Y-123916421D01*
X163021643Y-123938137D01*
X163009533Y-123965453D01*
X162995774Y-123997260D01*
X162980823Y-124032449D01*
X162965134Y-124069913D01*
X162949164Y-124108542D01*
X162933367Y-124147229D01*
X162918198Y-124184865D01*
X162904114Y-124220341D01*
X162891569Y-124252550D01*
X162881020Y-124280382D01*
X162872921Y-124302730D01*
X162867727Y-124318484D01*
X162865895Y-124326536D01*
X162866281Y-124330307D01*
X162871037Y-124343684D01*
X162881508Y-124362746D01*
X162898066Y-124388203D01*
X162899592Y-124390438D01*
X162909750Y-124405285D01*
X162924536Y-124426870D01*
X162943286Y-124454226D01*
X162965337Y-124486385D01*
X162990026Y-124522381D01*
X163016690Y-124561245D01*
X163044665Y-124602012D01*
X163073288Y-124643713D01*
X163085533Y-124661574D01*
X163120601Y-124713028D01*
X163150108Y-124756837D01*
X163174113Y-124793094D01*
X163192678Y-124821893D01*
X163205863Y-124843329D01*
X163213730Y-124857494D01*
X163216339Y-124864482D01*
X163215713Y-124867029D01*
X163212603Y-124872455D01*
X163206499Y-124880528D01*
X163196972Y-124891701D01*
X163183594Y-124906427D01*
X163165935Y-124925159D01*
X163143568Y-124948350D01*
X163116062Y-124976454D01*
X163082990Y-125009923D01*
X163043923Y-125049211D01*
X162998431Y-125094771D01*
X162965861Y-125127326D01*
X162926403Y-125166700D01*
X162892821Y-125200088D01*
X162864601Y-125227973D01*
X162841226Y-125250834D01*
X162822181Y-125269150D01*
X162806950Y-125283402D01*
X162795019Y-125294070D01*
X162785871Y-125301634D01*
X162778991Y-125306574D01*
X162773863Y-125309370D01*
X162769972Y-125310502D01*
X162766802Y-125310450D01*
X162766430Y-125310357D01*
X162759168Y-125306641D01*
X162744801Y-125297967D01*
X162724028Y-125284793D01*
X162697544Y-125267580D01*
X162666047Y-125246787D01*
X162630232Y-125222874D01*
X162590797Y-125196300D01*
X162548439Y-125167524D01*
X162503853Y-125137007D01*
X162472512Y-125115496D01*
X162424095Y-125082368D01*
X162382694Y-125054207D01*
X162347774Y-125030664D01*
X162318800Y-125011395D01*
X162295236Y-124996052D01*
X162276546Y-124984288D01*
X162262194Y-124975756D01*
X162251647Y-124970111D01*
X162244367Y-124967006D01*
X162239820Y-124966093D01*
X162239727Y-124966097D01*
X162232198Y-124968131D01*
X162216828Y-124973634D01*
X162194543Y-124982231D01*
X162166266Y-124993547D01*
X162132925Y-125007207D01*
X162095443Y-125022837D01*
X162054746Y-125040061D01*
X162011759Y-125058505D01*
X161989732Y-125068033D01*
X161940350Y-125089532D01*
X161899065Y-125107742D01*
X161865318Y-125122924D01*
X161838551Y-125135342D01*
X161818205Y-125145258D01*
X161803722Y-125152934D01*
X161794542Y-125158633D01*
X161790107Y-125162617D01*
X161789983Y-125162805D01*
X161787123Y-125170406D01*
X161782935Y-125186290D01*
X161777387Y-125210627D01*
X161770442Y-125243588D01*
X161762066Y-125285341D01*
X161752224Y-125336057D01*
X161740881Y-125395905D01*
X161728003Y-125465055D01*
X161717703Y-125520587D01*
X161707703Y-125574039D01*
X161699115Y-125619300D01*
X161691798Y-125657034D01*
X161685612Y-125687907D01*
X161680417Y-125712584D01*
X161676071Y-125731729D01*
X161672436Y-125746008D01*
X161669369Y-125756084D01*
X161666731Y-125762625D01*
X161664381Y-125766293D01*
X161654469Y-125777094D01*
X161348904Y-125777094D01*
X161043338Y-125777094D01*
X161033462Y-125766293D01*
X161031780Y-125763876D01*
X161029200Y-125758074D01*
X161026212Y-125748830D01*
X161022676Y-125735475D01*
X161018449Y-125717343D01*
X161013388Y-125693766D01*
X161007352Y-125664075D01*
X161000199Y-125627603D01*
X160991787Y-125583682D01*
X160981974Y-125531645D01*
X160970617Y-125470823D01*
X160961157Y-125420404D01*
X160951866Y-125371707D01*
X160943080Y-125326468D01*
X160934974Y-125285543D01*
X160927720Y-125249786D01*
X160921493Y-125220054D01*
X160916466Y-125197202D01*
X160912812Y-125182085D01*
X160910705Y-125175558D01*
X160909620Y-125174358D01*
X160903091Y-125169972D01*
X160890826Y-125163580D01*
X160872362Y-125154983D01*
X160847238Y-125143979D01*
X160814988Y-125130369D01*
X160775151Y-125113954D01*
X160727264Y-125094532D01*
X160670863Y-125071903D01*
X160662507Y-125068565D01*
X160611776Y-125048336D01*
X160569086Y-125031409D01*
X160533692Y-125017518D01*
X160504849Y-125006396D01*
X160481812Y-124997779D01*
X160463836Y-124991400D01*
X160450176Y-124986994D01*
X160440086Y-124984296D01*
X160432823Y-124983038D01*
X160427640Y-124982957D01*
X160423793Y-124983785D01*
X160418724Y-124986520D01*
X160406098Y-124994368D01*
X160386962Y-125006756D01*
X160362060Y-125023186D01*
X160332139Y-125043158D01*
X160297944Y-125066176D01*
X160260221Y-125091741D01*
X160219716Y-125119355D01*
X160177175Y-125148520D01*
X160143479Y-125171611D01*
X160101781Y-125199976D01*
X160062986Y-125226133D01*
X160027805Y-125249614D01*
X159996950Y-125269951D01*
X159971131Y-125286675D01*
X159951060Y-125299320D01*
X159937448Y-125307416D01*
X159931005Y-125310496D01*
X159928817Y-125310625D01*
X159925177Y-125309869D01*
X159920440Y-125307579D01*
X159914091Y-125303276D01*
X159905615Y-125296481D01*
X159894496Y-125286712D01*
X159880218Y-125273490D01*
X159862268Y-125256336D01*
X159840128Y-125234768D01*
X159813285Y-125208308D01*
X159781222Y-125176475D01*
X159743424Y-125138789D01*
X159699376Y-125094771D01*
X159667029Y-125062391D01*
X159626010Y-125021199D01*
X159591121Y-124985966D01*
X159561935Y-124956242D01*
X159538026Y-124931576D01*
X159518966Y-124911516D01*
X159504328Y-124895611D01*
X159493687Y-124883411D01*
X159486614Y-124874464D01*
X159482684Y-124868319D01*
X159481468Y-124864526D01*
X159483031Y-124859880D01*
X159489680Y-124847522D01*
X159501600Y-124827905D01*
X159518849Y-124800941D01*
X159541486Y-124766542D01*
X159569566Y-124724620D01*
X159603148Y-124675087D01*
X159642289Y-124617856D01*
X159668413Y-124579733D01*
X159700183Y-124533160D01*
X159726986Y-124493562D01*
X159749151Y-124460432D01*
X159767005Y-124433261D01*
X159780877Y-124411542D01*
X159791096Y-124394767D01*
X159797988Y-124382429D01*
X159801883Y-124374019D01*
X159803109Y-124369031D01*
X159803101Y-124368713D01*
X159800433Y-124358710D01*
X159793114Y-124340927D01*
X159781360Y-124315828D01*
X159765388Y-124283877D01*
X159745414Y-124245535D01*
X159742270Y-124239585D01*
X159723262Y-124202961D01*
X159708442Y-124173186D01*
X159697979Y-124150617D01*
X159692038Y-124135612D01*
X159690788Y-124128531D01*
X159696214Y-124121408D01*
X159706478Y-124114085D01*
X159707170Y-124113758D01*
X159715319Y-124110226D01*
X159731617Y-124103331D01*
X159755483Y-124093313D01*
X159786335Y-124080416D01*
X159823592Y-124064879D01*
X159866674Y-124046946D01*
X159914998Y-124026858D01*
X159967984Y-124004857D01*
X160025052Y-123981185D01*
X160085618Y-123956083D01*
X160149103Y-123929793D01*
X160214925Y-123902557D01*
X160228592Y-123896905D01*
X160308802Y-123863774D01*
X160380600Y-123834196D01*
X160444362Y-123808021D01*
X160500464Y-123785099D01*
X160549284Y-123765280D01*
X160591196Y-123748415D01*
X160626577Y-123734355D01*
X160655804Y-123722949D01*
X160679252Y-123714047D01*
X160697299Y-123707501D01*
X160710320Y-123703160D01*
X160718691Y-123700875D01*
X160722788Y-123700495D01*
X160723011Y-123700554D01*
X160732556Y-123706615D01*
X160745026Y-123720605D01*
X160760831Y-123742980D01*
X160794330Y-123792051D01*
X160831579Y-123841798D01*
X160867886Y-123884585D01*
X160904330Y-123921583D01*
X160941991Y-123953964D01*
X160981950Y-123982901D01*
X160995952Y-123992021D01*
X161062277Y-124029599D01*
X161129453Y-124058123D01*
X161198761Y-124077978D01*
X161271484Y-124089549D01*
X161348904Y-124093221D01*
X161356511Y-124093165D01*
X161434424Y-124087575D01*
X161509445Y-124073212D01*
X161581053Y-124050569D01*
X161648729Y-124020142D01*
X161711955Y-123982426D01*
X161770211Y-123937913D01*
X161822977Y-123887100D01*
X161869735Y-123830481D01*
X161909965Y-123768551D01*
X161943148Y-123701803D01*
X161968765Y-123630733D01*
X161986297Y-123555836D01*
X161995223Y-123477605D01*
X161996052Y-123456861D01*
X161993218Y-123378929D01*
X161981060Y-123302628D01*
X161959760Y-123228501D01*
X161929499Y-123157088D01*
X161890461Y-123088931D01*
X161842828Y-123024571D01*
X161828574Y-123008029D01*
X161773545Y-122953328D01*
X161713002Y-122906239D01*
X161647553Y-122867046D01*
X161577809Y-122836033D01*
X161504380Y-122813483D01*
X161427874Y-122799679D01*
X161348904Y-122794906D01*
X161332096Y-122795040D01*
X161255746Y-122800332D01*
X161183831Y-122813602D01*
X161115076Y-122835231D01*
X161048207Y-122865603D01*
X160981950Y-122905100D01*
X160947768Y-122929544D01*
X160909805Y-122961370D01*
X160873182Y-122997670D01*
X160836823Y-123039609D01*
X160799653Y-123088351D01*
X160760598Y-123145062D01*
X160745189Y-123166859D01*
X160732306Y-123181394D01*
X160722626Y-123187547D01*
X160718664Y-123187164D01*
X160710112Y-123184799D01*
X160696686Y-123180288D01*
X160678027Y-123173486D01*
X160653771Y-123164249D01*
X160623559Y-123152433D01*
X160587028Y-123137895D01*
X160543817Y-123120491D01*
X160493566Y-123100077D01*
X160435912Y-123076509D01*
X160370495Y-123049644D01*
X160296953Y-123019337D01*
X160214925Y-122985444D01*
X160198431Y-122978621D01*
X160133134Y-122951597D01*
X160070318Y-122925579D01*
X160010564Y-122900809D01*
X159954454Y-122877528D01*
X159902568Y-122855978D01*
X159855489Y-122836401D01*
X159813796Y-122819040D01*
X159778072Y-122804135D01*
X159748896Y-122791928D01*
X159726852Y-122782661D01*
X159712519Y-122776577D01*
X159706478Y-122773916D01*
X159697121Y-122767411D01*
X159690750Y-122759371D01*
X159690669Y-122759088D01*
X159692297Y-122751215D01*
X159698694Y-122735342D01*
X159709748Y-122711712D01*
X159725346Y-122680566D01*
X159745376Y-122642147D01*
X159747810Y-122637537D01*
X159767036Y-122600470D01*
X159782434Y-122569503D01*
X159793750Y-122545181D01*
X159800726Y-122528052D01*
X159803109Y-122518662D01*
X159802617Y-122515895D01*
X159799651Y-122508682D01*
X159793723Y-122497598D01*
X159784511Y-122482145D01*
X159771693Y-122461826D01*
X159754950Y-122436146D01*
X159733959Y-122404605D01*
X159708399Y-122366709D01*
X159677949Y-122321959D01*
X159642289Y-122269859D01*
X159618824Y-122235582D01*
X159582431Y-122182073D01*
X159551616Y-122136270D01*
X159526384Y-122098185D01*
X159506746Y-122067831D01*
X159492708Y-122045220D01*
X159484280Y-122030364D01*
X159481468Y-122023277D01*
X159481838Y-122021484D01*
X159484637Y-122016336D01*
X159490534Y-122008435D01*
X159499947Y-121997340D01*
X159513295Y-121982611D01*
X159530993Y-121963807D01*
X159553461Y-121940487D01*
X159581116Y-121912211D01*
X159614375Y-121878536D01*
X159653656Y-121839023D01*
X159699376Y-121793230D01*
X159731240Y-121761380D01*
X159770807Y-121721897D01*
X159804489Y-121688407D01*
X159832801Y-121660429D01*
X159856259Y-121637485D01*
X159875378Y-121619093D01*
X159890673Y-121604773D01*
X159902660Y-121594047D01*
X159911853Y-121586434D01*
X159918769Y-121581453D01*
X159923923Y-121578626D01*
X159927830Y-121577472D01*
X159931005Y-121577511D01*
X159935349Y-121579447D01*
X159947407Y-121586457D01*
X159966080Y-121598118D01*
X159990655Y-121613960D01*
X160020416Y-121633513D01*
X160054652Y-121656308D01*
X160092649Y-121681876D01*
X160133693Y-121709747D01*
X160177071Y-121739451D01*
X160213478Y-121764424D01*
X160254324Y-121792297D01*
X160292500Y-121818194D01*
X160327259Y-121841618D01*
X160357856Y-121862069D01*
X160383544Y-121879049D01*
X160403576Y-121892060D01*
X160417207Y-121900603D01*
X160423690Y-121904180D01*
X160424370Y-121904401D01*
X160428408Y-121905093D01*
X160433882Y-121904839D01*
X160441537Y-121903372D01*
X160452119Y-121900428D01*
X160466375Y-121895741D01*
X160485052Y-121889043D01*
X160508896Y-121880069D01*
X160538652Y-121868554D01*
X160575068Y-121854231D01*
X160618890Y-121836834D01*
X160670863Y-121816098D01*
X160701826Y-121803695D01*
X160756753Y-121781501D01*
X160802973Y-121762534D01*
X160840678Y-121746711D01*
X160870061Y-121733950D01*
X160891315Y-121724167D01*
X160904632Y-121717280D01*
X160910206Y-121713205D01*
X160911779Y-121710670D01*
X160913307Y-121707613D01*
X160914908Y-121703378D01*
X160916721Y-121697278D01*
X160918885Y-121688624D01*
X160921540Y-121676726D01*
X160924824Y-121660896D01*
X160928877Y-121640445D01*
X160933839Y-121614685D01*
X160939847Y-121582927D01*
X160947043Y-121544482D01*
X160955564Y-121498662D01*
X160965551Y-121444778D01*
X160977142Y-121382141D01*
X160978411Y-121375282D01*
X160988748Y-121319702D01*
X160997591Y-121272772D01*
X161005097Y-121233765D01*
X161011422Y-121201957D01*
X161016723Y-121176624D01*
X161021155Y-121157040D01*
X161024876Y-121142482D01*
X161028041Y-121132223D01*
X161030807Y-121125540D01*
X161033330Y-121121708D01*
X161043338Y-121110907D01*
X161348904Y-121110907D01*
X161654469Y-121110907D01*
X161664518Y-121121708D01*
G37*
G36*
X144078354Y-127000001D02*
G01*
X144078354Y-132386906D01*
X142147973Y-132386906D01*
X141478001Y-132386906D01*
X139553782Y-132386906D01*
X138877647Y-132386906D01*
X138877647Y-131523129D01*
X139245451Y-131523129D01*
X139245993Y-131553952D01*
X139247342Y-131576587D01*
X139249570Y-131588724D01*
X139250508Y-131590812D01*
X139254553Y-131598223D01*
X139260010Y-131604219D01*
X139268148Y-131608951D01*
X139280237Y-131612570D01*
X139297547Y-131615229D01*
X139321349Y-131617078D01*
X139352912Y-131618268D01*
X139393506Y-131618952D01*
X139444402Y-131619281D01*
X139506868Y-131619405D01*
X139553782Y-131619426D01*
X139610296Y-131619244D01*
X139656066Y-131618634D01*
X139692324Y-131617392D01*
X139720301Y-131615317D01*
X139741226Y-131612207D01*
X139756331Y-131607859D01*
X139766847Y-131602073D01*
X139774004Y-131594645D01*
X139779034Y-131585373D01*
X139783166Y-131574057D01*
X139784845Y-131567012D01*
X139787206Y-131543980D01*
X139788060Y-131511797D01*
X139787498Y-131472891D01*
X139785611Y-131429690D01*
X139782489Y-131384624D01*
X139778224Y-131340122D01*
X139772904Y-131298610D01*
X139772508Y-131295982D01*
X139757631Y-131230077D01*
X139734579Y-131173979D01*
X139703110Y-131127407D01*
X139662987Y-131090076D01*
X139613968Y-131061705D01*
X139591122Y-131053967D01*
X139555816Y-131042010D01*
X139555011Y-131041812D01*
X139533464Y-131036777D01*
X139517596Y-131034573D01*
X139502924Y-131035455D01*
X139484966Y-131039677D01*
X139459239Y-131047493D01*
X139450744Y-131050250D01*
X139394113Y-131075319D01*
X139346801Y-131109184D01*
X139308697Y-131151967D01*
X139279687Y-131203791D01*
X139259657Y-131264779D01*
X139258212Y-131272025D01*
X139255118Y-131295523D01*
X139252328Y-131326993D01*
X139249914Y-131364128D01*
X139247947Y-131404617D01*
X139246500Y-131446153D01*
X139245644Y-131486427D01*
X139245451Y-131523129D01*
X138877647Y-131523129D01*
X138877647Y-130561047D01*
X139244672Y-130561047D01*
X139244855Y-130606367D01*
X139245298Y-130648048D01*
X139246008Y-130684114D01*
X139246996Y-130712590D01*
X139248271Y-130731501D01*
X139248584Y-130733993D01*
X139253487Y-130751760D01*
X139261009Y-130763604D01*
X139263703Y-130765072D01*
X139272561Y-130767234D01*
X139287748Y-130769025D01*
X139310350Y-130770491D01*
X139341452Y-130771683D01*
X139382139Y-130772647D01*
X139433496Y-130773433D01*
X139496609Y-130774088D01*
X139540244Y-130774394D01*
X139591122Y-130774553D01*
X139637338Y-130774484D01*
X139677257Y-130774200D01*
X139709244Y-130773714D01*
X139731661Y-130773037D01*
X139742875Y-130772183D01*
X139746892Y-130771415D01*
X139757209Y-130768789D01*
X139765516Y-130764627D01*
X139772034Y-130757672D01*
X139776981Y-130746669D01*
X139780576Y-130730362D01*
X139783039Y-130707494D01*
X139784589Y-130676809D01*
X139785444Y-130637051D01*
X139785825Y-130586965D01*
X139785950Y-130525293D01*
X139785964Y-130476543D01*
X139785838Y-130428043D01*
X139785489Y-130389836D01*
X139784850Y-130360526D01*
X139783853Y-130338718D01*
X139782431Y-130323016D01*
X139780514Y-130312022D01*
X139778036Y-130304342D01*
X139774929Y-130298580D01*
X139763605Y-130284857D01*
X139750475Y-130274319D01*
X139744323Y-130271826D01*
X139724369Y-130270643D01*
X139705042Y-130276956D01*
X139692026Y-130289306D01*
X139690893Y-130292683D01*
X139688359Y-130309149D01*
X139685884Y-130337210D01*
X139683523Y-130376004D01*
X139681333Y-130424668D01*
X139679371Y-130482340D01*
X139679181Y-130488727D01*
X139677729Y-130534850D01*
X139676286Y-130576394D01*
X139674920Y-130611706D01*
X139673698Y-130639137D01*
X139672687Y-130657034D01*
X139671957Y-130663746D01*
X139671838Y-130663833D01*
X139664066Y-130665486D01*
X139647176Y-130667716D01*
X139624591Y-130670066D01*
X139618566Y-130670626D01*
X139579339Y-130674272D01*
X139576126Y-130551719D01*
X139575137Y-130518170D01*
X139573294Y-130477022D01*
X139570646Y-130446261D01*
X139566751Y-130424409D01*
X139561169Y-130409986D01*
X139553461Y-130401515D01*
X139543186Y-130397516D01*
X139529904Y-130396512D01*
X139519236Y-130397040D01*
X139500707Y-130402551D01*
X139487936Y-130415484D01*
X139479601Y-130437605D01*
X139474383Y-130470677D01*
X139472820Y-130488699D01*
X139470791Y-130522772D01*
X139469334Y-130560713D01*
X139468691Y-130597157D01*
X139468344Y-130672599D01*
X139411482Y-130672599D01*
X139354620Y-130672599D01*
X139350650Y-130497637D01*
X139349452Y-130450775D01*
X139348079Y-130407150D01*
X139346616Y-130368842D01*
X139345143Y-130337731D01*
X139343738Y-130315700D01*
X139342483Y-130304627D01*
X139335968Y-130290382D01*
X139322766Y-130276410D01*
X139313401Y-130271329D01*
X139300492Y-130269625D01*
X139282107Y-130273774D01*
X139268026Y-130279003D01*
X139256998Y-130288478D01*
X139250330Y-130305201D01*
X139249821Y-130307815D01*
X139248463Y-130323306D01*
X139247296Y-130348985D01*
X139246331Y-130382875D01*
X139245576Y-130423001D01*
X139245042Y-130467389D01*
X139244737Y-130514062D01*
X139244672Y-130561047D01*
X138877647Y-130561047D01*
X138877647Y-130229982D01*
X140037048Y-130229982D01*
X140037066Y-130349645D01*
X140037119Y-130466196D01*
X140037210Y-130578939D01*
X140037338Y-130687176D01*
X140037505Y-130790210D01*
X140037711Y-130887344D01*
X140037958Y-130977882D01*
X140038246Y-131061127D01*
X140038576Y-131136381D01*
X140038948Y-131202948D01*
X140039365Y-131260130D01*
X140039825Y-131307232D01*
X140040331Y-131343555D01*
X140040456Y-131350645D01*
X140041763Y-131412181D01*
X140043314Y-131465556D01*
X140045067Y-131509833D01*
X140046979Y-131544078D01*
X140049008Y-131567354D01*
X140051109Y-131578725D01*
X140061715Y-131592715D01*
X140079451Y-131603831D01*
X140081749Y-131604440D01*
X140089555Y-131605481D01*
X140102498Y-131606458D01*
X140121059Y-131607378D01*
X140145719Y-131608246D01*
X140176959Y-131609067D01*
X140215262Y-131609846D01*
X140261109Y-131610591D01*
X140314981Y-131611305D01*
X140377360Y-131611995D01*
X140448728Y-131612667D01*
X140529566Y-131613325D01*
X140620356Y-131613976D01*
X140721579Y-131614625D01*
X140833718Y-131615277D01*
X140957252Y-131615939D01*
X141092665Y-131616616D01*
X141240437Y-131617313D01*
X141241391Y-131617317D01*
X141439171Y-131618150D01*
X141628990Y-131618797D01*
X141810577Y-131619257D01*
X141983662Y-131619535D01*
X142147973Y-131619631D01*
X142303240Y-131619547D01*
X142449190Y-131619285D01*
X142585554Y-131618847D01*
X142712059Y-131618235D01*
X142828436Y-131617451D01*
X142934412Y-131616495D01*
X143029716Y-131615371D01*
X143114078Y-131614080D01*
X143187227Y-131612624D01*
X143248890Y-131611005D01*
X143298798Y-131609224D01*
X143336679Y-131607284D01*
X143362261Y-131605185D01*
X143375275Y-131602931D01*
X143379927Y-131601561D01*
X143384790Y-131600479D01*
X143389236Y-131599385D01*
X143393285Y-131597744D01*
X143396957Y-131595022D01*
X143400272Y-131590683D01*
X143403249Y-131584193D01*
X143405908Y-131575018D01*
X143408270Y-131562624D01*
X143410353Y-131546475D01*
X143412177Y-131526037D01*
X143413763Y-131500776D01*
X143415130Y-131470158D01*
X143416298Y-131433647D01*
X143417287Y-131390709D01*
X143418116Y-131340809D01*
X143418806Y-131283414D01*
X143419376Y-131217989D01*
X143419845Y-131143998D01*
X143420235Y-131060908D01*
X143420564Y-130968184D01*
X143420852Y-130865291D01*
X143421119Y-130751696D01*
X143421385Y-130626863D01*
X143421670Y-130490258D01*
X143421993Y-130341346D01*
X143424695Y-129140097D01*
X143373692Y-129137184D01*
X143351824Y-129135935D01*
X143327359Y-129134291D01*
X143277495Y-129128690D01*
X143234779Y-129119878D01*
X143195322Y-129106925D01*
X143155232Y-129088900D01*
X143093075Y-129050827D01*
X143037967Y-129002768D01*
X142991101Y-128946136D01*
X142953360Y-128882191D01*
X142925628Y-128812193D01*
X142908788Y-128737403D01*
X142905979Y-128711991D01*
X142906847Y-128656534D01*
X143022303Y-128656534D01*
X143022776Y-128721446D01*
X143035855Y-128784414D01*
X143061445Y-128844938D01*
X143099450Y-128902519D01*
X143116748Y-128922595D01*
X143163187Y-128962841D01*
X143217018Y-128992894D01*
X143277519Y-129012406D01*
X143343966Y-129021024D01*
X143373692Y-129021341D01*
X143438435Y-129014099D01*
X143497382Y-128995527D01*
X143551065Y-128965422D01*
X143600018Y-128923581D01*
X143620298Y-128901016D01*
X143656268Y-128848104D01*
X143681236Y-128791051D01*
X143695203Y-128731393D01*
X143698169Y-128670668D01*
X143690133Y-128610415D01*
X143671096Y-128552172D01*
X143641057Y-128497476D01*
X143600017Y-128447865D01*
X143563224Y-128416104D01*
X143509538Y-128383412D01*
X143451266Y-128361038D01*
X143390280Y-128349303D01*
X143328453Y-128348525D01*
X143267659Y-128359027D01*
X143209769Y-128381128D01*
X143181804Y-128397069D01*
X143134227Y-128433677D01*
X143092906Y-128477888D01*
X143060036Y-128527174D01*
X143037812Y-128579011D01*
X143034532Y-128590177D01*
X143022303Y-128656534D01*
X142906847Y-128656534D01*
X142907041Y-128644168D01*
X142920662Y-128576052D01*
X142946938Y-128507047D01*
X142951045Y-128498456D01*
X142990035Y-128430890D01*
X143036070Y-128373904D01*
X143089474Y-128327151D01*
X143150574Y-128290286D01*
X143169983Y-128281070D01*
X143211618Y-128264305D01*
X143252778Y-128252771D01*
X143297850Y-128245392D01*
X143351219Y-128241092D01*
X143423451Y-128237273D01*
X143423451Y-128200608D01*
X143422866Y-128181036D01*
X143419587Y-128165536D01*
X143411507Y-128151392D01*
X143396523Y-128133350D01*
X143369595Y-128102758D01*
X141757658Y-128106551D01*
X141704732Y-128106679D01*
X141696309Y-128106701D01*
X141562403Y-128107050D01*
X141423431Y-128107455D01*
X141288375Y-128107891D01*
X141157791Y-128108352D01*
X141032238Y-128108838D01*
X140912274Y-128109344D01*
X140798457Y-128109867D01*
X140691343Y-128110405D01*
X140591493Y-128110953D01*
X140499463Y-128111510D01*
X140415810Y-128112071D01*
X140341094Y-128112634D01*
X140275872Y-128113195D01*
X140220702Y-128113751D01*
X140176141Y-128114300D01*
X140142748Y-128114837D01*
X140121080Y-128115361D01*
X140111696Y-128115867D01*
X140089959Y-128120347D01*
X140072748Y-128127495D01*
X140060902Y-128139065D01*
X140053073Y-128157161D01*
X140047910Y-128183888D01*
X140044063Y-128221352D01*
X140043559Y-128232477D01*
X140043010Y-128256499D01*
X140042479Y-128292044D01*
X140041968Y-128338415D01*
X140041477Y-128394917D01*
X140041007Y-128460851D01*
X140040560Y-128535522D01*
X140040135Y-128618231D01*
X140039733Y-128708283D01*
X140039357Y-128804980D01*
X140039005Y-128907625D01*
X140038680Y-129015521D01*
X140038382Y-129127972D01*
X140038111Y-129244280D01*
X140037869Y-129363749D01*
X140037657Y-129485681D01*
X140037475Y-129609380D01*
X140037324Y-129734149D01*
X140037205Y-129859290D01*
X140037119Y-129984107D01*
X140037066Y-130107904D01*
X140037048Y-130229982D01*
X138877647Y-130229982D01*
X138877647Y-129767964D01*
X139244002Y-129767964D01*
X139245016Y-129819010D01*
X139248001Y-129869347D01*
X139252768Y-129916956D01*
X139259129Y-129959821D01*
X139266894Y-129995924D01*
X139275874Y-130023247D01*
X139285880Y-130039774D01*
X139288206Y-130041842D01*
X139306065Y-130048934D01*
X139327394Y-130047464D01*
X139347140Y-130037611D01*
X139362191Y-130025423D01*
X139360332Y-129836966D01*
X139359990Y-129800331D01*
X139359670Y-129753254D01*
X139359672Y-129716487D01*
X139360071Y-129688494D01*
X139360942Y-129667739D01*
X139362361Y-129652685D01*
X139364402Y-129641796D01*
X139367142Y-129633536D01*
X139370655Y-129626368D01*
X139373829Y-129620768D01*
X139386431Y-129602641D01*
X139397873Y-129593955D01*
X139408457Y-129595191D01*
X139418485Y-129606828D01*
X139428259Y-129629349D01*
X139438082Y-129663233D01*
X139448256Y-129708962D01*
X139459083Y-129767015D01*
X139467327Y-129812113D01*
X139479159Y-129869405D01*
X139490515Y-129915401D01*
X139501265Y-129949595D01*
X139511280Y-129971483D01*
X139519099Y-129982397D01*
X139533945Y-130000397D01*
X139551095Y-130019300D01*
X139556497Y-130024931D01*
X139571158Y-130039025D01*
X139583230Y-130046439D01*
X139597452Y-130049316D01*
X139618566Y-130049798D01*
X139649333Y-130047200D01*
X139686690Y-130034665D01*
X139717961Y-130011375D01*
X139743658Y-129976912D01*
X139764291Y-129930859D01*
X139768647Y-129916839D01*
X139777408Y-129875481D01*
X139783565Y-129825778D01*
X139786898Y-129770763D01*
X139787186Y-129713466D01*
X139784209Y-129656920D01*
X139780664Y-129621139D01*
X139772603Y-129566933D01*
X139762275Y-129525096D01*
X139753766Y-129505170D01*
X139749612Y-129495442D01*
X139734548Y-129477786D01*
X139717015Y-129471942D01*
X139707125Y-129473536D01*
X139688927Y-129481502D01*
X139672708Y-129493234D01*
X139663737Y-129505421D01*
X139663191Y-129510896D01*
X139663477Y-129528135D01*
X139664947Y-129554103D01*
X139667456Y-129586385D01*
X139670855Y-129622572D01*
X139671921Y-129633182D01*
X139675766Y-129675782D01*
X139677859Y-129710254D01*
X139678271Y-129740369D01*
X139677076Y-129769894D01*
X139674347Y-129802599D01*
X139674305Y-129803024D01*
X139668068Y-129851875D01*
X139660125Y-129889464D01*
X139650633Y-129915482D01*
X139639748Y-129929619D01*
X139627628Y-129931566D01*
X139614427Y-129921015D01*
X139606640Y-129908565D01*
X139597823Y-129886514D01*
X139589138Y-129855375D01*
X139580245Y-129813907D01*
X139570808Y-129760870D01*
X139566605Y-129735820D01*
X139557549Y-129684748D01*
X139549309Y-129643768D01*
X139541334Y-129611019D01*
X139533073Y-129584638D01*
X139523975Y-129562764D01*
X139513490Y-129543534D01*
X139501066Y-129525086D01*
X139500368Y-129524135D01*
X139472283Y-129495914D01*
X139438384Y-129478129D01*
X139400865Y-129471942D01*
X139387549Y-129472498D01*
X139360921Y-129478599D01*
X139336758Y-129492920D01*
X139311424Y-129517305D01*
X139286040Y-129551563D01*
X139263146Y-129601508D01*
X139250177Y-129658858D01*
X139248644Y-129671810D01*
X139245148Y-129718224D01*
X139244002Y-129767964D01*
X138877647Y-129767964D01*
X138877647Y-129165308D01*
X139244963Y-129165308D01*
X139255314Y-129183921D01*
X139277650Y-129200506D01*
X139278136Y-129200765D01*
X139284832Y-129203675D01*
X139293596Y-129206021D01*
X139305776Y-129207863D01*
X139322718Y-129209261D01*
X139345768Y-129210278D01*
X139376273Y-129210973D01*
X139415579Y-129211409D01*
X139465033Y-129211644D01*
X139525982Y-129211742D01*
X139753766Y-129211906D01*
X139768595Y-129185066D01*
X139772710Y-129176879D01*
X139779573Y-129152054D01*
X139776209Y-129131963D01*
X139762766Y-129118311D01*
X139758587Y-129117179D01*
X139742255Y-129115247D01*
X139716044Y-129113406D01*
X139681835Y-129111695D01*
X139641510Y-129110155D01*
X139596951Y-129108827D01*
X139550039Y-129107751D01*
X139508008Y-129107056D01*
X139502657Y-129106968D01*
X139456687Y-129106518D01*
X139414010Y-129106443D01*
X139376508Y-129106782D01*
X139346064Y-129107576D01*
X139324559Y-129108865D01*
X139306079Y-129110870D01*
X139284210Y-129114783D01*
X139269588Y-129120403D01*
X139258748Y-129128781D01*
X139246880Y-129145742D01*
X139244963Y-129165308D01*
X138877647Y-129165308D01*
X138877647Y-128478158D01*
X139247252Y-128478158D01*
X139248853Y-128534653D01*
X139254025Y-128586903D01*
X139262687Y-128630840D01*
X139272841Y-128661517D01*
X139299667Y-128714584D01*
X139335667Y-128762082D01*
X139378990Y-128801761D01*
X139427781Y-128831369D01*
X139432831Y-128833696D01*
X139472519Y-128848579D01*
X139508008Y-128854246D01*
X139543345Y-128850886D01*
X139582578Y-128838693D01*
X139631824Y-128815355D01*
X139675155Y-128784477D01*
X139710234Y-128746173D01*
X139737853Y-128699351D01*
X139758809Y-128642917D01*
X139773897Y-128575779D01*
X139775386Y-128566362D01*
X139779827Y-128524811D01*
X139781857Y-128479756D01*
X139781561Y-128434434D01*
X139779020Y-128392085D01*
X139774320Y-128355945D01*
X139767542Y-128329253D01*
X139755161Y-128303156D01*
X139737451Y-128281771D01*
X139717653Y-128271770D01*
X139696808Y-128273626D01*
X139675958Y-128287809D01*
X139669373Y-128294782D01*
X139663355Y-128304785D01*
X139662266Y-128317390D01*
X139665014Y-128337569D01*
X139665694Y-128342336D01*
X139667621Y-128364318D01*
X139669176Y-128394685D01*
X139670215Y-128430071D01*
X139670594Y-128467114D01*
X139670517Y-128492030D01*
X139669901Y-128525270D01*
X139668382Y-128550660D01*
X139665623Y-128571321D01*
X139661286Y-128590372D01*
X139655033Y-128610935D01*
X139640637Y-128647008D01*
X139616286Y-128686732D01*
X139586808Y-128715895D01*
X139552894Y-128733860D01*
X139515233Y-128739990D01*
X139507788Y-128739774D01*
X139470520Y-128731588D01*
X139437505Y-128712313D01*
X139409253Y-128682980D01*
X139386276Y-128644619D01*
X139369083Y-128598261D01*
X139358187Y-128544935D01*
X139354098Y-128485673D01*
X139357327Y-128421504D01*
X139361651Y-128389972D01*
X139368652Y-128362783D01*
X139378469Y-128345794D01*
X139391980Y-128337595D01*
X139410060Y-128336776D01*
X139416179Y-128337770D01*
X139422213Y-128341105D01*
X139425909Y-128349126D01*
X139428305Y-128364543D01*
X139430436Y-128390066D01*
X139431514Y-128403050D01*
X139436019Y-128436656D01*
X139442705Y-128459969D01*
X139452283Y-128474883D01*
X139465465Y-128483291D01*
X139486776Y-128486946D01*
X139509086Y-128479917D01*
X139526717Y-128461449D01*
X139528021Y-128459234D01*
X139532709Y-128448875D01*
X139535860Y-128435720D01*
X139537758Y-128417257D01*
X139538692Y-128390979D01*
X139538947Y-128354375D01*
X139538830Y-128326326D01*
X139537813Y-128294273D01*
X139535058Y-128271795D01*
X139529745Y-128256946D01*
X139521057Y-128247779D01*
X139516499Y-128245858D01*
X139508174Y-128242349D01*
X139490277Y-128238708D01*
X139477427Y-128236947D01*
X139447963Y-128234538D01*
X139415121Y-128233408D01*
X139382136Y-128233517D01*
X139352241Y-128234826D01*
X139328673Y-128237294D01*
X139314666Y-128240881D01*
X139304643Y-128249078D01*
X139290533Y-128268518D01*
X139276864Y-128294794D01*
X139265282Y-128324630D01*
X139257434Y-128354753D01*
X139255064Y-128368696D01*
X139249296Y-128421483D01*
X139247252Y-128478158D01*
X138877647Y-128478158D01*
X138877647Y-127925740D01*
X139244990Y-127925740D01*
X139254986Y-127944632D01*
X139277650Y-127961490D01*
X139283881Y-127964390D01*
X139292233Y-127966875D01*
X139303739Y-127968818D01*
X139319782Y-127970283D01*
X139341747Y-127971336D01*
X139371017Y-127972042D01*
X139408976Y-127972465D01*
X139457009Y-127972671D01*
X139516499Y-127972726D01*
X139574324Y-127972676D01*
X139622659Y-127972477D01*
X139660881Y-127972065D01*
X139690378Y-127971372D01*
X139712534Y-127970335D01*
X139728737Y-127968887D01*
X139740371Y-127966963D01*
X139748822Y-127964496D01*
X139755477Y-127961423D01*
X139760379Y-127958616D01*
X139779158Y-127943156D01*
X139785681Y-127926196D01*
X139780441Y-127906656D01*
X139778724Y-127903670D01*
X139767369Y-127887685D01*
X139747691Y-127862874D01*
X139720045Y-127829651D01*
X139684787Y-127788435D01*
X139642271Y-127739642D01*
X139592854Y-127683688D01*
X139536890Y-127620990D01*
X139517280Y-127599015D01*
X139490875Y-127569059D01*
X139468520Y-127543253D01*
X139451357Y-127522938D01*
X139440530Y-127509456D01*
X139437185Y-127504146D01*
X139440812Y-127503491D01*
X139455674Y-127502232D01*
X139480323Y-127500676D01*
X139512973Y-127498925D01*
X139551837Y-127497080D01*
X139595128Y-127495240D01*
X139625469Y-127493948D01*
X139666372Y-127491955D01*
X139701833Y-127489933D01*
X139730006Y-127487999D01*
X139749042Y-127486271D01*
X139757092Y-127484870D01*
X139757549Y-127484559D01*
X139765168Y-127475659D01*
X139773942Y-127461092D01*
X139776096Y-127456817D01*
X139780544Y-127444383D01*
X139779748Y-127432142D01*
X139773674Y-127414152D01*
X139763249Y-127386855D01*
X139737573Y-127386280D01*
X139559616Y-127382297D01*
X139548793Y-127382058D01*
X139482140Y-127380833D01*
X139426910Y-127380374D01*
X139381881Y-127380779D01*
X139345832Y-127382148D01*
X139317541Y-127384582D01*
X139295785Y-127388180D01*
X139279342Y-127393042D01*
X139266992Y-127399267D01*
X139257511Y-127406955D01*
X139255807Y-127408699D01*
X139245980Y-127423449D01*
X139246008Y-127438814D01*
X139249294Y-127446946D01*
X139261934Y-127467387D01*
X139283203Y-127496014D01*
X139312729Y-127532359D01*
X139350140Y-127575954D01*
X139395063Y-127626331D01*
X139424819Y-127659272D01*
X139462045Y-127700735D01*
X139496243Y-127739105D01*
X139526476Y-127773315D01*
X139551807Y-127802299D01*
X139571301Y-127824990D01*
X139584020Y-127840321D01*
X139589028Y-127847227D01*
X139586530Y-127849359D01*
X139575834Y-127851628D01*
X139556085Y-127853892D01*
X139526525Y-127856207D01*
X139486398Y-127858634D01*
X139434946Y-127861229D01*
X139371413Y-127864053D01*
X139357307Y-127864695D01*
X139325183Y-127866508D01*
X139298544Y-127868500D01*
X139279841Y-127870470D01*
X139271522Y-127872219D01*
X139264310Y-127879450D01*
X139254486Y-127892291D01*
X139247642Y-127904752D01*
X139244990Y-127925740D01*
X138877647Y-127925740D01*
X138877647Y-127000001D01*
X138877647Y-126825428D01*
X139244091Y-126825428D01*
X139244139Y-126870961D01*
X139244455Y-126915541D01*
X139245030Y-126957186D01*
X139245855Y-126993916D01*
X139246920Y-127023748D01*
X139248215Y-127044703D01*
X139249732Y-127054799D01*
X139251703Y-127059507D01*
X139255296Y-127066172D01*
X139260388Y-127071556D01*
X139268239Y-127075822D01*
X139280109Y-127079136D01*
X139297258Y-127081659D01*
X139320946Y-127083557D01*
X139352434Y-127084993D01*
X139392981Y-127086131D01*
X139443848Y-127087135D01*
X139506294Y-127088168D01*
X139737573Y-127091886D01*
X139763474Y-127074745D01*
X139789376Y-127057604D01*
X139788970Y-126905205D01*
X139788895Y-126887932D01*
X139788412Y-126839384D01*
X139787791Y-126803759D01*
X140381230Y-126803759D01*
X140382134Y-126853168D01*
X140384401Y-126894060D01*
X140386372Y-126915018D01*
X140404440Y-127029300D01*
X140434370Y-127138994D01*
X140475948Y-127243623D01*
X140528959Y-127342712D01*
X140593188Y-127435788D01*
X140668421Y-127522375D01*
X140677666Y-127531815D01*
X140770836Y-127617250D01*
X140870832Y-127692012D01*
X140977812Y-127756177D01*
X141091932Y-127809819D01*
X141213352Y-127853015D01*
X141342230Y-127885839D01*
X141478723Y-127908367D01*
X141563900Y-127916844D01*
X141696309Y-127921878D01*
X141827182Y-127917158D01*
X141955160Y-127902908D01*
X142078880Y-127879352D01*
X142196982Y-127846713D01*
X142308102Y-127805216D01*
X142410881Y-127755084D01*
X142454447Y-127729410D01*
X142541198Y-127669274D01*
X142625323Y-127599276D01*
X142704721Y-127521398D01*
X142777288Y-127437620D01*
X142840921Y-127349925D01*
X142886697Y-127271999D01*
X142930930Y-127175752D01*
X142965921Y-127074092D01*
X142991172Y-126969145D01*
X143006184Y-126863040D01*
X143010460Y-126757900D01*
X143003502Y-126655854D01*
X142999003Y-126623434D01*
X142985044Y-126546351D01*
X142966294Y-126470975D01*
X142941878Y-126394428D01*
X142910918Y-126313833D01*
X142872537Y-126226315D01*
X142868012Y-126216465D01*
X142851360Y-126179697D01*
X142835219Y-126143345D01*
X142821236Y-126111146D01*
X142811059Y-126086837D01*
X142807719Y-126078812D01*
X142797808Y-126057563D01*
X142789255Y-126042711D01*
X142783615Y-126037077D01*
X142782305Y-126037537D01*
X142772070Y-126043311D01*
X142753179Y-126054974D01*
X142727019Y-126071605D01*
X142694977Y-126092284D01*
X142658442Y-126116092D01*
X142618800Y-126142107D01*
X142577440Y-126169411D01*
X142535749Y-126197083D01*
X142495114Y-126224202D01*
X142456924Y-126249850D01*
X142422566Y-126273105D01*
X142393427Y-126293047D01*
X142370896Y-126308757D01*
X142356360Y-126319314D01*
X142351206Y-126323798D01*
X142354924Y-126330118D01*
X142364904Y-126343316D01*
X142378953Y-126360456D01*
X142422640Y-126415659D01*
X142465167Y-126479764D01*
X142495992Y-126540361D01*
X142514906Y-126597083D01*
X142519426Y-126623992D01*
X142522724Y-126661487D01*
X142524383Y-126704235D01*
X142524406Y-126748638D01*
X142522794Y-126791097D01*
X142519553Y-126828015D01*
X142514684Y-126855793D01*
X142494129Y-126917665D01*
X142459680Y-126984614D01*
X142414227Y-127045008D01*
X142357814Y-127098804D01*
X142290488Y-127145960D01*
X142212293Y-127186435D01*
X142123274Y-127220187D01*
X142103798Y-127226336D01*
X142049845Y-127241878D01*
X141998202Y-127254101D01*
X141946355Y-127263332D01*
X141891792Y-127269897D01*
X141831998Y-127274121D01*
X141764463Y-127276332D01*
X141686671Y-127276854D01*
X141679943Y-127276832D01*
X141591968Y-127275290D01*
X141514411Y-127271236D01*
X141445184Y-127264341D01*
X141382195Y-127254275D01*
X141323355Y-127240710D01*
X141266573Y-127223315D01*
X141209759Y-127201763D01*
X141173614Y-127185273D01*
X141111788Y-127149791D01*
X141053555Y-127107437D01*
X141000741Y-127059931D01*
X140955173Y-127008992D01*
X140918676Y-126956339D01*
X140893078Y-126903691D01*
X140891444Y-126899313D01*
X140877919Y-126859989D01*
X140869012Y-126825585D01*
X140864052Y-126791699D01*
X140862370Y-126753926D01*
X140863297Y-126707862D01*
X140864304Y-126685285D01*
X140866745Y-126651090D01*
X140870445Y-126623628D01*
X140876013Y-126598930D01*
X140884063Y-126573029D01*
X140901638Y-126526648D01*
X140938190Y-126451844D01*
X140984740Y-126378842D01*
X141042580Y-126305462D01*
X141073916Y-126269037D01*
X141009295Y-126229076D01*
X140991845Y-126218285D01*
X140957225Y-126196946D01*
X140903015Y-126163803D01*
X140850546Y-126132037D01*
X140800965Y-126102322D01*
X140755420Y-126075331D01*
X140715056Y-126051737D01*
X140681020Y-126032214D01*
X140654459Y-126017435D01*
X140636520Y-126008073D01*
X140628350Y-126004803D01*
X140623391Y-126006677D01*
X140614317Y-126015708D01*
X140602230Y-126032876D01*
X140586704Y-126058905D01*
X140567313Y-126094522D01*
X140543630Y-126140452D01*
X140515230Y-126197422D01*
X140488031Y-126254124D01*
X140460978Y-126315464D01*
X140439426Y-126371788D01*
X140422438Y-126426164D01*
X140409073Y-126481659D01*
X140398394Y-126541342D01*
X140389460Y-126608281D01*
X140385950Y-126646876D01*
X140383213Y-126696369D01*
X140381615Y-126750078D01*
X140381230Y-126803759D01*
X139787791Y-126803759D01*
X139787578Y-126791575D01*
X139786465Y-126747532D01*
X139785145Y-126710279D01*
X139783690Y-126682841D01*
X139781323Y-126652373D01*
X139778753Y-126630700D01*
X139775451Y-126616674D01*
X139770785Y-126607648D01*
X139764123Y-126600978D01*
X139753215Y-126594122D01*
X139748614Y-126593017D01*
X139731353Y-126588871D01*
X139710639Y-126592865D01*
X139695240Y-126605813D01*
X139693532Y-126608744D01*
X139690464Y-126616687D01*
X139687981Y-126628336D01*
X139685962Y-126645214D01*
X139684285Y-126668842D01*
X139682828Y-126700745D01*
X139681469Y-126742442D01*
X139680087Y-126795458D01*
X139680077Y-126795896D01*
X139678755Y-126841820D01*
X139677164Y-126883532D01*
X139675398Y-126919307D01*
X139673557Y-126947418D01*
X139671737Y-126966141D01*
X139670036Y-126973749D01*
X139661713Y-126976904D01*
X139644196Y-126980378D01*
X139621597Y-126983244D01*
X139579021Y-126987361D01*
X139576005Y-126863663D01*
X139575955Y-126861648D01*
X139574757Y-126822619D01*
X139573261Y-126787648D01*
X139571595Y-126758931D01*
X139569883Y-126738663D01*
X139568253Y-126729040D01*
X139567817Y-126728163D01*
X139557899Y-126718771D01*
X139542007Y-126711015D01*
X139532689Y-126708901D01*
X139510077Y-126710353D01*
X139490461Y-126719549D01*
X139478386Y-126734790D01*
X139476841Y-126744311D01*
X139475092Y-126764538D01*
X139473307Y-126793163D01*
X139471624Y-126827948D01*
X139470182Y-126866651D01*
X139466335Y-126987159D01*
X139410586Y-126987159D01*
X139354838Y-126987159D01*
X139350709Y-126803198D01*
X139349902Y-126767858D01*
X139348607Y-126718645D01*
X139347135Y-126680082D01*
X139345214Y-126650802D01*
X139342572Y-126629438D01*
X139338938Y-126614625D01*
X139334040Y-126604996D01*
X139327608Y-126599185D01*
X139319369Y-126595825D01*
X139309051Y-126593550D01*
X139291361Y-126593611D01*
X139271917Y-126598548D01*
X139264928Y-126601681D01*
X139257488Y-126607126D01*
X139253018Y-126616037D01*
X139250232Y-126631530D01*
X139247838Y-126656718D01*
X139246770Y-126673369D01*
X139245651Y-126702910D01*
X139244837Y-126739421D01*
X139244321Y-126780920D01*
X139244091Y-126825428D01*
X138877647Y-126825428D01*
X138877647Y-126245989D01*
X139243795Y-126245989D01*
X139244072Y-126267602D01*
X139245135Y-126282535D01*
X139247078Y-126292558D01*
X139249996Y-126299444D01*
X139253981Y-126304964D01*
X139254602Y-126305687D01*
X139262363Y-126312476D01*
X139273367Y-126318040D01*
X139288813Y-126322493D01*
X139309901Y-126325950D01*
X139337829Y-126328523D01*
X139373798Y-126330326D01*
X139419006Y-126331474D01*
X139474653Y-126332079D01*
X139541939Y-126332255D01*
X139748614Y-126332255D01*
X139762727Y-126317232D01*
X139768949Y-126309601D01*
X139778962Y-126290277D01*
X139785564Y-126264748D01*
X139788843Y-126231756D01*
X139788887Y-126190044D01*
X139785783Y-126138355D01*
X139779619Y-126075430D01*
X139773917Y-126029478D01*
X139766567Y-125985191D01*
X139757835Y-125948500D01*
X139747031Y-125916577D01*
X139745981Y-125914257D01*
X139733462Y-125886591D01*
X139725791Y-125873019D01*
X139697860Y-125836834D01*
X139662078Y-125803579D01*
X139621546Y-125775523D01*
X139579366Y-125754934D01*
X139538641Y-125744082D01*
X139536722Y-125743847D01*
X139505384Y-125744270D01*
X139468805Y-125750765D01*
X139431927Y-125762154D01*
X139399691Y-125777256D01*
X139382261Y-125788584D01*
X139341394Y-125824544D01*
X139306035Y-125869165D01*
X139278165Y-125919675D01*
X139259765Y-125973298D01*
X139258889Y-125977233D01*
X139254707Y-126004753D01*
X139251091Y-126043840D01*
X139248123Y-126093435D01*
X139245886Y-126152478D01*
X139245224Y-126175637D01*
X139244210Y-126215925D01*
X139243795Y-126245989D01*
X138877647Y-126245989D01*
X138877647Y-125313907D01*
X140383147Y-125313907D01*
X140384141Y-125403523D01*
X140395997Y-125488957D01*
X140419119Y-125572556D01*
X140453908Y-125656664D01*
X140487727Y-125719207D01*
X140533924Y-125784068D01*
X140587729Y-125839593D01*
X140650434Y-125887081D01*
X140723331Y-125927832D01*
X140760223Y-125944770D01*
X140805955Y-125962485D01*
X140850196Y-125974943D01*
X140896478Y-125982891D01*
X140948333Y-125987074D01*
X141009295Y-125988240D01*
X141054793Y-125987667D01*
X141100989Y-125985329D01*
X141139884Y-125980699D01*
X141174481Y-125973259D01*
X141207784Y-125962490D01*
X141242795Y-125947871D01*
X141282707Y-125927454D01*
X141348245Y-125883074D01*
X141408726Y-125828060D01*
X141463311Y-125763460D01*
X141511162Y-125690323D01*
X141551439Y-125609695D01*
X141583304Y-125522623D01*
X141589659Y-125500312D01*
X141604728Y-125433835D01*
X141617243Y-125357778D01*
X141626975Y-125274362D01*
X141633692Y-125185808D01*
X141637165Y-125094335D01*
X141637166Y-125002166D01*
X141636923Y-124987372D01*
X141636767Y-124955584D01*
X141637142Y-124929512D01*
X141637997Y-124911531D01*
X141639281Y-124904012D01*
X141640193Y-124903585D01*
X141650585Y-124903583D01*
X141669371Y-124905958D01*
X141693263Y-124910326D01*
X141737103Y-124920791D01*
X141789579Y-124938792D01*
X141831740Y-124961307D01*
X141864864Y-124989253D01*
X141890233Y-125023550D01*
X141909127Y-125065115D01*
X141912130Y-125073956D01*
X141916545Y-125090004D01*
X141919227Y-125106899D01*
X141920411Y-125127634D01*
X141920337Y-125155202D01*
X141919241Y-125192594D01*
X141918569Y-125208663D01*
X141915112Y-125255325D01*
X141909076Y-125299588D01*
X141899818Y-125344225D01*
X141886697Y-125392009D01*
X141869074Y-125445712D01*
X141846307Y-125508107D01*
X141839553Y-125526347D01*
X141828720Y-125557375D01*
X141820478Y-125583361D01*
X141815537Y-125602004D01*
X141814605Y-125611004D01*
X141818170Y-125614883D01*
X141831590Y-125623949D01*
X141852310Y-125635510D01*
X141877644Y-125647990D01*
X141887481Y-125652512D01*
X141918522Y-125666397D01*
X141954537Y-125682077D01*
X141993666Y-125698784D01*
X142034045Y-125715751D01*
X142073814Y-125732212D01*
X142111111Y-125747400D01*
X142144073Y-125760548D01*
X142170838Y-125770889D01*
X142189546Y-125777655D01*
X142198334Y-125780081D01*
X142198799Y-125780061D01*
X142204929Y-125774978D01*
X142210456Y-125759950D01*
X142215925Y-125733532D01*
X142219239Y-125716027D01*
X142225400Y-125686287D01*
X142233351Y-125649699D01*
X142242427Y-125609318D01*
X142251961Y-125568201D01*
X142261248Y-125528473D01*
X142281031Y-125440634D01*
X142297252Y-125362739D01*
X142310075Y-125293146D01*
X142319663Y-125230212D01*
X142326179Y-125172294D01*
X142329788Y-125117750D01*
X142330652Y-125064937D01*
X142328934Y-125012212D01*
X142324799Y-124957932D01*
X142318410Y-124900456D01*
X142314839Y-124874648D01*
X142295721Y-124781397D01*
X142268044Y-124696037D01*
X142232129Y-124619085D01*
X142188295Y-124551056D01*
X142136860Y-124492469D01*
X142078145Y-124443838D01*
X142012469Y-124405681D01*
X141989280Y-124395020D01*
X141934235Y-124372868D01*
X141879512Y-124355937D01*
X141821867Y-124343467D01*
X141758055Y-124334697D01*
X141684832Y-124328867D01*
X141665447Y-124327933D01*
X141631087Y-124326682D01*
X141586281Y-124325341D01*
X141532348Y-124323939D01*
X141470607Y-124322504D01*
X141402376Y-124321066D01*
X141328974Y-124319654D01*
X141251719Y-124318295D01*
X141235363Y-124318034D01*
X141171929Y-124317020D01*
X141090924Y-124315857D01*
X141015208Y-124314779D01*
X140938652Y-124313579D01*
X140865841Y-124312327D01*
X140797913Y-124311049D01*
X140736004Y-124309769D01*
X140681251Y-124308511D01*
X140634791Y-124307302D01*
X140597761Y-124306165D01*
X140571298Y-124305125D01*
X140556539Y-124304207D01*
X140550998Y-124303630D01*
X140519076Y-124298640D01*
X140492696Y-124290450D01*
X140465532Y-124277182D01*
X140464086Y-124276386D01*
X140444052Y-124266508D01*
X140428501Y-124260836D01*
X140420694Y-124260577D01*
X140419609Y-124267518D01*
X140418478Y-124286081D01*
X140417360Y-124314961D01*
X140416289Y-124352880D01*
X140415294Y-124398556D01*
X140414408Y-124450710D01*
X140413663Y-124508064D01*
X140413089Y-124569337D01*
X140410784Y-124872798D01*
X140450946Y-124876996D01*
X140469064Y-124878651D01*
X140496726Y-124880482D01*
X140519059Y-124881194D01*
X140526833Y-124881385D01*
X140541280Y-124883105D01*
X140547010Y-124886031D01*
X140545321Y-124889820D01*
X140537551Y-124902474D01*
X140524910Y-124921399D01*
X140508994Y-124944156D01*
X140489150Y-124973106D01*
X140448900Y-125042271D01*
X140419208Y-125111970D01*
X140398881Y-125185337D01*
X140386726Y-125265506D01*
X140383147Y-125313907D01*
X138877647Y-125313907D01*
X138877647Y-124361760D01*
X139244395Y-124361760D01*
X139251852Y-124380850D01*
X139254178Y-124383348D01*
X139268626Y-124394372D01*
X139293154Y-124409882D01*
X139326578Y-124429185D01*
X139367713Y-124451589D01*
X139415374Y-124476403D01*
X139439606Y-124489151D01*
X139461184Y-124501315D01*
X139475805Y-124510515D01*
X139481186Y-124515397D01*
X139476518Y-124519401D01*
X139462084Y-124528340D01*
X139439663Y-124541066D01*
X139411067Y-124556554D01*
X139378109Y-124573777D01*
X139349160Y-124588904D01*
X139317180Y-124606227D01*
X139290079Y-124621570D01*
X139270061Y-124633679D01*
X139259328Y-124641304D01*
X139258082Y-124642492D01*
X139245858Y-124661979D01*
X139245585Y-124682849D01*
X139257356Y-124702308D01*
X139264831Y-124708000D01*
X139284118Y-124719519D01*
X139312332Y-124734646D01*
X139347785Y-124752608D01*
X139388789Y-124772633D01*
X139433654Y-124793946D01*
X139480693Y-124815777D01*
X139528216Y-124837351D01*
X139574534Y-124857896D01*
X139617959Y-124876638D01*
X139656802Y-124892806D01*
X139689375Y-124905627D01*
X139713988Y-124914327D01*
X139728954Y-124918133D01*
X139745981Y-124918993D01*
X139758084Y-124914923D01*
X139769082Y-124903519D01*
X139770576Y-124901574D01*
X139781368Y-124880171D01*
X139779637Y-124860482D01*
X139765298Y-124841121D01*
X139756932Y-124835138D01*
X139737884Y-124823871D01*
X139710509Y-124808873D01*
X139676571Y-124791088D01*
X139637840Y-124771457D01*
X139596081Y-124750921D01*
X139558196Y-124732432D01*
X139520921Y-124713941D01*
X139488957Y-124697768D01*
X139463873Y-124684718D01*
X139447238Y-124675595D01*
X139440620Y-124671204D01*
X139442032Y-124668608D01*
X139452510Y-124660541D01*
X139471463Y-124648556D01*
X139497070Y-124633781D01*
X139527509Y-124617344D01*
X139542495Y-124609437D01*
X139589237Y-124583510D01*
X139624180Y-124561136D01*
X139647418Y-124541349D01*
X139659044Y-124523184D01*
X139659151Y-124505675D01*
X139647832Y-124487856D01*
X139625180Y-124468764D01*
X139591288Y-124447431D01*
X139546250Y-124422894D01*
X139521047Y-124409567D01*
X139492659Y-124394238D01*
X139468833Y-124381035D01*
X139452995Y-124371836D01*
X139428015Y-124356497D01*
X139591039Y-124276101D01*
X139595858Y-124273721D01*
X139638552Y-124252384D01*
X139677858Y-124232300D01*
X139712140Y-124214337D01*
X139739766Y-124199363D01*
X139759100Y-124188246D01*
X139768509Y-124181854D01*
X139778425Y-124167926D01*
X139782955Y-124151896D01*
X139779578Y-124139179D01*
X139768157Y-124122705D01*
X139752642Y-124109626D01*
X139737220Y-124104298D01*
X139725799Y-124106495D01*
X139703567Y-124113775D01*
X139672990Y-124125415D01*
X139635721Y-124140658D01*
X139593410Y-124158743D01*
X139547707Y-124178915D01*
X139500264Y-124200414D01*
X139452730Y-124222482D01*
X139406757Y-124244362D01*
X139363994Y-124265294D01*
X139326094Y-124284520D01*
X139294705Y-124301284D01*
X139271480Y-124314825D01*
X139269116Y-124316511D01*
X139258069Y-124324387D01*
X139247105Y-124340816D01*
X139244395Y-124361760D01*
X138877647Y-124361760D01*
X138877647Y-123824259D01*
X139245409Y-123824259D01*
X139245877Y-123842929D01*
X139256393Y-123865129D01*
X139269116Y-123885996D01*
X139514800Y-123885947D01*
X139760483Y-123885898D01*
X139775089Y-123860321D01*
X139789694Y-123834744D01*
X139776563Y-123809005D01*
X139763432Y-123783266D01*
X139727932Y-123783266D01*
X139516806Y-123783266D01*
X139270179Y-123783266D01*
X139256901Y-123801914D01*
X139255026Y-123804611D01*
X139245409Y-123824259D01*
X138877647Y-123824259D01*
X138877647Y-123305612D01*
X139245951Y-123305612D01*
X139245994Y-123323872D01*
X139258069Y-123343394D01*
X139260590Y-123346084D01*
X139270223Y-123353324D01*
X139283710Y-123359144D01*
X139302336Y-123363686D01*
X139327383Y-123367093D01*
X139360133Y-123369507D01*
X139401870Y-123371070D01*
X139453875Y-123371926D01*
X139517432Y-123372217D01*
X139678880Y-123372346D01*
X139681157Y-123475645D01*
X139681876Y-123506587D01*
X139682839Y-123536680D01*
X139684146Y-123557637D01*
X139686123Y-123571543D01*
X139689097Y-123580485D01*
X139693393Y-123586549D01*
X139699339Y-123591820D01*
X139705695Y-123596058D01*
X139727932Y-123601719D01*
X139752096Y-123597339D01*
X139774245Y-123583362D01*
X139789376Y-123569147D01*
X139789376Y-123409856D01*
X140381978Y-123409856D01*
X140385029Y-123457135D01*
X140392360Y-123502351D01*
X140404373Y-123549031D01*
X140421476Y-123600706D01*
X140431217Y-123626269D01*
X140470850Y-123707311D01*
X140521228Y-123781740D01*
X140581983Y-123849270D01*
X140652748Y-123909615D01*
X140733155Y-123962487D01*
X140822837Y-124007602D01*
X140921427Y-124044673D01*
X141028557Y-124073415D01*
X141042914Y-124076493D01*
X141061774Y-124080104D01*
X141080397Y-124082887D01*
X141100654Y-124084945D01*
X141124410Y-124086382D01*
X141153535Y-124087302D01*
X141189897Y-124087807D01*
X141235363Y-124088001D01*
X141291802Y-124087988D01*
X141343656Y-124087750D01*
X141410581Y-124086707D01*
X141468565Y-124084659D01*
X141519917Y-124081409D01*
X141566948Y-124076758D01*
X141611968Y-124070506D01*
X141657285Y-124062454D01*
X141705212Y-124052405D01*
X141759338Y-124039030D01*
X141859479Y-124006431D01*
X141951318Y-123965686D01*
X142034343Y-123917156D01*
X142108043Y-123861205D01*
X142171907Y-123798197D01*
X142225423Y-123728494D01*
X142268080Y-123652461D01*
X142281299Y-123623374D01*
X142296152Y-123586543D01*
X142306935Y-123552217D01*
X142314245Y-123517336D01*
X142318675Y-123478841D01*
X142320821Y-123433671D01*
X142321276Y-123378767D01*
X142320910Y-123341840D01*
X142318417Y-123274346D01*
X142313120Y-123216161D01*
X142304465Y-123165011D01*
X142291897Y-123118623D01*
X142274860Y-123074724D01*
X142252799Y-123031042D01*
X142225159Y-122985303D01*
X142221437Y-122979478D01*
X142209049Y-122959286D01*
X142200377Y-122943889D01*
X142197111Y-122936240D01*
X142199540Y-122934451D01*
X142213057Y-122931882D01*
X142237277Y-122929695D01*
X142270886Y-122927888D01*
X142312570Y-122926463D01*
X142361012Y-122925419D01*
X142414900Y-122924758D01*
X142472917Y-122924479D01*
X142533750Y-122924583D01*
X142596084Y-122925070D01*
X142658603Y-122925940D01*
X142719994Y-122927194D01*
X142778941Y-122928832D01*
X142834131Y-122930855D01*
X142884247Y-122933262D01*
X142927976Y-122936055D01*
X142968011Y-122939371D01*
X143001028Y-122943249D01*
X143026919Y-122948201D01*
X143048631Y-122954963D01*
X143069113Y-122964270D01*
X143091311Y-122976859D01*
X143128102Y-122999013D01*
X143128102Y-122662399D01*
X143128102Y-122325784D01*
X141925839Y-122325728D01*
X141865989Y-122325719D01*
X141718451Y-122325649D01*
X141578432Y-122325511D01*
X141446342Y-122325305D01*
X141322588Y-122325035D01*
X141207582Y-122324703D01*
X141101731Y-122324310D01*
X141005447Y-122323859D01*
X140919137Y-122323351D01*
X140843213Y-122322789D01*
X140778082Y-122322175D01*
X140724155Y-122321511D01*
X140681840Y-122320799D01*
X140651548Y-122320040D01*
X140633688Y-122319238D01*
X140627561Y-122318790D01*
X140578680Y-122314202D01*
X140539388Y-122308143D01*
X140506771Y-122299893D01*
X140477917Y-122288736D01*
X140449912Y-122273954D01*
X140437435Y-122267109D01*
X140423080Y-122260827D01*
X140415955Y-122259939D01*
X140415872Y-122260098D01*
X140415127Y-122268398D01*
X140414434Y-122288154D01*
X140413806Y-122318115D01*
X140413259Y-122357032D01*
X140412808Y-122403655D01*
X140412467Y-122456733D01*
X140412252Y-122515018D01*
X140412177Y-122577259D01*
X140412177Y-122890799D01*
X140479214Y-122890799D01*
X140500187Y-122891046D01*
X140524696Y-122892071D01*
X140542015Y-122893710D01*
X140549319Y-122895762D01*
X140548570Y-122900484D01*
X140541850Y-122913007D01*
X140530341Y-122929470D01*
X140514982Y-122950592D01*
X140489917Y-122988864D01*
X140465591Y-123029993D01*
X140444479Y-123069720D01*
X140429055Y-123103790D01*
X140423507Y-123118241D01*
X140409840Y-123159109D01*
X140399786Y-123199915D01*
X140392412Y-123244951D01*
X140386787Y-123298509D01*
X140382800Y-123356984D01*
X140381978Y-123409856D01*
X139789376Y-123409856D01*
X139789376Y-123312948D01*
X139789376Y-123056748D01*
X139770608Y-123037980D01*
X139767437Y-123034974D01*
X139760441Y-123030856D01*
X139744747Y-123021617D01*
X139721147Y-123020392D01*
X139698593Y-123031476D01*
X139693436Y-123036059D01*
X139689292Y-123041873D01*
X139686375Y-123050521D01*
X139684400Y-123064003D01*
X139683083Y-123084320D01*
X139682141Y-123113475D01*
X139681289Y-123153468D01*
X139679143Y-123263196D01*
X139480151Y-123263196D01*
X139281158Y-123263196D01*
X139262390Y-123281964D01*
X139258088Y-123286483D01*
X139245951Y-123305612D01*
X138877647Y-123305612D01*
X138877647Y-122792995D01*
X139244341Y-122792995D01*
X139247892Y-122803913D01*
X139259112Y-122818209D01*
X139274602Y-122836224D01*
X139517522Y-122836224D01*
X139760441Y-122836224D01*
X139773303Y-122812162D01*
X139775555Y-122807902D01*
X139781892Y-122793375D01*
X139782003Y-122782796D01*
X139776301Y-122770428D01*
X139774008Y-122766577D01*
X139763054Y-122753827D01*
X139747570Y-122744611D01*
X139725487Y-122738276D01*
X139694736Y-122734170D01*
X139653246Y-122731641D01*
X139577495Y-122728521D01*
X139577495Y-122543689D01*
X139577495Y-122358858D01*
X139667966Y-122356767D01*
X139674420Y-122356617D01*
X139708507Y-122355670D01*
X139732368Y-122354468D01*
X139748259Y-122352630D01*
X139758440Y-122349779D01*
X139765166Y-122345535D01*
X139770696Y-122339519D01*
X139781353Y-122319007D01*
X139779909Y-122297466D01*
X139765924Y-122274426D01*
X139748894Y-122254187D01*
X139516030Y-122256277D01*
X139283166Y-122258368D01*
X139266715Y-122273830D01*
X139265863Y-122274640D01*
X139253683Y-122288588D01*
X139246612Y-122300796D01*
X139246091Y-122310003D01*
X139251276Y-122327532D01*
X139261139Y-122344108D01*
X139272803Y-122353899D01*
X139275003Y-122354429D01*
X139288870Y-122355790D01*
X139312031Y-122356888D01*
X139341869Y-122357620D01*
X139375770Y-122357887D01*
X139468344Y-122357887D01*
X139468344Y-122543233D01*
X139468344Y-122728579D01*
X139386481Y-122731696D01*
X139372989Y-122732277D01*
X139329483Y-122735496D01*
X139296894Y-122740657D01*
X139273759Y-122748193D01*
X139258616Y-122758538D01*
X139250002Y-122772125D01*
X139247285Y-122779519D01*
X139244341Y-122792995D01*
X138877647Y-122792995D01*
X138877647Y-121613095D01*
X141478001Y-121613095D01*
X144078354Y-121613095D01*
X144078354Y-127000001D01*
G37*
G36*
X139539872Y-131147245D02*
G01*
X139567848Y-131160549D01*
X139598175Y-131184986D01*
X139604021Y-131190604D01*
X139626833Y-131216607D01*
X139644599Y-131245441D01*
X139657969Y-131279084D01*
X139667592Y-131319512D01*
X139674116Y-131368701D01*
X139678192Y-131428628D01*
X139682148Y-131513701D01*
X139517461Y-131513701D01*
X139352773Y-131513701D01*
X139352773Y-131442699D01*
X139353496Y-131404384D01*
X139359321Y-131336416D01*
X139371149Y-131279295D01*
X139389172Y-131232584D01*
X139413583Y-131195847D01*
X139444577Y-131168647D01*
X139482346Y-131150550D01*
X139511729Y-131144324D01*
X139539872Y-131147245D01*
G37*
G36*
X139567948Y-125868216D02*
G01*
X139587174Y-125879632D01*
X139613725Y-125902486D01*
X139635050Y-125931803D01*
X139651644Y-125968800D01*
X139664004Y-126014693D01*
X139672625Y-126070698D01*
X139678004Y-126138031D01*
X139682207Y-126216684D01*
X139516557Y-126216684D01*
X139350908Y-126216684D01*
X139354503Y-126121980D01*
X139354824Y-126114164D01*
X139359671Y-126050858D01*
X139368443Y-125998495D01*
X139381655Y-125955772D01*
X139399823Y-125921381D01*
X139423462Y-125894018D01*
X139453088Y-125872375D01*
X139457566Y-125869857D01*
X139494281Y-125856718D01*
X139531508Y-125856155D01*
X139567948Y-125868216D01*
G37*
G36*
X140484409Y-129269981D02*
G01*
X140503727Y-129288053D01*
X140529529Y-129311318D01*
X140557885Y-129335903D01*
X140589410Y-129362270D01*
X140624716Y-129390884D01*
X140664418Y-129422210D01*
X140709127Y-129456711D01*
X140759457Y-129494851D01*
X140816023Y-129537095D01*
X140879436Y-129583907D01*
X140950312Y-129635750D01*
X141029262Y-129693089D01*
X141116900Y-129756388D01*
X141213840Y-129826110D01*
X141320695Y-129902721D01*
X141327847Y-129907841D01*
X141407145Y-129964540D01*
X141476727Y-130014127D01*
X141537203Y-130057016D01*
X141589184Y-130093623D01*
X141633280Y-130124364D01*
X141670101Y-130149653D01*
X141700258Y-130169907D01*
X141724361Y-130185541D01*
X141743020Y-130196970D01*
X141756846Y-130204610D01*
X141766449Y-130208875D01*
X141772439Y-130210182D01*
X141775373Y-130209499D01*
X141784722Y-130204708D01*
X141799721Y-130194990D01*
X141820900Y-130179939D01*
X141848793Y-130159151D01*
X141883931Y-130132221D01*
X141926848Y-130098742D01*
X141978074Y-130058309D01*
X142038144Y-130010518D01*
X142107588Y-129954962D01*
X142173252Y-129902287D01*
X142275252Y-129820301D01*
X142367897Y-129745595D01*
X142451657Y-129677769D01*
X142527003Y-129616421D01*
X142594405Y-129561151D01*
X142654332Y-129511555D01*
X142707255Y-129467234D01*
X142753645Y-129427786D01*
X142793970Y-129392810D01*
X142828703Y-129361905D01*
X142858312Y-129334669D01*
X142883269Y-129310700D01*
X142904042Y-129289599D01*
X142921103Y-129270962D01*
X142934922Y-129254390D01*
X142945969Y-129239481D01*
X142964376Y-129212835D01*
X142968441Y-129254105D01*
X142969040Y-129264102D01*
X142969783Y-129287271D01*
X142970494Y-129320969D01*
X142971159Y-129363904D01*
X142971761Y-129414784D01*
X142972287Y-129472316D01*
X142972722Y-129535208D01*
X142973050Y-129602166D01*
X142973256Y-129671900D01*
X142973370Y-129737692D01*
X142973427Y-129807447D01*
X142973370Y-129866099D01*
X142973177Y-129914606D01*
X142972822Y-129953925D01*
X142972283Y-129985014D01*
X142971536Y-130008829D01*
X142970557Y-130026329D01*
X142969323Y-130038471D01*
X142967810Y-130046212D01*
X142965993Y-130050510D01*
X142963851Y-130052322D01*
X142955912Y-130053972D01*
X142937738Y-130055592D01*
X142915275Y-130056219D01*
X142889073Y-130058727D01*
X142845401Y-130071311D01*
X142796146Y-130094203D01*
X142742081Y-130127088D01*
X142725538Y-130138556D01*
X142697494Y-130158789D01*
X142662500Y-130184639D01*
X142621631Y-130215271D01*
X142575961Y-130249849D01*
X142526563Y-130287536D01*
X142474512Y-130327498D01*
X142420881Y-130368899D01*
X142366746Y-130410902D01*
X142313179Y-130452672D01*
X142261254Y-130493372D01*
X142212047Y-130532168D01*
X142166630Y-130568223D01*
X142126077Y-130600702D01*
X142091464Y-130628769D01*
X142063863Y-130651587D01*
X142044348Y-130668322D01*
X142033995Y-130678137D01*
X142021764Y-130691861D01*
X142294030Y-130691671D01*
X142392864Y-130691319D01*
X142487015Y-130690360D01*
X142571015Y-130688811D01*
X142644418Y-130686690D01*
X142706778Y-130684011D01*
X142757646Y-130680791D01*
X142796576Y-130677046D01*
X142823122Y-130672792D01*
X142830245Y-130670914D01*
X142853866Y-130662692D01*
X142882193Y-130650909D01*
X142910563Y-130637450D01*
X142965900Y-130609263D01*
X142969898Y-130642536D01*
X142970513Y-130649956D01*
X142971426Y-130671208D01*
X142972189Y-130702223D01*
X142972803Y-130741590D01*
X142973274Y-130787896D01*
X142973605Y-130839727D01*
X142973800Y-130895671D01*
X142973861Y-130954315D01*
X142973794Y-131014247D01*
X142973601Y-131074053D01*
X142973286Y-131132321D01*
X142972854Y-131187637D01*
X142972307Y-131238590D01*
X142971649Y-131283766D01*
X142970884Y-131321752D01*
X142970016Y-131351136D01*
X142969048Y-131370504D01*
X142967984Y-131378444D01*
X142967749Y-131378808D01*
X142962268Y-131383073D01*
X142953244Y-131380821D01*
X142937441Y-131371295D01*
X142922603Y-131361776D01*
X142886662Y-131342167D01*
X142851925Y-131329336D01*
X142813136Y-131321164D01*
X142799137Y-131319729D01*
X142771692Y-131318157D01*
X142733287Y-131316728D01*
X142684743Y-131315439D01*
X142626879Y-131314290D01*
X142560518Y-131313278D01*
X142486480Y-131312401D01*
X142405585Y-131311658D01*
X142318654Y-131311045D01*
X142226508Y-131310561D01*
X142129968Y-131310205D01*
X142029854Y-131309974D01*
X141926987Y-131309865D01*
X141822189Y-131309878D01*
X141716278Y-131310010D01*
X141610077Y-131310260D01*
X141504406Y-131310624D01*
X141400086Y-131311101D01*
X141297937Y-131311690D01*
X141198781Y-131312388D01*
X141103437Y-131313192D01*
X141012727Y-131314102D01*
X140927472Y-131315116D01*
X140848491Y-131316230D01*
X140776607Y-131317443D01*
X140712639Y-131318754D01*
X140657408Y-131320160D01*
X140611736Y-131321659D01*
X140576442Y-131323249D01*
X140552348Y-131324928D01*
X140540274Y-131326694D01*
X140539446Y-131326961D01*
X140522032Y-131334235D01*
X140498897Y-131345897D01*
X140474814Y-131359552D01*
X140470414Y-131362188D01*
X140449994Y-131373923D01*
X140434275Y-131382173D01*
X140426359Y-131385289D01*
X140425463Y-131380746D01*
X140424524Y-131364659D01*
X140423703Y-131338244D01*
X140423001Y-131302859D01*
X140422416Y-131259859D01*
X140421950Y-131210600D01*
X140421601Y-131156438D01*
X140421369Y-131098729D01*
X140421255Y-131038829D01*
X140421257Y-130978093D01*
X140421376Y-130917879D01*
X140421612Y-130859540D01*
X140421963Y-130804435D01*
X140422430Y-130753917D01*
X140423013Y-130709344D01*
X140423712Y-130672072D01*
X140424525Y-130643455D01*
X140425454Y-130624851D01*
X140426497Y-130617615D01*
X140427691Y-130617180D01*
X140437998Y-130619283D01*
X140455723Y-130626027D01*
X140477862Y-130636317D01*
X140501369Y-130647386D01*
X140536787Y-130660911D01*
X140574688Y-130671126D01*
X140618517Y-130678897D01*
X140671722Y-130685093D01*
X140673228Y-130685233D01*
X140694459Y-130686565D01*
X140725508Y-130687748D01*
X140764961Y-130688778D01*
X140811399Y-130689653D01*
X140863409Y-130690372D01*
X140919572Y-130690934D01*
X140978473Y-130691334D01*
X141038696Y-130691573D01*
X141098825Y-130691648D01*
X141157444Y-130691557D01*
X141213135Y-130691298D01*
X141264484Y-130690868D01*
X141310073Y-130690267D01*
X141348488Y-130689492D01*
X141378311Y-130688542D01*
X141398126Y-130687413D01*
X141406518Y-130686105D01*
X141406998Y-130685761D01*
X141408040Y-130683750D01*
X141406882Y-130680508D01*
X141402842Y-130675507D01*
X141395241Y-130668218D01*
X141383396Y-130658112D01*
X141366629Y-130644660D01*
X141344258Y-130627333D01*
X141315603Y-130605603D01*
X141279982Y-130578940D01*
X141236716Y-130546816D01*
X141185124Y-130508702D01*
X141124525Y-130464070D01*
X141054239Y-130412389D01*
X140978215Y-130356703D01*
X140904170Y-130302989D01*
X140838719Y-130256246D01*
X140781048Y-130216008D01*
X140730342Y-130181809D01*
X140685786Y-130153184D01*
X140646567Y-130129669D01*
X140611870Y-130110799D01*
X140580880Y-130096107D01*
X140552783Y-130085130D01*
X140526764Y-130077402D01*
X140502009Y-130072458D01*
X140477704Y-130069832D01*
X140453034Y-130069060D01*
X140418597Y-130069060D01*
X140418597Y-129638225D01*
X140418597Y-129207390D01*
X140484409Y-129269981D01*
G37*
G36*
X140485919Y-128355359D02*
G01*
X140544868Y-128386856D01*
X141423329Y-128386856D01*
X142301789Y-128386856D01*
X142298143Y-128714840D01*
X142297925Y-128733916D01*
X142297121Y-128796568D01*
X142296241Y-128854923D01*
X142295312Y-128907760D01*
X142294360Y-128953858D01*
X142293412Y-128991998D01*
X142292496Y-129020958D01*
X142291637Y-129039518D01*
X142290863Y-129046458D01*
X142290763Y-129046539D01*
X142283310Y-129045311D01*
X142268007Y-129039104D01*
X142248039Y-129029204D01*
X142215929Y-129014952D01*
X142162851Y-129002412D01*
X142153846Y-129001704D01*
X142131098Y-129000802D01*
X142097252Y-128999981D01*
X142053308Y-128999241D01*
X142000263Y-128998582D01*
X141939113Y-128998003D01*
X141870856Y-128997504D01*
X141796490Y-128997085D01*
X141717012Y-128996745D01*
X141633419Y-128996485D01*
X141546710Y-128996304D01*
X141457880Y-128996202D01*
X141367928Y-128996178D01*
X141277850Y-128996232D01*
X141188645Y-128996364D01*
X141101310Y-128996573D01*
X141016842Y-128996860D01*
X140936239Y-128997224D01*
X140860497Y-128997664D01*
X140790615Y-128998181D01*
X140727589Y-128998774D01*
X140672418Y-128999443D01*
X140626098Y-129000188D01*
X140589626Y-129001008D01*
X140564001Y-129001903D01*
X140550220Y-129002872D01*
X140547059Y-129003304D01*
X140514570Y-129009319D01*
X140488654Y-129018148D01*
X140463542Y-129031708D01*
X140428228Y-129053672D01*
X140424521Y-129014008D01*
X140424451Y-129013238D01*
X140423294Y-128993183D01*
X140422288Y-128962208D01*
X140421440Y-128922130D01*
X140420755Y-128874768D01*
X140420237Y-128821938D01*
X140419893Y-128765458D01*
X140419728Y-128707146D01*
X140419746Y-128648820D01*
X140419954Y-128592297D01*
X140420356Y-128539394D01*
X140420958Y-128491930D01*
X140421766Y-128451721D01*
X140422784Y-128420586D01*
X140426970Y-128323862D01*
X140485919Y-128355359D01*
G37*
G36*
X141085615Y-124914565D02*
G01*
X141109060Y-124914941D01*
X141149301Y-124915916D01*
X141184228Y-124917185D01*
X141211960Y-124918657D01*
X141230614Y-124920241D01*
X141238310Y-124921850D01*
X141241145Y-124928868D01*
X141243793Y-124947434D01*
X141245395Y-124974753D01*
X141245925Y-125008572D01*
X141245356Y-125046633D01*
X141243658Y-125086683D01*
X141240805Y-125126466D01*
X141239350Y-125141540D01*
X141229679Y-125205471D01*
X141214776Y-125259421D01*
X141193881Y-125305130D01*
X141166239Y-125344340D01*
X141131092Y-125378792D01*
X141127090Y-125382089D01*
X141100965Y-125400774D01*
X141075584Y-125412337D01*
X141046507Y-125418287D01*
X141009295Y-125420128D01*
X140987652Y-125419900D01*
X140954249Y-125416824D01*
X140927406Y-125409131D01*
X140903179Y-125395452D01*
X140877621Y-125374418D01*
X140861720Y-125359224D01*
X140840286Y-125334390D01*
X140824978Y-125308295D01*
X140812567Y-125276062D01*
X140812082Y-125274495D01*
X140807933Y-125250927D01*
X140805758Y-125215693D01*
X140805620Y-125169740D01*
X140806323Y-125137231D01*
X140807557Y-125112443D01*
X140809957Y-125093838D01*
X140814191Y-125078004D01*
X140820927Y-125061534D01*
X140830833Y-125041018D01*
X140836866Y-125029363D01*
X140862625Y-124989815D01*
X140896439Y-124952780D01*
X140938258Y-124912623D01*
X141085615Y-124914565D01*
G37*
G36*
X141832645Y-122975873D02*
G01*
X141849048Y-123007161D01*
X141872386Y-123063170D01*
X141885956Y-123116592D01*
X141890553Y-123170097D01*
X141889379Y-123208643D01*
X141883977Y-123243186D01*
X141873058Y-123274691D01*
X141855367Y-123308070D01*
X141852025Y-123313453D01*
X141821632Y-123350154D01*
X141780312Y-123382644D01*
X141727701Y-123411127D01*
X141663436Y-123435803D01*
X141587151Y-123456874D01*
X141582827Y-123457868D01*
X141563873Y-123461658D01*
X141543227Y-123464695D01*
X141519032Y-123467106D01*
X141489429Y-123469017D01*
X141452559Y-123470553D01*
X141406565Y-123471841D01*
X141349588Y-123473007D01*
X141336460Y-123473243D01*
X141284335Y-123474076D01*
X141242677Y-123474470D01*
X141209546Y-123474350D01*
X141183000Y-123473638D01*
X141161100Y-123472258D01*
X141141904Y-123470134D01*
X141123473Y-123467190D01*
X141103865Y-123463349D01*
X141047456Y-123448173D01*
X140992441Y-123425883D01*
X140943928Y-123398260D01*
X140903492Y-123366368D01*
X140872706Y-123331269D01*
X140853142Y-123294025D01*
X140851374Y-123288527D01*
X140845212Y-123256277D01*
X140842648Y-123216889D01*
X140843622Y-123174627D01*
X140848072Y-123133756D01*
X140855937Y-123098541D01*
X140872678Y-123052515D01*
X140898187Y-122998306D01*
X140926989Y-122950190D01*
X140945705Y-122922902D01*
X141374430Y-122922902D01*
X141803155Y-122922902D01*
X141832645Y-122975873D01*
G37*
G36*
X153863040Y-130667760D02*
G01*
X153857960Y-130672840D01*
X153852880Y-130667760D01*
X153857960Y-130662680D01*
X153863040Y-130667760D01*
G37*
G36*
X156502831Y-129973260D02*
G01*
X156497353Y-129992640D01*
X156483047Y-130024723D01*
X156461720Y-130066123D01*
X156435177Y-130113451D01*
X156405226Y-130163320D01*
X156373673Y-130212342D01*
X156327128Y-130278258D01*
X156276460Y-130339518D01*
X156226977Y-130386471D01*
X156175818Y-130421781D01*
X156120117Y-130448108D01*
X156098351Y-130456247D01*
X155978107Y-130493778D01*
X155839673Y-130525922D01*
X155684267Y-130552496D01*
X155513107Y-130573319D01*
X155327411Y-130588207D01*
X155128397Y-130596976D01*
X154934920Y-130602302D01*
X155178760Y-130535866D01*
X155257679Y-130514217D01*
X155418520Y-130468998D01*
X155561221Y-130427195D01*
X155687014Y-130388409D01*
X155797127Y-130352244D01*
X155892791Y-130318301D01*
X155975235Y-130286183D01*
X156045688Y-130255492D01*
X156080122Y-130238118D01*
X156138054Y-130205233D01*
X156206129Y-130163434D01*
X156281020Y-130114839D01*
X156359401Y-130061568D01*
X156437941Y-130005739D01*
X156443975Y-130001406D01*
X156472638Y-129982520D01*
X156493558Y-129971510D01*
X156502562Y-129970644D01*
X156502831Y-129973260D01*
G37*
G36*
X155615351Y-131635246D02*
G01*
X155600777Y-131650941D01*
X155572872Y-131675774D01*
X155533637Y-131708223D01*
X155485071Y-131746772D01*
X155429172Y-131789901D01*
X155367940Y-131836092D01*
X155303374Y-131883825D01*
X155237474Y-131931581D01*
X155172239Y-131977843D01*
X155109668Y-132021091D01*
X155051760Y-132059806D01*
X154959686Y-132118999D01*
X154822159Y-132202448D01*
X154692911Y-132273702D01*
X154568321Y-132334213D01*
X154444766Y-132385436D01*
X154318623Y-132428825D01*
X154186270Y-132465831D01*
X154044083Y-132497909D01*
X153888440Y-132526512D01*
X153747538Y-132548248D01*
X153568747Y-132571625D01*
X153379739Y-132592388D01*
X153185499Y-132610135D01*
X152991010Y-132624459D01*
X152801254Y-132634956D01*
X152621217Y-132641222D01*
X152455880Y-132642852D01*
X152262840Y-132641836D01*
X152857200Y-132522200D01*
X152964993Y-132500485D01*
X153095484Y-132474118D01*
X153209055Y-132451031D01*
X153307439Y-132430836D01*
X153392372Y-132413143D01*
X153465587Y-132397565D01*
X153528820Y-132383711D01*
X153583805Y-132371194D01*
X153632276Y-132359624D01*
X153675969Y-132348612D01*
X153716617Y-132337769D01*
X153755955Y-132326706D01*
X153795718Y-132315035D01*
X153837640Y-132302366D01*
X153920637Y-132276215D01*
X154040053Y-132236464D01*
X154174151Y-132189840D01*
X154320783Y-132137146D01*
X154477798Y-132079187D01*
X154643049Y-132016768D01*
X154814386Y-131950694D01*
X154989659Y-131881769D01*
X155166720Y-131810798D01*
X155343420Y-131738585D01*
X155359326Y-131732028D01*
X155427291Y-131704206D01*
X155488403Y-131679500D01*
X155540280Y-131658849D01*
X155580543Y-131643195D01*
X155606810Y-131633477D01*
X155616702Y-131630635D01*
X155615351Y-131635246D01*
G37*
G36*
X152607881Y-128617195D02*
G01*
X152644040Y-128619560D01*
X152697711Y-128624326D01*
X152770220Y-128631540D01*
X152883021Y-128643771D01*
X153136833Y-128675819D01*
X153392808Y-128714104D01*
X153647744Y-128757980D01*
X153898441Y-128806805D01*
X154141696Y-128859934D01*
X154374309Y-128916724D01*
X154593079Y-128976530D01*
X154794803Y-129038709D01*
X154892262Y-129072483D01*
X155118351Y-129165315D01*
X155333152Y-129274831D01*
X155537503Y-129401482D01*
X155732240Y-129545720D01*
X155773357Y-129580002D01*
X155821831Y-129622353D01*
X155874375Y-129669734D01*
X155928218Y-129719523D01*
X155980588Y-129769095D01*
X156028714Y-129815826D01*
X156069824Y-129857092D01*
X156101146Y-129890270D01*
X156119909Y-129912735D01*
X156140287Y-129941352D01*
X156116724Y-129932168D01*
X156103531Y-129926867D01*
X156073365Y-129914614D01*
X156028831Y-129896466D01*
X155972218Y-129873358D01*
X155905816Y-129846224D01*
X155831914Y-129815999D01*
X155752800Y-129783618D01*
X155710063Y-129766126D01*
X155523415Y-129689950D01*
X155350060Y-129619632D01*
X155187823Y-129554363D01*
X155034529Y-129493333D01*
X154888005Y-129435734D01*
X154746075Y-129380757D01*
X154606564Y-129327593D01*
X154467298Y-129275433D01*
X154326103Y-129223468D01*
X154180804Y-129170889D01*
X154029225Y-129116888D01*
X153869194Y-129060656D01*
X153698534Y-129001383D01*
X153515072Y-128938260D01*
X153316632Y-128870480D01*
X153101040Y-128797232D01*
X153072943Y-128787705D01*
X152978456Y-128755661D01*
X152890125Y-128725695D01*
X152809820Y-128698443D01*
X152739410Y-128674538D01*
X152680767Y-128654617D01*
X152635758Y-128639314D01*
X152606255Y-128629263D01*
X152594126Y-128625101D01*
X152591192Y-128624016D01*
X152582784Y-128619471D01*
X152587904Y-128617182D01*
X152607881Y-128617195D01*
G37*
G36*
X153949672Y-130672795D02*
G01*
X154004726Y-130674050D01*
X154070508Y-130676042D01*
X154144579Y-130678682D01*
X154224501Y-130681884D01*
X154307834Y-130685561D01*
X154392141Y-130689624D01*
X154474983Y-130693987D01*
X154553920Y-130698562D01*
X154662203Y-130705494D01*
X154853276Y-130719508D01*
X155025756Y-130734651D01*
X155179357Y-130750889D01*
X155313797Y-130768186D01*
X155428790Y-130786509D01*
X155524053Y-130805821D01*
X155599301Y-130826090D01*
X155674995Y-130858731D01*
X155757443Y-130911754D01*
X155844390Y-130984490D01*
X155863315Y-131002410D01*
X155897350Y-131037368D01*
X155928720Y-131074234D01*
X155958650Y-131115148D01*
X155988363Y-131162251D01*
X156019082Y-131217682D01*
X156052031Y-131283583D01*
X156088432Y-131362093D01*
X156129510Y-131455353D01*
X156176487Y-131565504D01*
X156190892Y-131599647D01*
X156157266Y-131575997D01*
X156142513Y-131565478D01*
X156111627Y-131543146D01*
X156073161Y-131515117D01*
X156032200Y-131485086D01*
X156026992Y-131481263D01*
X155947045Y-131424173D01*
X155855418Y-131361214D01*
X155757761Y-131296153D01*
X155659723Y-131232758D01*
X155566952Y-131174796D01*
X155534642Y-131155500D01*
X155477857Y-131124240D01*
X155419229Y-131095860D01*
X155355163Y-131068891D01*
X155282061Y-131041864D01*
X155196329Y-131013310D01*
X155094369Y-130981760D01*
X155080090Y-130977532D01*
X155026380Y-130962371D01*
X154956782Y-130943514D01*
X154874186Y-130921688D01*
X154781485Y-130897623D01*
X154681570Y-130872047D01*
X154577332Y-130845688D01*
X154471664Y-130819274D01*
X154367456Y-130793535D01*
X154267600Y-130769198D01*
X154174988Y-130746992D01*
X154092511Y-130727645D01*
X154023060Y-130711886D01*
X153995615Y-130705732D01*
X153947195Y-130694459D01*
X153908370Y-130684866D01*
X153882563Y-130677815D01*
X153873200Y-130674168D01*
X153881502Y-130672844D01*
X153907785Y-130672364D01*
X153949672Y-130672795D01*
G37*
G36*
X147736557Y-123512580D02*
G01*
X147736554Y-123738640D01*
X147370797Y-123931550D01*
X147337947Y-123948897D01*
X147260963Y-123989725D01*
X147190638Y-124027265D01*
X147128862Y-124060492D01*
X147077525Y-124088381D01*
X147038515Y-124109908D01*
X147013724Y-124124050D01*
X147005040Y-124129782D01*
X147006242Y-124130814D01*
X147021199Y-124139414D01*
X147051734Y-124155695D01*
X147095924Y-124178671D01*
X147151848Y-124207353D01*
X147217584Y-124240754D01*
X147291209Y-124277886D01*
X147370800Y-124317760D01*
X147736560Y-124500415D01*
X147736560Y-124726588D01*
X147736560Y-124952760D01*
X147253960Y-124952760D01*
X146771360Y-124952760D01*
X146771360Y-124805440D01*
X146771360Y-124658120D01*
X147058380Y-124658928D01*
X147135276Y-124659394D01*
X147213052Y-124660351D01*
X147285283Y-124661708D01*
X147348273Y-124663381D01*
X147398330Y-124665288D01*
X147431760Y-124667345D01*
X147447371Y-124668660D01*
X147484358Y-124671232D01*
X147511002Y-124672292D01*
X147522364Y-124671607D01*
X147520720Y-124670229D01*
X147504683Y-124661234D01*
X147473157Y-124644738D01*
X147428016Y-124621687D01*
X147371131Y-124593027D01*
X147304376Y-124559703D01*
X147229622Y-124522662D01*
X147148742Y-124482850D01*
X146770876Y-124297440D01*
X146773658Y-124141056D01*
X146776440Y-123984671D01*
X147150270Y-123786752D01*
X147190810Y-123765264D01*
X147267927Y-123724239D01*
X147338144Y-123686692D01*
X147399615Y-123653622D01*
X147450493Y-123626028D01*
X147488933Y-123604908D01*
X147513087Y-123591262D01*
X147521110Y-123586089D01*
X147518163Y-123585736D01*
X147498826Y-123585864D01*
X147464577Y-123587006D01*
X147419010Y-123589030D01*
X147365720Y-123591806D01*
X147307110Y-123594475D01*
X147233728Y-123596894D01*
X147152590Y-123598869D01*
X147070019Y-123600247D01*
X146992340Y-123600874D01*
X146771360Y-123601480D01*
X146771360Y-123444000D01*
X146771360Y-123286520D01*
X147253960Y-123286520D01*
X147736560Y-123286520D01*
X147736557Y-123512580D01*
G37*
G36*
X147693757Y-121835355D02*
G01*
X147699799Y-121859066D01*
X147708617Y-121899592D01*
X147718372Y-121948978D01*
X147727843Y-122001280D01*
X147732768Y-122033280D01*
X147741568Y-122119992D01*
X147745703Y-122213606D01*
X147745275Y-122308765D01*
X147740382Y-122400108D01*
X147731125Y-122482280D01*
X147717604Y-122549920D01*
X147688255Y-122639850D01*
X147641984Y-122736362D01*
X147585089Y-122818036D01*
X147518636Y-122884032D01*
X147443691Y-122933510D01*
X147361320Y-122965631D01*
X147272589Y-122979556D01*
X147178564Y-122974445D01*
X147164447Y-122972075D01*
X147071227Y-122945794D01*
X146989657Y-122902954D01*
X146919875Y-122843731D01*
X146862020Y-122768300D01*
X146816229Y-122676836D01*
X146782642Y-122569514D01*
X146761397Y-122446510D01*
X146757937Y-122409670D01*
X146754229Y-122313149D01*
X146756283Y-122207220D01*
X146763696Y-122098806D01*
X146776066Y-121994831D01*
X146792992Y-121902220D01*
X146803867Y-121853960D01*
X146889214Y-121853960D01*
X146904252Y-121854080D01*
X146940184Y-121855479D01*
X146965184Y-121858119D01*
X146974559Y-121861580D01*
X146974479Y-121862788D01*
X146972006Y-121879178D01*
X146966772Y-121908966D01*
X146959724Y-121946716D01*
X146946437Y-122025049D01*
X146933761Y-122135196D01*
X146929162Y-122237353D01*
X146932618Y-122328847D01*
X146944110Y-122407006D01*
X146963619Y-122469157D01*
X146972054Y-122486677D01*
X147013825Y-122545617D01*
X147069548Y-122590134D01*
X147138464Y-122619741D01*
X147219811Y-122633948D01*
X147288152Y-122633729D01*
X147366044Y-122618023D01*
X147432860Y-122585497D01*
X147487882Y-122536660D01*
X147530392Y-122472025D01*
X147559671Y-122392103D01*
X147561373Y-122385078D01*
X147570473Y-122321308D01*
X147572554Y-122244943D01*
X147567902Y-122161609D01*
X147556804Y-122076933D01*
X147539546Y-121996540D01*
X147532588Y-121969923D01*
X147523491Y-121933713D01*
X147517648Y-121908535D01*
X147516087Y-121898681D01*
X147519355Y-121896465D01*
X147536292Y-121885321D01*
X147564246Y-121867058D01*
X147599400Y-121844175D01*
X147680680Y-121791349D01*
X147693757Y-121835355D01*
G37*
G36*
X147081866Y-127807720D02*
G01*
X147080145Y-127814580D01*
X147073309Y-127841182D01*
X147062899Y-127881288D01*
X147049987Y-127930776D01*
X147035646Y-127985520D01*
X147005354Y-128108053D01*
X146972943Y-128253685D01*
X146940397Y-128413780D01*
X146908217Y-128585355D01*
X146876902Y-128765426D01*
X146846950Y-128951010D01*
X146818862Y-129139121D01*
X146793135Y-129326777D01*
X146770269Y-129510993D01*
X146750763Y-129688785D01*
X146744781Y-129753706D01*
X146739357Y-129828409D01*
X146735079Y-129908517D01*
X146731959Y-129995267D01*
X146730006Y-130089901D01*
X146729232Y-130193657D01*
X146729649Y-130307775D01*
X146731266Y-130433495D01*
X146734095Y-130572057D01*
X146738147Y-130724700D01*
X146743433Y-130892665D01*
X146749963Y-131077190D01*
X146757750Y-131279515D01*
X146766803Y-131500880D01*
X146769116Y-131555541D01*
X146773261Y-131651167D01*
X146777505Y-131746462D01*
X146781663Y-131837432D01*
X146785552Y-131920081D01*
X146788988Y-131990415D01*
X146791788Y-132044440D01*
X146794043Y-132087921D01*
X146796873Y-132149268D01*
X146799036Y-132204584D01*
X146800352Y-132249119D01*
X146800641Y-132278120D01*
X146799831Y-132334000D01*
X146785100Y-132288280D01*
X146780151Y-132271899D01*
X146769796Y-132235304D01*
X146756457Y-132186524D01*
X146741322Y-132129917D01*
X146725578Y-132069840D01*
X146722986Y-132059815D01*
X146645588Y-131723229D01*
X146585767Y-131381809D01*
X146543179Y-131033232D01*
X146517476Y-130675173D01*
X146516660Y-130656778D01*
X146514036Y-130568710D01*
X146512689Y-130467020D01*
X146512551Y-130355947D01*
X146513549Y-130239735D01*
X146515615Y-130122623D01*
X146518677Y-130008853D01*
X146522666Y-129902667D01*
X146527511Y-129808306D01*
X146533142Y-129730011D01*
X146545890Y-129603515D01*
X146590525Y-129298712D01*
X146655060Y-128990812D01*
X146739419Y-128680119D01*
X146843521Y-128366934D01*
X146967290Y-128051560D01*
X146990275Y-127997509D01*
X147019111Y-127930980D01*
X147043347Y-127876649D01*
X147062361Y-127835837D01*
X147075532Y-127809864D01*
X147082241Y-127800051D01*
X147081866Y-127807720D01*
G37*
G36*
X159009974Y-132298936D02*
G01*
X159011892Y-132303496D01*
X159001698Y-132313469D01*
X158978203Y-132329639D01*
X158940221Y-132352788D01*
X158886562Y-132383701D01*
X158816040Y-132423161D01*
X158641092Y-132519021D01*
X158153498Y-132774889D01*
X157648220Y-133024130D01*
X157126518Y-133266309D01*
X156589649Y-133500989D01*
X156038871Y-133727735D01*
X155475442Y-133946110D01*
X154900620Y-134155679D01*
X154315664Y-134356006D01*
X153721832Y-134546655D01*
X153120381Y-134727189D01*
X152512569Y-134897174D01*
X151899655Y-135056174D01*
X151282897Y-135203751D01*
X150663553Y-135339471D01*
X150042880Y-135462898D01*
X150006599Y-135469708D01*
X149847604Y-135498809D01*
X149680976Y-135528200D01*
X149508250Y-135557664D01*
X149330962Y-135586989D01*
X149150648Y-135615959D01*
X148968841Y-135644361D01*
X148787079Y-135671979D01*
X148606896Y-135698600D01*
X148429828Y-135724009D01*
X148257409Y-135747991D01*
X148091177Y-135770333D01*
X147932665Y-135790820D01*
X147783409Y-135809237D01*
X147644945Y-135825371D01*
X147518808Y-135839006D01*
X147406533Y-135849929D01*
X147309656Y-135857924D01*
X147229712Y-135862779D01*
X147168237Y-135864277D01*
X147134173Y-135863685D01*
X147116089Y-135861690D01*
X147112393Y-135857401D01*
X147120075Y-135849920D01*
X147124523Y-135846808D01*
X147132050Y-135842423D01*
X147142294Y-135837446D01*
X147156097Y-135831625D01*
X147174297Y-135824708D01*
X147197737Y-135816444D01*
X147227255Y-135806580D01*
X147263693Y-135794866D01*
X147307891Y-135781049D01*
X147360690Y-135764877D01*
X147422929Y-135746100D01*
X147495449Y-135724465D01*
X147579090Y-135699721D01*
X147674694Y-135671616D01*
X147783100Y-135639898D01*
X147905149Y-135604315D01*
X148041680Y-135564617D01*
X148193536Y-135520550D01*
X148361555Y-135471864D01*
X148546579Y-135418307D01*
X148749447Y-135359626D01*
X148971000Y-135295571D01*
X149208841Y-135226787D01*
X149856893Y-135039033D01*
X150485763Y-134856329D01*
X151095790Y-134678576D01*
X151687315Y-134505671D01*
X152260678Y-134337513D01*
X152816220Y-134174000D01*
X153354281Y-134015030D01*
X153875201Y-133860503D01*
X154379322Y-133710316D01*
X154866984Y-133564368D01*
X155338527Y-133422557D01*
X155794291Y-133284782D01*
X156234618Y-133150941D01*
X156659847Y-133020933D01*
X157070320Y-132894655D01*
X157466376Y-132772007D01*
X157848356Y-132652887D01*
X158216600Y-132537193D01*
X158335313Y-132499791D01*
X158469796Y-132457549D01*
X158586680Y-132421006D01*
X158686938Y-132389869D01*
X158771547Y-132363841D01*
X158841480Y-132342627D01*
X158897713Y-132325933D01*
X158941222Y-132313462D01*
X158972982Y-132304920D01*
X158993967Y-132300011D01*
X159005154Y-132298440D01*
X159009974Y-132298936D01*
G37*
G36*
X151277613Y-129669050D02*
G01*
X151279468Y-129675221D01*
X151279530Y-129699898D01*
X151276230Y-129740500D01*
X151269962Y-129794546D01*
X151261118Y-129859552D01*
X151250090Y-129933033D01*
X151237270Y-130012508D01*
X151223052Y-130095493D01*
X151207828Y-130179504D01*
X151191990Y-130262059D01*
X151175931Y-130340674D01*
X151160044Y-130412865D01*
X151138759Y-130499910D01*
X151079863Y-130704034D01*
X151006889Y-130916766D01*
X150921102Y-131135305D01*
X150823769Y-131356853D01*
X150716155Y-131578612D01*
X150599524Y-131797782D01*
X150475144Y-132011565D01*
X150344278Y-132217160D01*
X150296909Y-132287458D01*
X150146285Y-132500609D01*
X149991255Y-132703818D01*
X149828223Y-132901500D01*
X149653591Y-133098072D01*
X149463760Y-133297949D01*
X149462038Y-133299709D01*
X149252280Y-133507762D01*
X149038845Y-133706752D01*
X148818510Y-133899409D01*
X148588052Y-134088463D01*
X148344247Y-134276644D01*
X148083870Y-134466684D01*
X148072731Y-134474580D01*
X148009288Y-134518756D01*
X147935236Y-134569264D01*
X147853984Y-134623863D01*
X147768946Y-134680310D01*
X147683532Y-134736365D01*
X147601156Y-134789785D01*
X147525227Y-134838330D01*
X147459158Y-134879757D01*
X147406360Y-134911825D01*
X147344108Y-134948171D01*
X147251958Y-135000588D01*
X147150606Y-135056908D01*
X147041476Y-135116418D01*
X146925995Y-135178405D01*
X146805588Y-135242157D01*
X146681682Y-135306960D01*
X146555702Y-135372102D01*
X146429075Y-135436871D01*
X146303226Y-135500554D01*
X146179581Y-135562438D01*
X146059566Y-135621810D01*
X145944607Y-135677959D01*
X145836130Y-135730170D01*
X145735560Y-135777733D01*
X145644324Y-135819933D01*
X145563847Y-135856058D01*
X145495556Y-135885397D01*
X145440876Y-135907235D01*
X145401233Y-135920860D01*
X145378052Y-135925560D01*
X145373907Y-135924416D01*
X145375323Y-135917423D01*
X145387534Y-135903370D01*
X145411484Y-135881450D01*
X145448120Y-135850855D01*
X145498387Y-135810778D01*
X145563232Y-135760413D01*
X145643600Y-135698953D01*
X145701443Y-135654945D01*
X145802719Y-135577830D01*
X145890976Y-135510512D01*
X145968316Y-135451360D01*
X146036841Y-135398746D01*
X146098653Y-135351039D01*
X146155853Y-135306610D01*
X146210543Y-135263830D01*
X146264825Y-135221068D01*
X146320801Y-135176694D01*
X146380572Y-135129080D01*
X146446240Y-135076595D01*
X146556741Y-134987673D01*
X146914002Y-134693127D01*
X147263854Y-134393904D01*
X147605589Y-134090788D01*
X147938498Y-133784565D01*
X148261875Y-133476017D01*
X148575011Y-133165928D01*
X148877199Y-132855083D01*
X149167730Y-132544265D01*
X149445896Y-132234258D01*
X149710990Y-131925846D01*
X149962304Y-131619814D01*
X150199130Y-131316944D01*
X150420759Y-131018021D01*
X150626485Y-130723829D01*
X150815599Y-130435152D01*
X150987393Y-130152774D01*
X151141159Y-129877478D01*
X151142772Y-129874449D01*
X151182204Y-129801532D01*
X151213785Y-129745719D01*
X151238315Y-129705787D01*
X151256596Y-129680514D01*
X151269429Y-129668676D01*
X151277613Y-129669050D01*
G37*
G36*
X148602074Y-125981516D02*
G01*
X148637587Y-125986386D01*
X148691207Y-125995188D01*
X148762147Y-126007765D01*
X148849619Y-126023962D01*
X148952837Y-126043622D01*
X149071014Y-126066589D01*
X149203362Y-126092707D01*
X149349095Y-126121821D01*
X149507426Y-126153773D01*
X149677566Y-126188407D01*
X149858730Y-126225569D01*
X150050131Y-126265101D01*
X150250981Y-126306848D01*
X150460493Y-126350653D01*
X150677880Y-126396360D01*
X151293554Y-126530427D01*
X151963232Y-126686513D01*
X152617743Y-126850258D01*
X153259248Y-127022282D01*
X153889901Y-127203207D01*
X154511862Y-127393654D01*
X155127287Y-127594244D01*
X155738334Y-127805597D01*
X156347160Y-128028335D01*
X156628984Y-128135814D01*
X157033000Y-128295516D01*
X157427913Y-128458318D01*
X157812488Y-128623637D01*
X158185493Y-128790893D01*
X158545693Y-128959503D01*
X158891855Y-129128886D01*
X159222744Y-129298461D01*
X159537127Y-129467647D01*
X159833771Y-129635860D01*
X160111440Y-129802521D01*
X160189808Y-129851502D01*
X160303921Y-129924284D01*
X160423280Y-130001895D01*
X160545057Y-130082418D01*
X160666423Y-130163934D01*
X160784550Y-130244523D01*
X160896608Y-130322267D01*
X160999768Y-130395247D01*
X161091202Y-130461544D01*
X161168080Y-130519239D01*
X161176892Y-130526045D01*
X161216007Y-130556900D01*
X161259089Y-130591703D01*
X161303309Y-130628072D01*
X161345834Y-130663624D01*
X161383837Y-130695980D01*
X161414485Y-130722758D01*
X161434950Y-130741576D01*
X161442400Y-130750053D01*
X161442268Y-130750625D01*
X161439772Y-130751113D01*
X161432782Y-130749165D01*
X161419560Y-130744001D01*
X161398373Y-130734843D01*
X161367484Y-130720912D01*
X161325157Y-130701429D01*
X161269658Y-130675615D01*
X161199251Y-130642693D01*
X161112200Y-130601882D01*
X161103859Y-130597971D01*
X160858474Y-130484614D01*
X160594464Y-130365764D01*
X160312644Y-130241735D01*
X160013830Y-130112838D01*
X159698836Y-129979389D01*
X159368479Y-129841700D01*
X159023573Y-129700084D01*
X158664934Y-129554854D01*
X158293378Y-129406324D01*
X157909719Y-129254807D01*
X157514773Y-129100616D01*
X157109356Y-128944064D01*
X156694283Y-128785465D01*
X156270368Y-128625132D01*
X155838429Y-128463378D01*
X155399279Y-128300517D01*
X154953734Y-128136861D01*
X154502610Y-127972724D01*
X154046722Y-127808419D01*
X153586886Y-127644259D01*
X153123916Y-127480558D01*
X152658628Y-127317629D01*
X152191838Y-127155785D01*
X151724360Y-126995339D01*
X151572937Y-126943724D01*
X151400023Y-126885038D01*
X151233808Y-126828944D01*
X151072548Y-126774882D01*
X150914499Y-126722291D01*
X150757916Y-126670610D01*
X150601054Y-126619278D01*
X150442169Y-126567735D01*
X150279517Y-126515419D01*
X150111351Y-126461771D01*
X149935929Y-126406229D01*
X149751506Y-126348233D01*
X149556336Y-126287222D01*
X149348675Y-126222634D01*
X149126780Y-126153911D01*
X148888904Y-126080490D01*
X148633304Y-126001810D01*
X148611599Y-125994627D01*
X148590727Y-125986170D01*
X148584380Y-125981154D01*
X148585454Y-125980733D01*
X148602074Y-125981516D01*
G37*
G36*
X155768245Y-134117427D02*
G01*
X155766709Y-134129576D01*
X155760872Y-134155603D01*
X155751781Y-134190740D01*
X155683859Y-134418542D01*
X155580962Y-134707724D01*
X155460589Y-134994788D01*
X155324190Y-135276775D01*
X155173216Y-135550730D01*
X155009116Y-135813698D01*
X154833343Y-136062720D01*
X154645809Y-136298527D01*
X154448319Y-136519977D01*
X154242599Y-136725219D01*
X154029285Y-136913851D01*
X153809011Y-137085470D01*
X153582415Y-137239673D01*
X153350132Y-137376058D01*
X153112799Y-137494223D01*
X152871051Y-137593764D01*
X152625525Y-137674280D01*
X152376856Y-137735367D01*
X152125680Y-137776622D01*
X152118660Y-137777452D01*
X152062423Y-137782289D01*
X151993056Y-137785880D01*
X151914735Y-137788226D01*
X151831638Y-137789330D01*
X151747941Y-137789194D01*
X151667819Y-137787820D01*
X151595451Y-137785210D01*
X151535013Y-137781367D01*
X151490680Y-137776292D01*
X151481008Y-137774700D01*
X151258916Y-137730479D01*
X151028172Y-137670499D01*
X150791521Y-137595698D01*
X150551708Y-137507015D01*
X150311477Y-137405389D01*
X150073573Y-137291758D01*
X149980747Y-137243849D01*
X149737844Y-137108908D01*
X149509980Y-136967889D01*
X149297898Y-136821390D01*
X149102340Y-136670005D01*
X148924045Y-136514330D01*
X148763757Y-136354961D01*
X148622216Y-136192494D01*
X148500164Y-136027525D01*
X148496600Y-136022234D01*
X148470312Y-135982480D01*
X148449411Y-135949612D01*
X148435939Y-135926916D01*
X148431936Y-135917678D01*
X148432158Y-135917654D01*
X148443371Y-135922961D01*
X148469927Y-135937341D01*
X148509888Y-135959693D01*
X148561315Y-135988917D01*
X148622271Y-136023912D01*
X148690817Y-136063577D01*
X148765013Y-136106811D01*
X148914151Y-136193515D01*
X149139993Y-136322652D01*
X149351525Y-136440632D01*
X149550022Y-136547989D01*
X149736757Y-136645257D01*
X149913005Y-136732968D01*
X150080038Y-136811658D01*
X150239132Y-136881860D01*
X150391561Y-136944107D01*
X150538597Y-136998934D01*
X150681515Y-137046873D01*
X150821589Y-137088459D01*
X150960092Y-137124226D01*
X151098299Y-137154706D01*
X151237484Y-137180434D01*
X151378920Y-137201944D01*
X151422087Y-137206784D01*
X151494785Y-137212201D01*
X151580581Y-137216349D01*
X151675356Y-137219199D01*
X151774990Y-137220725D01*
X151875364Y-137220899D01*
X151972360Y-137219692D01*
X152061857Y-137217076D01*
X152139737Y-137213025D01*
X152201880Y-137207509D01*
X152300453Y-137194830D01*
X152566433Y-137149574D01*
X152819514Y-137089373D01*
X153060938Y-137013641D01*
X153291949Y-136921791D01*
X153513789Y-136813235D01*
X153727701Y-136687388D01*
X153934926Y-136543661D01*
X154136709Y-136381468D01*
X154334291Y-136200223D01*
X154388333Y-136146747D01*
X154484170Y-136047665D01*
X154577747Y-135945003D01*
X154669931Y-135837509D01*
X154761591Y-135723929D01*
X154853596Y-135603012D01*
X154946813Y-135473504D01*
X155042111Y-135334154D01*
X155140358Y-135183709D01*
X155242423Y-135020917D01*
X155349173Y-134844524D01*
X155461478Y-134653279D01*
X155580204Y-134445928D01*
X155706222Y-134221220D01*
X155728548Y-134181578D01*
X155747998Y-134148073D01*
X155761827Y-134125410D01*
X155767965Y-134117080D01*
X155768245Y-134117427D01*
G37*
G36*
X151716622Y-123302477D02*
G01*
X151831539Y-123303148D01*
X151930305Y-123304779D01*
X152016026Y-123307623D01*
X152091812Y-123311935D01*
X152160769Y-123317970D01*
X152226007Y-123325983D01*
X152290633Y-123336228D01*
X152357755Y-123348959D01*
X152430480Y-123364432D01*
X152571285Y-123399214D01*
X152779960Y-123464940D01*
X152983271Y-123546670D01*
X153181696Y-123644798D01*
X153375714Y-123759716D01*
X153565803Y-123891816D01*
X153752441Y-124041489D01*
X153936105Y-124209129D01*
X154117274Y-124395127D01*
X154296426Y-124599877D01*
X154474038Y-124823769D01*
X154650589Y-125067196D01*
X154826557Y-125330551D01*
X154831844Y-125338790D01*
X154864959Y-125390999D01*
X154902139Y-125450471D01*
X154942039Y-125514975D01*
X154983318Y-125582281D01*
X155024631Y-125650159D01*
X155064637Y-125716379D01*
X155101992Y-125778711D01*
X155135353Y-125834924D01*
X155163377Y-125882789D01*
X155184721Y-125920075D01*
X155198042Y-125944552D01*
X155201997Y-125953991D01*
X155198229Y-125951077D01*
X155181817Y-125935474D01*
X155153742Y-125907714D01*
X155115449Y-125869256D01*
X155068384Y-125821562D01*
X155013992Y-125766093D01*
X154953718Y-125704308D01*
X154889008Y-125637669D01*
X154825154Y-125572096D01*
X154717175Y-125462555D01*
X154607132Y-125352459D01*
X154497295Y-125244014D01*
X154389935Y-125139426D01*
X154287323Y-125040900D01*
X154191730Y-124950644D01*
X154105425Y-124870862D01*
X154030680Y-124803761D01*
X153854882Y-124653317D01*
X153633413Y-124476569D01*
X153417014Y-124318711D01*
X153205144Y-124179453D01*
X152997261Y-124058504D01*
X152792823Y-123955577D01*
X152591288Y-123870381D01*
X152392114Y-123802627D01*
X152194759Y-123752026D01*
X151998680Y-123718287D01*
X151990911Y-123717325D01*
X151931264Y-123711932D01*
X151856011Y-123707703D01*
X151769191Y-123704666D01*
X151674844Y-123702848D01*
X151577009Y-123702278D01*
X151479728Y-123702982D01*
X151387039Y-123704989D01*
X151302984Y-123708326D01*
X151231600Y-123713021D01*
X151077700Y-123728337D01*
X150819092Y-123765568D01*
X150573841Y-123816423D01*
X150340412Y-123881413D01*
X150117273Y-123961053D01*
X149902887Y-124055852D01*
X149695721Y-124166325D01*
X149494240Y-124292982D01*
X149446388Y-124325811D01*
X149378412Y-124374201D01*
X149313289Y-124423089D01*
X149248946Y-124474285D01*
X149183310Y-124529599D01*
X149114308Y-124590840D01*
X149039866Y-124659818D01*
X148957911Y-124738345D01*
X148866371Y-124828229D01*
X148763171Y-124931281D01*
X148703569Y-124991183D01*
X148630448Y-125064554D01*
X148570766Y-125123947D01*
X148523950Y-125169562D01*
X148489428Y-125201601D01*
X148466627Y-125220269D01*
X148454976Y-125225766D01*
X148453901Y-125218295D01*
X148462830Y-125198058D01*
X148481191Y-125165258D01*
X148508411Y-125120098D01*
X148543918Y-125062778D01*
X148587140Y-124993503D01*
X148726809Y-124782314D01*
X148892271Y-124561999D01*
X149066759Y-124359804D01*
X149250456Y-124175596D01*
X149443549Y-124009239D01*
X149646222Y-123860600D01*
X149858662Y-123729542D01*
X150081053Y-123615933D01*
X150313580Y-123519637D01*
X150556429Y-123440520D01*
X150809785Y-123378446D01*
X150902787Y-123359817D01*
X150991810Y-123343699D01*
X151075644Y-123330776D01*
X151157929Y-123320730D01*
X151242306Y-123313239D01*
X151332417Y-123307983D01*
X151431902Y-123304642D01*
X151544403Y-123302895D01*
X151673560Y-123302422D01*
X151716622Y-123302477D01*
G37*
%TD*%
M02*
