M48
; DRILL file {KiCad 9.0.0-9.0.0-2~ubuntu24.10.1} date 2025-03-31T19:00:50+0200
; FORMAT={-:-/ absolute / metric / decimal}
; #@! TF.CreationDate,2025-03-31T19:00:50+02:00
; #@! TF.GenerationSoftware,Kicad,Pcbnew,9.0.0-9.0.0-2~ubuntu24.10.1
; #@! TF.FileFunction,Plated,1,2,PTH
FMAT,2
METRIC
; #@! TA.AperFunction,Plated,PTH,ViaDrill
T1C0.300
; #@! TA.AperFunction,Plated,PTH,ViaDrill
T2C0.350
; #@! TA.AperFunction,Plated,PTH,ComponentDrill
T3C0.500
; #@! TA.AperFunction,Plated,PTH,ComponentDrill
T4C0.550
; #@! TA.AperFunction,Plated,PTH,ComponentDrill
T5C1.000
%
G90
G05
T1
X141.048Y-129.154
T2
X144.744Y-137.03
X144.78Y-134.62
X147.32Y-132.08
X149.098Y-130.104
X150.876Y-134.366
X152.446Y-130.104
T5
X129.794Y-125.73
X129.794Y-128.27
X129.794Y-130.81
X129.794Y-133.35
X134.62Y-125.73
X134.62Y-128.27
X134.62Y-130.81
X134.62Y-133.35
T3
G00X164.875Y-126.0
M15
G01X165.525Y-126.0
M16
G05
G00X164.875Y-133.0
M15
G01X165.525Y-133.0
M16
G05
T4
G00X162.5Y-127.15
M15
G01X162.5Y-126.85
M16
G05
G00X162.5Y-132.15
M15
G01X162.5Y-131.85
M16
G05
M30
