%TF.GenerationSoftware,KiCad,Pcbnew,9.0.1-9.0.1-0~ubuntu24.10.1*%
%TF.CreationDate,2025-04-11T20:09:19+02:00*%
%TF.ProjectId,usb_uart_1V8,7573625f-7561-4727-945f-3156382e6b69,0.4*%
%TF.SameCoordinates,Original*%
%TF.FileFunction,Legend,Top*%
%TF.FilePolarity,Positive*%
%FSLAX46Y46*%
G04 Gerber Fmt 4.6, Leading zero omitted, Abs format (unit mm)*
G04 Created by KiCad (PCBNEW 9.0.1-9.0.1-0~ubuntu24.10.1) date 2025-04-11 20:09:19*
%MOMM*%
%LPD*%
G01*
G04 APERTURE LIST*
%ADD10C,0.153000*%
%ADD11C,0.150000*%
%ADD12C,0.120000*%
G04 APERTURE END LIST*
D10*
X137160000Y-136652000D02*
X137922000Y-135890000D01*
X135890000Y-123190000D02*
X136890000Y-124256121D01*
X134493000Y-136652000D02*
X135255000Y-135890000D01*
X134493000Y-135890000D02*
X133731000Y-135890000D01*
X135890000Y-123190000D02*
X134890000Y-124256121D01*
X133731000Y-135890000D02*
X134493000Y-136652000D01*
X135255000Y-135890000D02*
X134493000Y-135890000D01*
X137160000Y-135382000D02*
X137160000Y-135890000D01*
X137922000Y-135890000D02*
X137160000Y-135890000D01*
X137160000Y-135890000D02*
X136398000Y-135890000D01*
X134493000Y-135382000D02*
X134493000Y-135890000D01*
X135890000Y-123190000D02*
X135890000Y-122322242D01*
X136398000Y-135890000D02*
X137160000Y-136652000D01*
X133799895Y-120535663D02*
X134133228Y-121535663D01*
X134133228Y-121535663D02*
X134466561Y-120535663D01*
X135371323Y-121440424D02*
X135323704Y-121488044D01*
X135323704Y-121488044D02*
X135180847Y-121535663D01*
X135180847Y-121535663D02*
X135085609Y-121535663D01*
X135085609Y-121535663D02*
X134942752Y-121488044D01*
X134942752Y-121488044D02*
X134847514Y-121392805D01*
X134847514Y-121392805D02*
X134799895Y-121297567D01*
X134799895Y-121297567D02*
X134752276Y-121107091D01*
X134752276Y-121107091D02*
X134752276Y-120964234D01*
X134752276Y-120964234D02*
X134799895Y-120773758D01*
X134799895Y-120773758D02*
X134847514Y-120678520D01*
X134847514Y-120678520D02*
X134942752Y-120583282D01*
X134942752Y-120583282D02*
X135085609Y-120535663D01*
X135085609Y-120535663D02*
X135180847Y-120535663D01*
X135180847Y-120535663D02*
X135323704Y-120583282D01*
X135323704Y-120583282D02*
X135371323Y-120630901D01*
X136371323Y-121440424D02*
X136323704Y-121488044D01*
X136323704Y-121488044D02*
X136180847Y-121535663D01*
X136180847Y-121535663D02*
X136085609Y-121535663D01*
X136085609Y-121535663D02*
X135942752Y-121488044D01*
X135942752Y-121488044D02*
X135847514Y-121392805D01*
X135847514Y-121392805D02*
X135799895Y-121297567D01*
X135799895Y-121297567D02*
X135752276Y-121107091D01*
X135752276Y-121107091D02*
X135752276Y-120964234D01*
X135752276Y-120964234D02*
X135799895Y-120773758D01*
X135799895Y-120773758D02*
X135847514Y-120678520D01*
X135847514Y-120678520D02*
X135942752Y-120583282D01*
X135942752Y-120583282D02*
X136085609Y-120535663D01*
X136085609Y-120535663D02*
X136180847Y-120535663D01*
X136180847Y-120535663D02*
X136323704Y-120583282D01*
X136323704Y-120583282D02*
X136371323Y-120630901D01*
X138085609Y-121535663D02*
X137514181Y-121535663D01*
X137799895Y-121535663D02*
X137799895Y-120535663D01*
X137799895Y-120535663D02*
X137704657Y-120678520D01*
X137704657Y-120678520D02*
X137609419Y-120773758D01*
X137609419Y-120773758D02*
X137514181Y-120821377D01*
X138514181Y-121440424D02*
X138561800Y-121488044D01*
X138561800Y-121488044D02*
X138514181Y-121535663D01*
X138514181Y-121535663D02*
X138466562Y-121488044D01*
X138466562Y-121488044D02*
X138514181Y-121440424D01*
X138514181Y-121440424D02*
X138514181Y-121535663D01*
X139133228Y-120964234D02*
X139037990Y-120916615D01*
X139037990Y-120916615D02*
X138990371Y-120868996D01*
X138990371Y-120868996D02*
X138942752Y-120773758D01*
X138942752Y-120773758D02*
X138942752Y-120726139D01*
X138942752Y-120726139D02*
X138990371Y-120630901D01*
X138990371Y-120630901D02*
X139037990Y-120583282D01*
X139037990Y-120583282D02*
X139133228Y-120535663D01*
X139133228Y-120535663D02*
X139323704Y-120535663D01*
X139323704Y-120535663D02*
X139418942Y-120583282D01*
X139418942Y-120583282D02*
X139466561Y-120630901D01*
X139466561Y-120630901D02*
X139514180Y-120726139D01*
X139514180Y-120726139D02*
X139514180Y-120773758D01*
X139514180Y-120773758D02*
X139466561Y-120868996D01*
X139466561Y-120868996D02*
X139418942Y-120916615D01*
X139418942Y-120916615D02*
X139323704Y-120964234D01*
X139323704Y-120964234D02*
X139133228Y-120964234D01*
X139133228Y-120964234D02*
X139037990Y-121011853D01*
X139037990Y-121011853D02*
X138990371Y-121059472D01*
X138990371Y-121059472D02*
X138942752Y-121154710D01*
X138942752Y-121154710D02*
X138942752Y-121345186D01*
X138942752Y-121345186D02*
X138990371Y-121440424D01*
X138990371Y-121440424D02*
X139037990Y-121488044D01*
X139037990Y-121488044D02*
X139133228Y-121535663D01*
X139133228Y-121535663D02*
X139323704Y-121535663D01*
X139323704Y-121535663D02*
X139418942Y-121488044D01*
X139418942Y-121488044D02*
X139466561Y-121440424D01*
X139466561Y-121440424D02*
X139514180Y-121345186D01*
X139514180Y-121345186D02*
X139514180Y-121154710D01*
X139514180Y-121154710D02*
X139466561Y-121059472D01*
X139466561Y-121059472D02*
X139418942Y-121011853D01*
X139418942Y-121011853D02*
X139323704Y-120964234D01*
X139799895Y-121154710D02*
X139847514Y-121107091D01*
X139847514Y-121107091D02*
X139942752Y-121059472D01*
X139942752Y-121059472D02*
X140133228Y-121154710D01*
X140133228Y-121154710D02*
X140228466Y-121107091D01*
X140228466Y-121107091D02*
X140276085Y-121059472D01*
X141133228Y-120535663D02*
X140657038Y-120535663D01*
X140657038Y-120535663D02*
X140609419Y-121011853D01*
X140609419Y-121011853D02*
X140657038Y-120964234D01*
X140657038Y-120964234D02*
X140752276Y-120916615D01*
X140752276Y-120916615D02*
X140990371Y-120916615D01*
X140990371Y-120916615D02*
X141085609Y-120964234D01*
X141085609Y-120964234D02*
X141133228Y-121011853D01*
X141133228Y-121011853D02*
X141180847Y-121107091D01*
X141180847Y-121107091D02*
X141180847Y-121345186D01*
X141180847Y-121345186D02*
X141133228Y-121440424D01*
X141133228Y-121440424D02*
X141085609Y-121488044D01*
X141085609Y-121488044D02*
X140990371Y-121535663D01*
X140990371Y-121535663D02*
X140752276Y-121535663D01*
X140752276Y-121535663D02*
X140657038Y-121488044D01*
X140657038Y-121488044D02*
X140609419Y-121440424D01*
X141466562Y-120535663D02*
X141799895Y-121535663D01*
X141799895Y-121535663D02*
X142133228Y-120535663D01*
D11*
X157594180Y-121605922D02*
X157594180Y-122177350D01*
X156594180Y-121891636D02*
X157594180Y-121891636D01*
X157594180Y-122415446D02*
X156594180Y-123082112D01*
X157594180Y-123082112D02*
X156594180Y-122415446D01*
X156594180Y-125114207D02*
X157070371Y-124780874D01*
X156594180Y-124542779D02*
X157594180Y-124542779D01*
X157594180Y-124542779D02*
X157594180Y-124923731D01*
X157594180Y-124923731D02*
X157546561Y-125018969D01*
X157546561Y-125018969D02*
X157498942Y-125066588D01*
X157498942Y-125066588D02*
X157403704Y-125114207D01*
X157403704Y-125114207D02*
X157260847Y-125114207D01*
X157260847Y-125114207D02*
X157165609Y-125066588D01*
X157165609Y-125066588D02*
X157117990Y-125018969D01*
X157117990Y-125018969D02*
X157070371Y-124923731D01*
X157070371Y-124923731D02*
X157070371Y-124542779D01*
X157594180Y-125447541D02*
X156594180Y-126114207D01*
X157594180Y-126114207D02*
X156594180Y-125447541D01*
D10*
X160612752Y-137664710D02*
X161374657Y-137664710D01*
X160993704Y-138045663D02*
X160993704Y-137283758D01*
X159199895Y-120789663D02*
X159533228Y-121789663D01*
X159533228Y-121789663D02*
X159866561Y-120789663D01*
X160533228Y-121265853D02*
X160676085Y-121313472D01*
X160676085Y-121313472D02*
X160723704Y-121361091D01*
X160723704Y-121361091D02*
X160771323Y-121456329D01*
X160771323Y-121456329D02*
X160771323Y-121599186D01*
X160771323Y-121599186D02*
X160723704Y-121694424D01*
X160723704Y-121694424D02*
X160676085Y-121742044D01*
X160676085Y-121742044D02*
X160580847Y-121789663D01*
X160580847Y-121789663D02*
X160199895Y-121789663D01*
X160199895Y-121789663D02*
X160199895Y-120789663D01*
X160199895Y-120789663D02*
X160533228Y-120789663D01*
X160533228Y-120789663D02*
X160628466Y-120837282D01*
X160628466Y-120837282D02*
X160676085Y-120884901D01*
X160676085Y-120884901D02*
X160723704Y-120980139D01*
X160723704Y-120980139D02*
X160723704Y-121075377D01*
X160723704Y-121075377D02*
X160676085Y-121170615D01*
X160676085Y-121170615D02*
X160628466Y-121218234D01*
X160628466Y-121218234D02*
X160533228Y-121265853D01*
X160533228Y-121265853D02*
X160199895Y-121265853D01*
X161199895Y-120789663D02*
X161199895Y-121599186D01*
X161199895Y-121599186D02*
X161247514Y-121694424D01*
X161247514Y-121694424D02*
X161295133Y-121742044D01*
X161295133Y-121742044D02*
X161390371Y-121789663D01*
X161390371Y-121789663D02*
X161580847Y-121789663D01*
X161580847Y-121789663D02*
X161676085Y-121742044D01*
X161676085Y-121742044D02*
X161723704Y-121694424D01*
X161723704Y-121694424D02*
X161771323Y-121599186D01*
X161771323Y-121599186D02*
X161771323Y-120789663D01*
X162199895Y-121742044D02*
X162342752Y-121789663D01*
X162342752Y-121789663D02*
X162580847Y-121789663D01*
X162580847Y-121789663D02*
X162676085Y-121742044D01*
X162676085Y-121742044D02*
X162723704Y-121694424D01*
X162723704Y-121694424D02*
X162771323Y-121599186D01*
X162771323Y-121599186D02*
X162771323Y-121503948D01*
X162771323Y-121503948D02*
X162723704Y-121408710D01*
X162723704Y-121408710D02*
X162676085Y-121361091D01*
X162676085Y-121361091D02*
X162580847Y-121313472D01*
X162580847Y-121313472D02*
X162390371Y-121265853D01*
X162390371Y-121265853D02*
X162295133Y-121218234D01*
X162295133Y-121218234D02*
X162247514Y-121170615D01*
X162247514Y-121170615D02*
X162199895Y-121075377D01*
X162199895Y-121075377D02*
X162199895Y-120980139D01*
X162199895Y-120980139D02*
X162247514Y-120884901D01*
X162247514Y-120884901D02*
X162295133Y-120837282D01*
X162295133Y-120837282D02*
X162390371Y-120789663D01*
X162390371Y-120789663D02*
X162628466Y-120789663D01*
X162628466Y-120789663D02*
X162771323Y-120837282D01*
D11*
X144211922Y-121043819D02*
X144545255Y-122043819D01*
X144545255Y-122043819D02*
X144878588Y-121043819D01*
X145783350Y-121948580D02*
X145735731Y-121996200D01*
X145735731Y-121996200D02*
X145592874Y-122043819D01*
X145592874Y-122043819D02*
X145497636Y-122043819D01*
X145497636Y-122043819D02*
X145354779Y-121996200D01*
X145354779Y-121996200D02*
X145259541Y-121900961D01*
X145259541Y-121900961D02*
X145211922Y-121805723D01*
X145211922Y-121805723D02*
X145164303Y-121615247D01*
X145164303Y-121615247D02*
X145164303Y-121472390D01*
X145164303Y-121472390D02*
X145211922Y-121281914D01*
X145211922Y-121281914D02*
X145259541Y-121186676D01*
X145259541Y-121186676D02*
X145354779Y-121091438D01*
X145354779Y-121091438D02*
X145497636Y-121043819D01*
X145497636Y-121043819D02*
X145592874Y-121043819D01*
X145592874Y-121043819D02*
X145735731Y-121091438D01*
X145735731Y-121091438D02*
X145783350Y-121139057D01*
X146783350Y-121948580D02*
X146735731Y-121996200D01*
X146735731Y-121996200D02*
X146592874Y-122043819D01*
X146592874Y-122043819D02*
X146497636Y-122043819D01*
X146497636Y-122043819D02*
X146354779Y-121996200D01*
X146354779Y-121996200D02*
X146259541Y-121900961D01*
X146259541Y-121900961D02*
X146211922Y-121805723D01*
X146211922Y-121805723D02*
X146164303Y-121615247D01*
X146164303Y-121615247D02*
X146164303Y-121472390D01*
X146164303Y-121472390D02*
X146211922Y-121281914D01*
X146211922Y-121281914D02*
X146259541Y-121186676D01*
X146259541Y-121186676D02*
X146354779Y-121091438D01*
X146354779Y-121091438D02*
X146497636Y-121043819D01*
X146497636Y-121043819D02*
X146592874Y-121043819D01*
X146592874Y-121043819D02*
X146735731Y-121091438D01*
X146735731Y-121091438D02*
X146783350Y-121139057D01*
D12*
%TO.C,R6*%
X139923000Y-132755621D02*
X139923000Y-132420379D01*
X140683000Y-132755621D02*
X140683000Y-132420379D01*
%TO.C,Q1*%
X143855258Y-125307742D02*
X143205258Y-125307742D01*
X143855258Y-125307742D02*
X144505258Y-125307742D01*
X143855258Y-128427742D02*
X143205258Y-128427742D01*
X143855258Y-128427742D02*
X144505258Y-128427742D01*
X142692758Y-125357742D02*
X142452758Y-125027742D01*
X142932758Y-125027742D01*
X142692758Y-125357742D01*
G36*
X142692758Y-125357742D02*
G01*
X142452758Y-125027742D01*
X142932758Y-125027742D01*
X142692758Y-125357742D01*
G37*
%TO.C,J1*%
X161560000Y-130810000D02*
X161560000Y-131260000D01*
X162010000Y-131260000D02*
X161560000Y-131260000D01*
X162240000Y-125740000D02*
X162240000Y-126160000D01*
X162240000Y-133260000D02*
X162240000Y-132840000D01*
X164220000Y-125740000D02*
X162240000Y-125740000D01*
X164220000Y-133260000D02*
X162240000Y-133260000D01*
X166190000Y-125740000D02*
X166590000Y-125740000D01*
X166590000Y-133260000D02*
X166190000Y-133260000D01*
%TO.C,D2*%
X153001000Y-121468000D02*
X153001000Y-123388000D01*
X153001000Y-123388000D02*
X155686000Y-123388000D01*
X155686000Y-121468000D02*
X153001000Y-121468000D01*
%TO.C,R1*%
X163829276Y-122413500D02*
X164338724Y-122413500D01*
X163829276Y-123458500D02*
X164338724Y-123458500D01*
%TO.C,R7*%
X139698758Y-123189276D02*
X139698758Y-123698724D01*
X140743758Y-123189276D02*
X140743758Y-123698724D01*
%TO.C,C5*%
X142661164Y-130452258D02*
X142876836Y-130452258D01*
X142661164Y-131172258D02*
X142876836Y-131172258D01*
%TO.C,D4*%
X143440258Y-122484000D02*
X143440258Y-124404000D01*
X143440258Y-124404000D02*
X146125258Y-124404000D01*
X146125258Y-122484000D02*
X143440258Y-122484000D01*
%TO.C,R8*%
X139698758Y-126745276D02*
X139698758Y-127254724D01*
X140743758Y-126745276D02*
X140743758Y-127254724D01*
%TO.C,C2*%
X162610748Y-135488000D02*
X164033252Y-135488000D01*
X162610748Y-137308000D02*
X164033252Y-137308000D01*
%TO.C,C4*%
X142876836Y-137056258D02*
X142661164Y-137056258D01*
X142876836Y-137776258D02*
X142661164Y-137776258D01*
%TO.C,C1*%
X159406000Y-136504164D02*
X159406000Y-136719836D01*
X160126000Y-136504164D02*
X160126000Y-136719836D01*
%TO.C,R2*%
X150622724Y-121905500D02*
X150113276Y-121905500D01*
X150622724Y-122950500D02*
X150113276Y-122950500D01*
%TO.C,C3*%
X145944000Y-129178164D02*
X145944000Y-129393836D01*
X146664000Y-129178164D02*
X146664000Y-129393836D01*
%TO.C,R3*%
X150622724Y-124699500D02*
X150113276Y-124699500D01*
X150622724Y-125744500D02*
X150113276Y-125744500D01*
%TO.C,D3*%
X153001000Y-124262000D02*
X153001000Y-126182000D01*
X153001000Y-126182000D02*
X155686000Y-126182000D01*
X155686000Y-124262000D02*
X153001000Y-124262000D01*
%TO.C,R4*%
X144929000Y-136313879D02*
X144929000Y-135978637D01*
X145689000Y-136313879D02*
X145689000Y-135978637D01*
%TO.C,C6*%
X137308000Y-123297836D02*
X137308000Y-123082164D01*
X138028000Y-123297836D02*
X138028000Y-123082164D01*
%TO.C,J2*%
X133240000Y-124604000D02*
X134620000Y-124604000D01*
X133240000Y-125984000D02*
X133240000Y-124604000D01*
X133240000Y-127254000D02*
X133240000Y-134984000D01*
X133240000Y-127254000D02*
X135890000Y-127254000D01*
X133240000Y-134984000D02*
X138540000Y-134984000D01*
X135890000Y-124604000D02*
X138540000Y-124604000D01*
X135890000Y-127254000D02*
X135890000Y-124604000D01*
X138540000Y-124604000D02*
X138540000Y-134984000D01*
%TO.C,R5*%
X145183000Y-131914637D02*
X145183000Y-132249879D01*
X145943000Y-131914637D02*
X145943000Y-132249879D01*
%TO.C,U2*%
X141662000Y-133982000D02*
X141662000Y-132832000D01*
X141662000Y-133982000D02*
X141662000Y-135132000D01*
X144032000Y-133982000D02*
X144032000Y-132832000D01*
X144032000Y-133982000D02*
X144032000Y-135132000D01*
X142337000Y-136597000D02*
X141857000Y-136597000D01*
X142097000Y-136267000D01*
X142337000Y-136597000D01*
G36*
X142337000Y-136597000D02*
G01*
X141857000Y-136597000D01*
X142097000Y-136267000D01*
X142337000Y-136597000D01*
G37*
D11*
%TO.C,U1*%
X147329000Y-129260742D02*
X147904000Y-129260742D01*
X147329000Y-135010742D02*
X147329000Y-129260742D01*
X147329000Y-135010742D02*
X147904000Y-135010742D01*
X157404000Y-129260742D02*
X157979000Y-129260742D01*
X157404000Y-135010742D02*
X157979000Y-135010742D01*
X157979000Y-135010742D02*
X157979000Y-129260742D01*
D12*
X147904000Y-135510742D02*
X147574000Y-135750742D01*
X147574000Y-135270742D01*
X147904000Y-135510742D01*
G36*
X147904000Y-135510742D02*
G01*
X147574000Y-135750742D01*
X147574000Y-135270742D01*
X147904000Y-135510742D01*
G37*
%TO.C,D1*%
X159060000Y-122267000D02*
X159060000Y-124952000D01*
X160980000Y-122267000D02*
X159060000Y-122267000D01*
X160980000Y-124952000D02*
X160980000Y-122267000D01*
%TO.C,FB1*%
X159031000Y-132815064D02*
X159031000Y-132360936D01*
X160501000Y-132815064D02*
X160501000Y-132360936D01*
%TD*%
M02*
