M48
; DRILL file {KiCad 9.0.1-9.0.1-0~ubuntu24.10.1} date 2025-04-11T20:09:22+0200
; FORMAT={-:-/ absolute / metric / decimal}
; #@! TF.CreationDate,2025-04-11T20:09:22+02:00
; #@! TF.GenerationSoftware,Kicad,Pcbnew,9.0.1-9.0.1-0~ubuntu24.10.1
; #@! TF.FileFunction,Plated,1,2,PTH
FMAT,2
METRIC
; #@! TA.AperFunction,Plated,PTH,ViaDrill
T1C0.300
; #@! TA.AperFunction,Plated,PTH,ViaDrill
T2C0.350
; #@! TA.AperFunction,Plated,PTH,ComponentDrill
T3C0.500
; #@! TA.AperFunction,Plated,PTH,ComponentDrill
T4C0.550
; #@! TA.AperFunction,Plated,PTH,ComponentDrill
T5C1.000
%
G90
G05
T1
X141.224Y-135.128
T2
X136.652Y-122.682
X142.494Y-129.286
X142.723Y-134.039
X144.78Y-137.922
X146.558Y-133.35
X149.098Y-130.302
X151.638Y-130.048
X152.4Y-133.858
X155.448Y-130.048
X159.766Y-130.65
X160.02Y-127.0
T5
X134.62Y-125.984
X134.62Y-128.524
X134.62Y-131.064
X134.62Y-133.604
X137.16Y-125.984
X137.16Y-128.524
X137.16Y-131.064
X137.16Y-133.604
T3
G00X164.875Y-126.0
M15
G01X165.525Y-126.0
M16
G05
G00X164.875Y-133.0
M15
G01X165.525Y-133.0
M16
G05
T4
G00X162.5Y-127.15
M15
G01X162.5Y-126.85
M16
G05
G00X162.5Y-132.15
M15
G01X162.5Y-131.85
M16
G05
M30
