%TF.GenerationSoftware,KiCad,Pcbnew,9.0.0-9.0.0-2~ubuntu24.10.1*%
%TF.CreationDate,2025-03-31T19:00:45+02:00*%
%TF.ProjectId,usb_uart_1V8,7573625f-7561-4727-945f-3156382e6b69,1*%
%TF.SameCoordinates,Original*%
%TF.FileFunction,Legend,Bot*%
%TF.FilePolarity,Positive*%
%FSLAX46Y46*%
G04 Gerber Fmt 4.6, Leading zero omitted, Abs format (unit mm)*
G04 Created by KiCad (PCBNEW 9.0.0-9.0.0-2~ubuntu24.10.1) date 2025-03-31 19:00:45*
%MOMM*%
%LPD*%
G01*
G04 APERTURE LIST*
%ADD10C,0.153000*%
%ADD11C,0.000000*%
G04 APERTURE END LIST*
D10*
X152061247Y-136283663D02*
X152061247Y-137093186D01*
X152061247Y-137093186D02*
X152013628Y-137188424D01*
X152013628Y-137188424D02*
X151966009Y-137236044D01*
X151966009Y-137236044D02*
X151870771Y-137283663D01*
X151870771Y-137283663D02*
X151680295Y-137283663D01*
X151680295Y-137283663D02*
X151585057Y-137236044D01*
X151585057Y-137236044D02*
X151537438Y-137188424D01*
X151537438Y-137188424D02*
X151489819Y-137093186D01*
X151489819Y-137093186D02*
X151489819Y-136283663D01*
X151061247Y-137236044D02*
X150918390Y-137283663D01*
X150918390Y-137283663D02*
X150680295Y-137283663D01*
X150680295Y-137283663D02*
X150585057Y-137236044D01*
X150585057Y-137236044D02*
X150537438Y-137188424D01*
X150537438Y-137188424D02*
X150489819Y-137093186D01*
X150489819Y-137093186D02*
X150489819Y-136997948D01*
X150489819Y-136997948D02*
X150537438Y-136902710D01*
X150537438Y-136902710D02*
X150585057Y-136855091D01*
X150585057Y-136855091D02*
X150680295Y-136807472D01*
X150680295Y-136807472D02*
X150870771Y-136759853D01*
X150870771Y-136759853D02*
X150966009Y-136712234D01*
X150966009Y-136712234D02*
X151013628Y-136664615D01*
X151013628Y-136664615D02*
X151061247Y-136569377D01*
X151061247Y-136569377D02*
X151061247Y-136474139D01*
X151061247Y-136474139D02*
X151013628Y-136378901D01*
X151013628Y-136378901D02*
X150966009Y-136331282D01*
X150966009Y-136331282D02*
X150870771Y-136283663D01*
X150870771Y-136283663D02*
X150632676Y-136283663D01*
X150632676Y-136283663D02*
X150489819Y-136331282D01*
X149727914Y-136759853D02*
X149585057Y-136807472D01*
X149585057Y-136807472D02*
X149537438Y-136855091D01*
X149537438Y-136855091D02*
X149489819Y-136950329D01*
X149489819Y-136950329D02*
X149489819Y-137093186D01*
X149489819Y-137093186D02*
X149537438Y-137188424D01*
X149537438Y-137188424D02*
X149585057Y-137236044D01*
X149585057Y-137236044D02*
X149680295Y-137283663D01*
X149680295Y-137283663D02*
X150061247Y-137283663D01*
X150061247Y-137283663D02*
X150061247Y-136283663D01*
X150061247Y-136283663D02*
X149727914Y-136283663D01*
X149727914Y-136283663D02*
X149632676Y-136331282D01*
X149632676Y-136331282D02*
X149585057Y-136378901D01*
X149585057Y-136378901D02*
X149537438Y-136474139D01*
X149537438Y-136474139D02*
X149537438Y-136569377D01*
X149537438Y-136569377D02*
X149585057Y-136664615D01*
X149585057Y-136664615D02*
X149632676Y-136712234D01*
X149632676Y-136712234D02*
X149727914Y-136759853D01*
X149727914Y-136759853D02*
X150061247Y-136759853D01*
X148346962Y-136236044D02*
X149204104Y-137521758D01*
X148013628Y-136283663D02*
X148013628Y-137093186D01*
X148013628Y-137093186D02*
X147966009Y-137188424D01*
X147966009Y-137188424D02*
X147918390Y-137236044D01*
X147918390Y-137236044D02*
X147823152Y-137283663D01*
X147823152Y-137283663D02*
X147632676Y-137283663D01*
X147632676Y-137283663D02*
X147537438Y-137236044D01*
X147537438Y-137236044D02*
X147489819Y-137188424D01*
X147489819Y-137188424D02*
X147442200Y-137093186D01*
X147442200Y-137093186D02*
X147442200Y-136283663D01*
X146537438Y-137283663D02*
X146537438Y-136759853D01*
X146537438Y-136759853D02*
X146585057Y-136664615D01*
X146585057Y-136664615D02*
X146680295Y-136616996D01*
X146680295Y-136616996D02*
X146870771Y-136616996D01*
X146870771Y-136616996D02*
X146966009Y-136664615D01*
X146537438Y-137236044D02*
X146632676Y-137283663D01*
X146632676Y-137283663D02*
X146870771Y-137283663D01*
X146870771Y-137283663D02*
X146966009Y-137236044D01*
X146966009Y-137236044D02*
X147013628Y-137140805D01*
X147013628Y-137140805D02*
X147013628Y-137045567D01*
X147013628Y-137045567D02*
X146966009Y-136950329D01*
X146966009Y-136950329D02*
X146870771Y-136902710D01*
X146870771Y-136902710D02*
X146632676Y-136902710D01*
X146632676Y-136902710D02*
X146537438Y-136855091D01*
X146061247Y-137283663D02*
X146061247Y-136616996D01*
X146061247Y-136807472D02*
X146013628Y-136712234D01*
X146013628Y-136712234D02*
X145966009Y-136664615D01*
X145966009Y-136664615D02*
X145870771Y-136616996D01*
X145870771Y-136616996D02*
X145775533Y-136616996D01*
X145585056Y-136616996D02*
X145204104Y-136616996D01*
X145442199Y-136283663D02*
X145442199Y-137140805D01*
X145442199Y-137140805D02*
X145394580Y-137236044D01*
X145394580Y-137236044D02*
X145299342Y-137283663D01*
X145299342Y-137283663D02*
X145204104Y-137283663D01*
X144204103Y-136616996D02*
X143966008Y-137283663D01*
X143966008Y-137283663D02*
X143727913Y-136616996D01*
X143156484Y-136283663D02*
X143061246Y-136283663D01*
X143061246Y-136283663D02*
X142966008Y-136331282D01*
X142966008Y-136331282D02*
X142918389Y-136378901D01*
X142918389Y-136378901D02*
X142870770Y-136474139D01*
X142870770Y-136474139D02*
X142823151Y-136664615D01*
X142823151Y-136664615D02*
X142823151Y-136902710D01*
X142823151Y-136902710D02*
X142870770Y-137093186D01*
X142870770Y-137093186D02*
X142918389Y-137188424D01*
X142918389Y-137188424D02*
X142966008Y-137236044D01*
X142966008Y-137236044D02*
X143061246Y-137283663D01*
X143061246Y-137283663D02*
X143156484Y-137283663D01*
X143156484Y-137283663D02*
X143251722Y-137236044D01*
X143251722Y-137236044D02*
X143299341Y-137188424D01*
X143299341Y-137188424D02*
X143346960Y-137093186D01*
X143346960Y-137093186D02*
X143394579Y-136902710D01*
X143394579Y-136902710D02*
X143394579Y-136664615D01*
X143394579Y-136664615D02*
X143346960Y-136474139D01*
X143346960Y-136474139D02*
X143299341Y-136378901D01*
X143299341Y-136378901D02*
X143251722Y-136331282D01*
X143251722Y-136331282D02*
X143156484Y-136283663D01*
X142394579Y-137188424D02*
X142346960Y-137236044D01*
X142346960Y-137236044D02*
X142394579Y-137283663D01*
X142394579Y-137283663D02*
X142442198Y-137236044D01*
X142442198Y-137236044D02*
X142394579Y-137188424D01*
X142394579Y-137188424D02*
X142394579Y-137283663D01*
X141394580Y-137283663D02*
X141966008Y-137283663D01*
X141680294Y-137283663D02*
X141680294Y-136283663D01*
X141680294Y-136283663D02*
X141775532Y-136426520D01*
X141775532Y-136426520D02*
X141870770Y-136521758D01*
X141870770Y-136521758D02*
X141966008Y-136569377D01*
D11*
%TO.C,G\u002A\u002A\u002A*%
G36*
X150314500Y-131171770D02*
G01*
X150368546Y-131178038D01*
X150433552Y-131186882D01*
X150507033Y-131197910D01*
X150586508Y-131210730D01*
X150669493Y-131224948D01*
X150753504Y-131240172D01*
X150836059Y-131256010D01*
X150914674Y-131272069D01*
X150986865Y-131287956D01*
X151073910Y-131309241D01*
X151278034Y-131368137D01*
X151490766Y-131441111D01*
X151709305Y-131526898D01*
X151930853Y-131624231D01*
X152152612Y-131731845D01*
X152371782Y-131848476D01*
X152585565Y-131972856D01*
X152791160Y-132103722D01*
X152861458Y-132151091D01*
X153074609Y-132301715D01*
X153277818Y-132456745D01*
X153475500Y-132619777D01*
X153672072Y-132794409D01*
X153871949Y-132984240D01*
X153873709Y-132985962D01*
X154081762Y-133195720D01*
X154280752Y-133409155D01*
X154473409Y-133629490D01*
X154662463Y-133859948D01*
X154850644Y-134103753D01*
X155040684Y-134364130D01*
X155048580Y-134375269D01*
X155092756Y-134438712D01*
X155143264Y-134512764D01*
X155197863Y-134594016D01*
X155254310Y-134679054D01*
X155310365Y-134764468D01*
X155363785Y-134846844D01*
X155412330Y-134922773D01*
X155453757Y-134988842D01*
X155485825Y-135041640D01*
X155522171Y-135103892D01*
X155574588Y-135196042D01*
X155630908Y-135297394D01*
X155690418Y-135406524D01*
X155752405Y-135522005D01*
X155816157Y-135642412D01*
X155880960Y-135766318D01*
X155946102Y-135892298D01*
X156010871Y-136018925D01*
X156074554Y-136144774D01*
X156136438Y-136268419D01*
X156195810Y-136388434D01*
X156251959Y-136503393D01*
X156304170Y-136611870D01*
X156351733Y-136712440D01*
X156393933Y-136803676D01*
X156430058Y-136884153D01*
X156459397Y-136952444D01*
X156481235Y-137007124D01*
X156494860Y-137046767D01*
X156499560Y-137069948D01*
X156498416Y-137074093D01*
X156491423Y-137072677D01*
X156477370Y-137060466D01*
X156455450Y-137036516D01*
X156424855Y-136999880D01*
X156384778Y-136949613D01*
X156334413Y-136884768D01*
X156272953Y-136804400D01*
X156228945Y-136746557D01*
X156151830Y-136645281D01*
X156084512Y-136557024D01*
X156025360Y-136479684D01*
X155972746Y-136411159D01*
X155925039Y-136349347D01*
X155880610Y-136292147D01*
X155837830Y-136237457D01*
X155795068Y-136183175D01*
X155750694Y-136127199D01*
X155703080Y-136067428D01*
X155650595Y-136001760D01*
X155561673Y-135891259D01*
X155267127Y-135533998D01*
X154967904Y-135184146D01*
X154664788Y-134842411D01*
X154358565Y-134509502D01*
X154050017Y-134186125D01*
X153739928Y-133872989D01*
X153429083Y-133570801D01*
X153118265Y-133280270D01*
X152808258Y-133002104D01*
X152499846Y-132737010D01*
X152193814Y-132485696D01*
X151890944Y-132248870D01*
X151592021Y-132027241D01*
X151297829Y-131821515D01*
X151009152Y-131632401D01*
X150726774Y-131460607D01*
X150451478Y-131306841D01*
X150448449Y-131305228D01*
X150375532Y-131265796D01*
X150319719Y-131234215D01*
X150279787Y-131209685D01*
X150254514Y-131191404D01*
X150242676Y-131178571D01*
X150243050Y-131170387D01*
X150249221Y-131168532D01*
X150273898Y-131168470D01*
X150314500Y-131171770D01*
G37*
G36*
X148381720Y-135366134D02*
G01*
X148388580Y-135367855D01*
X148415182Y-135374691D01*
X148455288Y-135385101D01*
X148504776Y-135398013D01*
X148559520Y-135412354D01*
X148682053Y-135442646D01*
X148827685Y-135475057D01*
X148987780Y-135507603D01*
X149159355Y-135539783D01*
X149339426Y-135571098D01*
X149525010Y-135601050D01*
X149713121Y-135629138D01*
X149900777Y-135654865D01*
X150084993Y-135677731D01*
X150262785Y-135697237D01*
X150327706Y-135703219D01*
X150402409Y-135708643D01*
X150482517Y-135712921D01*
X150569267Y-135716041D01*
X150663901Y-135717994D01*
X150767657Y-135718768D01*
X150881775Y-135718351D01*
X151007495Y-135716734D01*
X151146057Y-135713905D01*
X151298700Y-135709853D01*
X151466665Y-135704567D01*
X151651190Y-135698037D01*
X151853515Y-135690250D01*
X152074880Y-135681197D01*
X152129541Y-135678884D01*
X152225167Y-135674739D01*
X152320462Y-135670495D01*
X152411432Y-135666337D01*
X152494081Y-135662448D01*
X152564415Y-135659012D01*
X152618440Y-135656212D01*
X152661921Y-135653957D01*
X152723268Y-135651127D01*
X152778584Y-135648964D01*
X152823119Y-135647648D01*
X152852120Y-135647359D01*
X152908000Y-135648169D01*
X152862280Y-135662900D01*
X152845899Y-135667849D01*
X152809304Y-135678204D01*
X152760524Y-135691543D01*
X152703917Y-135706678D01*
X152643840Y-135722422D01*
X152633815Y-135725014D01*
X152297229Y-135802412D01*
X151955809Y-135862233D01*
X151607232Y-135904821D01*
X151249173Y-135930524D01*
X151230778Y-135931340D01*
X151142710Y-135933964D01*
X151041020Y-135935311D01*
X150929947Y-135935449D01*
X150813735Y-135934451D01*
X150696623Y-135932385D01*
X150582853Y-135929323D01*
X150476667Y-135925334D01*
X150382306Y-135920489D01*
X150304011Y-135914858D01*
X150177515Y-135902110D01*
X149872712Y-135857475D01*
X149564812Y-135792940D01*
X149254119Y-135708581D01*
X148940934Y-135604479D01*
X148625560Y-135480710D01*
X148571509Y-135457725D01*
X148504980Y-135428889D01*
X148450649Y-135404653D01*
X148409837Y-135385639D01*
X148383864Y-135372468D01*
X148374051Y-135365759D01*
X148381720Y-135366134D01*
G37*
G36*
X142882765Y-134702725D02*
G01*
X142974108Y-134707618D01*
X143056280Y-134716875D01*
X143123920Y-134730396D01*
X143213850Y-134759745D01*
X143310362Y-134806016D01*
X143392036Y-134862911D01*
X143458032Y-134929364D01*
X143507510Y-135004309D01*
X143539631Y-135086680D01*
X143553556Y-135175411D01*
X143548445Y-135269436D01*
X143546075Y-135283553D01*
X143519794Y-135376773D01*
X143476954Y-135458343D01*
X143417731Y-135528125D01*
X143342300Y-135585980D01*
X143250836Y-135631771D01*
X143143514Y-135665358D01*
X143020510Y-135686603D01*
X142983670Y-135690063D01*
X142887149Y-135693771D01*
X142781220Y-135691717D01*
X142672806Y-135684304D01*
X142568831Y-135671934D01*
X142476220Y-135655008D01*
X142427960Y-135644133D01*
X142427960Y-135558786D01*
X142428080Y-135543748D01*
X142429479Y-135507816D01*
X142432119Y-135482816D01*
X142435580Y-135473441D01*
X142436788Y-135473521D01*
X142453178Y-135475994D01*
X142482966Y-135481228D01*
X142520716Y-135488276D01*
X142599049Y-135501563D01*
X142709196Y-135514239D01*
X142811353Y-135518838D01*
X142902847Y-135515382D01*
X142981006Y-135503890D01*
X143043157Y-135484381D01*
X143060677Y-135475946D01*
X143119617Y-135434175D01*
X143164134Y-135378452D01*
X143193741Y-135309536D01*
X143207948Y-135228189D01*
X143207729Y-135159848D01*
X143192023Y-135081956D01*
X143159497Y-135015140D01*
X143110660Y-134960118D01*
X143046025Y-134917608D01*
X142966103Y-134888329D01*
X142959078Y-134886627D01*
X142895308Y-134877527D01*
X142818943Y-134875446D01*
X142735609Y-134880098D01*
X142650933Y-134891196D01*
X142570540Y-134908454D01*
X142543923Y-134915412D01*
X142507713Y-134924509D01*
X142482535Y-134930352D01*
X142472681Y-134931913D01*
X142470465Y-134928645D01*
X142459321Y-134911708D01*
X142441058Y-134883754D01*
X142418175Y-134848600D01*
X142365349Y-134767320D01*
X142409355Y-134754243D01*
X142433066Y-134748201D01*
X142473592Y-134739383D01*
X142522978Y-134729628D01*
X142575280Y-134720157D01*
X142607280Y-134715232D01*
X142693992Y-134706432D01*
X142787606Y-134702297D01*
X142882765Y-134702725D01*
G37*
G36*
X145526760Y-135194040D02*
G01*
X145526760Y-135676640D01*
X145379440Y-135676640D01*
X145232120Y-135676640D01*
X145232928Y-135389620D01*
X145233394Y-135312724D01*
X145234351Y-135234948D01*
X145235708Y-135162717D01*
X145237381Y-135099727D01*
X145239288Y-135049670D01*
X145241345Y-135016240D01*
X145242660Y-135000629D01*
X145245232Y-134963642D01*
X145246292Y-134936998D01*
X145245607Y-134925636D01*
X145244229Y-134927280D01*
X145235234Y-134943317D01*
X145218738Y-134974843D01*
X145195687Y-135019984D01*
X145167027Y-135076869D01*
X145133703Y-135143624D01*
X145096662Y-135218378D01*
X145056850Y-135299258D01*
X144871440Y-135677124D01*
X144715056Y-135674342D01*
X144558671Y-135671560D01*
X144360752Y-135297730D01*
X144339264Y-135257190D01*
X144298239Y-135180073D01*
X144260692Y-135109856D01*
X144227622Y-135048385D01*
X144200028Y-134997507D01*
X144178908Y-134959067D01*
X144165262Y-134934913D01*
X144160089Y-134926890D01*
X144159736Y-134929837D01*
X144159864Y-134949174D01*
X144161006Y-134983423D01*
X144163030Y-135028990D01*
X144165806Y-135082280D01*
X144168475Y-135140890D01*
X144170894Y-135214272D01*
X144172869Y-135295410D01*
X144174247Y-135377981D01*
X144174874Y-135455660D01*
X144175480Y-135676640D01*
X144018000Y-135676640D01*
X143860520Y-135676640D01*
X143860520Y-135194040D01*
X143860520Y-134711440D01*
X144086580Y-134711443D01*
X144312640Y-134711446D01*
X144505550Y-135077203D01*
X144522897Y-135110053D01*
X144563725Y-135187037D01*
X144601265Y-135257362D01*
X144634492Y-135319138D01*
X144662381Y-135370475D01*
X144683908Y-135409485D01*
X144698050Y-135434276D01*
X144703782Y-135442960D01*
X144704814Y-135441758D01*
X144713414Y-135426801D01*
X144729695Y-135396266D01*
X144752671Y-135352076D01*
X144781353Y-135296152D01*
X144814754Y-135230416D01*
X144851886Y-135156791D01*
X144891760Y-135077200D01*
X145074415Y-134711440D01*
X145300588Y-134711440D01*
X145526760Y-134711440D01*
X145526760Y-135194040D01*
G37*
G36*
X152887469Y-123446302D02*
G01*
X152903639Y-123469797D01*
X152926788Y-123507779D01*
X152957701Y-123561438D01*
X152997161Y-123631960D01*
X153093021Y-123806908D01*
X153348889Y-124294502D01*
X153598130Y-124799780D01*
X153840309Y-125321482D01*
X154074989Y-125858351D01*
X154301735Y-126409129D01*
X154520110Y-126972558D01*
X154729679Y-127547380D01*
X154930006Y-128132336D01*
X155120655Y-128726168D01*
X155301189Y-129327619D01*
X155471174Y-129935431D01*
X155630174Y-130548345D01*
X155777751Y-131165103D01*
X155913471Y-131784447D01*
X156036898Y-132405120D01*
X156043708Y-132441401D01*
X156072809Y-132600396D01*
X156102200Y-132767024D01*
X156131664Y-132939750D01*
X156160989Y-133117038D01*
X156189959Y-133297352D01*
X156218361Y-133479159D01*
X156245979Y-133660921D01*
X156272600Y-133841104D01*
X156298009Y-134018172D01*
X156321991Y-134190591D01*
X156344333Y-134356823D01*
X156364820Y-134515335D01*
X156383237Y-134664591D01*
X156399371Y-134803055D01*
X156413006Y-134929192D01*
X156423929Y-135041467D01*
X156431924Y-135138344D01*
X156436779Y-135218288D01*
X156438277Y-135279763D01*
X156437685Y-135313827D01*
X156435690Y-135331911D01*
X156431401Y-135335607D01*
X156423920Y-135327925D01*
X156420808Y-135323477D01*
X156416423Y-135315950D01*
X156411446Y-135305706D01*
X156405625Y-135291903D01*
X156398708Y-135273703D01*
X156390444Y-135250263D01*
X156380580Y-135220745D01*
X156368866Y-135184307D01*
X156355049Y-135140109D01*
X156338877Y-135087310D01*
X156320100Y-135025071D01*
X156298465Y-134952551D01*
X156273721Y-134868910D01*
X156245616Y-134773306D01*
X156213898Y-134664900D01*
X156178315Y-134542851D01*
X156138617Y-134406320D01*
X156094550Y-134254464D01*
X156045864Y-134086445D01*
X155992307Y-133901421D01*
X155933626Y-133698553D01*
X155869571Y-133477000D01*
X155800787Y-133239159D01*
X155613033Y-132591107D01*
X155430329Y-131962237D01*
X155252576Y-131352210D01*
X155079671Y-130760685D01*
X154911513Y-130187322D01*
X154748000Y-129631780D01*
X154589030Y-129093719D01*
X154434503Y-128572799D01*
X154284316Y-128068678D01*
X154138368Y-127581016D01*
X153996557Y-127109473D01*
X153858782Y-126653709D01*
X153724941Y-126213382D01*
X153594933Y-125788153D01*
X153468655Y-125377680D01*
X153346007Y-124981624D01*
X153226887Y-124599644D01*
X153111193Y-124231400D01*
X153073791Y-124112687D01*
X153031549Y-123978204D01*
X152995006Y-123861320D01*
X152963869Y-123761062D01*
X152937841Y-123676453D01*
X152916627Y-123606520D01*
X152899933Y-123550287D01*
X152887462Y-123506778D01*
X152878920Y-123475018D01*
X152874011Y-123454033D01*
X152872440Y-123442846D01*
X152872936Y-123438026D01*
X152877496Y-123436108D01*
X152887469Y-123446302D01*
G37*
G36*
X154703576Y-126681291D02*
G01*
X154729603Y-126687128D01*
X154764740Y-126696219D01*
X154992542Y-126764141D01*
X155281724Y-126867038D01*
X155568788Y-126987411D01*
X155850775Y-127123810D01*
X156124730Y-127274784D01*
X156387698Y-127438884D01*
X156636720Y-127614657D01*
X156872527Y-127802191D01*
X157093977Y-127999681D01*
X157299219Y-128205401D01*
X157487851Y-128418715D01*
X157659470Y-128638989D01*
X157813673Y-128865585D01*
X157950058Y-129097868D01*
X158068223Y-129335201D01*
X158167764Y-129576949D01*
X158248280Y-129822475D01*
X158309367Y-130071144D01*
X158350622Y-130322320D01*
X158351452Y-130329340D01*
X158356289Y-130385577D01*
X158359880Y-130454944D01*
X158362226Y-130533265D01*
X158363330Y-130616362D01*
X158363194Y-130700059D01*
X158361820Y-130780181D01*
X158359210Y-130852549D01*
X158355367Y-130912987D01*
X158350292Y-130957320D01*
X158348700Y-130966992D01*
X158304479Y-131189084D01*
X158244499Y-131419828D01*
X158169698Y-131656479D01*
X158081015Y-131896292D01*
X157979389Y-132136523D01*
X157865758Y-132374427D01*
X157817849Y-132467253D01*
X157682908Y-132710156D01*
X157541889Y-132938020D01*
X157395390Y-133150102D01*
X157244005Y-133345660D01*
X157088330Y-133523955D01*
X156928961Y-133684243D01*
X156766494Y-133825784D01*
X156601525Y-133947836D01*
X156596234Y-133951400D01*
X156556480Y-133977688D01*
X156523612Y-133998589D01*
X156500916Y-134012061D01*
X156491678Y-134016064D01*
X156491654Y-134015842D01*
X156496961Y-134004629D01*
X156511341Y-133978073D01*
X156533693Y-133938112D01*
X156562917Y-133886685D01*
X156597912Y-133825729D01*
X156637577Y-133757183D01*
X156680811Y-133682987D01*
X156767515Y-133533849D01*
X156896652Y-133308007D01*
X157014632Y-133096475D01*
X157121989Y-132897978D01*
X157219257Y-132711243D01*
X157306968Y-132534995D01*
X157385658Y-132367962D01*
X157455860Y-132208868D01*
X157518107Y-132056439D01*
X157572934Y-131909403D01*
X157620873Y-131766485D01*
X157662459Y-131626411D01*
X157698226Y-131487908D01*
X157728706Y-131349701D01*
X157754434Y-131210516D01*
X157775944Y-131069080D01*
X157780784Y-131025913D01*
X157786201Y-130953215D01*
X157790349Y-130867419D01*
X157793199Y-130772644D01*
X157794725Y-130673010D01*
X157794899Y-130572636D01*
X157793692Y-130475640D01*
X157791076Y-130386143D01*
X157787025Y-130308263D01*
X157781509Y-130246120D01*
X157768830Y-130147547D01*
X157723574Y-129881567D01*
X157663373Y-129628486D01*
X157587641Y-129387062D01*
X157495791Y-129156051D01*
X157387235Y-128934211D01*
X157261388Y-128720299D01*
X157117661Y-128513074D01*
X156955468Y-128311291D01*
X156774223Y-128113709D01*
X156720747Y-128059667D01*
X156621665Y-127963830D01*
X156519003Y-127870253D01*
X156411509Y-127778069D01*
X156297929Y-127686409D01*
X156177012Y-127594404D01*
X156047504Y-127501187D01*
X155908154Y-127405889D01*
X155757709Y-127307642D01*
X155594917Y-127205577D01*
X155418524Y-127098827D01*
X155227279Y-126986522D01*
X155019928Y-126867796D01*
X154795220Y-126741778D01*
X154755578Y-126719452D01*
X154722073Y-126700002D01*
X154699410Y-126686173D01*
X154691080Y-126680035D01*
X154691427Y-126679755D01*
X154703576Y-126681291D01*
G37*
G36*
X146525077Y-127249771D02*
G01*
X146509474Y-127266183D01*
X146481714Y-127294258D01*
X146443256Y-127332551D01*
X146395562Y-127379616D01*
X146340093Y-127434008D01*
X146278308Y-127494282D01*
X146211669Y-127558992D01*
X146146096Y-127622846D01*
X146036555Y-127730825D01*
X145926459Y-127840868D01*
X145818014Y-127950705D01*
X145713426Y-128058065D01*
X145614900Y-128160677D01*
X145524644Y-128256270D01*
X145444862Y-128342575D01*
X145377761Y-128417320D01*
X145227317Y-128593118D01*
X145050569Y-128814587D01*
X144892711Y-129030986D01*
X144753453Y-129242856D01*
X144632504Y-129450739D01*
X144529577Y-129655177D01*
X144444381Y-129856712D01*
X144376627Y-130055886D01*
X144326026Y-130253241D01*
X144292287Y-130449320D01*
X144291325Y-130457089D01*
X144285932Y-130516736D01*
X144281703Y-130591989D01*
X144278666Y-130678809D01*
X144276848Y-130773156D01*
X144276278Y-130870991D01*
X144276982Y-130968272D01*
X144278989Y-131060961D01*
X144282326Y-131145016D01*
X144287021Y-131216400D01*
X144302337Y-131370300D01*
X144339568Y-131628908D01*
X144390423Y-131874159D01*
X144455413Y-132107588D01*
X144535053Y-132330727D01*
X144629852Y-132545113D01*
X144740325Y-132752279D01*
X144866982Y-132953760D01*
X144899811Y-133001612D01*
X144948201Y-133069588D01*
X144997089Y-133134711D01*
X145048285Y-133199054D01*
X145103599Y-133264690D01*
X145164840Y-133333692D01*
X145233818Y-133408134D01*
X145312345Y-133490089D01*
X145402229Y-133581629D01*
X145505281Y-133684829D01*
X145565183Y-133744431D01*
X145638554Y-133817552D01*
X145697947Y-133877234D01*
X145743562Y-133924050D01*
X145775601Y-133958572D01*
X145794269Y-133981373D01*
X145799766Y-133993024D01*
X145792295Y-133994099D01*
X145772058Y-133985170D01*
X145739258Y-133966809D01*
X145694098Y-133939589D01*
X145636778Y-133904082D01*
X145567503Y-133860860D01*
X145356314Y-133721191D01*
X145135999Y-133555729D01*
X144933804Y-133381241D01*
X144749596Y-133197544D01*
X144583239Y-133004451D01*
X144434600Y-132801778D01*
X144303542Y-132589338D01*
X144189933Y-132366947D01*
X144093637Y-132134420D01*
X144014520Y-131891571D01*
X143952446Y-131638215D01*
X143933817Y-131545213D01*
X143917699Y-131456190D01*
X143904776Y-131372356D01*
X143894730Y-131290071D01*
X143887239Y-131205694D01*
X143881983Y-131115583D01*
X143878642Y-131016098D01*
X143876895Y-130903597D01*
X143876422Y-130774440D01*
X143876477Y-130731378D01*
X143877148Y-130616461D01*
X143878779Y-130517695D01*
X143881623Y-130431974D01*
X143885935Y-130356188D01*
X143891970Y-130287231D01*
X143899983Y-130221993D01*
X143910228Y-130157367D01*
X143922959Y-130090245D01*
X143938432Y-130017520D01*
X143973214Y-129876715D01*
X144038940Y-129668040D01*
X144120670Y-129464729D01*
X144218798Y-129266304D01*
X144333716Y-129072286D01*
X144465816Y-128882197D01*
X144615489Y-128695559D01*
X144783129Y-128511895D01*
X144969127Y-128330726D01*
X145173877Y-128151574D01*
X145397769Y-127973962D01*
X145641196Y-127797411D01*
X145904551Y-127621443D01*
X145912790Y-127616156D01*
X145964999Y-127583041D01*
X146024471Y-127545861D01*
X146088975Y-127505961D01*
X146156281Y-127464682D01*
X146224159Y-127423369D01*
X146290379Y-127383363D01*
X146352711Y-127346008D01*
X146408924Y-127312647D01*
X146456789Y-127284623D01*
X146494075Y-127263279D01*
X146518552Y-127249958D01*
X146527991Y-127246003D01*
X146525077Y-127249771D01*
G37*
G36*
X151324625Y-121005732D02*
G01*
X151325113Y-121008228D01*
X151323165Y-121015218D01*
X151318001Y-121028440D01*
X151308843Y-121049627D01*
X151294912Y-121080516D01*
X151275429Y-121122843D01*
X151249615Y-121178342D01*
X151216693Y-121248749D01*
X151175882Y-121335800D01*
X151171971Y-121344141D01*
X151058614Y-121589526D01*
X150939764Y-121853536D01*
X150815735Y-122135356D01*
X150686838Y-122434170D01*
X150553389Y-122749164D01*
X150415700Y-123079521D01*
X150274084Y-123424427D01*
X150128854Y-123783066D01*
X149980324Y-124154622D01*
X149828807Y-124538281D01*
X149674616Y-124933227D01*
X149518064Y-125338644D01*
X149359465Y-125753717D01*
X149199132Y-126177632D01*
X149037378Y-126609571D01*
X148874517Y-127048721D01*
X148710861Y-127494266D01*
X148546724Y-127945390D01*
X148382419Y-128401278D01*
X148218259Y-128861114D01*
X148054558Y-129324084D01*
X147891629Y-129789372D01*
X147729785Y-130256162D01*
X147569339Y-130723640D01*
X147517724Y-130875063D01*
X147459038Y-131047977D01*
X147402944Y-131214192D01*
X147348882Y-131375452D01*
X147296291Y-131533501D01*
X147244610Y-131690084D01*
X147193278Y-131846946D01*
X147141735Y-132005831D01*
X147089419Y-132168483D01*
X147035771Y-132336649D01*
X146980229Y-132512071D01*
X146922233Y-132696494D01*
X146861222Y-132891664D01*
X146796634Y-133099325D01*
X146727911Y-133321220D01*
X146654490Y-133559096D01*
X146575810Y-133814696D01*
X146568627Y-133836401D01*
X146560170Y-133857273D01*
X146555154Y-133863620D01*
X146554733Y-133862546D01*
X146555516Y-133845926D01*
X146560386Y-133810413D01*
X146569188Y-133756793D01*
X146581765Y-133685853D01*
X146597962Y-133598381D01*
X146617622Y-133495163D01*
X146640589Y-133376986D01*
X146666707Y-133244638D01*
X146695821Y-133098905D01*
X146727773Y-132940574D01*
X146762407Y-132770434D01*
X146799569Y-132589270D01*
X146839101Y-132397869D01*
X146880848Y-132197019D01*
X146924653Y-131987507D01*
X146970360Y-131770120D01*
X147104427Y-131154446D01*
X147260513Y-130484768D01*
X147424258Y-129830257D01*
X147596282Y-129188752D01*
X147777207Y-128558099D01*
X147967654Y-127936138D01*
X148168244Y-127320713D01*
X148379597Y-126709666D01*
X148602335Y-126100840D01*
X148709814Y-125819016D01*
X148869516Y-125415000D01*
X149032318Y-125020087D01*
X149197637Y-124635512D01*
X149364893Y-124262507D01*
X149533503Y-123902307D01*
X149702886Y-123556145D01*
X149872461Y-123225256D01*
X150041647Y-122910873D01*
X150209860Y-122614229D01*
X150376521Y-122336560D01*
X150425502Y-122258192D01*
X150498284Y-122144079D01*
X150575895Y-122024720D01*
X150656418Y-121902943D01*
X150737934Y-121781577D01*
X150818523Y-121663450D01*
X150896267Y-121551392D01*
X150969247Y-121448232D01*
X151035544Y-121356798D01*
X151093239Y-121279920D01*
X151100045Y-121271108D01*
X151130900Y-121231993D01*
X151165703Y-121188911D01*
X151202072Y-121144691D01*
X151237624Y-121102166D01*
X151269980Y-121064163D01*
X151296758Y-121033515D01*
X151315576Y-121013050D01*
X151324053Y-121005600D01*
X151324625Y-121005732D01*
G37*
G36*
X152209246Y-126832649D02*
G01*
X152224941Y-126847223D01*
X152249774Y-126875128D01*
X152282223Y-126914363D01*
X152320772Y-126962929D01*
X152363901Y-127018828D01*
X152410092Y-127080060D01*
X152457825Y-127144626D01*
X152505581Y-127210526D01*
X152551843Y-127275761D01*
X152595091Y-127338332D01*
X152633806Y-127396240D01*
X152692999Y-127488314D01*
X152776448Y-127625841D01*
X152847702Y-127755089D01*
X152908213Y-127879679D01*
X152959436Y-128003234D01*
X153002825Y-128129377D01*
X153039831Y-128261730D01*
X153071909Y-128403917D01*
X153100512Y-128559560D01*
X153122248Y-128700462D01*
X153145625Y-128879253D01*
X153166388Y-129068261D01*
X153184135Y-129262501D01*
X153198459Y-129456990D01*
X153208956Y-129646746D01*
X153215222Y-129826783D01*
X153216852Y-129992120D01*
X153215836Y-130185160D01*
X153096200Y-129590800D01*
X153074485Y-129483007D01*
X153048118Y-129352516D01*
X153025031Y-129238945D01*
X153004836Y-129140561D01*
X152987143Y-129055628D01*
X152971565Y-128982413D01*
X152957711Y-128919180D01*
X152945194Y-128864195D01*
X152933624Y-128815724D01*
X152922612Y-128772031D01*
X152911769Y-128731383D01*
X152900706Y-128692045D01*
X152889035Y-128652282D01*
X152876366Y-128610360D01*
X152850215Y-128527363D01*
X152810464Y-128407947D01*
X152763840Y-128273849D01*
X152711146Y-128127217D01*
X152653187Y-127970202D01*
X152590768Y-127804951D01*
X152524694Y-127633614D01*
X152455769Y-127458341D01*
X152384798Y-127281280D01*
X152312585Y-127104580D01*
X152306028Y-127088674D01*
X152278206Y-127020709D01*
X152253500Y-126959597D01*
X152232849Y-126907720D01*
X152217195Y-126867457D01*
X152207477Y-126841190D01*
X152204635Y-126831298D01*
X152209246Y-126832649D01*
G37*
G36*
X150506168Y-126331276D02*
G01*
X150500867Y-126344469D01*
X150488614Y-126374635D01*
X150470466Y-126419169D01*
X150447358Y-126475782D01*
X150420224Y-126542184D01*
X150389999Y-126616086D01*
X150357618Y-126695200D01*
X150340126Y-126737937D01*
X150263950Y-126924585D01*
X150193632Y-127097940D01*
X150128363Y-127260177D01*
X150067333Y-127413471D01*
X150009734Y-127559995D01*
X149954757Y-127701925D01*
X149901593Y-127841436D01*
X149849433Y-127980702D01*
X149797468Y-128121897D01*
X149744889Y-128267196D01*
X149690888Y-128418775D01*
X149634656Y-128578806D01*
X149575383Y-128749466D01*
X149512260Y-128932928D01*
X149444480Y-129131368D01*
X149371232Y-129346960D01*
X149361705Y-129375057D01*
X149329661Y-129469544D01*
X149299695Y-129557875D01*
X149272443Y-129638180D01*
X149248538Y-129708590D01*
X149228617Y-129767233D01*
X149213314Y-129812242D01*
X149203263Y-129841745D01*
X149199101Y-129853874D01*
X149198016Y-129856808D01*
X149193471Y-129865216D01*
X149191182Y-129860096D01*
X149191195Y-129840119D01*
X149193560Y-129803960D01*
X149198326Y-129750289D01*
X149205540Y-129677780D01*
X149217771Y-129564979D01*
X149249819Y-129311167D01*
X149288104Y-129055192D01*
X149331980Y-128800256D01*
X149380805Y-128549559D01*
X149433934Y-128306304D01*
X149490724Y-128073691D01*
X149550530Y-127854921D01*
X149612709Y-127653197D01*
X149646483Y-127555738D01*
X149739315Y-127329649D01*
X149848831Y-127114848D01*
X149975482Y-126910497D01*
X150119720Y-126715760D01*
X150154002Y-126674643D01*
X150196353Y-126626169D01*
X150243734Y-126573625D01*
X150293523Y-126519782D01*
X150343095Y-126467412D01*
X150389826Y-126419286D01*
X150431092Y-126378176D01*
X150464270Y-126346854D01*
X150486735Y-126328091D01*
X150515352Y-126307713D01*
X150506168Y-126331276D01*
G37*
G36*
X151246840Y-128590040D02*
G01*
X151241760Y-128595120D01*
X151236680Y-128590040D01*
X151241760Y-128584960D01*
X151246840Y-128590040D01*
G37*
G36*
X152149997Y-126290734D02*
G01*
X152139478Y-126305487D01*
X152117146Y-126336373D01*
X152089117Y-126374839D01*
X152059086Y-126415800D01*
X152055263Y-126421008D01*
X151998173Y-126500955D01*
X151935214Y-126592582D01*
X151870153Y-126690239D01*
X151806758Y-126788277D01*
X151748796Y-126881048D01*
X151729500Y-126913358D01*
X151698240Y-126970143D01*
X151669860Y-127028771D01*
X151642891Y-127092837D01*
X151615864Y-127165939D01*
X151587310Y-127251671D01*
X151555760Y-127353631D01*
X151551532Y-127367910D01*
X151536371Y-127421620D01*
X151517514Y-127491218D01*
X151495688Y-127573814D01*
X151471623Y-127666515D01*
X151446047Y-127766430D01*
X151419688Y-127870668D01*
X151393274Y-127976336D01*
X151367535Y-128080544D01*
X151343198Y-128180400D01*
X151320992Y-128273012D01*
X151301645Y-128355489D01*
X151285886Y-128424940D01*
X151279732Y-128452385D01*
X151268459Y-128500805D01*
X151258866Y-128539630D01*
X151251815Y-128565437D01*
X151248168Y-128574800D01*
X151246844Y-128566498D01*
X151246364Y-128540215D01*
X151246795Y-128498328D01*
X151248050Y-128443274D01*
X151250042Y-128377492D01*
X151252682Y-128303421D01*
X151255884Y-128223499D01*
X151259561Y-128140166D01*
X151263624Y-128055859D01*
X151267987Y-127973017D01*
X151272562Y-127894080D01*
X151279494Y-127785797D01*
X151293508Y-127594724D01*
X151308651Y-127422244D01*
X151324889Y-127268643D01*
X151342186Y-127134203D01*
X151360509Y-127019210D01*
X151379821Y-126923947D01*
X151400090Y-126848699D01*
X151432731Y-126773005D01*
X151485754Y-126690557D01*
X151558490Y-126603610D01*
X151576410Y-126584685D01*
X151611368Y-126550650D01*
X151648234Y-126519280D01*
X151689148Y-126489350D01*
X151736251Y-126459637D01*
X151791682Y-126428918D01*
X151857583Y-126395969D01*
X151936093Y-126359568D01*
X152029353Y-126318490D01*
X152139504Y-126271513D01*
X152173647Y-126257108D01*
X152149997Y-126290734D01*
G37*
G36*
X150566640Y-125950647D02*
G01*
X150598723Y-125964953D01*
X150640123Y-125986280D01*
X150687451Y-126012823D01*
X150737320Y-126042774D01*
X150786342Y-126074327D01*
X150852258Y-126120872D01*
X150913518Y-126171540D01*
X150960471Y-126221023D01*
X150995781Y-126272182D01*
X151022108Y-126327883D01*
X151030247Y-126349649D01*
X151067778Y-126469893D01*
X151099922Y-126608327D01*
X151126496Y-126763733D01*
X151147319Y-126934893D01*
X151162207Y-127120589D01*
X151170976Y-127319603D01*
X151176302Y-127513080D01*
X151109866Y-127269240D01*
X151088217Y-127190321D01*
X151042998Y-127029480D01*
X151001195Y-126886779D01*
X150962409Y-126760986D01*
X150926244Y-126650873D01*
X150892301Y-126555209D01*
X150860183Y-126472765D01*
X150829492Y-126402312D01*
X150812118Y-126367878D01*
X150779233Y-126309946D01*
X150737434Y-126241871D01*
X150688839Y-126166980D01*
X150635568Y-126088599D01*
X150579739Y-126010059D01*
X150575406Y-126004025D01*
X150556520Y-125975362D01*
X150545510Y-125954442D01*
X150544644Y-125945438D01*
X150547260Y-125945169D01*
X150566640Y-125950647D01*
G37*
%TD*%
M02*
