%TF.GenerationSoftware,KiCad,Pcbnew,9.0.1-9.0.1-0~ubuntu24.10.1*%
%TF.CreationDate,2025-04-24T18:54:48+02:00*%
%TF.ProjectId,usb_uart_1V8,7573625f-7561-4727-945f-3156382e6b69,0.5*%
%TF.SameCoordinates,Original*%
%TF.FileFunction,Legend,Top*%
%TF.FilePolarity,Positive*%
%FSLAX46Y46*%
G04 Gerber Fmt 4.6, Leading zero omitted, Abs format (unit mm)*
G04 Created by KiCad (PCBNEW 9.0.1-9.0.1-0~ubuntu24.10.1) date 2025-04-24 18:54:48*
%MOMM*%
%LPD*%
G01*
G04 APERTURE LIST*
%ADD10C,0.153000*%
%ADD11C,0.150000*%
%ADD12C,0.120000*%
G04 APERTURE END LIST*
D10*
X137160000Y-136652000D02*
X137922000Y-135890000D01*
X135890000Y-123190000D02*
X136890000Y-124256121D01*
X134493000Y-136652000D02*
X135255000Y-135890000D01*
X134493000Y-135890000D02*
X133731000Y-135890000D01*
X135890000Y-123190000D02*
X134890000Y-124256121D01*
X133731000Y-135890000D02*
X134493000Y-136652000D01*
X135255000Y-135890000D02*
X134493000Y-135890000D01*
X137160000Y-135382000D02*
X137160000Y-135890000D01*
X137922000Y-135890000D02*
X137160000Y-135890000D01*
X137160000Y-135890000D02*
X136398000Y-135890000D01*
X134493000Y-135382000D02*
X134493000Y-135890000D01*
X135890000Y-123190000D02*
X135890000Y-122322242D01*
X136398000Y-135890000D02*
X137160000Y-136652000D01*
X133799895Y-120535663D02*
X134133228Y-121535663D01*
X134133228Y-121535663D02*
X134466561Y-120535663D01*
X135371323Y-121440424D02*
X135323704Y-121488044D01*
X135323704Y-121488044D02*
X135180847Y-121535663D01*
X135180847Y-121535663D02*
X135085609Y-121535663D01*
X135085609Y-121535663D02*
X134942752Y-121488044D01*
X134942752Y-121488044D02*
X134847514Y-121392805D01*
X134847514Y-121392805D02*
X134799895Y-121297567D01*
X134799895Y-121297567D02*
X134752276Y-121107091D01*
X134752276Y-121107091D02*
X134752276Y-120964234D01*
X134752276Y-120964234D02*
X134799895Y-120773758D01*
X134799895Y-120773758D02*
X134847514Y-120678520D01*
X134847514Y-120678520D02*
X134942752Y-120583282D01*
X134942752Y-120583282D02*
X135085609Y-120535663D01*
X135085609Y-120535663D02*
X135180847Y-120535663D01*
X135180847Y-120535663D02*
X135323704Y-120583282D01*
X135323704Y-120583282D02*
X135371323Y-120630901D01*
X136371323Y-121440424D02*
X136323704Y-121488044D01*
X136323704Y-121488044D02*
X136180847Y-121535663D01*
X136180847Y-121535663D02*
X136085609Y-121535663D01*
X136085609Y-121535663D02*
X135942752Y-121488044D01*
X135942752Y-121488044D02*
X135847514Y-121392805D01*
X135847514Y-121392805D02*
X135799895Y-121297567D01*
X135799895Y-121297567D02*
X135752276Y-121107091D01*
X135752276Y-121107091D02*
X135752276Y-120964234D01*
X135752276Y-120964234D02*
X135799895Y-120773758D01*
X135799895Y-120773758D02*
X135847514Y-120678520D01*
X135847514Y-120678520D02*
X135942752Y-120583282D01*
X135942752Y-120583282D02*
X136085609Y-120535663D01*
X136085609Y-120535663D02*
X136180847Y-120535663D01*
X136180847Y-120535663D02*
X136323704Y-120583282D01*
X136323704Y-120583282D02*
X136371323Y-120630901D01*
X138085609Y-121535663D02*
X137514181Y-121535663D01*
X137799895Y-121535663D02*
X137799895Y-120535663D01*
X137799895Y-120535663D02*
X137704657Y-120678520D01*
X137704657Y-120678520D02*
X137609419Y-120773758D01*
X137609419Y-120773758D02*
X137514181Y-120821377D01*
X138514181Y-121440424D02*
X138561800Y-121488044D01*
X138561800Y-121488044D02*
X138514181Y-121535663D01*
X138514181Y-121535663D02*
X138466562Y-121488044D01*
X138466562Y-121488044D02*
X138514181Y-121440424D01*
X138514181Y-121440424D02*
X138514181Y-121535663D01*
X139133228Y-120964234D02*
X139037990Y-120916615D01*
X139037990Y-120916615D02*
X138990371Y-120868996D01*
X138990371Y-120868996D02*
X138942752Y-120773758D01*
X138942752Y-120773758D02*
X138942752Y-120726139D01*
X138942752Y-120726139D02*
X138990371Y-120630901D01*
X138990371Y-120630901D02*
X139037990Y-120583282D01*
X139037990Y-120583282D02*
X139133228Y-120535663D01*
X139133228Y-120535663D02*
X139323704Y-120535663D01*
X139323704Y-120535663D02*
X139418942Y-120583282D01*
X139418942Y-120583282D02*
X139466561Y-120630901D01*
X139466561Y-120630901D02*
X139514180Y-120726139D01*
X139514180Y-120726139D02*
X139514180Y-120773758D01*
X139514180Y-120773758D02*
X139466561Y-120868996D01*
X139466561Y-120868996D02*
X139418942Y-120916615D01*
X139418942Y-120916615D02*
X139323704Y-120964234D01*
X139323704Y-120964234D02*
X139133228Y-120964234D01*
X139133228Y-120964234D02*
X139037990Y-121011853D01*
X139037990Y-121011853D02*
X138990371Y-121059472D01*
X138990371Y-121059472D02*
X138942752Y-121154710D01*
X138942752Y-121154710D02*
X138942752Y-121345186D01*
X138942752Y-121345186D02*
X138990371Y-121440424D01*
X138990371Y-121440424D02*
X139037990Y-121488044D01*
X139037990Y-121488044D02*
X139133228Y-121535663D01*
X139133228Y-121535663D02*
X139323704Y-121535663D01*
X139323704Y-121535663D02*
X139418942Y-121488044D01*
X139418942Y-121488044D02*
X139466561Y-121440424D01*
X139466561Y-121440424D02*
X139514180Y-121345186D01*
X139514180Y-121345186D02*
X139514180Y-121154710D01*
X139514180Y-121154710D02*
X139466561Y-121059472D01*
X139466561Y-121059472D02*
X139418942Y-121011853D01*
X139418942Y-121011853D02*
X139323704Y-120964234D01*
X139799895Y-121154710D02*
X139847514Y-121107091D01*
X139847514Y-121107091D02*
X139942752Y-121059472D01*
X139942752Y-121059472D02*
X140133228Y-121154710D01*
X140133228Y-121154710D02*
X140228466Y-121107091D01*
X140228466Y-121107091D02*
X140276085Y-121059472D01*
X141133228Y-120535663D02*
X140657038Y-120535663D01*
X140657038Y-120535663D02*
X140609419Y-121011853D01*
X140609419Y-121011853D02*
X140657038Y-120964234D01*
X140657038Y-120964234D02*
X140752276Y-120916615D01*
X140752276Y-120916615D02*
X140990371Y-120916615D01*
X140990371Y-120916615D02*
X141085609Y-120964234D01*
X141085609Y-120964234D02*
X141133228Y-121011853D01*
X141133228Y-121011853D02*
X141180847Y-121107091D01*
X141180847Y-121107091D02*
X141180847Y-121345186D01*
X141180847Y-121345186D02*
X141133228Y-121440424D01*
X141133228Y-121440424D02*
X141085609Y-121488044D01*
X141085609Y-121488044D02*
X140990371Y-121535663D01*
X140990371Y-121535663D02*
X140752276Y-121535663D01*
X140752276Y-121535663D02*
X140657038Y-121488044D01*
X140657038Y-121488044D02*
X140609419Y-121440424D01*
X141466562Y-120535663D02*
X141799895Y-121535663D01*
X141799895Y-121535663D02*
X142133228Y-120535663D01*
D11*
X157594180Y-121605922D02*
X157594180Y-122177350D01*
X156594180Y-121891636D02*
X157594180Y-121891636D01*
X157594180Y-122415446D02*
X156594180Y-123082112D01*
X157594180Y-123082112D02*
X156594180Y-122415446D01*
X156594180Y-125114207D02*
X157070371Y-124780874D01*
X156594180Y-124542779D02*
X157594180Y-124542779D01*
X157594180Y-124542779D02*
X157594180Y-124923731D01*
X157594180Y-124923731D02*
X157546561Y-125018969D01*
X157546561Y-125018969D02*
X157498942Y-125066588D01*
X157498942Y-125066588D02*
X157403704Y-125114207D01*
X157403704Y-125114207D02*
X157260847Y-125114207D01*
X157260847Y-125114207D02*
X157165609Y-125066588D01*
X157165609Y-125066588D02*
X157117990Y-125018969D01*
X157117990Y-125018969D02*
X157070371Y-124923731D01*
X157070371Y-124923731D02*
X157070371Y-124542779D01*
X157594180Y-125447541D02*
X156594180Y-126114207D01*
X157594180Y-126114207D02*
X156594180Y-125447541D01*
D10*
X163152752Y-138172710D02*
X163914657Y-138172710D01*
X163533704Y-138553663D02*
X163533704Y-137791758D01*
X158945895Y-121043663D02*
X159279228Y-122043663D01*
X159279228Y-122043663D02*
X159612561Y-121043663D01*
X160279228Y-121519853D02*
X160422085Y-121567472D01*
X160422085Y-121567472D02*
X160469704Y-121615091D01*
X160469704Y-121615091D02*
X160517323Y-121710329D01*
X160517323Y-121710329D02*
X160517323Y-121853186D01*
X160517323Y-121853186D02*
X160469704Y-121948424D01*
X160469704Y-121948424D02*
X160422085Y-121996044D01*
X160422085Y-121996044D02*
X160326847Y-122043663D01*
X160326847Y-122043663D02*
X159945895Y-122043663D01*
X159945895Y-122043663D02*
X159945895Y-121043663D01*
X159945895Y-121043663D02*
X160279228Y-121043663D01*
X160279228Y-121043663D02*
X160374466Y-121091282D01*
X160374466Y-121091282D02*
X160422085Y-121138901D01*
X160422085Y-121138901D02*
X160469704Y-121234139D01*
X160469704Y-121234139D02*
X160469704Y-121329377D01*
X160469704Y-121329377D02*
X160422085Y-121424615D01*
X160422085Y-121424615D02*
X160374466Y-121472234D01*
X160374466Y-121472234D02*
X160279228Y-121519853D01*
X160279228Y-121519853D02*
X159945895Y-121519853D01*
X160945895Y-121043663D02*
X160945895Y-121853186D01*
X160945895Y-121853186D02*
X160993514Y-121948424D01*
X160993514Y-121948424D02*
X161041133Y-121996044D01*
X161041133Y-121996044D02*
X161136371Y-122043663D01*
X161136371Y-122043663D02*
X161326847Y-122043663D01*
X161326847Y-122043663D02*
X161422085Y-121996044D01*
X161422085Y-121996044D02*
X161469704Y-121948424D01*
X161469704Y-121948424D02*
X161517323Y-121853186D01*
X161517323Y-121853186D02*
X161517323Y-121043663D01*
X161945895Y-121996044D02*
X162088752Y-122043663D01*
X162088752Y-122043663D02*
X162326847Y-122043663D01*
X162326847Y-122043663D02*
X162422085Y-121996044D01*
X162422085Y-121996044D02*
X162469704Y-121948424D01*
X162469704Y-121948424D02*
X162517323Y-121853186D01*
X162517323Y-121853186D02*
X162517323Y-121757948D01*
X162517323Y-121757948D02*
X162469704Y-121662710D01*
X162469704Y-121662710D02*
X162422085Y-121615091D01*
X162422085Y-121615091D02*
X162326847Y-121567472D01*
X162326847Y-121567472D02*
X162136371Y-121519853D01*
X162136371Y-121519853D02*
X162041133Y-121472234D01*
X162041133Y-121472234D02*
X161993514Y-121424615D01*
X161993514Y-121424615D02*
X161945895Y-121329377D01*
X161945895Y-121329377D02*
X161945895Y-121234139D01*
X161945895Y-121234139D02*
X161993514Y-121138901D01*
X161993514Y-121138901D02*
X162041133Y-121091282D01*
X162041133Y-121091282D02*
X162136371Y-121043663D01*
X162136371Y-121043663D02*
X162374466Y-121043663D01*
X162374466Y-121043663D02*
X162517323Y-121091282D01*
D11*
X144211922Y-121043819D02*
X144545255Y-122043819D01*
X144545255Y-122043819D02*
X144878588Y-121043819D01*
X145783350Y-121948580D02*
X145735731Y-121996200D01*
X145735731Y-121996200D02*
X145592874Y-122043819D01*
X145592874Y-122043819D02*
X145497636Y-122043819D01*
X145497636Y-122043819D02*
X145354779Y-121996200D01*
X145354779Y-121996200D02*
X145259541Y-121900961D01*
X145259541Y-121900961D02*
X145211922Y-121805723D01*
X145211922Y-121805723D02*
X145164303Y-121615247D01*
X145164303Y-121615247D02*
X145164303Y-121472390D01*
X145164303Y-121472390D02*
X145211922Y-121281914D01*
X145211922Y-121281914D02*
X145259541Y-121186676D01*
X145259541Y-121186676D02*
X145354779Y-121091438D01*
X145354779Y-121091438D02*
X145497636Y-121043819D01*
X145497636Y-121043819D02*
X145592874Y-121043819D01*
X145592874Y-121043819D02*
X145735731Y-121091438D01*
X145735731Y-121091438D02*
X145783350Y-121139057D01*
X146783350Y-121948580D02*
X146735731Y-121996200D01*
X146735731Y-121996200D02*
X146592874Y-122043819D01*
X146592874Y-122043819D02*
X146497636Y-122043819D01*
X146497636Y-122043819D02*
X146354779Y-121996200D01*
X146354779Y-121996200D02*
X146259541Y-121900961D01*
X146259541Y-121900961D02*
X146211922Y-121805723D01*
X146211922Y-121805723D02*
X146164303Y-121615247D01*
X146164303Y-121615247D02*
X146164303Y-121472390D01*
X146164303Y-121472390D02*
X146211922Y-121281914D01*
X146211922Y-121281914D02*
X146259541Y-121186676D01*
X146259541Y-121186676D02*
X146354779Y-121091438D01*
X146354779Y-121091438D02*
X146497636Y-121043819D01*
X146497636Y-121043819D02*
X146592874Y-121043819D01*
X146592874Y-121043819D02*
X146735731Y-121091438D01*
X146735731Y-121091438D02*
X146783350Y-121139057D01*
D12*
%TO.C,R10*%
X159406000Y-125591835D02*
X159406000Y-125360165D01*
X160126000Y-125591835D02*
X160126000Y-125360165D01*
%TO.C,R9*%
X160126000Y-131710165D02*
X160126000Y-131941835D01*
X159406000Y-131710165D02*
X159406000Y-131941835D01*
%TO.C,J1*%
X165508000Y-134210000D02*
X163808000Y-134210000D01*
X165508000Y-124870000D02*
X163808000Y-124870000D01*
%TO.C,FB1*%
X160755000Y-136638936D02*
X160755000Y-137093064D01*
X159285000Y-136638936D02*
X159285000Y-137093064D01*
%TO.C,R6*%
X139923000Y-132755621D02*
X139923000Y-132420379D01*
X140683000Y-132755621D02*
X140683000Y-132420379D01*
%TO.C,Q1*%
X143855258Y-125307742D02*
X143205258Y-125307742D01*
X143855258Y-125307742D02*
X144505258Y-125307742D01*
X143855258Y-128427742D02*
X143205258Y-128427742D01*
X143855258Y-128427742D02*
X144505258Y-128427742D01*
X142692758Y-125357742D02*
X142452758Y-125027742D01*
X142932758Y-125027742D01*
X142692758Y-125357742D01*
G36*
X142692758Y-125357742D02*
G01*
X142452758Y-125027742D01*
X142932758Y-125027742D01*
X142692758Y-125357742D01*
G37*
%TO.C,D2*%
X153001000Y-121468000D02*
X153001000Y-123388000D01*
X153001000Y-123388000D02*
X155686000Y-123388000D01*
X155686000Y-121468000D02*
X153001000Y-121468000D01*
%TO.C,R1*%
X168416500Y-121919276D02*
X168416500Y-122428724D01*
X167371500Y-121919276D02*
X167371500Y-122428724D01*
%TO.C,R7*%
X139698758Y-123189276D02*
X139698758Y-123698724D01*
X140743758Y-123189276D02*
X140743758Y-123698724D01*
%TO.C,C5*%
X142661164Y-130452258D02*
X142876836Y-130452258D01*
X142661164Y-131172258D02*
X142876836Y-131172258D01*
%TO.C,D4*%
X143440258Y-122484000D02*
X143440258Y-124404000D01*
X143440258Y-124404000D02*
X146125258Y-124404000D01*
X146125258Y-122484000D02*
X143440258Y-122484000D01*
%TO.C,R8*%
X139698758Y-126745276D02*
X139698758Y-127254724D01*
X140743758Y-126745276D02*
X140743758Y-127254724D01*
%TO.C,C2*%
X165404748Y-135742000D02*
X166827252Y-135742000D01*
X165404748Y-137562000D02*
X166827252Y-137562000D01*
%TO.C,C4*%
X142876836Y-137056258D02*
X142661164Y-137056258D01*
X142876836Y-137776258D02*
X142661164Y-137776258D01*
%TO.C,C1*%
X162920000Y-136973836D02*
X162920000Y-136758164D01*
X162200000Y-136973836D02*
X162200000Y-136758164D01*
%TO.C,R2*%
X150622724Y-121905500D02*
X150113276Y-121905500D01*
X150622724Y-122950500D02*
X150113276Y-122950500D01*
%TO.C,C3*%
X145944000Y-129178164D02*
X145944000Y-129393836D01*
X146664000Y-129178164D02*
X146664000Y-129393836D01*
%TO.C,R3*%
X150622724Y-124699500D02*
X150113276Y-124699500D01*
X150622724Y-125744500D02*
X150113276Y-125744500D01*
%TO.C,D3*%
X153001000Y-124262000D02*
X153001000Y-126182000D01*
X153001000Y-126182000D02*
X155686000Y-126182000D01*
X155686000Y-124262000D02*
X153001000Y-124262000D01*
%TO.C,R4*%
X144929000Y-136313879D02*
X144929000Y-135978637D01*
X145689000Y-136313879D02*
X145689000Y-135978637D01*
%TO.C,C6*%
X137308000Y-123297836D02*
X137308000Y-123082164D01*
X138028000Y-123297836D02*
X138028000Y-123082164D01*
%TO.C,J2*%
X133240000Y-124604000D02*
X134620000Y-124604000D01*
X133240000Y-125984000D02*
X133240000Y-124604000D01*
X133240000Y-127254000D02*
X133240000Y-134984000D01*
X133240000Y-127254000D02*
X135890000Y-127254000D01*
X133240000Y-134984000D02*
X138540000Y-134984000D01*
X135890000Y-124604000D02*
X138540000Y-124604000D01*
X135890000Y-127254000D02*
X135890000Y-124604000D01*
X138540000Y-124604000D02*
X138540000Y-134984000D01*
%TO.C,R5*%
X145183000Y-131914637D02*
X145183000Y-132249879D01*
X145943000Y-131914637D02*
X145943000Y-132249879D01*
%TO.C,U2*%
X141662000Y-133982000D02*
X141662000Y-132832000D01*
X141662000Y-133982000D02*
X141662000Y-135132000D01*
X144032000Y-133982000D02*
X144032000Y-132832000D01*
X144032000Y-133982000D02*
X144032000Y-135132000D01*
X142337000Y-136597000D02*
X141857000Y-136597000D01*
X142097000Y-136267000D01*
X142337000Y-136597000D01*
G36*
X142337000Y-136597000D02*
G01*
X141857000Y-136597000D01*
X142097000Y-136267000D01*
X142337000Y-136597000D01*
G37*
D11*
%TO.C,U1*%
X147329000Y-129260742D02*
X147904000Y-129260742D01*
X147329000Y-135010742D02*
X147329000Y-129260742D01*
X147329000Y-135010742D02*
X147904000Y-135010742D01*
X157404000Y-129260742D02*
X157979000Y-129260742D01*
X157404000Y-135010742D02*
X157979000Y-135010742D01*
X157979000Y-135010742D02*
X157979000Y-129260742D01*
D12*
X147904000Y-135510742D02*
X147574000Y-135750742D01*
X147574000Y-135270742D01*
X147904000Y-135510742D01*
G36*
X147904000Y-135510742D02*
G01*
X147574000Y-135750742D01*
X147574000Y-135270742D01*
X147904000Y-135510742D01*
G37*
%TO.C,D1*%
X166277000Y-120706000D02*
X163592000Y-120706000D01*
X166277000Y-122626000D02*
X166277000Y-120706000D01*
X163592000Y-122626000D02*
X166277000Y-122626000D01*
%TD*%
M02*
