%TF.GenerationSoftware,KiCad,Pcbnew,9.0.1-9.0.1-0~ubuntu24.10.1*%
%TF.CreationDate,2025-04-24T18:54:48+02:00*%
%TF.ProjectId,usb_uart_1V8,7573625f-7561-4727-945f-3156382e6b69,0.5*%
%TF.SameCoordinates,Original*%
%TF.FileFunction,Copper,L1,Top*%
%TF.FilePolarity,Positive*%
%FSLAX46Y46*%
G04 Gerber Fmt 4.6, Leading zero omitted, Abs format (unit mm)*
G04 Created by KiCad (PCBNEW 9.0.1-9.0.1-0~ubuntu24.10.1) date 2025-04-24 18:54:48*
%MOMM*%
%LPD*%
G01*
G04 APERTURE LIST*
G04 Aperture macros list*
%AMRoundRect*
0 Rectangle with rounded corners*
0 $1 Rounding radius*
0 $2 $3 $4 $5 $6 $7 $8 $9 X,Y pos of 4 corners*
0 Add a 4 corners polygon primitive as box body*
4,1,4,$2,$3,$4,$5,$6,$7,$8,$9,$2,$3,0*
0 Add four circle primitives for the rounded corners*
1,1,$1+$1,$2,$3*
1,1,$1+$1,$4,$5*
1,1,$1+$1,$6,$7*
1,1,$1+$1,$8,$9*
0 Add four rect primitives between the rounded corners*
20,1,$1+$1,$2,$3,$4,$5,0*
20,1,$1+$1,$4,$5,$6,$7,0*
20,1,$1+$1,$6,$7,$8,$9,0*
20,1,$1+$1,$8,$9,$2,$3,0*%
G04 Aperture macros list end*
%TA.AperFunction,SMDPad,CuDef*%
%ADD10RoundRect,0.155000X0.155000X-0.212500X0.155000X0.212500X-0.155000X0.212500X-0.155000X-0.212500X0*%
%TD*%
%TA.AperFunction,SMDPad,CuDef*%
%ADD11RoundRect,0.155000X-0.155000X0.212500X-0.155000X-0.212500X0.155000X-0.212500X0.155000X0.212500X0*%
%TD*%
%TA.AperFunction,SMDPad,CuDef*%
%ADD12RoundRect,0.150000X0.425000X-0.150000X0.425000X0.150000X-0.425000X0.150000X-0.425000X-0.150000X0*%
%TD*%
%TA.AperFunction,SMDPad,CuDef*%
%ADD13RoundRect,0.075000X0.500000X-0.075000X0.500000X0.075000X-0.500000X0.075000X-0.500000X-0.075000X0*%
%TD*%
%TA.AperFunction,HeatsinkPad*%
%ADD14O,2.100000X1.000000*%
%TD*%
%TA.AperFunction,HeatsinkPad*%
%ADD15O,1.800000X1.000000*%
%TD*%
%TA.AperFunction,SMDPad,CuDef*%
%ADD16RoundRect,0.250000X-0.450000X0.262500X-0.450000X-0.262500X0.450000X-0.262500X0.450000X0.262500X0*%
%TD*%
%TA.AperFunction,SMDPad,CuDef*%
%ADD17RoundRect,0.160000X0.160000X-0.197500X0.160000X0.197500X-0.160000X0.197500X-0.160000X-0.197500X0*%
%TD*%
%TA.AperFunction,SMDPad,CuDef*%
%ADD18RoundRect,0.150000X-0.587500X-0.150000X0.587500X-0.150000X0.587500X0.150000X-0.587500X0.150000X0*%
%TD*%
%TA.AperFunction,SMDPad,CuDef*%
%ADD19RoundRect,0.243750X-0.243750X-0.456250X0.243750X-0.456250X0.243750X0.456250X-0.243750X0.456250X0*%
%TD*%
%TA.AperFunction,SMDPad,CuDef*%
%ADD20RoundRect,0.237500X-0.237500X0.250000X-0.237500X-0.250000X0.237500X-0.250000X0.237500X0.250000X0*%
%TD*%
%TA.AperFunction,SMDPad,CuDef*%
%ADD21RoundRect,0.140000X-0.140000X-0.170000X0.140000X-0.170000X0.140000X0.170000X-0.140000X0.170000X0*%
%TD*%
%TA.AperFunction,SMDPad,CuDef*%
%ADD22RoundRect,0.250000X-0.325000X-0.650000X0.325000X-0.650000X0.325000X0.650000X-0.325000X0.650000X0*%
%TD*%
%TA.AperFunction,SMDPad,CuDef*%
%ADD23RoundRect,0.140000X0.140000X0.170000X-0.140000X0.170000X-0.140000X-0.170000X0.140000X-0.170000X0*%
%TD*%
%TA.AperFunction,SMDPad,CuDef*%
%ADD24RoundRect,0.140000X0.170000X-0.140000X0.170000X0.140000X-0.170000X0.140000X-0.170000X-0.140000X0*%
%TD*%
%TA.AperFunction,SMDPad,CuDef*%
%ADD25RoundRect,0.237500X0.250000X0.237500X-0.250000X0.237500X-0.250000X-0.237500X0.250000X-0.237500X0*%
%TD*%
%TA.AperFunction,SMDPad,CuDef*%
%ADD26RoundRect,0.140000X-0.170000X0.140000X-0.170000X-0.140000X0.170000X-0.140000X0.170000X0.140000X0*%
%TD*%
%TA.AperFunction,ComponentPad*%
%ADD27R,1.700000X1.700000*%
%TD*%
%TA.AperFunction,ComponentPad*%
%ADD28C,1.700000*%
%TD*%
%TA.AperFunction,SMDPad,CuDef*%
%ADD29RoundRect,0.160000X-0.160000X0.197500X-0.160000X-0.197500X0.160000X-0.197500X0.160000X0.197500X0*%
%TD*%
%TA.AperFunction,SMDPad,CuDef*%
%ADD30RoundRect,0.087500X0.087500X-0.537500X0.087500X0.537500X-0.087500X0.537500X-0.087500X-0.537500X0*%
%TD*%
%TA.AperFunction,SMDPad,CuDef*%
%ADD31R,0.450000X1.750000*%
%TD*%
%TA.AperFunction,SMDPad,CuDef*%
%ADD32RoundRect,0.243750X0.243750X0.456250X-0.243750X0.456250X-0.243750X-0.456250X0.243750X-0.456250X0*%
%TD*%
%TA.AperFunction,ViaPad*%
%ADD33C,0.700000*%
%TD*%
%TA.AperFunction,ViaPad*%
%ADD34C,0.600000*%
%TD*%
%TA.AperFunction,Conductor*%
%ADD35C,0.250000*%
%TD*%
%TA.AperFunction,Conductor*%
%ADD36C,0.300000*%
%TD*%
%TA.AperFunction,Conductor*%
%ADD37C,0.200000*%
%TD*%
G04 APERTURE END LIST*
D10*
%TO.P,R10,1*%
%TO.N,Net-(J1-CC2)*%
X159766000Y-126043500D03*
%TO.P,R10,2*%
%TO.N,GND*%
X159766000Y-124908500D03*
%TD*%
D11*
%TO.P,R9,1*%
%TO.N,Net-(J1-CC1)*%
X159766000Y-131258500D03*
%TO.P,R9,2*%
%TO.N,GND*%
X159766000Y-132393500D03*
%TD*%
D12*
%TO.P,J1,A1,GND*%
%TO.N,GND*%
X161928000Y-132740000D03*
%TO.P,J1,A4,VBUS*%
%TO.N,Net-(FB1-Pad1)*%
X161928000Y-131940000D03*
D13*
%TO.P,J1,A5,CC1*%
%TO.N,Net-(J1-CC1)*%
X161928000Y-130790000D03*
%TO.P,J1,A6,D+*%
%TO.N,/D+*%
X161928000Y-129790000D03*
%TO.P,J1,A7,D-*%
%TO.N,/D-*%
X161928000Y-129290000D03*
%TO.P,J1,A8,SBU1*%
%TO.N,unconnected-(J1-SBU1-PadA8)*%
X161928000Y-128290000D03*
D12*
%TO.P,J1,A9,VBUS*%
%TO.N,Net-(FB1-Pad1)*%
X161928000Y-127140000D03*
%TO.P,J1,A12,GND*%
%TO.N,GND*%
X161928000Y-126340000D03*
%TO.P,J1,B1,GND*%
X161928000Y-126340000D03*
%TO.P,J1,B4,VBUS*%
%TO.N,Net-(FB1-Pad1)*%
X161928000Y-127140000D03*
D13*
%TO.P,J1,B5,CC2*%
%TO.N,Net-(J1-CC2)*%
X161928000Y-127790000D03*
%TO.P,J1,B6,D+*%
%TO.N,/D+*%
X161928000Y-128790000D03*
%TO.P,J1,B7,D-*%
%TO.N,/D-*%
X161928000Y-130290000D03*
%TO.P,J1,B8,SBU2*%
%TO.N,unconnected-(J1-SBU2-PadB8)*%
X161928000Y-131290000D03*
D12*
%TO.P,J1,B9,VBUS*%
%TO.N,Net-(FB1-Pad1)*%
X161928000Y-131940000D03*
%TO.P,J1,B12,GND*%
%TO.N,GND*%
X161928000Y-132740000D03*
D14*
%TO.P,J1,S1,SHIELD*%
X162503000Y-133860000D03*
D15*
X166683000Y-133860000D03*
D14*
X162503000Y-125220000D03*
D15*
X166683000Y-125220000D03*
%TD*%
D16*
%TO.P,FB1,1*%
%TO.N,Net-(FB1-Pad1)*%
X160020000Y-135953500D03*
%TO.P,FB1,2*%
%TO.N,VBUS*%
X160020000Y-137778500D03*
%TD*%
D17*
%TO.P,R6,1*%
%TO.N,VCC_TTL*%
X140303000Y-133185500D03*
%TO.P,R6,2*%
%TO.N,/TX*%
X140303000Y-131990500D03*
%TD*%
D18*
%TO.P,Q1,1,B*%
%TO.N,Net-(Q1-B)*%
X142917758Y-125917742D03*
%TO.P,Q1,2,E*%
%TO.N,GND*%
X142917758Y-127817742D03*
%TO.P,Q1,3,C*%
%TO.N,Net-(Q1-C)*%
X144792758Y-126867742D03*
%TD*%
D19*
%TO.P,D2,1,K*%
%TO.N,Net-(D2-K)*%
X153748500Y-122428000D03*
%TO.P,D2,2,A*%
%TO.N,+3V3*%
X155623500Y-122428000D03*
%TD*%
D20*
%TO.P,R1,1*%
%TO.N,Net-(D1-K)*%
X167894000Y-121261500D03*
%TO.P,R1,2*%
%TO.N,GND*%
X167894000Y-123086500D03*
%TD*%
%TO.P,R7,1*%
%TO.N,Net-(D4-K)*%
X140221258Y-122531500D03*
%TO.P,R7,2*%
%TO.N,Net-(Q1-C)*%
X140221258Y-124356500D03*
%TD*%
D21*
%TO.P,C5,1*%
%TO.N,VCC_TTL*%
X142289000Y-130812258D03*
%TO.P,C5,2*%
%TO.N,GND*%
X143249000Y-130812258D03*
%TD*%
D19*
%TO.P,D4,1,K*%
%TO.N,Net-(D4-K)*%
X144187758Y-123444000D03*
%TO.P,D4,2,A*%
%TO.N,+3V3*%
X146062758Y-123444000D03*
%TD*%
D20*
%TO.P,R8,1*%
%TO.N,Net-(Q1-B)*%
X140221258Y-126087500D03*
%TO.P,R8,2*%
%TO.N,VCC_TTL*%
X140221258Y-127912500D03*
%TD*%
D22*
%TO.P,C2,1*%
%TO.N,VBUS*%
X164641000Y-136652000D03*
%TO.P,C2,2*%
%TO.N,GND*%
X167591000Y-136652000D03*
%TD*%
D23*
%TO.P,C4,1*%
%TO.N,+3V3*%
X143249000Y-137416258D03*
%TO.P,C4,2*%
%TO.N,GND*%
X142289000Y-137416258D03*
%TD*%
D24*
%TO.P,C1,1*%
%TO.N,VBUS*%
X162560000Y-137346000D03*
%TO.P,C1,2*%
%TO.N,GND*%
X162560000Y-136386000D03*
%TD*%
D25*
%TO.P,R2,1*%
%TO.N,Net-(D2-K)*%
X151280500Y-122428000D03*
%TO.P,R2,2*%
%TO.N,/TXL*%
X149455500Y-122428000D03*
%TD*%
D26*
%TO.P,C3,1*%
%TO.N,+3V3*%
X146304000Y-128806000D03*
%TO.P,C3,2*%
%TO.N,GND*%
X146304000Y-129766000D03*
%TD*%
D25*
%TO.P,R3,1*%
%TO.N,Net-(D3-K)*%
X151280500Y-125222000D03*
%TO.P,R3,2*%
%TO.N,/RXL*%
X149455500Y-125222000D03*
%TD*%
D19*
%TO.P,D3,1,K*%
%TO.N,Net-(D3-K)*%
X153748500Y-125222000D03*
%TO.P,D3,2,A*%
%TO.N,+3V3*%
X155623500Y-125222000D03*
%TD*%
D17*
%TO.P,R4,1*%
%TO.N,+3V3*%
X145309000Y-136743758D03*
%TO.P,R4,2*%
%TO.N,/RX_3V3*%
X145309000Y-135548758D03*
%TD*%
D24*
%TO.P,C6,1*%
%TO.N,VCC_TTL*%
X137668000Y-123670000D03*
%TO.P,C6,2*%
%TO.N,GND*%
X137668000Y-122710000D03*
%TD*%
D27*
%TO.P,J2,1,Pin_1*%
%TO.N,VCC_TTL*%
X134620000Y-125984000D03*
%TO.P,J2,2,Pin_2*%
X137160000Y-125984000D03*
D28*
%TO.P,J2,3,Pin_3*%
%TO.N,/RX*%
X134620000Y-128524000D03*
%TO.P,J2,4,Pin_4*%
%TO.N,/TX*%
X137160000Y-128524000D03*
%TO.P,J2,5,Pin_5*%
X134620000Y-131064000D03*
%TO.P,J2,6,Pin_6*%
%TO.N,/RX*%
X137160000Y-131064000D03*
%TO.P,J2,7,Pin_7*%
%TO.N,GND*%
X134620000Y-133604000D03*
%TO.P,J2,8,Pin_8*%
X137160000Y-133604000D03*
%TD*%
D29*
%TO.P,R5,1*%
%TO.N,+3V3*%
X145563000Y-131484758D03*
%TO.P,R5,2*%
%TO.N,Net-(U2-OE)*%
X145563000Y-132679758D03*
%TD*%
D30*
%TO.P,U2,1,B2*%
%TO.N,/RX*%
X142097000Y-135382000D03*
%TO.P,U2,2,GND*%
%TO.N,GND*%
X142597000Y-135382000D03*
%TO.P,U2,3,VCCA*%
%TO.N,+3V3*%
X143097000Y-135382000D03*
%TO.P,U2,4,A2Y*%
%TO.N,/RX_3V3*%
X143597000Y-135382000D03*
%TO.P,U2,5,A1*%
%TO.N,/TX_3V3*%
X143597000Y-132582000D03*
%TO.P,U2,6,OE*%
%TO.N,Net-(U2-OE)*%
X143097000Y-132582000D03*
%TO.P,U2,7,VCCB*%
%TO.N,VCC_TTL*%
X142597000Y-132582000D03*
%TO.P,U2,8,B1Y*%
%TO.N,/TX*%
X142097000Y-132582000D03*
%TD*%
D31*
%TO.P,U1,1,TXD*%
%TO.N,/TX_3V3*%
X148429000Y-135735742D03*
%TO.P,U1,2,DTR*%
%TO.N,unconnected-(U1-DTR-Pad2)*%
X149079000Y-135735742D03*
%TO.P,U1,3,RTS*%
%TO.N,unconnected-(U1-RTS-Pad3)*%
X149729000Y-135735742D03*
%TO.P,U1,4,VCCIO*%
%TO.N,+3V3*%
X150379000Y-135735742D03*
%TO.P,U1,5,RXD*%
%TO.N,/RX_3V3*%
X151029000Y-135735742D03*
%TO.P,U1,6,RI*%
%TO.N,unconnected-(U1-RI-Pad6)*%
X151679000Y-135735742D03*
%TO.P,U1,7,GND*%
%TO.N,GND*%
X152329000Y-135735742D03*
%TO.P,U1,8*%
%TO.N,N/C*%
X152979000Y-135735742D03*
%TO.P,U1,9,DCR*%
%TO.N,unconnected-(U1-DCR-Pad9)*%
X153629000Y-135735742D03*
%TO.P,U1,10,DCD*%
%TO.N,unconnected-(U1-DCD-Pad10)*%
X154279000Y-135735742D03*
%TO.P,U1,11,CTS*%
%TO.N,unconnected-(U1-CTS-Pad11)*%
X154929000Y-135735742D03*
%TO.P,U1,12,CBUS4*%
%TO.N,unconnected-(U1-CBUS4-Pad12)*%
X155579000Y-135735742D03*
%TO.P,U1,13,CBUS2*%
%TO.N,unconnected-(U1-CBUS2-Pad13)*%
X156229000Y-135735742D03*
%TO.P,U1,14,CBUS3*%
%TO.N,unconnected-(U1-CBUS3-Pad14)*%
X156879000Y-135735742D03*
%TO.P,U1,15,USBD+*%
%TO.N,/D+*%
X156879000Y-128535742D03*
%TO.P,U1,16,USBD-*%
%TO.N,/D-*%
X156229000Y-128535742D03*
%TO.P,U1,17,3V3OUT*%
%TO.N,+3V3*%
X155579000Y-128535742D03*
%TO.P,U1,18,GND*%
%TO.N,GND*%
X154929000Y-128535742D03*
%TO.P,U1,19,~{RESET}*%
%TO.N,unconnected-(U1-~{RESET}-Pad19)*%
X154279000Y-128535742D03*
%TO.P,U1,20,VCC*%
%TO.N,VBUS*%
X153629000Y-128535742D03*
%TO.P,U1,21,GND*%
%TO.N,GND*%
X152979000Y-128535742D03*
%TO.P,U1,22,CBUS1*%
%TO.N,/RXL*%
X152329000Y-128535742D03*
%TO.P,U1,23,CBUS0*%
%TO.N,/TXL*%
X151679000Y-128535742D03*
%TO.P,U1,24*%
%TO.N,N/C*%
X151029000Y-128535742D03*
%TO.P,U1,25,AGND*%
%TO.N,GND*%
X150379000Y-128535742D03*
%TO.P,U1,26,TEST*%
X149729000Y-128535742D03*
%TO.P,U1,27,OSCI*%
%TO.N,unconnected-(U1-OSCI-Pad27)*%
X149079000Y-128535742D03*
%TO.P,U1,28,OSCO*%
%TO.N,unconnected-(U1-OSCO-Pad28)*%
X148429000Y-128535742D03*
%TD*%
D32*
%TO.P,D1,1,K*%
%TO.N,Net-(D1-K)*%
X165529500Y-121666000D03*
%TO.P,D1,2,A*%
%TO.N,VBUS*%
X163654500Y-121666000D03*
%TD*%
D33*
%TO.N,GND*%
X159766000Y-133858000D03*
X152400000Y-133858000D03*
X142494000Y-129286000D03*
X136652000Y-122682000D03*
X151638000Y-130048000D03*
X155448000Y-130048000D03*
X149098000Y-130302000D03*
X142722506Y-134039161D03*
%TO.N,+3V3*%
X146558000Y-133350000D03*
X144780000Y-137922000D03*
D34*
%TO.N,/RX*%
X141224000Y-135128000D03*
%TD*%
D35*
%TO.N,Net-(FB1-Pad1)*%
X161928000Y-127140000D02*
X162446000Y-127140000D01*
X162446000Y-127140000D02*
X163130000Y-127824000D01*
X163130000Y-127824000D02*
X163130000Y-131256000D01*
X163130000Y-131256000D02*
X162446000Y-131940000D01*
X162446000Y-131940000D02*
X161928000Y-131940000D01*
D36*
%TO.N,VBUS*%
X158750000Y-131064000D02*
X158750000Y-131318000D01*
X158496000Y-130810000D02*
X158750000Y-131064000D01*
X158750000Y-131318000D02*
X158750000Y-131572000D01*
X153629000Y-128535742D02*
X153629000Y-129753000D01*
X153629000Y-129753000D02*
X154686000Y-130810000D01*
X154686000Y-130810000D02*
X158496000Y-130810000D01*
%TO.N,GND*%
X159766000Y-132393500D02*
X159766000Y-133858000D01*
D35*
%TO.N,Net-(J1-CC1)*%
X159766000Y-131258500D02*
X160234500Y-130790000D01*
X160234500Y-130790000D02*
X161928000Y-130790000D01*
D37*
%TO.N,/D+*%
X158455447Y-129575000D02*
X158455447Y-129276955D01*
X158144655Y-129815000D02*
X158215447Y-129815000D01*
X156879000Y-128549345D02*
X158144655Y-129815000D01*
X159655447Y-129276952D02*
G75*
G02*
X159895447Y-129037047I239953J-48D01*
G01*
X156879000Y-128535742D02*
X156879000Y-128549345D01*
X158695447Y-129036955D02*
X158815447Y-129036955D01*
X159055447Y-129276955D02*
X159055447Y-129575000D01*
X160255447Y-129575000D02*
G75*
G03*
X160495447Y-129814953I239953J0D01*
G01*
X158455447Y-129276955D02*
G75*
G02*
X158695447Y-129037047I239953J-45D01*
G01*
X160015447Y-129036952D02*
G75*
G02*
X160255448Y-129276952I-47J-240048D01*
G01*
X158815447Y-129036955D02*
G75*
G02*
X159055445Y-129276955I-47J-240045D01*
G01*
X159055447Y-129575000D02*
G75*
G03*
X159295447Y-129814953I239953J0D01*
G01*
X159295447Y-129815000D02*
X159415447Y-129815000D01*
X159655447Y-129575000D02*
X159655447Y-129276952D01*
X159895447Y-129036952D02*
X160015447Y-129036952D01*
X160255447Y-129276952D02*
X160255447Y-129575000D01*
X160495447Y-129815000D02*
X160615447Y-129815000D01*
X160615447Y-129815000D02*
X160735415Y-129815000D01*
X160735415Y-129815000D02*
X161040499Y-129815000D01*
X159415447Y-129815000D02*
G75*
G03*
X159655400Y-129575000I-47J240000D01*
G01*
X158215447Y-129815000D02*
G75*
G03*
X158455400Y-129575000I-47J240000D01*
G01*
%TO.N,/D-*%
X161928000Y-130290000D02*
X161065499Y-130290000D01*
X161065499Y-130290000D02*
X161040499Y-130265000D01*
X157741258Y-130048000D02*
X157734000Y-130048000D01*
X161040499Y-130265000D02*
X157958258Y-130265000D01*
X157958258Y-130265000D02*
X157741258Y-130048000D01*
X157734000Y-130048000D02*
X157480000Y-129794000D01*
X157480000Y-129794000D02*
X156535258Y-129794000D01*
X156535258Y-129794000D02*
X156229000Y-129487742D01*
X156229000Y-129487742D02*
X156229000Y-128535742D01*
X156403000Y-128709742D02*
X156229000Y-128535742D01*
%TO.N,/D+*%
X161928000Y-128790000D02*
X161389888Y-128790000D01*
X161389888Y-128790000D02*
X161040499Y-129139389D01*
X161040499Y-129139389D02*
X161040499Y-129815000D01*
%TO.N,/D-*%
X161928000Y-129290000D02*
X162502999Y-129290000D01*
X162502999Y-129290000D02*
X162754000Y-129541001D01*
X162754000Y-130038999D02*
X162502999Y-130290000D01*
X162754000Y-129541001D02*
X162754000Y-130038999D01*
X162502999Y-130290000D02*
X161928000Y-130290000D01*
%TO.N,/D+*%
X161928000Y-129790000D02*
X161065499Y-129790000D01*
X161065499Y-129790000D02*
X161040499Y-129815000D01*
D35*
%TO.N,Net-(FB1-Pad1)*%
X160020000Y-135953500D02*
X160782000Y-135191500D01*
X160782000Y-135191500D02*
X160782000Y-132588000D01*
X161430000Y-131940000D02*
X161928000Y-131940000D01*
X160782000Y-132588000D02*
X161430000Y-131940000D01*
D36*
%TO.N,GND*%
X162560000Y-136386000D02*
X162560000Y-133917000D01*
X162560000Y-133917000D02*
X162503000Y-133860000D01*
X167591000Y-136652000D02*
X167591000Y-134768000D01*
X167591000Y-134768000D02*
X166683000Y-133860000D01*
X161928000Y-132740000D02*
X161928000Y-133285000D01*
X161928000Y-133285000D02*
X162503000Y-133860000D01*
D35*
%TO.N,Net-(J1-CC2)*%
X159766000Y-126043500D02*
X159766000Y-126411000D01*
X159766000Y-126411000D02*
X161145000Y-127790000D01*
X161145000Y-127790000D02*
X161928000Y-127790000D01*
D36*
%TO.N,GND*%
X159766000Y-124908500D02*
X162191500Y-124908500D01*
X162191500Y-124908500D02*
X162503000Y-125220000D01*
X162503000Y-125220000D02*
X162503000Y-125765000D01*
X162503000Y-125765000D02*
X161928000Y-126340000D01*
X167894000Y-123086500D02*
X167894000Y-124009000D01*
X167894000Y-124009000D02*
X166683000Y-125220000D01*
D35*
%TO.N,Net-(D1-K)*%
X165529500Y-121666000D02*
X167489500Y-121666000D01*
X167489500Y-121666000D02*
X167894000Y-121261500D01*
D36*
%TO.N,GND*%
X142597000Y-137108258D02*
X142597000Y-135382000D01*
X151638000Y-130048000D02*
X150114000Y-130048000D01*
X143093258Y-127993242D02*
X142917758Y-127817742D01*
X142722506Y-134039161D02*
X142722506Y-134310494D01*
X142597000Y-134436000D02*
X142597000Y-135382000D01*
X149860000Y-130302000D02*
X149098000Y-130302000D01*
X154929000Y-129529000D02*
X155448000Y-130048000D01*
X150379000Y-128535742D02*
X150379000Y-129783000D01*
X152979000Y-128535742D02*
X152979000Y-129710742D01*
X149098000Y-130302000D02*
X149729000Y-129671000D01*
X143167258Y-128067242D02*
X142917758Y-127817742D01*
X152329000Y-135735742D02*
X152400000Y-135664742D01*
X150379000Y-129783000D02*
X150114000Y-130048000D01*
X150114000Y-130048000D02*
X149860000Y-130302000D01*
X154929000Y-128535742D02*
X154929000Y-129529000D01*
X142289000Y-137416258D02*
X142597000Y-137108258D01*
X149729000Y-129671000D02*
X149729000Y-128535742D01*
X152979000Y-129710742D02*
X152641742Y-130048000D01*
X142722506Y-134310494D02*
X142597000Y-134436000D01*
X143249000Y-130041000D02*
X142494000Y-129286000D01*
X136680000Y-122710000D02*
X136652000Y-122682000D01*
X148872000Y-130528000D02*
X147038000Y-130528000D01*
X147038000Y-130528000D02*
X146304000Y-129794000D01*
X152400000Y-135664742D02*
X152400000Y-133858000D01*
X152641742Y-130048000D02*
X151638000Y-130048000D01*
X137668000Y-122710000D02*
X136680000Y-122710000D01*
X143249000Y-130812258D02*
X143249000Y-130041000D01*
X146304000Y-129794000D02*
X146304000Y-129766000D01*
X149098000Y-130302000D02*
X148872000Y-130528000D01*
X142494000Y-129286000D02*
X142494000Y-127993242D01*
%TO.N,+3V3*%
X150379000Y-136787742D02*
X150108342Y-137058400D01*
X147832528Y-137058400D02*
X145140128Y-134366000D01*
X150379000Y-135735742D02*
X150379000Y-134123000D01*
X143097000Y-135382000D02*
X143097000Y-136574000D01*
X143097000Y-134705152D02*
X143097000Y-135382000D01*
X150379000Y-135735742D02*
X150379000Y-136787742D01*
X145140128Y-134366000D02*
X143436152Y-134366000D01*
X143097000Y-136574000D02*
X143175000Y-136652000D01*
X155579000Y-128535742D02*
X155579000Y-127131000D01*
X143436152Y-134366000D02*
X143097000Y-134705152D01*
X150379000Y-134123000D02*
X150368000Y-134112000D01*
X150108342Y-137058400D02*
X147832528Y-137058400D01*
%TO.N,VCC_TTL*%
X142597000Y-132582000D02*
X142597000Y-133258848D01*
X140625500Y-133508000D02*
X140303000Y-133185500D01*
X142597000Y-132582000D02*
X142597000Y-131120258D01*
X142289000Y-130812258D02*
X142242258Y-130812258D01*
X142347848Y-133508000D02*
X140625500Y-133508000D01*
X142597000Y-133258848D02*
X142347848Y-133508000D01*
X142597000Y-131120258D02*
X142289000Y-130812258D01*
D35*
%TO.N,Net-(D2-K)*%
X151280500Y-122428000D02*
X153748500Y-122428000D01*
%TO.N,Net-(D3-K)*%
X151280500Y-125222000D02*
X153748500Y-125222000D01*
%TO.N,/TX*%
X140894500Y-132582000D02*
X140303000Y-131990500D01*
X140303000Y-131667000D02*
X137160000Y-128524000D01*
X140303000Y-131990500D02*
X140303000Y-131667000D01*
X142097000Y-132582000D02*
X140894500Y-132582000D01*
%TO.N,/RX*%
X142097000Y-135382000D02*
X141478000Y-135382000D01*
X141478000Y-135382000D02*
X141224000Y-135128000D01*
X137160000Y-131064000D02*
X134620000Y-128524000D01*
%TO.N,/TXL*%
X151679000Y-128535742D02*
X151679000Y-127410742D01*
X148844000Y-126492000D02*
X147828000Y-125476000D01*
X147828000Y-124055500D02*
X149455500Y-122428000D01*
X150760258Y-126492000D02*
X148844000Y-126492000D01*
X151679000Y-127410742D02*
X150760258Y-126492000D01*
X147828000Y-125476000D02*
X147828000Y-124055500D01*
%TO.N,/RXL*%
X152329000Y-127410742D02*
X150902258Y-125984000D01*
X152329000Y-128535742D02*
X152329000Y-127410742D01*
X150902258Y-125984000D02*
X150217500Y-125984000D01*
X150217500Y-125984000D02*
X149455500Y-125222000D01*
%TO.N,Net-(D4-K)*%
X140221258Y-122531500D02*
X143275258Y-122531500D01*
X143275258Y-122531500D02*
X144187758Y-123444000D01*
%TO.N,Net-(Q1-C)*%
X144792758Y-126867742D02*
X144792758Y-125905500D01*
X144792758Y-125905500D02*
X143243758Y-124356500D01*
X143243758Y-124356500D02*
X140221258Y-124356500D01*
%TO.N,Net-(Q1-B)*%
X142748000Y-126087500D02*
X142917758Y-125917742D01*
X140221258Y-126087500D02*
X142748000Y-126087500D01*
%TO.N,/RX_3V3*%
X150272542Y-137617200D02*
X147377442Y-137617200D01*
X151029000Y-135735742D02*
X151029000Y-136860742D01*
X151029000Y-136860742D02*
X150272542Y-137617200D01*
X145142242Y-135382000D02*
X145309000Y-135548758D01*
X147377442Y-137617200D02*
X145309000Y-135548758D01*
X143597000Y-135382000D02*
X145142242Y-135382000D01*
%TO.N,/TX_3V3*%
X144266000Y-132582000D02*
X143597000Y-132582000D01*
X148429000Y-135735742D02*
X147419742Y-135735742D01*
X147419742Y-135735742D02*
X144266000Y-132582000D01*
%TO.N,Net-(U2-OE)*%
X145563000Y-132679758D02*
X144564242Y-131681000D01*
X144564242Y-131681000D02*
X143320000Y-131681000D01*
X143097000Y-131904000D02*
X143097000Y-132582000D01*
X143320000Y-131681000D02*
X143097000Y-131904000D01*
%TD*%
%TA.AperFunction,Conductor*%
%TO.N,+3V3*%
G36*
X157799039Y-120520185D02*
G01*
X157844794Y-120572989D01*
X157856000Y-120624500D01*
X157856000Y-128377748D01*
X157849761Y-128398993D01*
X157848182Y-128421082D01*
X157840109Y-128431865D01*
X157836315Y-128444787D01*
X157819581Y-128459286D01*
X157806310Y-128477015D01*
X157793689Y-128481722D01*
X157783511Y-128490542D01*
X157761593Y-128493693D01*
X157740846Y-128501432D01*
X157727685Y-128498569D01*
X157714353Y-128500486D01*
X157694209Y-128491286D01*
X157672573Y-128486580D01*
X157654847Y-128473311D01*
X157650797Y-128471461D01*
X157644319Y-128465429D01*
X157640818Y-128461928D01*
X157607333Y-128400605D01*
X157604499Y-128374247D01*
X157604499Y-127612871D01*
X157604498Y-127612865D01*
X157604497Y-127612858D01*
X157598091Y-127553259D01*
X157591588Y-127535824D01*
X157547797Y-127418413D01*
X157547793Y-127418406D01*
X157461547Y-127303197D01*
X157461544Y-127303194D01*
X157346335Y-127216948D01*
X157346328Y-127216944D01*
X157211486Y-127166652D01*
X157211485Y-127166651D01*
X157211483Y-127166651D01*
X157151873Y-127160242D01*
X157151863Y-127160242D01*
X156606130Y-127160242D01*
X156606119Y-127160243D01*
X156567253Y-127164421D01*
X156540748Y-127164421D01*
X156501874Y-127160242D01*
X155956132Y-127160242D01*
X155956117Y-127160243D01*
X155930177Y-127163031D01*
X155930170Y-127163033D01*
X155896517Y-127166651D01*
X155761669Y-127216946D01*
X155679925Y-127278140D01*
X155653311Y-127298063D01*
X155587846Y-127322480D01*
X155519573Y-127307628D01*
X155504689Y-127298063D01*
X155403687Y-127222453D01*
X155367888Y-127174630D01*
X155354000Y-127160742D01*
X155306165Y-127160742D01*
X155269598Y-127164673D01*
X155243092Y-127164673D01*
X155201873Y-127160242D01*
X154656130Y-127160242D01*
X154656119Y-127160243D01*
X154617253Y-127164421D01*
X154590748Y-127164421D01*
X154551874Y-127160242D01*
X154006130Y-127160242D01*
X154006119Y-127160243D01*
X153967253Y-127164421D01*
X153940748Y-127164421D01*
X153901874Y-127160242D01*
X153356130Y-127160242D01*
X153356119Y-127160243D01*
X153317253Y-127164421D01*
X153290748Y-127164421D01*
X153251875Y-127160242D01*
X153251873Y-127160242D01*
X152980184Y-127160242D01*
X152913145Y-127140557D01*
X152877082Y-127105133D01*
X152840372Y-127050193D01*
X152840372Y-127050194D01*
X152814858Y-127012009D01*
X152814855Y-127012006D01*
X152814853Y-127012003D01*
X152724637Y-126921787D01*
X152724606Y-126921758D01*
X152005950Y-126203102D01*
X152002697Y-126197145D01*
X151997122Y-126193279D01*
X151986167Y-126166872D01*
X151972465Y-126141779D01*
X151972949Y-126135010D01*
X151970349Y-126128743D01*
X151975409Y-126100606D01*
X151977449Y-126072087D01*
X151981809Y-126065024D01*
X151982717Y-126059976D01*
X151998116Y-126038608D01*
X152002830Y-126030974D01*
X152004345Y-126029344D01*
X152113340Y-125920350D01*
X152128359Y-125895999D01*
X152136680Y-125887053D01*
X152156636Y-125875197D01*
X152173890Y-125859679D01*
X152188255Y-125856414D01*
X152196750Y-125851368D01*
X152208623Y-125851785D01*
X152227481Y-125847500D01*
X152687245Y-125847500D01*
X152754284Y-125867185D01*
X152800039Y-125919989D01*
X152804951Y-125932496D01*
X152825638Y-125994925D01*
X152825639Y-125994928D01*
X152916971Y-126142999D01*
X152916974Y-126143003D01*
X153039996Y-126266025D01*
X153040000Y-126266028D01*
X153188066Y-126357357D01*
X153188069Y-126357358D01*
X153188075Y-126357362D01*
X153353225Y-126412087D01*
X153455152Y-126422500D01*
X153455157Y-126422500D01*
X154041843Y-126422500D01*
X154041848Y-126422500D01*
X154143775Y-126412087D01*
X154308925Y-126357362D01*
X154457003Y-126266026D01*
X154580026Y-126143003D01*
X154580755Y-126141821D01*
X154581466Y-126141181D01*
X154584507Y-126137336D01*
X154585163Y-126137855D01*
X154632701Y-126095097D01*
X154701664Y-126083873D01*
X154765746Y-126111715D01*
X154787761Y-126137123D01*
X154787888Y-126137023D01*
X154790113Y-126139838D01*
X154791833Y-126141822D01*
X154792365Y-126142685D01*
X154792369Y-126142690D01*
X154915308Y-126265629D01*
X155063285Y-126356903D01*
X155063290Y-126356905D01*
X155228326Y-126411592D01*
X155330184Y-126421999D01*
X155330197Y-126422000D01*
X155373500Y-126422000D01*
X155873500Y-126422000D01*
X155916803Y-126422000D01*
X155916815Y-126421999D01*
X156018673Y-126411592D01*
X156183709Y-126356905D01*
X156183714Y-126356903D01*
X156331691Y-126265629D01*
X156454629Y-126142691D01*
X156545903Y-125994714D01*
X156545905Y-125994709D01*
X156600592Y-125829673D01*
X156610999Y-125727815D01*
X156611000Y-125727802D01*
X156611000Y-125472000D01*
X155873500Y-125472000D01*
X155873500Y-126422000D01*
X155373500Y-126422000D01*
X155373500Y-124972000D01*
X155873500Y-124972000D01*
X156611000Y-124972000D01*
X156611000Y-124716197D01*
X156610999Y-124716184D01*
X156600592Y-124614326D01*
X156545905Y-124449290D01*
X156545903Y-124449285D01*
X156454629Y-124301308D01*
X156331691Y-124178370D01*
X156183714Y-124087096D01*
X156183709Y-124087094D01*
X156018673Y-124032407D01*
X155916815Y-124022000D01*
X155873500Y-124022000D01*
X155873500Y-124972000D01*
X155373500Y-124972000D01*
X155373500Y-124022000D01*
X155330184Y-124022000D01*
X155228326Y-124032407D01*
X155063290Y-124087094D01*
X155063285Y-124087096D01*
X154915308Y-124178370D01*
X154792369Y-124301309D01*
X154792364Y-124301315D01*
X154791829Y-124302184D01*
X154791306Y-124302654D01*
X154787888Y-124306977D01*
X154787149Y-124306392D01*
X154739879Y-124348906D01*
X154670916Y-124360125D01*
X154606835Y-124332278D01*
X154584586Y-124306601D01*
X154584507Y-124306664D01*
X154583111Y-124304898D01*
X154580758Y-124302183D01*
X154580028Y-124300999D01*
X154457003Y-124177974D01*
X154456999Y-124177971D01*
X154308933Y-124086642D01*
X154308927Y-124086639D01*
X154308925Y-124086638D01*
X154308922Y-124086637D01*
X154143776Y-124031913D01*
X154041855Y-124021500D01*
X154041848Y-124021500D01*
X153455152Y-124021500D01*
X153455144Y-124021500D01*
X153353223Y-124031913D01*
X153188077Y-124086637D01*
X153188066Y-124086642D01*
X153040000Y-124177971D01*
X153039996Y-124177974D01*
X152916974Y-124300996D01*
X152916971Y-124301000D01*
X152825639Y-124449071D01*
X152825638Y-124449074D01*
X152804951Y-124511504D01*
X152765178Y-124568949D01*
X152700662Y-124595772D01*
X152687245Y-124596500D01*
X152227481Y-124596500D01*
X152160442Y-124576815D01*
X152121942Y-124537596D01*
X152120908Y-124535920D01*
X152113340Y-124523650D01*
X151991350Y-124401660D01*
X151844516Y-124311092D01*
X151680753Y-124256826D01*
X151680751Y-124256825D01*
X151579678Y-124246500D01*
X150981330Y-124246500D01*
X150981312Y-124246501D01*
X150880247Y-124256825D01*
X150716484Y-124311092D01*
X150716481Y-124311093D01*
X150569648Y-124401661D01*
X150455681Y-124515629D01*
X150394358Y-124549114D01*
X150324666Y-124544130D01*
X150280319Y-124515629D01*
X150166351Y-124401661D01*
X150166350Y-124401660D01*
X150019516Y-124311092D01*
X149855753Y-124256826D01*
X149855751Y-124256825D01*
X149754678Y-124246500D01*
X149156330Y-124246500D01*
X149156312Y-124246501D01*
X149055247Y-124256825D01*
X148891484Y-124311092D01*
X148891481Y-124311093D01*
X148744648Y-124401661D01*
X148665181Y-124481129D01*
X148645744Y-124491741D01*
X148629011Y-124506242D01*
X148615679Y-124508158D01*
X148603858Y-124514614D01*
X148581771Y-124513034D01*
X148559853Y-124516186D01*
X148547601Y-124510590D01*
X148534166Y-124509630D01*
X148516439Y-124496359D01*
X148496297Y-124487161D01*
X148489014Y-124475829D01*
X148478233Y-124467758D01*
X148470495Y-124447012D01*
X148458523Y-124428383D01*
X148455371Y-124406464D01*
X148453816Y-124402294D01*
X148453500Y-124393448D01*
X148453500Y-124365952D01*
X148473185Y-124298913D01*
X148489819Y-124278271D01*
X149328272Y-123439818D01*
X149389595Y-123406333D01*
X149415953Y-123403499D01*
X149754670Y-123403499D01*
X149754676Y-123403499D01*
X149855753Y-123393174D01*
X150019516Y-123338908D01*
X150166350Y-123248340D01*
X150280319Y-123134371D01*
X150341642Y-123100886D01*
X150411334Y-123105870D01*
X150455681Y-123134371D01*
X150569650Y-123248340D01*
X150716484Y-123338908D01*
X150880247Y-123393174D01*
X150981323Y-123403500D01*
X151579676Y-123403499D01*
X151579684Y-123403498D01*
X151579687Y-123403498D01*
X151635030Y-123397844D01*
X151680753Y-123393174D01*
X151844516Y-123338908D01*
X151991350Y-123248340D01*
X152113340Y-123126350D01*
X152121942Y-123112404D01*
X152173890Y-123065679D01*
X152227481Y-123053500D01*
X152687245Y-123053500D01*
X152754284Y-123073185D01*
X152800039Y-123125989D01*
X152804951Y-123138496D01*
X152825638Y-123200925D01*
X152825639Y-123200928D01*
X152916971Y-123348999D01*
X152916974Y-123349003D01*
X153039996Y-123472025D01*
X153040000Y-123472028D01*
X153188066Y-123563357D01*
X153188069Y-123563358D01*
X153188075Y-123563362D01*
X153353225Y-123618087D01*
X153455152Y-123628500D01*
X153455157Y-123628500D01*
X154041843Y-123628500D01*
X154041848Y-123628500D01*
X154143775Y-123618087D01*
X154308925Y-123563362D01*
X154457003Y-123472026D01*
X154580026Y-123349003D01*
X154580755Y-123347821D01*
X154581466Y-123347181D01*
X154584507Y-123343336D01*
X154585163Y-123343855D01*
X154632701Y-123301097D01*
X154701664Y-123289873D01*
X154765746Y-123317715D01*
X154787761Y-123343123D01*
X154787888Y-123343023D01*
X154790113Y-123345838D01*
X154791833Y-123347822D01*
X154792365Y-123348685D01*
X154792369Y-123348690D01*
X154915308Y-123471629D01*
X155063285Y-123562903D01*
X155063290Y-123562905D01*
X155228326Y-123617592D01*
X155330184Y-123627999D01*
X155330197Y-123628000D01*
X155373500Y-123628000D01*
X155873500Y-123628000D01*
X155916803Y-123628000D01*
X155916815Y-123627999D01*
X156018673Y-123617592D01*
X156183709Y-123562905D01*
X156183714Y-123562903D01*
X156331691Y-123471629D01*
X156454629Y-123348691D01*
X156545903Y-123200714D01*
X156545905Y-123200709D01*
X156600592Y-123035673D01*
X156610999Y-122933815D01*
X156611000Y-122933802D01*
X156611000Y-122678000D01*
X155873500Y-122678000D01*
X155873500Y-123628000D01*
X155373500Y-123628000D01*
X155373500Y-122178000D01*
X155873500Y-122178000D01*
X156611000Y-122178000D01*
X156611000Y-121922197D01*
X156610999Y-121922184D01*
X156600592Y-121820326D01*
X156545905Y-121655290D01*
X156545903Y-121655285D01*
X156454629Y-121507308D01*
X156331691Y-121384370D01*
X156183714Y-121293096D01*
X156183709Y-121293094D01*
X156018673Y-121238407D01*
X155916815Y-121228000D01*
X155873500Y-121228000D01*
X155873500Y-122178000D01*
X155373500Y-122178000D01*
X155373500Y-121228000D01*
X155330184Y-121228000D01*
X155228326Y-121238407D01*
X155063290Y-121293094D01*
X155063285Y-121293096D01*
X154915308Y-121384370D01*
X154792369Y-121507309D01*
X154792364Y-121507315D01*
X154791829Y-121508184D01*
X154791306Y-121508654D01*
X154787888Y-121512977D01*
X154787149Y-121512392D01*
X154739879Y-121554906D01*
X154670916Y-121566125D01*
X154606835Y-121538278D01*
X154584586Y-121512601D01*
X154584507Y-121512664D01*
X154583111Y-121510898D01*
X154580758Y-121508183D01*
X154580028Y-121506999D01*
X154457003Y-121383974D01*
X154456999Y-121383971D01*
X154308933Y-121292642D01*
X154308927Y-121292639D01*
X154308925Y-121292638D01*
X154308922Y-121292637D01*
X154143776Y-121237913D01*
X154041855Y-121227500D01*
X154041848Y-121227500D01*
X153455152Y-121227500D01*
X153455144Y-121227500D01*
X153353223Y-121237913D01*
X153188077Y-121292637D01*
X153188066Y-121292642D01*
X153040000Y-121383971D01*
X153039996Y-121383974D01*
X152916974Y-121506996D01*
X152916971Y-121507000D01*
X152825639Y-121655071D01*
X152825638Y-121655074D01*
X152804951Y-121717504D01*
X152765178Y-121774949D01*
X152700662Y-121801772D01*
X152687245Y-121802500D01*
X152227481Y-121802500D01*
X152160442Y-121782815D01*
X152121942Y-121743596D01*
X152120908Y-121741920D01*
X152113340Y-121729650D01*
X151991350Y-121607660D01*
X151844516Y-121517092D01*
X151680753Y-121462826D01*
X151680751Y-121462825D01*
X151579678Y-121452500D01*
X150981330Y-121452500D01*
X150981312Y-121452501D01*
X150880247Y-121462825D01*
X150716484Y-121517092D01*
X150716481Y-121517093D01*
X150569648Y-121607661D01*
X150455681Y-121721629D01*
X150394358Y-121755114D01*
X150324666Y-121750130D01*
X150280319Y-121721629D01*
X150166351Y-121607661D01*
X150166350Y-121607660D01*
X150019516Y-121517092D01*
X149855753Y-121462826D01*
X149855751Y-121462825D01*
X149754678Y-121452500D01*
X149156330Y-121452500D01*
X149156312Y-121452501D01*
X149055247Y-121462825D01*
X148891484Y-121517092D01*
X148891481Y-121517093D01*
X148744648Y-121607661D01*
X148622661Y-121729648D01*
X148532093Y-121876481D01*
X148532091Y-121876486D01*
X148516959Y-121922152D01*
X148477826Y-122040247D01*
X148477826Y-122040248D01*
X148477825Y-122040248D01*
X148467500Y-122141315D01*
X148467500Y-122480046D01*
X148447815Y-122547085D01*
X148431181Y-122567727D01*
X147432305Y-123566603D01*
X147432298Y-123566610D01*
X147429269Y-123569640D01*
X147429267Y-123569642D01*
X147342142Y-123656767D01*
X147307915Y-123707990D01*
X147303532Y-123714549D01*
X147303529Y-123714553D01*
X147277359Y-123753719D01*
X147223746Y-123798523D01*
X147154421Y-123807229D01*
X147091394Y-123777073D01*
X147054676Y-123717629D01*
X147051685Y-123695427D01*
X147050258Y-123694000D01*
X146312758Y-123694000D01*
X146312758Y-124644000D01*
X146356061Y-124644000D01*
X146356073Y-124643999D01*
X146457931Y-124633592D01*
X146622967Y-124578905D01*
X146622972Y-124578903D01*
X146770949Y-124487629D01*
X146893887Y-124364691D01*
X146972961Y-124236493D01*
X147024909Y-124189769D01*
X147093872Y-124178546D01*
X147157954Y-124206390D01*
X147196810Y-124264458D01*
X147202500Y-124301590D01*
X147202500Y-125537606D01*
X147219178Y-125621457D01*
X147226537Y-125658451D01*
X147273688Y-125772286D01*
X147276370Y-125776299D01*
X147276374Y-125776313D01*
X147276378Y-125776311D01*
X147342141Y-125874732D01*
X147342144Y-125874736D01*
X147433586Y-125966178D01*
X147433608Y-125966198D01*
X148358139Y-126890729D01*
X148358142Y-126890733D01*
X148401647Y-126934238D01*
X148415971Y-126948562D01*
X148449455Y-127009886D01*
X148447001Y-127044190D01*
X148444470Y-127079576D01*
X148409312Y-127126541D01*
X148402597Y-127135510D01*
X148376956Y-127145073D01*
X148337134Y-127159926D01*
X148328289Y-127160242D01*
X148156130Y-127160242D01*
X148156123Y-127160243D01*
X148096516Y-127166650D01*
X147961671Y-127216944D01*
X147961664Y-127216948D01*
X147846455Y-127303194D01*
X147846452Y-127303197D01*
X147760206Y-127418406D01*
X147760202Y-127418413D01*
X147709908Y-127553259D01*
X147704663Y-127602048D01*
X147703501Y-127612865D01*
X147703500Y-127612877D01*
X147703500Y-129458612D01*
X147703501Y-129458618D01*
X147709908Y-129518225D01*
X147760202Y-129653070D01*
X147760204Y-129653073D01*
X147779754Y-129679188D01*
X147804172Y-129744652D01*
X147789321Y-129812925D01*
X147739917Y-129862331D01*
X147680488Y-129877500D01*
X147358808Y-129877500D01*
X147329367Y-129868855D01*
X147299381Y-129862332D01*
X147294365Y-129858577D01*
X147291769Y-129857815D01*
X147271127Y-129841181D01*
X147150819Y-129720873D01*
X147117334Y-129659550D01*
X147114500Y-129633192D01*
X147114500Y-129561317D01*
X147114499Y-129561302D01*
X147111643Y-129525008D01*
X147111642Y-129525002D01*
X147066495Y-129369609D01*
X147066494Y-129369605D01*
X147066493Y-129369604D01*
X147054089Y-129348630D01*
X147036906Y-129280909D01*
X147054091Y-129222384D01*
X147066032Y-129202194D01*
X147108504Y-129056000D01*
X146802352Y-129056000D01*
X146739233Y-129038732D01*
X146730395Y-129033506D01*
X146730393Y-129033505D01*
X146730389Y-129033503D01*
X146574997Y-128988357D01*
X146574991Y-128988356D01*
X146538697Y-128985500D01*
X146538690Y-128985500D01*
X146069310Y-128985500D01*
X146069302Y-128985500D01*
X146033008Y-128988356D01*
X146033002Y-128988357D01*
X145877610Y-129033503D01*
X145877605Y-129033506D01*
X145868766Y-129038732D01*
X145805648Y-129056000D01*
X145499496Y-129056000D01*
X145541968Y-129202194D01*
X145553911Y-129222389D01*
X145571092Y-129290113D01*
X145553911Y-129348628D01*
X145541506Y-129369604D01*
X145541504Y-129369609D01*
X145496357Y-129525002D01*
X145496356Y-129525008D01*
X145493500Y-129561302D01*
X145493500Y-129970697D01*
X145496356Y-130006991D01*
X145496357Y-130006997D01*
X145541504Y-130162390D01*
X145541505Y-130162393D01*
X145623881Y-130301684D01*
X145623887Y-130301692D01*
X145738307Y-130416112D01*
X145738311Y-130416115D01*
X145738313Y-130416117D01*
X145738316Y-130416118D01*
X145738319Y-130416121D01*
X145781953Y-130441926D01*
X145829637Y-130492994D01*
X145842141Y-130561736D01*
X145815496Y-130626326D01*
X145813000Y-130628985D01*
X145813000Y-131234758D01*
X146383000Y-131234758D01*
X146383000Y-131233920D01*
X146376956Y-131167416D01*
X146354380Y-131094965D01*
X146353814Y-131060686D01*
X146352879Y-131026397D01*
X146353239Y-131025800D01*
X146353228Y-131025104D01*
X146371296Y-130995944D01*
X146389037Y-130966610D01*
X146389662Y-130966303D01*
X146390029Y-130965712D01*
X146420943Y-130950973D01*
X146451777Y-130935863D01*
X146452469Y-130935943D01*
X146453098Y-130935644D01*
X146487116Y-130939963D01*
X146521181Y-130943917D01*
X146521862Y-130944376D01*
X146522411Y-130944446D01*
X146551382Y-130962181D01*
X146556116Y-130966062D01*
X146623331Y-131033277D01*
X146698124Y-131083251D01*
X146703164Y-131086618D01*
X146703167Y-131086621D01*
X146715655Y-131094965D01*
X146729873Y-131104465D01*
X146848256Y-131153501D01*
X146848260Y-131153501D01*
X146848261Y-131153502D01*
X146973928Y-131178500D01*
X146973931Y-131178500D01*
X148936071Y-131178500D01*
X149054797Y-131154883D01*
X149078989Y-131152500D01*
X149181768Y-131152500D01*
X149181769Y-131152499D01*
X149346082Y-131119816D01*
X149500863Y-131055703D01*
X149624041Y-130973398D01*
X149690719Y-130952520D01*
X149692932Y-130952500D01*
X149924071Y-130952500D01*
X150008615Y-130935682D01*
X150049744Y-130927501D01*
X150168127Y-130878465D01*
X150187531Y-130865500D01*
X150274669Y-130807277D01*
X150347128Y-130734817D01*
X150408449Y-130701334D01*
X150434808Y-130698500D01*
X151043068Y-130698500D01*
X151110107Y-130718185D01*
X151111959Y-130719398D01*
X151164205Y-130754307D01*
X151235137Y-130801703D01*
X151235138Y-130801703D01*
X151235139Y-130801704D01*
X151270201Y-130816227D01*
X151389918Y-130865816D01*
X151554228Y-130898499D01*
X151554232Y-130898500D01*
X151554233Y-130898500D01*
X151721768Y-130898500D01*
X151721769Y-130898499D01*
X151886082Y-130865816D01*
X152040863Y-130801703D01*
X152164041Y-130719398D01*
X152230719Y-130698520D01*
X152232932Y-130698500D01*
X152705813Y-130698500D01*
X152793867Y-130680984D01*
X152831486Y-130673501D01*
X152949869Y-130624465D01*
X152960345Y-130617465D01*
X153056411Y-130553277D01*
X153195191Y-130414496D01*
X153256512Y-130381013D01*
X153326204Y-130385997D01*
X153370552Y-130414498D01*
X154271325Y-131315272D01*
X154271332Y-131315278D01*
X154365119Y-131377944D01*
X154365120Y-131377944D01*
X154369390Y-131380797D01*
X154377873Y-131386465D01*
X154496256Y-131435501D01*
X154496260Y-131435501D01*
X154496261Y-131435502D01*
X154621928Y-131460500D01*
X154621931Y-131460500D01*
X157732000Y-131460500D01*
X157799039Y-131480185D01*
X157844794Y-131532989D01*
X157856000Y-131584500D01*
X157856000Y-138375500D01*
X157836315Y-138442539D01*
X157783511Y-138488294D01*
X157732000Y-138499500D01*
X142964000Y-138499500D01*
X142896961Y-138479815D01*
X142851206Y-138427011D01*
X142840000Y-138375500D01*
X142840000Y-138339721D01*
X142859685Y-138272682D01*
X142912489Y-138226927D01*
X142981647Y-138216983D01*
X142998595Y-138220645D01*
X142999000Y-138220762D01*
X142999000Y-138220761D01*
X143499000Y-138220761D01*
X143645195Y-138178289D01*
X143784374Y-138095979D01*
X143784383Y-138095972D01*
X143898714Y-137981641D01*
X143898721Y-137981632D01*
X143981031Y-137842453D01*
X143981033Y-137842448D01*
X144026144Y-137687176D01*
X144026145Y-137687170D01*
X144027790Y-137666258D01*
X143499000Y-137666258D01*
X143499000Y-138220761D01*
X142999000Y-138220761D01*
X142999000Y-137914610D01*
X143016267Y-137851491D01*
X143021494Y-137842653D01*
X143066643Y-137687251D01*
X143069500Y-137650948D01*
X143069500Y-137607066D01*
X143089185Y-137540027D01*
X143098867Y-137528019D01*
X143098408Y-137527642D01*
X143102273Y-137522930D01*
X143102277Y-137522927D01*
X143173465Y-137416385D01*
X143213010Y-137320915D01*
X143222501Y-137298002D01*
X143230682Y-137256873D01*
X143247500Y-137172329D01*
X143247500Y-136619475D01*
X143252320Y-136603058D01*
X143252118Y-136585951D01*
X143261960Y-136570229D01*
X143267185Y-136552436D01*
X143280112Y-136541233D01*
X143289193Y-136526730D01*
X143305974Y-136518825D01*
X143319989Y-136506681D01*
X143337241Y-136504096D01*
X143352401Y-136496955D01*
X143387690Y-136496537D01*
X143391193Y-136496998D01*
X143455088Y-136525268D01*
X143493555Y-136583595D01*
X143499000Y-136619936D01*
X143499000Y-137166258D01*
X144027790Y-137166258D01*
X144026145Y-137145347D01*
X143982348Y-136994595D01*
X144489000Y-136994595D01*
X144495043Y-137061101D01*
X144542724Y-137214117D01*
X144542726Y-137214121D01*
X144625639Y-137351277D01*
X144625642Y-137351281D01*
X144738976Y-137464615D01*
X144738980Y-137464618D01*
X144876136Y-137547531D01*
X144876138Y-137547532D01*
X145029155Y-137595214D01*
X145029161Y-137595216D01*
X145058999Y-137597926D01*
X145059000Y-137597926D01*
X145059000Y-136993758D01*
X144489000Y-136993758D01*
X144489000Y-136994595D01*
X143982348Y-136994595D01*
X143981031Y-136990062D01*
X143898721Y-136850883D01*
X143898714Y-136850874D01*
X143784383Y-136736543D01*
X143784377Y-136736539D01*
X143765536Y-136725396D01*
X143717853Y-136674326D01*
X143705350Y-136605584D01*
X143731996Y-136540995D01*
X143789332Y-136501065D01*
X143812468Y-136495726D01*
X143837999Y-136492365D01*
X143981037Y-136433117D01*
X144103867Y-136338867D01*
X144198117Y-136216037D01*
X144252789Y-136084047D01*
X144265332Y-136068481D01*
X144273637Y-136050297D01*
X144286807Y-136041832D01*
X144296630Y-136029644D01*
X144315597Y-136023331D01*
X144332415Y-136012523D01*
X144359975Y-136008560D01*
X144362924Y-136007579D01*
X144367350Y-136007500D01*
X144465181Y-136007500D01*
X144532220Y-136027185D01*
X144571299Y-136067353D01*
X144580512Y-136082594D01*
X144598347Y-136150149D01*
X144580512Y-136210890D01*
X144542724Y-136273399D01*
X144495043Y-136426414D01*
X144489000Y-136492920D01*
X144489000Y-136493758D01*
X145185000Y-136493758D01*
X145252039Y-136513443D01*
X145297794Y-136566247D01*
X145309000Y-136617758D01*
X145309000Y-136743758D01*
X145435000Y-136743758D01*
X145502039Y-136763443D01*
X145547794Y-136816247D01*
X145559000Y-136867758D01*
X145559000Y-137597926D01*
X145588838Y-137595216D01*
X145588844Y-137595214D01*
X145741861Y-137547532D01*
X145741863Y-137547531D01*
X145879019Y-137464618D01*
X145879023Y-137464615D01*
X145992357Y-137351281D01*
X145998852Y-137340537D01*
X146050378Y-137293347D01*
X146119237Y-137281505D01*
X146183567Y-137308771D01*
X146192647Y-137316995D01*
X146398576Y-137522925D01*
X146978705Y-138103055D01*
X146978709Y-138103058D01*
X147081152Y-138171509D01*
X147081153Y-138171509D01*
X147081157Y-138171512D01*
X147147838Y-138199131D01*
X147147840Y-138199133D01*
X147177571Y-138211447D01*
X147194990Y-138218663D01*
X147315836Y-138242700D01*
X147315838Y-138242700D01*
X150334150Y-138242700D01*
X150334150Y-138242699D01*
X150414296Y-138226758D01*
X150454994Y-138218663D01*
X150488334Y-138204852D01*
X150568828Y-138171512D01*
X150620051Y-138137284D01*
X150671275Y-138103058D01*
X150758400Y-138015933D01*
X150758401Y-138015931D01*
X150765467Y-138008865D01*
X150765470Y-138008861D01*
X151427729Y-137346602D01*
X151427733Y-137346600D01*
X151514858Y-137259475D01*
X151566914Y-137181568D01*
X151577082Y-137166351D01*
X151630694Y-137121545D01*
X151680184Y-137111241D01*
X151951872Y-137111241D01*
X151951885Y-137111240D01*
X151990744Y-137107062D01*
X152017252Y-137107062D01*
X152056127Y-137111242D01*
X152601872Y-137111241D01*
X152601873Y-137111240D01*
X152601885Y-137111240D01*
X152640744Y-137107062D01*
X152667252Y-137107062D01*
X152706127Y-137111242D01*
X153251872Y-137111241D01*
X153251873Y-137111240D01*
X153251885Y-137111240D01*
X153290744Y-137107062D01*
X153317252Y-137107062D01*
X153356127Y-137111242D01*
X153901872Y-137111241D01*
X153901873Y-137111240D01*
X153901885Y-137111240D01*
X153940744Y-137107062D01*
X153967252Y-137107062D01*
X154006127Y-137111242D01*
X154551872Y-137111241D01*
X154551873Y-137111240D01*
X154551885Y-137111240D01*
X154590744Y-137107062D01*
X154617252Y-137107062D01*
X154656127Y-137111242D01*
X155201872Y-137111241D01*
X155201873Y-137111240D01*
X155201885Y-137111240D01*
X155240744Y-137107062D01*
X155267252Y-137107062D01*
X155306127Y-137111242D01*
X155851872Y-137111241D01*
X155851873Y-137111240D01*
X155851885Y-137111240D01*
X155890744Y-137107062D01*
X155917252Y-137107062D01*
X155956127Y-137111242D01*
X156501872Y-137111241D01*
X156501873Y-137111240D01*
X156501885Y-137111240D01*
X156540744Y-137107062D01*
X156567252Y-137107062D01*
X156606127Y-137111242D01*
X157151872Y-137111241D01*
X157211483Y-137104833D01*
X157346331Y-137054538D01*
X157461546Y-136968288D01*
X157547796Y-136853073D01*
X157598091Y-136718225D01*
X157604500Y-136658615D01*
X157604499Y-134812870D01*
X157598091Y-134753259D01*
X157594833Y-134744525D01*
X157547797Y-134618413D01*
X157547793Y-134618406D01*
X157461547Y-134503197D01*
X157461544Y-134503194D01*
X157346335Y-134416948D01*
X157346328Y-134416944D01*
X157211486Y-134366652D01*
X157211485Y-134366651D01*
X157211483Y-134366651D01*
X157151873Y-134360242D01*
X157151863Y-134360242D01*
X156606130Y-134360242D01*
X156606119Y-134360243D01*
X156567253Y-134364421D01*
X156540748Y-134364421D01*
X156501874Y-134360242D01*
X155956130Y-134360242D01*
X155956119Y-134360243D01*
X155917253Y-134364421D01*
X155890748Y-134364421D01*
X155851874Y-134360242D01*
X155306130Y-134360242D01*
X155306119Y-134360243D01*
X155267253Y-134364421D01*
X155240748Y-134364421D01*
X155201874Y-134360242D01*
X154656130Y-134360242D01*
X154656119Y-134360243D01*
X154617253Y-134364421D01*
X154590748Y-134364421D01*
X154551874Y-134360242D01*
X154006130Y-134360242D01*
X154006119Y-134360243D01*
X153967253Y-134364421D01*
X153940748Y-134364421D01*
X153901874Y-134360242D01*
X153356130Y-134360242D01*
X153356119Y-134360243D01*
X153317253Y-134364421D01*
X153290748Y-134364421D01*
X153283176Y-134363607D01*
X153218625Y-134336869D01*
X153178776Y-134279477D01*
X153176281Y-134209652D01*
X153181869Y-134192864D01*
X153217816Y-134106082D01*
X153250500Y-133941767D01*
X153250500Y-133774233D01*
X153217816Y-133609918D01*
X153153703Y-133455137D01*
X153062242Y-133318256D01*
X153060626Y-133315837D01*
X152942162Y-133197373D01*
X152802860Y-133104295D01*
X152648082Y-133040184D01*
X152648074Y-133040182D01*
X152483771Y-133007500D01*
X152483767Y-133007500D01*
X152316233Y-133007500D01*
X152316228Y-133007500D01*
X152151925Y-133040182D01*
X152151917Y-133040184D01*
X151997139Y-133104295D01*
X151857837Y-133197373D01*
X151739373Y-133315837D01*
X151646295Y-133455139D01*
X151582184Y-133609917D01*
X151582182Y-133609925D01*
X151549500Y-133774228D01*
X151549500Y-133941771D01*
X151582182Y-134106074D01*
X151582185Y-134106086D01*
X151616442Y-134188790D01*
X151619738Y-134219454D01*
X151625135Y-134249824D01*
X151623440Y-134253884D01*
X151623911Y-134258259D01*
X151610106Y-134285836D01*
X151598226Y-134314304D01*
X151594604Y-134316804D01*
X151592635Y-134320738D01*
X151566117Y-134336471D01*
X151540728Y-134354000D01*
X151535031Y-134354915D01*
X151532546Y-134356390D01*
X151505978Y-134360174D01*
X151503900Y-134360242D01*
X151406128Y-134360243D01*
X151362699Y-134364910D01*
X151358099Y-134365063D01*
X151355611Y-134364421D01*
X151340748Y-134364421D01*
X151301874Y-134360242D01*
X150756132Y-134360242D01*
X150756117Y-134360243D01*
X150730177Y-134363031D01*
X150730170Y-134363033D01*
X150696517Y-134366651D01*
X150561669Y-134416946D01*
X150539864Y-134433268D01*
X150539864Y-134433269D01*
X150453311Y-134498063D01*
X150387846Y-134522480D01*
X150319573Y-134507628D01*
X150304689Y-134498063D01*
X150279327Y-134479077D01*
X150203687Y-134422453D01*
X150167888Y-134374630D01*
X150154000Y-134360742D01*
X150106165Y-134360742D01*
X150069598Y-134364673D01*
X150043092Y-134364673D01*
X150001873Y-134360242D01*
X149456130Y-134360242D01*
X149456119Y-134360243D01*
X149417253Y-134364421D01*
X149390748Y-134364421D01*
X149351874Y-134360242D01*
X148806130Y-134360242D01*
X148806119Y-134360243D01*
X148767253Y-134364421D01*
X148740748Y-134364421D01*
X148701874Y-134360242D01*
X148156129Y-134360242D01*
X148156123Y-134360243D01*
X148096516Y-134366650D01*
X147961671Y-134416944D01*
X147961664Y-134416948D01*
X147846455Y-134503194D01*
X147846452Y-134503197D01*
X147760206Y-134618406D01*
X147760202Y-134618413D01*
X147709908Y-134753259D01*
X147704243Y-134805960D01*
X147703501Y-134812865D01*
X147703500Y-134812877D01*
X147703500Y-134835547D01*
X147683815Y-134902586D01*
X147631011Y-134948341D01*
X147561853Y-134958285D01*
X147498297Y-134929260D01*
X147491819Y-134923228D01*
X146139149Y-133570558D01*
X146105664Y-133509235D01*
X146110648Y-133439543D01*
X146139145Y-133395200D01*
X146246753Y-133287593D01*
X146329733Y-133150327D01*
X146377452Y-132997191D01*
X146383500Y-132930639D01*
X146383499Y-132428878D01*
X146383499Y-132428869D01*
X146377453Y-132362331D01*
X146377452Y-132362328D01*
X146377452Y-132362325D01*
X146329733Y-132209189D01*
X146329732Y-132209187D01*
X146291488Y-132145923D01*
X146273652Y-132078369D01*
X146291489Y-132017623D01*
X146329273Y-131955120D01*
X146376957Y-131802096D01*
X146383000Y-131735595D01*
X146383000Y-131734758D01*
X145687000Y-131734758D01*
X145619961Y-131715073D01*
X145574206Y-131662269D01*
X145563000Y-131610758D01*
X145563000Y-131484758D01*
X145437000Y-131484758D01*
X145369961Y-131465073D01*
X145324206Y-131412269D01*
X145313000Y-131360758D01*
X145313000Y-130630589D01*
X145283155Y-130633301D01*
X145130140Y-130680982D01*
X145130136Y-130680984D01*
X144992980Y-130763897D01*
X144992976Y-130763900D01*
X144879641Y-130877235D01*
X144801201Y-131006992D01*
X144749673Y-131054179D01*
X144680814Y-131066018D01*
X144670905Y-131064461D01*
X144625849Y-131055500D01*
X144625848Y-131055500D01*
X144153500Y-131055500D01*
X144086461Y-131035815D01*
X144040706Y-130983011D01*
X144029500Y-130931500D01*
X144029500Y-130577575D01*
X144029499Y-130577560D01*
X144026643Y-130541266D01*
X144026642Y-130541260D01*
X143981495Y-130385867D01*
X143981494Y-130385863D01*
X143956770Y-130344057D01*
X143916768Y-130276415D01*
X143899500Y-130213295D01*
X143899500Y-129976928D01*
X143874502Y-129851261D01*
X143874501Y-129851260D01*
X143874501Y-129851256D01*
X143825465Y-129732873D01*
X143820562Y-129725535D01*
X143754276Y-129626330D01*
X143754274Y-129626327D01*
X143754271Y-129626324D01*
X143374654Y-129246708D01*
X143341169Y-129185385D01*
X143340718Y-129183218D01*
X143327324Y-129115883D01*
X143311816Y-129037918D01*
X143247703Y-128883137D01*
X143247696Y-128883127D01*
X143245037Y-128878151D01*
X143230791Y-128809749D01*
X143255788Y-128744503D01*
X143308967Y-128704311D01*
X143319303Y-128700241D01*
X143357001Y-128692743D01*
X143475385Y-128643707D01*
X143493291Y-128631741D01*
X143505687Y-128626862D01*
X143527756Y-128624882D01*
X143548899Y-128618262D01*
X143551112Y-128618242D01*
X143570944Y-128618242D01*
X143570952Y-128618242D01*
X143607827Y-128615340D01*
X143607829Y-128615339D01*
X143607831Y-128615339D01*
X143649449Y-128603247D01*
X143765656Y-128569486D01*
X143788460Y-128556000D01*
X145499496Y-128556000D01*
X146054000Y-128556000D01*
X146554000Y-128556000D01*
X147108504Y-128556000D01*
X147066031Y-128409804D01*
X146983721Y-128270625D01*
X146983714Y-128270616D01*
X146869383Y-128156285D01*
X146869374Y-128156278D01*
X146730195Y-128073968D01*
X146730190Y-128073966D01*
X146574918Y-128028855D01*
X146574912Y-128028854D01*
X146554000Y-128027209D01*
X146554000Y-128556000D01*
X146054000Y-128556000D01*
X146054000Y-128027210D01*
X146053999Y-128027209D01*
X146033087Y-128028854D01*
X146033081Y-128028855D01*
X145877809Y-128073966D01*
X145877804Y-128073968D01*
X145738625Y-128156278D01*
X145738616Y-128156285D01*
X145624285Y-128270616D01*
X145624278Y-128270625D01*
X145541968Y-128409804D01*
X145499496Y-128556000D01*
X143788460Y-128556000D01*
X143907123Y-128485823D01*
X144023339Y-128369607D01*
X144107002Y-128228140D01*
X144152856Y-128070311D01*
X144155758Y-128033436D01*
X144155758Y-127792242D01*
X144175443Y-127725203D01*
X144228247Y-127679448D01*
X144279758Y-127668242D01*
X145445944Y-127668242D01*
X145445952Y-127668242D01*
X145482827Y-127665340D01*
X145482829Y-127665339D01*
X145482831Y-127665339D01*
X145524449Y-127653247D01*
X145640656Y-127619486D01*
X145782123Y-127535823D01*
X145898339Y-127419607D01*
X145982002Y-127278140D01*
X146027856Y-127120311D01*
X146030758Y-127083436D01*
X146030758Y-126652048D01*
X146027856Y-126615173D01*
X145982002Y-126457344D01*
X145898339Y-126315877D01*
X145898337Y-126315875D01*
X145898334Y-126315871D01*
X145782128Y-126199665D01*
X145782120Y-126199659D01*
X145686312Y-126142999D01*
X145640656Y-126115998D01*
X145640655Y-126115997D01*
X145640654Y-126115997D01*
X145640651Y-126115996D01*
X145507663Y-126077359D01*
X145448777Y-126039753D01*
X145419571Y-125976280D01*
X145418258Y-125958283D01*
X145418258Y-125843893D01*
X145418257Y-125843889D01*
X145415429Y-125829673D01*
X145394221Y-125723048D01*
X145367464Y-125658451D01*
X145347070Y-125609215D01*
X145330014Y-125583690D01*
X145278616Y-125506767D01*
X145278614Y-125506764D01*
X145188395Y-125416545D01*
X145188364Y-125416516D01*
X144592165Y-124820317D01*
X144558680Y-124758994D01*
X144563664Y-124689302D01*
X144605536Y-124633369D01*
X144640838Y-124614932D01*
X144748183Y-124579362D01*
X144896261Y-124488026D01*
X145019284Y-124365003D01*
X145020013Y-124363821D01*
X145020724Y-124363181D01*
X145023765Y-124359336D01*
X145024421Y-124359855D01*
X145071959Y-124317097D01*
X145140922Y-124305873D01*
X145205004Y-124333715D01*
X145227019Y-124359123D01*
X145227146Y-124359023D01*
X145229371Y-124361838D01*
X145231091Y-124363822D01*
X145231623Y-124364685D01*
X145231627Y-124364690D01*
X145354566Y-124487629D01*
X145502543Y-124578903D01*
X145502548Y-124578905D01*
X145667584Y-124633592D01*
X145769442Y-124643999D01*
X145769455Y-124644000D01*
X145812758Y-124644000D01*
X145812758Y-123194000D01*
X146312758Y-123194000D01*
X147050258Y-123194000D01*
X147050258Y-122938197D01*
X147050257Y-122938184D01*
X147039850Y-122836326D01*
X146985163Y-122671290D01*
X146985161Y-122671285D01*
X146893887Y-122523308D01*
X146770949Y-122400370D01*
X146622972Y-122309096D01*
X146622967Y-122309094D01*
X146457931Y-122254407D01*
X146356073Y-122244000D01*
X146312758Y-122244000D01*
X146312758Y-123194000D01*
X145812758Y-123194000D01*
X145812758Y-122244000D01*
X145769442Y-122244000D01*
X145667584Y-122254407D01*
X145502548Y-122309094D01*
X145502543Y-122309096D01*
X145354566Y-122400370D01*
X145231627Y-122523309D01*
X145231622Y-122523315D01*
X145231087Y-122524184D01*
X145230564Y-122524654D01*
X145227146Y-122528977D01*
X145226407Y-122528392D01*
X145179137Y-122570906D01*
X145110174Y-122582125D01*
X145046093Y-122554278D01*
X145023844Y-122528601D01*
X145023765Y-122528664D01*
X145022369Y-122526898D01*
X145020016Y-122524183D01*
X145019286Y-122522999D01*
X144896261Y-122399974D01*
X144896257Y-122399971D01*
X144748191Y-122308642D01*
X144748185Y-122308639D01*
X144748183Y-122308638D01*
X144748180Y-122308637D01*
X144583034Y-122253913D01*
X144481113Y-122243500D01*
X144481106Y-122243500D01*
X143923210Y-122243500D01*
X143893769Y-122234855D01*
X143863783Y-122228332D01*
X143858767Y-122224577D01*
X143856171Y-122223815D01*
X143835529Y-122207181D01*
X143765456Y-122137108D01*
X143765436Y-122137086D01*
X143673991Y-122045641D01*
X143628695Y-122015376D01*
X143622767Y-122011415D01*
X143571544Y-121977188D01*
X143486934Y-121942142D01*
X143482252Y-121940202D01*
X143482245Y-121940199D01*
X143457713Y-121930038D01*
X143457711Y-121930037D01*
X143457710Y-121930037D01*
X143397287Y-121918018D01*
X143336868Y-121906000D01*
X143336865Y-121906000D01*
X143336864Y-121906000D01*
X142964000Y-121906000D01*
X142896961Y-121886315D01*
X142851206Y-121833511D01*
X142840000Y-121782000D01*
X142840000Y-120624500D01*
X142859685Y-120557461D01*
X142912489Y-120511706D01*
X142964000Y-120500500D01*
X157732000Y-120500500D01*
X157799039Y-120520185D01*
G37*
%TD.AperFunction*%
%TA.AperFunction,Conductor*%
G36*
X147319576Y-136353572D02*
G01*
X147339726Y-136357581D01*
X147358135Y-136361243D01*
X147358136Y-136361243D01*
X147487463Y-136361243D01*
X147487483Y-136361242D01*
X147579501Y-136361242D01*
X147646540Y-136380927D01*
X147692295Y-136433731D01*
X147703501Y-136485242D01*
X147703501Y-136658618D01*
X147709908Y-136718225D01*
X147717031Y-136737321D01*
X147722015Y-136807013D01*
X147688529Y-136868336D01*
X147627206Y-136901820D01*
X147557514Y-136896835D01*
X147513168Y-136868335D01*
X147207704Y-136562871D01*
X147174219Y-136501548D01*
X147179203Y-136431856D01*
X147221075Y-136375923D01*
X147286539Y-136351506D01*
X147319576Y-136353572D01*
G37*
%TD.AperFunction*%
%TA.AperFunction,Conductor*%
G36*
X144305622Y-133506212D02*
G01*
X145278486Y-134479077D01*
X145311971Y-134540400D01*
X145306987Y-134610092D01*
X145265115Y-134666025D01*
X145199651Y-134690442D01*
X145190806Y-134690758D01*
X145095611Y-134690758D01*
X145029073Y-134696804D01*
X145029066Y-134696806D01*
X144875933Y-134744523D01*
X144873598Y-134745575D01*
X144870261Y-134746291D01*
X144868770Y-134746756D01*
X144868727Y-134746620D01*
X144822706Y-134756500D01*
X144367350Y-134756500D01*
X144300311Y-134736815D01*
X144254556Y-134684011D01*
X144252789Y-134679953D01*
X144198116Y-134547961D01*
X144145259Y-134479077D01*
X144103867Y-134425133D01*
X143988838Y-134336869D01*
X143981036Y-134330882D01*
X143981037Y-134330882D01*
X143838002Y-134271636D01*
X143838000Y-134271635D01*
X143837999Y-134271635D01*
X143812452Y-134268271D01*
X143723047Y-134256500D01*
X143723040Y-134256500D01*
X143696663Y-134256500D01*
X143629624Y-134236815D01*
X143583869Y-134184011D01*
X143574708Y-134129020D01*
X143573006Y-134129020D01*
X143573006Y-133955395D01*
X143570295Y-133941768D01*
X143553174Y-133855690D01*
X143559402Y-133786099D01*
X143602266Y-133730922D01*
X143668156Y-133707678D01*
X143674792Y-133707500D01*
X143723033Y-133707500D01*
X143723040Y-133707500D01*
X143837999Y-133692365D01*
X143981037Y-133633117D01*
X144103867Y-133538867D01*
X144119567Y-133518405D01*
X144175990Y-133477205D01*
X144245736Y-133473048D01*
X144305622Y-133506212D01*
G37*
%TD.AperFunction*%
%TD*%
%TA.AperFunction,Conductor*%
%TO.N,VCC_TTL*%
G36*
X138715703Y-130964739D02*
G01*
X138722181Y-130970771D01*
X139446181Y-131694771D01*
X139479666Y-131756094D01*
X139482500Y-131782452D01*
X139482500Y-132241388D01*
X139488546Y-132307926D01*
X139488548Y-132307933D01*
X139536265Y-132461066D01*
X139536267Y-132461070D01*
X139574511Y-132524334D01*
X139592347Y-132591889D01*
X139574512Y-132652632D01*
X139536724Y-132715141D01*
X139489043Y-132868156D01*
X139483000Y-132934662D01*
X139483000Y-132935500D01*
X140179000Y-132935500D01*
X140246039Y-132955185D01*
X140291794Y-133007989D01*
X140303000Y-133059500D01*
X140303000Y-133185500D01*
X140429000Y-133185500D01*
X140496039Y-133205185D01*
X140541794Y-133257989D01*
X140553000Y-133309500D01*
X140553000Y-134039668D01*
X140582838Y-134036958D01*
X140582844Y-134036956D01*
X140735861Y-133989274D01*
X140735863Y-133989273D01*
X140873019Y-133906360D01*
X140873023Y-133906357D01*
X140986357Y-133793023D01*
X140986360Y-133793019D01*
X141069273Y-133655863D01*
X141069275Y-133655859D01*
X141116956Y-133502843D01*
X141123000Y-133436337D01*
X141123000Y-133331500D01*
X141125550Y-133322814D01*
X141124262Y-133313853D01*
X141135240Y-133289812D01*
X141142685Y-133264461D01*
X141149525Y-133258533D01*
X141153287Y-133250297D01*
X141175521Y-133236007D01*
X141195489Y-133218706D01*
X141206003Y-133216418D01*
X141212065Y-133212523D01*
X141247000Y-133207500D01*
X141326650Y-133207500D01*
X141393689Y-133227185D01*
X141439444Y-133279989D01*
X141441211Y-133284047D01*
X141495883Y-133416038D01*
X141539727Y-133473176D01*
X141590133Y-133538867D01*
X141656800Y-133590022D01*
X141712961Y-133633116D01*
X141712962Y-133633116D01*
X141712963Y-133633117D01*
X141767867Y-133655859D01*
X141825106Y-133679568D01*
X141879509Y-133723409D01*
X141901574Y-133789703D01*
X141899271Y-133818319D01*
X141872006Y-133955395D01*
X141872006Y-134122929D01*
X141878262Y-134154380D01*
X141876031Y-134179311D01*
X141877953Y-134204271D01*
X141872970Y-134213514D01*
X141872035Y-134223972D01*
X141856679Y-134243738D01*
X141844802Y-134265775D01*
X141833835Y-134273145D01*
X141829172Y-134279149D01*
X141816663Y-134287080D01*
X141810549Y-134290461D01*
X141712963Y-134330883D01*
X141649675Y-134379444D01*
X141641558Y-134383934D01*
X141616141Y-134389607D01*
X141591854Y-134398996D01*
X141581391Y-134397364D01*
X141573366Y-134399156D01*
X141558933Y-134393862D01*
X141534089Y-134389988D01*
X141519473Y-134383934D01*
X141457497Y-134358263D01*
X141457493Y-134358262D01*
X141457488Y-134358260D01*
X141302845Y-134327500D01*
X141302842Y-134327500D01*
X141145158Y-134327500D01*
X141145155Y-134327500D01*
X140990510Y-134358261D01*
X140990498Y-134358264D01*
X140844827Y-134418602D01*
X140844814Y-134418609D01*
X140713711Y-134506210D01*
X140713707Y-134506213D01*
X140602213Y-134617707D01*
X140602210Y-134617711D01*
X140514609Y-134748814D01*
X140514602Y-134748827D01*
X140454264Y-134894498D01*
X140454261Y-134894510D01*
X140423500Y-135049153D01*
X140423500Y-135206846D01*
X140454261Y-135361489D01*
X140454264Y-135361501D01*
X140514602Y-135507172D01*
X140514609Y-135507185D01*
X140602210Y-135638288D01*
X140602213Y-135638292D01*
X140713707Y-135749786D01*
X140713711Y-135749789D01*
X140844814Y-135837390D01*
X140844827Y-135837397D01*
X140973275Y-135890601D01*
X140990503Y-135897737D01*
X141095048Y-135918532D01*
X141145147Y-135928498D01*
X141145148Y-135928498D01*
X141145158Y-135928500D01*
X141145167Y-135928500D01*
X141150060Y-135928982D01*
X141178816Y-135935325D01*
X141182122Y-135936480D01*
X141295548Y-135983463D01*
X141335904Y-135991490D01*
X141344422Y-135993184D01*
X141352613Y-135996046D01*
X141360878Y-136001968D01*
X141405788Y-136025457D01*
X141434250Y-136067241D01*
X141495882Y-136216036D01*
X141495883Y-136216037D01*
X141590133Y-136338867D01*
X141712963Y-136433117D01*
X141712962Y-136433117D01*
X141808752Y-136472794D01*
X141863156Y-136516635D01*
X141885221Y-136582929D01*
X141867942Y-136650628D01*
X141824422Y-136694087D01*
X141753313Y-136736141D01*
X141753307Y-136736145D01*
X141638887Y-136850565D01*
X141638881Y-136850573D01*
X141556505Y-136989864D01*
X141556504Y-136989867D01*
X141511357Y-137145260D01*
X141511356Y-137145266D01*
X141508500Y-137181560D01*
X141508500Y-137650955D01*
X141511356Y-137687249D01*
X141511357Y-137687255D01*
X141556504Y-137842648D01*
X141556505Y-137842651D01*
X141638881Y-137981942D01*
X141638887Y-137981950D01*
X141753307Y-138096370D01*
X141753311Y-138096373D01*
X141753313Y-138096375D01*
X141892605Y-138178752D01*
X141933587Y-138190658D01*
X142048002Y-138223900D01*
X142048005Y-138223900D01*
X142048007Y-138223901D01*
X142084310Y-138226758D01*
X142210500Y-138226758D01*
X142219185Y-138229308D01*
X142228147Y-138228020D01*
X142252187Y-138238998D01*
X142277539Y-138246443D01*
X142283466Y-138253283D01*
X142291703Y-138257045D01*
X142305992Y-138279279D01*
X142323294Y-138299247D01*
X142325581Y-138309761D01*
X142329477Y-138315823D01*
X142334500Y-138350758D01*
X142334500Y-138375500D01*
X142314815Y-138442539D01*
X142262011Y-138488294D01*
X142210500Y-138499500D01*
X133488500Y-138499500D01*
X133421461Y-138479815D01*
X133375706Y-138427011D01*
X133364500Y-138375500D01*
X133364500Y-134555194D01*
X133384185Y-134488155D01*
X133436989Y-134442400D01*
X133506147Y-134432456D01*
X133569703Y-134461481D01*
X133588822Y-134482315D01*
X133589890Y-134483785D01*
X133589894Y-134483790D01*
X133740213Y-134634109D01*
X133912179Y-134759048D01*
X133912181Y-134759049D01*
X133912184Y-134759051D01*
X134101588Y-134855557D01*
X134303757Y-134921246D01*
X134513713Y-134954500D01*
X134513714Y-134954500D01*
X134726286Y-134954500D01*
X134726287Y-134954500D01*
X134936243Y-134921246D01*
X135138412Y-134855557D01*
X135327816Y-134759051D01*
X135349789Y-134743086D01*
X135499786Y-134634109D01*
X135499788Y-134634106D01*
X135499792Y-134634104D01*
X135650104Y-134483792D01*
X135650106Y-134483788D01*
X135650109Y-134483786D01*
X135775048Y-134311820D01*
X135775047Y-134311820D01*
X135775051Y-134311816D01*
X135779514Y-134303054D01*
X135827488Y-134252259D01*
X135895308Y-134235463D01*
X135961444Y-134257999D01*
X136000486Y-134303056D01*
X136004951Y-134311820D01*
X136129890Y-134483786D01*
X136280213Y-134634109D01*
X136452179Y-134759048D01*
X136452181Y-134759049D01*
X136452184Y-134759051D01*
X136641588Y-134855557D01*
X136843757Y-134921246D01*
X137053713Y-134954500D01*
X137053714Y-134954500D01*
X137266286Y-134954500D01*
X137266287Y-134954500D01*
X137476243Y-134921246D01*
X137678412Y-134855557D01*
X137867816Y-134759051D01*
X137889789Y-134743086D01*
X138039786Y-134634109D01*
X138039788Y-134634106D01*
X138039792Y-134634104D01*
X138190104Y-134483792D01*
X138190106Y-134483788D01*
X138190109Y-134483786D01*
X138315048Y-134311820D01*
X138315047Y-134311820D01*
X138315051Y-134311816D01*
X138411557Y-134122412D01*
X138477246Y-133920243D01*
X138510500Y-133710287D01*
X138510500Y-133497713D01*
X138500779Y-133436337D01*
X139483000Y-133436337D01*
X139489043Y-133502843D01*
X139536724Y-133655859D01*
X139536726Y-133655863D01*
X139619639Y-133793019D01*
X139619642Y-133793023D01*
X139732976Y-133906357D01*
X139732980Y-133906360D01*
X139870136Y-133989273D01*
X139870138Y-133989274D01*
X140023155Y-134036956D01*
X140023161Y-134036958D01*
X140052999Y-134039668D01*
X140053000Y-134039668D01*
X140053000Y-133435500D01*
X139483000Y-133435500D01*
X139483000Y-133436337D01*
X138500779Y-133436337D01*
X138495584Y-133403535D01*
X138484174Y-133331500D01*
X138477246Y-133287757D01*
X138411557Y-133085588D01*
X138315051Y-132896184D01*
X138315049Y-132896181D01*
X138315048Y-132896179D01*
X138190109Y-132724213D01*
X138039786Y-132573890D01*
X137867820Y-132448951D01*
X137867115Y-132448591D01*
X137859054Y-132444485D01*
X137808259Y-132396512D01*
X137791463Y-132328692D01*
X137813999Y-132262556D01*
X137859054Y-132223515D01*
X137867816Y-132219051D01*
X137976174Y-132140325D01*
X138039786Y-132094109D01*
X138039788Y-132094106D01*
X138039792Y-132094104D01*
X138190104Y-131943792D01*
X138190106Y-131943788D01*
X138190109Y-131943786D01*
X138299086Y-131793789D01*
X138315051Y-131771816D01*
X138411557Y-131582412D01*
X138477246Y-131380243D01*
X138510500Y-131170287D01*
X138510500Y-131058452D01*
X138530185Y-130991413D01*
X138582989Y-130945658D01*
X138652147Y-130935714D01*
X138715703Y-130964739D01*
G37*
%TD.AperFunction*%
%TA.AperFunction,Conductor*%
G36*
X142277539Y-120520185D02*
G01*
X142323294Y-120572989D01*
X142334500Y-120624500D01*
X142334500Y-121782000D01*
X142314815Y-121849039D01*
X142262011Y-121894794D01*
X142210500Y-121906000D01*
X141163449Y-121906000D01*
X141096410Y-121886315D01*
X141057910Y-121847096D01*
X141041598Y-121820650D01*
X140919609Y-121698661D01*
X140919608Y-121698660D01*
X140772774Y-121608092D01*
X140609011Y-121553826D01*
X140609009Y-121553825D01*
X140507936Y-121543500D01*
X139934588Y-121543500D01*
X139934570Y-121543501D01*
X139833505Y-121553825D01*
X139669742Y-121608092D01*
X139669739Y-121608093D01*
X139522906Y-121698661D01*
X139400919Y-121820648D01*
X139310351Y-121967481D01*
X139310349Y-121967486D01*
X139289720Y-122029742D01*
X139256084Y-122131247D01*
X139256084Y-122131248D01*
X139256083Y-122131248D01*
X139245758Y-122232315D01*
X139245758Y-122830669D01*
X139245759Y-122830687D01*
X139256083Y-122931752D01*
X139310350Y-123095515D01*
X139310351Y-123095518D01*
X139317057Y-123106390D01*
X139400917Y-123242349D01*
X139400919Y-123242351D01*
X139514887Y-123356319D01*
X139548372Y-123417642D01*
X139543388Y-123487334D01*
X139514887Y-123531681D01*
X139400919Y-123645648D01*
X139310351Y-123792481D01*
X139310350Y-123792484D01*
X139256084Y-123956247D01*
X139256084Y-123956248D01*
X139256083Y-123956248D01*
X139245758Y-124057315D01*
X139245758Y-124655669D01*
X139245759Y-124655687D01*
X139256083Y-124756752D01*
X139310350Y-124920515D01*
X139310351Y-124920518D01*
X139334269Y-124959295D01*
X139400917Y-125067349D01*
X139400919Y-125067351D01*
X139467887Y-125134319D01*
X139501372Y-125195642D01*
X139496388Y-125265334D01*
X139467887Y-125309681D01*
X139400919Y-125376648D01*
X139310351Y-125523481D01*
X139310349Y-125523486D01*
X139288654Y-125588957D01*
X139256084Y-125687247D01*
X139256084Y-125687248D01*
X139256083Y-125687248D01*
X139245758Y-125788315D01*
X139245758Y-126386669D01*
X139245759Y-126386687D01*
X139256083Y-126487752D01*
X139310350Y-126651515D01*
X139310351Y-126651518D01*
X139400919Y-126798351D01*
X139515240Y-126912672D01*
X139548725Y-126973995D01*
X139543741Y-127043687D01*
X139515241Y-127088034D01*
X139401310Y-127201965D01*
X139310809Y-127348688D01*
X139310804Y-127348699D01*
X139256577Y-127512347D01*
X139246258Y-127613345D01*
X139246258Y-127662500D01*
X141196257Y-127662500D01*
X141196257Y-127613360D01*
X141196256Y-127613345D01*
X141185938Y-127512347D01*
X141131711Y-127348699D01*
X141131706Y-127348688D01*
X141041205Y-127201965D01*
X141041202Y-127201961D01*
X140927275Y-127088034D01*
X140924366Y-127082707D01*
X140919338Y-127079304D01*
X140907814Y-127052394D01*
X140893790Y-127026711D01*
X140894222Y-127020656D01*
X140891833Y-127015076D01*
X140896686Y-126986214D01*
X140898774Y-126957019D01*
X140902670Y-126950627D01*
X140903419Y-126946174D01*
X140917072Y-126926999D01*
X140923201Y-126916945D01*
X140925179Y-126914768D01*
X141041598Y-126798350D01*
X141063950Y-126762109D01*
X141071694Y-126753592D01*
X141092093Y-126741157D01*
X141109858Y-126725179D01*
X141123329Y-126722117D01*
X141131354Y-126717226D01*
X141143574Y-126717516D01*
X141163449Y-126713000D01*
X142203645Y-126713000D01*
X142225924Y-126715018D01*
X142232779Y-126716270D01*
X142295191Y-126747679D01*
X142330714Y-126807844D01*
X142334500Y-126838252D01*
X142334500Y-126895455D01*
X142333806Y-126895455D01*
X142317203Y-126960496D01*
X142266065Y-127008105D01*
X142232848Y-127019201D01*
X142227689Y-127020143D01*
X142069864Y-127065996D01*
X142069861Y-127065997D01*
X141928395Y-127149659D01*
X141928387Y-127149665D01*
X141812181Y-127265871D01*
X141812175Y-127265879D01*
X141728513Y-127407345D01*
X141728512Y-127407348D01*
X141682660Y-127565168D01*
X141682659Y-127565174D01*
X141679758Y-127602040D01*
X141679758Y-128033443D01*
X141682659Y-128070309D01*
X141682660Y-128070315D01*
X141728512Y-128228135D01*
X141728513Y-128228138D01*
X141812175Y-128369604D01*
X141816960Y-128375773D01*
X141814356Y-128377792D01*
X141821854Y-128391491D01*
X141838477Y-128417357D01*
X141839355Y-128423469D01*
X141840641Y-128425818D01*
X141843500Y-128452292D01*
X141843500Y-128691068D01*
X141823815Y-128758107D01*
X141822602Y-128759959D01*
X141740295Y-128883139D01*
X141676184Y-129037917D01*
X141676182Y-129037925D01*
X141643500Y-129202228D01*
X141643500Y-129369771D01*
X141676182Y-129534074D01*
X141676184Y-129534082D01*
X141740295Y-129688860D01*
X141833373Y-129828162D01*
X141881961Y-129876750D01*
X141915446Y-129938073D01*
X141910462Y-130007765D01*
X141868590Y-130063698D01*
X141857402Y-130071163D01*
X141753622Y-130132539D01*
X141753616Y-130132543D01*
X141639285Y-130246874D01*
X141639278Y-130246883D01*
X141556968Y-130386062D01*
X141556966Y-130386067D01*
X141511855Y-130541339D01*
X141511854Y-130541345D01*
X141510209Y-130562257D01*
X141510210Y-130562258D01*
X142165000Y-130562258D01*
X142232039Y-130581943D01*
X142277794Y-130634747D01*
X142289000Y-130686258D01*
X142289000Y-130938258D01*
X142269315Y-131005297D01*
X142216511Y-131051052D01*
X142165000Y-131062258D01*
X141510210Y-131062258D01*
X141511854Y-131083168D01*
X141556968Y-131238453D01*
X141639278Y-131377632D01*
X141639285Y-131377641D01*
X141658000Y-131396356D01*
X141691485Y-131457679D01*
X141686501Y-131527371D01*
X141645807Y-131582412D01*
X141590132Y-131625134D01*
X141495883Y-131747961D01*
X141441211Y-131879953D01*
X141428667Y-131895518D01*
X141420363Y-131913703D01*
X141407192Y-131922167D01*
X141397370Y-131934356D01*
X141378402Y-131940668D01*
X141361585Y-131951477D01*
X141334024Y-131955439D01*
X141331076Y-131956421D01*
X141326650Y-131956500D01*
X141247499Y-131956500D01*
X141180460Y-131936815D01*
X141134705Y-131884011D01*
X141123499Y-131832500D01*
X141123499Y-131739611D01*
X141117453Y-131673073D01*
X141117452Y-131673070D01*
X141117452Y-131673067D01*
X141073146Y-131530883D01*
X141069734Y-131519933D01*
X141069732Y-131519929D01*
X140986757Y-131382670D01*
X140986753Y-131382665D01*
X140873334Y-131269246D01*
X140873329Y-131269242D01*
X140736070Y-131186267D01*
X140736064Y-131186265D01*
X140722811Y-131182135D01*
X140672021Y-131151431D01*
X138502428Y-128981838D01*
X138468943Y-128920515D01*
X138472177Y-128855841D01*
X138477246Y-128840243D01*
X138510500Y-128630287D01*
X138510500Y-128417713D01*
X138477863Y-128211654D01*
X139246259Y-128211654D01*
X139256577Y-128312652D01*
X139310804Y-128476300D01*
X139310809Y-128476311D01*
X139401310Y-128623034D01*
X139401313Y-128623038D01*
X139523219Y-128744944D01*
X139523223Y-128744947D01*
X139669946Y-128835448D01*
X139669957Y-128835453D01*
X139833605Y-128889680D01*
X139934610Y-128899999D01*
X139971258Y-128899999D01*
X140471258Y-128899999D01*
X140507898Y-128899999D01*
X140507912Y-128899998D01*
X140608910Y-128889680D01*
X140772558Y-128835453D01*
X140772569Y-128835448D01*
X140919292Y-128744947D01*
X140919296Y-128744944D01*
X141041202Y-128623038D01*
X141041205Y-128623034D01*
X141131706Y-128476311D01*
X141131711Y-128476300D01*
X141185938Y-128312652D01*
X141196257Y-128211654D01*
X141196258Y-128211641D01*
X141196258Y-128162500D01*
X140471258Y-128162500D01*
X140471258Y-128899999D01*
X139971258Y-128899999D01*
X139971258Y-128162500D01*
X139246259Y-128162500D01*
X139246259Y-128211654D01*
X138477863Y-128211654D01*
X138477246Y-128207757D01*
X138411557Y-128005588D01*
X138315051Y-127816184D01*
X138315049Y-127816181D01*
X138315048Y-127816179D01*
X138190109Y-127644213D01*
X138076181Y-127530285D01*
X138042696Y-127468962D01*
X138047680Y-127399270D01*
X138089552Y-127343337D01*
X138120529Y-127326422D01*
X138252086Y-127277354D01*
X138252093Y-127277350D01*
X138367187Y-127191190D01*
X138367190Y-127191187D01*
X138453350Y-127076093D01*
X138453354Y-127076086D01*
X138503596Y-126941379D01*
X138503598Y-126941372D01*
X138509999Y-126881844D01*
X138510000Y-126881827D01*
X138510000Y-126234000D01*
X137593012Y-126234000D01*
X137625925Y-126176993D01*
X137660000Y-126049826D01*
X137660000Y-125918174D01*
X137625925Y-125791007D01*
X137593012Y-125734000D01*
X138510000Y-125734000D01*
X138510000Y-125086172D01*
X138509999Y-125086155D01*
X138503598Y-125026627D01*
X138503596Y-125026620D01*
X138453354Y-124891913D01*
X138453350Y-124891906D01*
X138367190Y-124776812D01*
X138367187Y-124776809D01*
X138252093Y-124690649D01*
X138252086Y-124690645D01*
X138117375Y-124640401D01*
X138109975Y-124638653D01*
X138049258Y-124604081D01*
X138016871Y-124542171D01*
X138023097Y-124472579D01*
X138065958Y-124417401D01*
X138089248Y-124404172D01*
X138094196Y-124402030D01*
X138233374Y-124319721D01*
X138233383Y-124319714D01*
X138347714Y-124205383D01*
X138347721Y-124205374D01*
X138430031Y-124066195D01*
X138472504Y-123920000D01*
X136863496Y-123920000D01*
X136905968Y-124066195D01*
X136988278Y-124205374D01*
X136988285Y-124205383D01*
X137102616Y-124319714D01*
X137102625Y-124319721D01*
X137241803Y-124402030D01*
X137350535Y-124433620D01*
X137409420Y-124471227D01*
X137438627Y-124534699D01*
X137428881Y-124603886D01*
X137410000Y-124631163D01*
X137410000Y-125550988D01*
X137352993Y-125518075D01*
X137225826Y-125484000D01*
X137094174Y-125484000D01*
X136967007Y-125518075D01*
X136910000Y-125550988D01*
X136910000Y-124634000D01*
X136262155Y-124634000D01*
X136202627Y-124640401D01*
X136202620Y-124640403D01*
X136067913Y-124690645D01*
X136067911Y-124690647D01*
X135964311Y-124768202D01*
X135898847Y-124792619D01*
X135830574Y-124777768D01*
X135815689Y-124768202D01*
X135712088Y-124690647D01*
X135712086Y-124690645D01*
X135577379Y-124640403D01*
X135577372Y-124640401D01*
X135517844Y-124634000D01*
X134870000Y-124634000D01*
X134870000Y-125550988D01*
X134812993Y-125518075D01*
X134685826Y-125484000D01*
X134554174Y-125484000D01*
X134427007Y-125518075D01*
X134370000Y-125550988D01*
X134370000Y-124634000D01*
X133722155Y-124634000D01*
X133662627Y-124640401D01*
X133662619Y-124640403D01*
X133531833Y-124689183D01*
X133462141Y-124694167D01*
X133400818Y-124660681D01*
X133367334Y-124599358D01*
X133364500Y-124573001D01*
X133364500Y-122598228D01*
X135801500Y-122598228D01*
X135801500Y-122765771D01*
X135834182Y-122930074D01*
X135834184Y-122930082D01*
X135898295Y-123084860D01*
X135991373Y-123224162D01*
X136109837Y-123342626D01*
X136183659Y-123391952D01*
X136249137Y-123435703D01*
X136249138Y-123435703D01*
X136249139Y-123435704D01*
X136284201Y-123450227D01*
X136403918Y-123499816D01*
X136564116Y-123531681D01*
X136568228Y-123532499D01*
X136568232Y-123532500D01*
X136568233Y-123532500D01*
X136735768Y-123532500D01*
X136735769Y-123532499D01*
X136900082Y-123499816D01*
X137054863Y-123435703D01*
X137054875Y-123435694D01*
X137056841Y-123434645D01*
X137058300Y-123434279D01*
X137060491Y-123433372D01*
X137060625Y-123433696D01*
X137070857Y-123431133D01*
X137080366Y-123425023D01*
X137115301Y-123420000D01*
X137169648Y-123420000D01*
X137232766Y-123437267D01*
X137241605Y-123442494D01*
X137241608Y-123442494D01*
X137241610Y-123442496D01*
X137397002Y-123487642D01*
X137397005Y-123487642D01*
X137397007Y-123487643D01*
X137433310Y-123490500D01*
X137433318Y-123490500D01*
X137902682Y-123490500D01*
X137902690Y-123490500D01*
X137938993Y-123487643D01*
X137938995Y-123487642D01*
X137938997Y-123487642D01*
X138094389Y-123442496D01*
X138094389Y-123442495D01*
X138094395Y-123442494D01*
X138103233Y-123437267D01*
X138166352Y-123420000D01*
X138472504Y-123420000D01*
X138430031Y-123273803D01*
X138418090Y-123253613D01*
X138400906Y-123185889D01*
X138418089Y-123127369D01*
X138430494Y-123106395D01*
X138475643Y-122950993D01*
X138478500Y-122914690D01*
X138478500Y-122505310D01*
X138475643Y-122469007D01*
X138465448Y-122433917D01*
X138430495Y-122313609D01*
X138430494Y-122313606D01*
X138430494Y-122313605D01*
X138348117Y-122174313D01*
X138348115Y-122174311D01*
X138348112Y-122174307D01*
X138233692Y-122059887D01*
X138233684Y-122059881D01*
X138141313Y-122005253D01*
X138094395Y-121977506D01*
X138094394Y-121977505D01*
X138094393Y-121977505D01*
X138094390Y-121977504D01*
X137938997Y-121932357D01*
X137938991Y-121932356D01*
X137902697Y-121929500D01*
X137902690Y-121929500D01*
X137433310Y-121929500D01*
X137433302Y-121929500D01*
X137397008Y-121932356D01*
X137397002Y-121932357D01*
X137241602Y-121977506D01*
X137234935Y-121980391D01*
X137165591Y-121988944D01*
X137116808Y-121969687D01*
X137054869Y-121928300D01*
X137054859Y-121928295D01*
X136900082Y-121864184D01*
X136900074Y-121864182D01*
X136735771Y-121831500D01*
X136735767Y-121831500D01*
X136568233Y-121831500D01*
X136568228Y-121831500D01*
X136403925Y-121864182D01*
X136403917Y-121864184D01*
X136249139Y-121928295D01*
X136109837Y-122021373D01*
X135991373Y-122139837D01*
X135898295Y-122279139D01*
X135834184Y-122433917D01*
X135834182Y-122433925D01*
X135801500Y-122598228D01*
X133364500Y-122598228D01*
X133364500Y-120624500D01*
X133384185Y-120557461D01*
X133436989Y-120511706D01*
X133488500Y-120500500D01*
X142210500Y-120500500D01*
X142277539Y-120520185D01*
G37*
%TD.AperFunction*%
%TA.AperFunction,Conductor*%
G36*
X136694075Y-125791007D02*
G01*
X136660000Y-125918174D01*
X136660000Y-126049826D01*
X136694075Y-126176993D01*
X136726988Y-126234000D01*
X135053012Y-126234000D01*
X135085925Y-126176993D01*
X135120000Y-126049826D01*
X135120000Y-125918174D01*
X135085925Y-125791007D01*
X135053012Y-125734000D01*
X136726988Y-125734000D01*
X136694075Y-125791007D01*
G37*
%TD.AperFunction*%
%TD*%
%TA.AperFunction,Conductor*%
%TO.N,VBUS*%
G36*
X162835856Y-120520185D02*
G01*
X162881611Y-120572989D01*
X162891555Y-120642147D01*
X162862530Y-120705703D01*
X162856498Y-120712181D01*
X162823370Y-120745308D01*
X162732096Y-120893285D01*
X162732094Y-120893290D01*
X162677407Y-121058326D01*
X162667000Y-121160184D01*
X162667000Y-121416000D01*
X163530500Y-121416000D01*
X163597539Y-121435685D01*
X163643294Y-121488489D01*
X163654500Y-121540000D01*
X163654500Y-121666000D01*
X163780500Y-121666000D01*
X163847539Y-121685685D01*
X163893294Y-121738489D01*
X163904500Y-121790000D01*
X163904500Y-122866000D01*
X163947803Y-122866000D01*
X163947815Y-122865999D01*
X164049673Y-122855592D01*
X164214709Y-122800905D01*
X164214714Y-122800903D01*
X164362691Y-122709629D01*
X164485628Y-122586692D01*
X164486159Y-122585832D01*
X164486680Y-122585363D01*
X164490112Y-122581023D01*
X164490853Y-122581608D01*
X164538101Y-122539102D01*
X164607063Y-122527872D01*
X164671148Y-122555708D01*
X164693413Y-122581398D01*
X164693493Y-122581336D01*
X164694890Y-122583103D01*
X164697238Y-122585812D01*
X164697968Y-122586995D01*
X164697974Y-122587003D01*
X164820996Y-122710025D01*
X164821000Y-122710028D01*
X164969066Y-122801357D01*
X164969069Y-122801358D01*
X164969075Y-122801362D01*
X165134225Y-122856087D01*
X165236152Y-122866500D01*
X165236157Y-122866500D01*
X165822843Y-122866500D01*
X165822848Y-122866500D01*
X165924775Y-122856087D01*
X166089925Y-122801362D01*
X166238003Y-122710026D01*
X166361026Y-122587003D01*
X166452362Y-122438925D01*
X166473049Y-122376495D01*
X166512822Y-122319051D01*
X166577338Y-122292228D01*
X166590755Y-122291500D01*
X166903390Y-122291500D01*
X166970429Y-122311185D01*
X167016184Y-122363989D01*
X167026128Y-122433147D01*
X167008928Y-122480597D01*
X166983096Y-122522475D01*
X166983091Y-122522486D01*
X166963694Y-122581023D01*
X166928826Y-122686247D01*
X166928826Y-122686248D01*
X166928825Y-122686248D01*
X166918500Y-122787315D01*
X166918500Y-123385669D01*
X166918501Y-123385687D01*
X166928825Y-123486752D01*
X166965109Y-123596249D01*
X166983092Y-123650516D01*
X167064933Y-123783202D01*
X167083373Y-123850592D01*
X167062451Y-123917256D01*
X167047075Y-123935978D01*
X166799873Y-124183181D01*
X166738550Y-124216666D01*
X166712192Y-124219500D01*
X166184457Y-124219500D01*
X165991170Y-124257947D01*
X165991160Y-124257950D01*
X165809092Y-124333364D01*
X165809079Y-124333371D01*
X165645218Y-124442860D01*
X165645214Y-124442863D01*
X165505863Y-124582214D01*
X165505860Y-124582218D01*
X165396371Y-124746079D01*
X165396364Y-124746092D01*
X165320950Y-124928160D01*
X165320947Y-124928170D01*
X165282500Y-125121456D01*
X165282500Y-125121459D01*
X165282500Y-125318541D01*
X165282500Y-125318543D01*
X165282499Y-125318543D01*
X165320947Y-125511829D01*
X165320950Y-125511839D01*
X165396364Y-125693907D01*
X165396371Y-125693920D01*
X165505860Y-125857781D01*
X165505863Y-125857785D01*
X165645214Y-125997136D01*
X165645218Y-125997139D01*
X165809079Y-126106628D01*
X165809092Y-126106635D01*
X165876812Y-126134685D01*
X165991165Y-126182051D01*
X165991169Y-126182051D01*
X165991170Y-126182052D01*
X166184456Y-126220500D01*
X166184459Y-126220500D01*
X167181543Y-126220500D01*
X167311582Y-126194632D01*
X167374835Y-126182051D01*
X167556914Y-126106632D01*
X167720782Y-125997139D01*
X167860139Y-125857782D01*
X167969632Y-125693914D01*
X168045051Y-125511835D01*
X168057632Y-125448582D01*
X168083500Y-125318543D01*
X168083500Y-125121456D01*
X168045052Y-124928171D01*
X168045052Y-124928170D01*
X168045051Y-124928165D01*
X168032743Y-124898452D01*
X168025275Y-124828983D01*
X168056551Y-124766505D01*
X168059565Y-124763379D01*
X168399277Y-124423669D01*
X168470466Y-124317126D01*
X168494938Y-124258043D01*
X168538778Y-124203638D01*
X168605072Y-124181572D01*
X168672771Y-124198850D01*
X168720383Y-124249986D01*
X168733500Y-124305493D01*
X168733500Y-135460887D01*
X168713815Y-135527926D01*
X168661011Y-135573681D01*
X168591853Y-135583625D01*
X168528297Y-135554600D01*
X168512235Y-135537799D01*
X168508713Y-135533345D01*
X168384656Y-135409288D01*
X168384652Y-135409285D01*
X168300403Y-135357319D01*
X168253678Y-135305371D01*
X168241500Y-135251781D01*
X168241500Y-134703928D01*
X168216502Y-134578261D01*
X168216501Y-134578260D01*
X168216501Y-134578256D01*
X168167465Y-134459873D01*
X168165291Y-134456620D01*
X168096277Y-134353331D01*
X168053750Y-134310804D01*
X168048716Y-134304205D01*
X168039062Y-134279023D01*
X168026139Y-134255357D01*
X168026744Y-134246890D01*
X168023706Y-134238965D01*
X168029199Y-134212560D01*
X168031123Y-134185665D01*
X168032726Y-134181589D01*
X168045051Y-134151835D01*
X168083500Y-133958541D01*
X168083500Y-133761459D01*
X168083500Y-133761456D01*
X168045052Y-133568170D01*
X168045051Y-133568169D01*
X168045051Y-133568165D01*
X168045049Y-133568160D01*
X167969635Y-133386092D01*
X167969628Y-133386079D01*
X167860139Y-133222218D01*
X167860136Y-133222214D01*
X167720785Y-133082863D01*
X167720781Y-133082860D01*
X167556920Y-132973371D01*
X167556907Y-132973364D01*
X167374839Y-132897950D01*
X167374829Y-132897947D01*
X167181543Y-132859500D01*
X167181541Y-132859500D01*
X166184459Y-132859500D01*
X166184457Y-132859500D01*
X165991170Y-132897947D01*
X165991160Y-132897950D01*
X165809092Y-132973364D01*
X165809079Y-132973371D01*
X165645218Y-133082860D01*
X165645214Y-133082863D01*
X165505863Y-133222214D01*
X165505860Y-133222218D01*
X165396371Y-133386079D01*
X165396364Y-133386092D01*
X165320950Y-133568160D01*
X165320947Y-133568170D01*
X165282500Y-133761456D01*
X165282500Y-133761459D01*
X165282500Y-133958541D01*
X165282500Y-133958543D01*
X165282499Y-133958543D01*
X165320947Y-134151829D01*
X165320950Y-134151839D01*
X165396364Y-134333907D01*
X165396371Y-134333920D01*
X165505860Y-134497781D01*
X165505863Y-134497785D01*
X165645214Y-134637136D01*
X165645218Y-134637139D01*
X165809079Y-134746628D01*
X165809092Y-134746635D01*
X165991160Y-134822049D01*
X165991165Y-134822051D01*
X165991169Y-134822051D01*
X165991170Y-134822052D01*
X166184456Y-134860500D01*
X166184459Y-134860500D01*
X166712192Y-134860500D01*
X166741632Y-134869144D01*
X166771619Y-134875668D01*
X166776634Y-134879422D01*
X166779231Y-134880185D01*
X166799873Y-134896819D01*
X166904181Y-135001127D01*
X166937666Y-135062450D01*
X166940500Y-135088808D01*
X166940500Y-135251781D01*
X166920815Y-135318820D01*
X166881597Y-135357319D01*
X166797347Y-135409285D01*
X166797343Y-135409288D01*
X166673289Y-135533342D01*
X166581187Y-135682663D01*
X166581185Y-135682668D01*
X166553349Y-135766670D01*
X166526001Y-135849203D01*
X166526001Y-135849204D01*
X166526000Y-135849204D01*
X166515500Y-135951983D01*
X166515500Y-137352001D01*
X166515501Y-137352018D01*
X166526000Y-137454796D01*
X166526001Y-137454799D01*
X166558352Y-137552427D01*
X166581186Y-137621334D01*
X166673288Y-137770656D01*
X166797344Y-137894712D01*
X166946666Y-137986814D01*
X167113203Y-138041999D01*
X167215991Y-138052500D01*
X167966008Y-138052499D01*
X167966016Y-138052498D01*
X167966019Y-138052498D01*
X168022302Y-138046748D01*
X168068797Y-138041999D01*
X168235334Y-137986814D01*
X168384656Y-137894712D01*
X168508712Y-137770656D01*
X168508719Y-137770644D01*
X168512231Y-137766204D01*
X168569252Y-137725826D01*
X168639051Y-137722685D01*
X168699468Y-137757778D01*
X168731320Y-137819965D01*
X168733500Y-137843112D01*
X168733500Y-138375500D01*
X168713815Y-138442539D01*
X168661011Y-138488294D01*
X168609500Y-138499500D01*
X161279892Y-138499500D01*
X161212853Y-138479815D01*
X161167098Y-138427011D01*
X161157154Y-138357853D01*
X161162186Y-138336496D01*
X161209505Y-138193697D01*
X161209506Y-138193690D01*
X161219999Y-138090986D01*
X161220000Y-138090973D01*
X161220000Y-138028500D01*
X158820001Y-138028500D01*
X158820001Y-138090986D01*
X158830494Y-138193697D01*
X158877813Y-138336496D01*
X158880215Y-138406324D01*
X158844483Y-138466366D01*
X158781963Y-138497559D01*
X158760107Y-138499500D01*
X158504000Y-138499500D01*
X158436961Y-138479815D01*
X158391206Y-138427011D01*
X158380000Y-138375500D01*
X158380000Y-137596000D01*
X161755496Y-137596000D01*
X161797968Y-137742195D01*
X161880278Y-137881374D01*
X161880285Y-137881383D01*
X161994616Y-137995714D01*
X161994625Y-137995721D01*
X162133804Y-138078031D01*
X162289089Y-138123145D01*
X162310000Y-138124789D01*
X162310000Y-137596000D01*
X161755496Y-137596000D01*
X158380000Y-137596000D01*
X158380000Y-130989500D01*
X158399685Y-130922461D01*
X158452489Y-130876706D01*
X158504000Y-130865500D01*
X158831500Y-130865500D01*
X158898539Y-130885185D01*
X158944294Y-130937989D01*
X158955500Y-130989500D01*
X158955500Y-131537190D01*
X158955501Y-131537215D01*
X158958423Y-131574354D01*
X159004630Y-131733401D01*
X159022064Y-131762881D01*
X159039245Y-131830606D01*
X159022064Y-131889119D01*
X159004630Y-131918599D01*
X159004628Y-131918604D01*
X158958424Y-132077637D01*
X158958423Y-132077643D01*
X158955500Y-132114789D01*
X158955500Y-132672190D01*
X158955501Y-132672215D01*
X158958423Y-132709354D01*
X158958423Y-132709357D01*
X158958424Y-132709358D01*
X158971194Y-132753312D01*
X159004630Y-132868400D01*
X159088933Y-133010949D01*
X159089476Y-133011648D01*
X159089730Y-133012296D01*
X159092908Y-133017669D01*
X159092041Y-133018181D01*
X159097947Y-133033221D01*
X159110477Y-133052718D01*
X159113292Y-133072298D01*
X159115014Y-133076683D01*
X159115500Y-133087653D01*
X159115500Y-133263068D01*
X159095815Y-133330107D01*
X159094602Y-133331959D01*
X159012295Y-133455139D01*
X158948184Y-133609917D01*
X158948182Y-133609925D01*
X158915500Y-133774228D01*
X158915500Y-133941771D01*
X158948182Y-134106074D01*
X158948184Y-134106082D01*
X159012295Y-134260860D01*
X159105373Y-134400162D01*
X159223837Y-134518626D01*
X159313079Y-134578255D01*
X159363137Y-134611703D01*
X159363138Y-134611703D01*
X159363139Y-134611704D01*
X159398201Y-134626227D01*
X159517918Y-134675816D01*
X159613779Y-134694883D01*
X159675687Y-134727267D01*
X159710262Y-134787982D01*
X159706523Y-134857752D01*
X159665657Y-134914424D01*
X159600640Y-134940006D01*
X159589588Y-134940500D01*
X159519999Y-134940500D01*
X159519980Y-134940501D01*
X159417203Y-134951000D01*
X159417200Y-134951001D01*
X159250668Y-135006185D01*
X159250663Y-135006187D01*
X159101342Y-135098289D01*
X158977289Y-135222342D01*
X158885187Y-135371663D01*
X158885185Y-135371668D01*
X158872720Y-135409285D01*
X158830001Y-135538203D01*
X158830001Y-135538204D01*
X158830000Y-135538204D01*
X158819500Y-135640983D01*
X158819500Y-136266001D01*
X158819501Y-136266019D01*
X158830000Y-136368796D01*
X158830001Y-136368799D01*
X158841003Y-136402000D01*
X158885186Y-136535334D01*
X158941721Y-136626993D01*
X158977289Y-136684657D01*
X159071304Y-136778672D01*
X159104789Y-136839995D01*
X159099805Y-136909687D01*
X159071305Y-136954034D01*
X158977682Y-137047657D01*
X158885643Y-137196875D01*
X158885641Y-137196880D01*
X158830494Y-137363302D01*
X158830493Y-137363309D01*
X158820000Y-137466013D01*
X158820000Y-137528500D01*
X161219999Y-137528500D01*
X161219999Y-137466028D01*
X161219998Y-137466013D01*
X161209505Y-137363302D01*
X161154358Y-137196880D01*
X161154356Y-137196875D01*
X161062315Y-137047654D01*
X160968695Y-136954034D01*
X160935210Y-136892711D01*
X160940194Y-136823019D01*
X160968691Y-136778676D01*
X161062712Y-136684656D01*
X161154814Y-136535334D01*
X161209999Y-136368797D01*
X161220500Y-136266009D01*
X161220499Y-135688952D01*
X161240183Y-135621914D01*
X161243752Y-135616662D01*
X161249654Y-135608436D01*
X161267858Y-135590233D01*
X161336311Y-135487786D01*
X161336312Y-135487785D01*
X161383463Y-135373951D01*
X161407500Y-135253106D01*
X161407500Y-135129893D01*
X161407500Y-134902558D01*
X161427185Y-134835519D01*
X161479989Y-134789764D01*
X161549147Y-134779820D01*
X161578946Y-134787995D01*
X161661165Y-134822051D01*
X161795499Y-134848772D01*
X161809691Y-134851595D01*
X161871602Y-134883980D01*
X161906176Y-134944695D01*
X161909500Y-134973212D01*
X161909500Y-135769675D01*
X161889815Y-135836714D01*
X161883483Y-135845670D01*
X161879885Y-135850308D01*
X161797505Y-135989606D01*
X161797504Y-135989609D01*
X161752357Y-136145002D01*
X161752356Y-136145008D01*
X161749500Y-136181302D01*
X161749500Y-136590697D01*
X161752356Y-136626991D01*
X161752357Y-136626997D01*
X161797504Y-136782390D01*
X161797507Y-136782397D01*
X161809910Y-136803370D01*
X161827093Y-136871094D01*
X161809912Y-136929608D01*
X161797968Y-136949804D01*
X161755496Y-137096000D01*
X162061648Y-137096000D01*
X162124766Y-137113267D01*
X162133605Y-137118494D01*
X162133608Y-137118494D01*
X162133610Y-137118496D01*
X162289002Y-137163642D01*
X162289005Y-137163642D01*
X162289007Y-137163643D01*
X162325310Y-137166500D01*
X162325318Y-137166500D01*
X162436000Y-137166500D01*
X162503039Y-137186185D01*
X162548794Y-137238989D01*
X162560000Y-137290500D01*
X162560000Y-137346000D01*
X162686000Y-137346000D01*
X162753039Y-137365685D01*
X162798794Y-137418489D01*
X162810000Y-137470000D01*
X162810000Y-138124789D01*
X162830910Y-138123145D01*
X162986195Y-138078031D01*
X163125374Y-137995721D01*
X163125383Y-137995714D01*
X163239714Y-137881383D01*
X163239721Y-137881374D01*
X163322030Y-137742196D01*
X163367145Y-137586910D01*
X163367145Y-137586907D01*
X163367555Y-137581705D01*
X163392437Y-137516416D01*
X163448667Y-137474944D01*
X163518393Y-137470455D01*
X163579476Y-137504376D01*
X163608879Y-137552427D01*
X163631641Y-137621119D01*
X163631643Y-137621124D01*
X163723684Y-137770345D01*
X163847654Y-137894315D01*
X163996875Y-137986356D01*
X163996880Y-137986358D01*
X164163302Y-138041505D01*
X164163309Y-138041506D01*
X164266019Y-138051999D01*
X164390999Y-138051999D01*
X164891000Y-138051999D01*
X165015972Y-138051999D01*
X165015986Y-138051998D01*
X165118697Y-138041505D01*
X165285119Y-137986358D01*
X165285124Y-137986356D01*
X165434345Y-137894315D01*
X165558315Y-137770345D01*
X165650356Y-137621124D01*
X165650358Y-137621119D01*
X165705505Y-137454697D01*
X165705506Y-137454690D01*
X165715999Y-137351986D01*
X165716000Y-137351973D01*
X165716000Y-136902000D01*
X164891000Y-136902000D01*
X164891000Y-138051999D01*
X164390999Y-138051999D01*
X164391000Y-138051998D01*
X164391000Y-136402000D01*
X164891000Y-136402000D01*
X165715999Y-136402000D01*
X165715999Y-135952028D01*
X165715998Y-135952013D01*
X165705505Y-135849302D01*
X165650358Y-135682880D01*
X165650356Y-135682875D01*
X165558315Y-135533654D01*
X165434345Y-135409684D01*
X165285124Y-135317643D01*
X165285119Y-135317641D01*
X165118697Y-135262494D01*
X165118690Y-135262493D01*
X165015986Y-135252000D01*
X164891000Y-135252000D01*
X164891000Y-136402000D01*
X164391000Y-136402000D01*
X164391000Y-135252000D01*
X164266027Y-135252000D01*
X164266012Y-135252001D01*
X164163302Y-135262494D01*
X163996880Y-135317641D01*
X163996875Y-135317643D01*
X163847654Y-135409684D01*
X163723684Y-135533654D01*
X163631643Y-135682875D01*
X163631641Y-135682880D01*
X163576494Y-135849302D01*
X163576493Y-135849309D01*
X163566000Y-135952013D01*
X163566000Y-135956487D01*
X163546315Y-136023526D01*
X163493511Y-136069281D01*
X163424353Y-136079225D01*
X163360797Y-136050200D01*
X163334524Y-136018333D01*
X163327084Y-136005404D01*
X163322494Y-135989605D01*
X163240117Y-135850313D01*
X163234748Y-135844944D01*
X163227024Y-135831521D01*
X163220756Y-135805523D01*
X163210985Y-135780633D01*
X163210500Y-135769675D01*
X163210500Y-134950536D01*
X163230185Y-134883497D01*
X163282989Y-134837742D01*
X163310309Y-134828919D01*
X163344827Y-134822053D01*
X163344830Y-134822051D01*
X163344835Y-134822051D01*
X163526914Y-134746632D01*
X163690782Y-134637139D01*
X163830139Y-134497782D01*
X163939632Y-134333914D01*
X164015051Y-134151835D01*
X164053500Y-133958541D01*
X164053500Y-133761459D01*
X164053500Y-133761456D01*
X164015052Y-133568170D01*
X164015051Y-133568169D01*
X164015051Y-133568165D01*
X164015049Y-133568160D01*
X163939635Y-133386092D01*
X163939628Y-133386079D01*
X163830139Y-133222218D01*
X163830136Y-133222214D01*
X163690785Y-133082863D01*
X163690781Y-133082860D01*
X163526920Y-132973371D01*
X163526908Y-132973364D01*
X163459183Y-132945313D01*
X163404779Y-132901473D01*
X163382714Y-132835179D01*
X163399993Y-132767479D01*
X163411000Y-132753312D01*
X163410555Y-132752970D01*
X163415497Y-132746528D01*
X163415502Y-132746524D01*
X163483369Y-132628975D01*
X163518500Y-132497867D01*
X163518500Y-132362133D01*
X163483369Y-132231025D01*
X163415502Y-132113476D01*
X163373988Y-132071962D01*
X163369649Y-132064016D01*
X163362402Y-132058591D01*
X163353167Y-132033831D01*
X163340503Y-132010639D01*
X163341148Y-132001609D01*
X163337985Y-131993127D01*
X163343601Y-131967306D01*
X163345487Y-131940947D01*
X163351305Y-131931893D01*
X163352837Y-131924854D01*
X163373985Y-131896603D01*
X163528729Y-131741860D01*
X163528733Y-131741858D01*
X163615858Y-131654733D01*
X163650084Y-131603509D01*
X163684312Y-131552286D01*
X163717652Y-131471792D01*
X163731463Y-131438452D01*
X163755500Y-131317606D01*
X163755500Y-127762394D01*
X163731463Y-127641548D01*
X163699658Y-127564764D01*
X163684312Y-127527714D01*
X163650084Y-127476490D01*
X163615858Y-127425267D01*
X163615856Y-127425264D01*
X163525637Y-127335045D01*
X163525606Y-127335016D01*
X163373989Y-127183399D01*
X163340504Y-127122076D01*
X163345488Y-127052384D01*
X163373989Y-127008037D01*
X163415502Y-126966524D01*
X163483369Y-126848975D01*
X163518500Y-126717867D01*
X163518500Y-126582133D01*
X163483369Y-126451025D01*
X163473751Y-126434367D01*
X163415504Y-126333479D01*
X163410555Y-126327030D01*
X163412665Y-126325410D01*
X163385469Y-126275605D01*
X163390453Y-126205913D01*
X163432325Y-126149980D01*
X163459178Y-126134688D01*
X163526914Y-126106632D01*
X163690782Y-125997139D01*
X163830139Y-125857782D01*
X163939632Y-125693914D01*
X164015051Y-125511835D01*
X164027632Y-125448582D01*
X164053500Y-125318543D01*
X164053500Y-125121456D01*
X164015052Y-124928170D01*
X164015051Y-124928169D01*
X164015051Y-124928165D01*
X163948090Y-124766505D01*
X163939635Y-124746092D01*
X163939628Y-124746079D01*
X163830139Y-124582218D01*
X163830136Y-124582214D01*
X163690785Y-124442863D01*
X163690781Y-124442860D01*
X163526920Y-124333371D01*
X163526907Y-124333364D01*
X163344839Y-124257950D01*
X163344829Y-124257947D01*
X163151543Y-124219500D01*
X163151541Y-124219500D01*
X161854459Y-124219500D01*
X161854456Y-124219500D01*
X161672885Y-124255617D01*
X161648694Y-124258000D01*
X160461379Y-124258000D01*
X160394340Y-124238315D01*
X160373697Y-124221680D01*
X160325959Y-124173941D01*
X160325950Y-124173934D01*
X160183398Y-124089629D01*
X160183395Y-124089628D01*
X160024362Y-124043424D01*
X160024356Y-124043423D01*
X159987203Y-124040500D01*
X159544809Y-124040500D01*
X159544784Y-124040501D01*
X159507645Y-124043423D01*
X159348599Y-124089630D01*
X159206049Y-124173934D01*
X159206040Y-124173941D01*
X159088941Y-124291040D01*
X159088934Y-124291049D01*
X159004629Y-124433601D01*
X159004628Y-124433604D01*
X158958424Y-124592637D01*
X158958423Y-124592643D01*
X158955500Y-124629789D01*
X158955500Y-125187190D01*
X158955501Y-125187215D01*
X158958423Y-125224354D01*
X159004630Y-125383401D01*
X159022064Y-125412881D01*
X159039245Y-125480606D01*
X159022064Y-125539119D01*
X159004630Y-125568599D01*
X159004628Y-125568604D01*
X158958424Y-125727637D01*
X158958423Y-125727643D01*
X158955500Y-125764789D01*
X158955500Y-126322190D01*
X158955501Y-126322215D01*
X158958423Y-126359354D01*
X159004630Y-126518400D01*
X159088934Y-126660950D01*
X159088941Y-126660959D01*
X159206040Y-126778058D01*
X159206049Y-126778065D01*
X159296396Y-126831496D01*
X159320955Y-126850546D01*
X159367267Y-126896858D01*
X159367268Y-126896858D01*
X159374336Y-126903926D01*
X159374338Y-126903928D01*
X160746263Y-128275855D01*
X160746271Y-128275861D01*
X160797824Y-128310308D01*
X160797921Y-128310424D01*
X160798066Y-128310470D01*
X160820350Y-128337261D01*
X160842630Y-128363920D01*
X160842681Y-128364109D01*
X160842746Y-128364187D01*
X160843076Y-128365555D01*
X160852003Y-128398245D01*
X160852500Y-128402278D01*
X160852500Y-128402720D01*
X160853350Y-128409178D01*
X160853423Y-128409769D01*
X160847833Y-128443759D01*
X160842524Y-128477791D01*
X160842148Y-128478324D01*
X160842085Y-128478713D01*
X160841136Y-128479763D01*
X160818035Y-128512615D01*
X160716001Y-128614649D01*
X160654678Y-128648134D01*
X160584986Y-128643150D01*
X160556709Y-128626880D01*
X160556296Y-128627500D01*
X160551234Y-128624117D01*
X160551233Y-128624116D01*
X160413608Y-128532149D01*
X160413601Y-128532144D01*
X160260681Y-128468784D01*
X160151765Y-128447103D01*
X160098331Y-128436466D01*
X160094553Y-128436465D01*
X160094504Y-128436452D01*
X160015568Y-128436452D01*
X160015566Y-128436452D01*
X160015528Y-128436451D01*
X159942651Y-128436438D01*
X159942649Y-128436438D01*
X159935318Y-128436437D01*
X159935070Y-128436452D01*
X159813581Y-128436452D01*
X159812786Y-128436530D01*
X159650410Y-128468796D01*
X159497444Y-128532120D01*
X159424353Y-128580937D01*
X159357671Y-128601802D01*
X159290295Y-128583303D01*
X159286587Y-128580920D01*
X159213605Y-128532149D01*
X159213598Y-128532146D01*
X159060677Y-128468786D01*
X158948671Y-128446490D01*
X158898331Y-128436469D01*
X158894553Y-128436468D01*
X158894504Y-128436455D01*
X158815568Y-128436455D01*
X158815566Y-128436455D01*
X158815528Y-128436454D01*
X158742651Y-128436441D01*
X158742649Y-128436441D01*
X158735318Y-128436440D01*
X158735070Y-128436455D01*
X158616390Y-128436455D01*
X158616107Y-128436530D01*
X158612787Y-128436530D01*
X158527429Y-128453491D01*
X158526551Y-128453654D01*
X158492588Y-128450153D01*
X158458576Y-128447103D01*
X158457900Y-128446577D01*
X158457049Y-128446490D01*
X158430352Y-128425168D01*
X158403408Y-128404228D01*
X158403123Y-128403421D01*
X158402454Y-128402887D01*
X158391531Y-128370541D01*
X158380176Y-128338334D01*
X158380134Y-128336793D01*
X158380100Y-128336690D01*
X158380129Y-128336573D01*
X158380000Y-128331722D01*
X158380000Y-122171815D01*
X162667000Y-122171815D01*
X162677407Y-122273673D01*
X162732094Y-122438709D01*
X162732096Y-122438714D01*
X162823370Y-122586691D01*
X162946308Y-122709629D01*
X163094285Y-122800903D01*
X163094290Y-122800905D01*
X163259326Y-122855592D01*
X163361184Y-122865999D01*
X163361197Y-122866000D01*
X163404500Y-122866000D01*
X163404500Y-121916000D01*
X162667000Y-121916000D01*
X162667000Y-122171815D01*
X158380000Y-122171815D01*
X158380000Y-120624500D01*
X158399685Y-120557461D01*
X158452489Y-120511706D01*
X158504000Y-120500500D01*
X162768817Y-120500500D01*
X162835856Y-120520185D01*
G37*
%TD.AperFunction*%
%TD*%
M02*
