%TF.GenerationSoftware,KiCad,Pcbnew,9.0.0-9.0.0-2~ubuntu24.10.1*%
%TF.CreationDate,2025-03-31T19:00:45+02:00*%
%TF.ProjectId,usb_uart_1V8,7573625f-7561-4727-945f-3156382e6b69,1*%
%TF.SameCoordinates,Original*%
%TF.FileFunction,Paste,Top*%
%TF.FilePolarity,Positive*%
%FSLAX46Y46*%
G04 Gerber Fmt 4.6, Leading zero omitted, Abs format (unit mm)*
G04 Created by KiCad (PCBNEW 9.0.0-9.0.0-2~ubuntu24.10.1) date 2025-03-31 19:00:45*
%MOMM*%
%LPD*%
G01*
G04 APERTURE LIST*
G04 Aperture macros list*
%AMRoundRect*
0 Rectangle with rounded corners*
0 $1 Rounding radius*
0 $2 $3 $4 $5 $6 $7 $8 $9 X,Y pos of 4 corners*
0 Add a 4 corners polygon primitive as box body*
4,1,4,$2,$3,$4,$5,$6,$7,$8,$9,$2,$3,0*
0 Add four circle primitives for the rounded corners*
1,1,$1+$1,$2,$3*
1,1,$1+$1,$4,$5*
1,1,$1+$1,$6,$7*
1,1,$1+$1,$8,$9*
0 Add four rect primitives between the rounded corners*
20,1,$1+$1,$2,$3,$4,$5,0*
20,1,$1+$1,$4,$5,$6,$7,0*
20,1,$1+$1,$6,$7,$8,$9,0*
20,1,$1+$1,$8,$9,$2,$3,0*%
G04 Aperture macros list end*
%ADD10RoundRect,0.250000X0.525000X-0.475000X0.525000X0.475000X-0.525000X0.475000X-0.525000X-0.475000X0*%
%ADD11RoundRect,0.250000X0.525000X-0.500000X0.525000X0.500000X-0.525000X0.500000X-0.525000X-0.500000X0*%
%ADD12RoundRect,0.100000X0.575000X-0.100000X0.575000X0.100000X-0.575000X0.100000X-0.575000X-0.100000X0*%
%ADD13O,1.550000X0.890000*%
%ADD14O,0.950000X1.250000*%
%ADD15R,0.450000X1.750000*%
%ADD16RoundRect,0.140000X-0.170000X0.140000X-0.170000X-0.140000X0.170000X-0.140000X0.170000X0.140000X0*%
%ADD17RoundRect,0.150000X-0.587500X-0.150000X0.587500X-0.150000X0.587500X0.150000X-0.587500X0.150000X0*%
%ADD18RoundRect,0.087500X0.087500X-0.537500X0.087500X0.537500X-0.087500X0.537500X-0.087500X-0.537500X0*%
%ADD19RoundRect,0.135000X-0.185000X0.135000X-0.185000X-0.135000X0.185000X-0.135000X0.185000X0.135000X0*%
%ADD20RoundRect,0.135000X0.185000X-0.135000X0.185000X0.135000X-0.185000X0.135000X-0.185000X-0.135000X0*%
%ADD21RoundRect,0.135000X-0.135000X-0.185000X0.135000X-0.185000X0.135000X0.185000X-0.135000X0.185000X0*%
%ADD22RoundRect,0.135000X0.135000X0.185000X-0.135000X0.185000X-0.135000X-0.185000X0.135000X-0.185000X0*%
%ADD23RoundRect,0.250000X-0.325000X-0.650000X0.325000X-0.650000X0.325000X0.650000X-0.325000X0.650000X0*%
%ADD24RoundRect,0.140000X-0.140000X-0.170000X0.140000X-0.170000X0.140000X0.170000X-0.140000X0.170000X0*%
%ADD25RoundRect,0.140000X0.140000X0.170000X-0.140000X0.170000X-0.140000X-0.170000X0.140000X-0.170000X0*%
%ADD26RoundRect,0.218750X-0.218750X-0.256250X0.218750X-0.256250X0.218750X0.256250X-0.218750X0.256250X0*%
%ADD27RoundRect,0.218750X-0.256250X0.218750X-0.256250X-0.218750X0.256250X-0.218750X0.256250X0.218750X0*%
%ADD28RoundRect,0.250000X0.450000X-0.262500X0.450000X0.262500X-0.450000X0.262500X-0.450000X-0.262500X0*%
G04 APERTURE END LIST*
D10*
%TO.C,J1*%
X165200000Y-126475000D03*
D11*
X165200000Y-128500000D03*
X165200000Y-130500000D03*
D10*
X165200000Y-132525000D03*
D12*
X162500000Y-128200000D03*
X162500000Y-128850000D03*
X162500000Y-129500000D03*
X162500000Y-130150000D03*
X162500000Y-130800000D03*
D13*
X165200000Y-126000000D03*
D14*
X162500000Y-127000000D03*
X162500000Y-132000000D03*
D13*
X165200000Y-133000000D03*
%TD*%
D15*
%TO.C,U1*%
X146951000Y-135735742D03*
X147601000Y-135735742D03*
X148251000Y-135735742D03*
X148901000Y-135735742D03*
X149551000Y-135735742D03*
X150201000Y-135735742D03*
X150851000Y-135735742D03*
X151501000Y-135735742D03*
X152151000Y-135735742D03*
X152801000Y-135735742D03*
X153451000Y-135735742D03*
X154101000Y-135735742D03*
X154751000Y-135735742D03*
X155401000Y-135735742D03*
X155401000Y-128535742D03*
X154751000Y-128535742D03*
X154101000Y-128535742D03*
X153451000Y-128535742D03*
X152801000Y-128535742D03*
X152151000Y-128535742D03*
X151501000Y-128535742D03*
X150851000Y-128535742D03*
X150201000Y-128535742D03*
X149551000Y-128535742D03*
X148901000Y-128535742D03*
X148251000Y-128535742D03*
X147601000Y-128535742D03*
X146951000Y-128535742D03*
%TD*%
D16*
%TO.C,C3*%
X158312000Y-137092000D03*
X158312000Y-136132000D03*
%TD*%
D17*
%TO.C,Q1*%
X143763500Y-126867742D03*
X141888500Y-127817742D03*
X141888500Y-125917742D03*
%TD*%
D18*
%TO.C,U2*%
X138520000Y-135125742D03*
X139020000Y-135125742D03*
X139520000Y-135125742D03*
X140020000Y-135125742D03*
X140020000Y-132325742D03*
X139520000Y-132325742D03*
X139020000Y-132325742D03*
X138520000Y-132325742D03*
%TD*%
D19*
%TO.C,R10*%
X137414000Y-128522000D03*
X137414000Y-129542000D03*
%TD*%
D20*
%TO.C,R9*%
X142572000Y-137029742D03*
X142572000Y-136009742D03*
%TD*%
%TO.C,R8*%
X142572000Y-133473742D03*
X142572000Y-132453742D03*
%TD*%
D21*
%TO.C,R1*%
X161612000Y-123624000D03*
X162632000Y-123624000D03*
%TD*%
D22*
%TO.C,R4*%
X140542000Y-123819742D03*
X139522000Y-123819742D03*
%TD*%
%TO.C,R5*%
X139780000Y-125724742D03*
X138760000Y-125724742D03*
%TD*%
D23*
%TO.C,C2*%
X161409000Y-136612000D03*
X164359000Y-136612000D03*
%TD*%
D22*
%TO.C,R3*%
X150320191Y-125730000D03*
X151340191Y-125730000D03*
%TD*%
D24*
%TO.C,C4*%
X131600000Y-136297000D03*
X132560000Y-136297000D03*
%TD*%
D25*
%TO.C,C1*%
X145006000Y-129540000D03*
X144046000Y-129540000D03*
%TD*%
D26*
%TO.C,D4*%
X142546500Y-123819742D03*
X144121500Y-123819742D03*
%TD*%
D25*
%TO.C,C6*%
X139750000Y-137027742D03*
X138790000Y-137027742D03*
%TD*%
D24*
%TO.C,C5*%
X138790000Y-130423742D03*
X139750000Y-130423742D03*
%TD*%
D26*
%TO.C,D3*%
X154737191Y-125730000D03*
X153162191Y-125730000D03*
%TD*%
D27*
%TO.C,D1*%
X159074000Y-123886500D03*
X159074000Y-125461500D03*
%TD*%
D28*
%TO.C,FB1*%
X158820000Y-134095500D03*
X158820000Y-132270500D03*
%TD*%
D22*
%TO.C,R2*%
X151386000Y-122483742D03*
X150366000Y-122483742D03*
%TD*%
D26*
%TO.C,D2*%
X153162191Y-122483742D03*
X154737191Y-122483742D03*
%TD*%
M02*
