%TF.GenerationSoftware,KiCad,Pcbnew,9.0.1-9.0.1-0~ubuntu24.10.1*%
%TF.CreationDate,2025-04-11T20:09:19+02:00*%
%TF.ProjectId,usb_uart_1V8,7573625f-7561-4727-945f-3156382e6b69,0.4*%
%TF.SameCoordinates,Original*%
%TF.FileFunction,Copper,L2,Bot*%
%TF.FilePolarity,Positive*%
%FSLAX46Y46*%
G04 Gerber Fmt 4.6, Leading zero omitted, Abs format (unit mm)*
G04 Created by KiCad (PCBNEW 9.0.1-9.0.1-0~ubuntu24.10.1) date 2025-04-11 20:09:19*
%MOMM*%
%LPD*%
G01*
G04 APERTURE LIST*
%TA.AperFunction,HeatsinkPad*%
%ADD10O,1.550000X0.890000*%
%TD*%
%TA.AperFunction,HeatsinkPad*%
%ADD11O,0.950000X1.250000*%
%TD*%
%TA.AperFunction,ComponentPad*%
%ADD12R,1.700000X1.700000*%
%TD*%
%TA.AperFunction,ComponentPad*%
%ADD13C,1.700000*%
%TD*%
%TA.AperFunction,ViaPad*%
%ADD14C,0.700000*%
%TD*%
%TA.AperFunction,ViaPad*%
%ADD15C,0.600000*%
%TD*%
%TA.AperFunction,Conductor*%
%ADD16C,0.250000*%
%TD*%
%TA.AperFunction,Conductor*%
%ADD17C,0.300000*%
%TD*%
G04 APERTURE END LIST*
D10*
%TO.P,J1,6,Shield*%
%TO.N,GND*%
X165200000Y-133000000D03*
D11*
X162500000Y-132000000D03*
X162500000Y-127000000D03*
D10*
X165200000Y-126000000D03*
%TD*%
D12*
%TO.P,J2,1,Pin_1*%
%TO.N,VCC_TTL*%
X134620000Y-125984000D03*
%TO.P,J2,2,Pin_2*%
X137160000Y-125984000D03*
D13*
%TO.P,J2,3,Pin_3*%
%TO.N,/RX*%
X134620000Y-128524000D03*
%TO.P,J2,4,Pin_4*%
%TO.N,/TX*%
X137160000Y-128524000D03*
%TO.P,J2,5,Pin_5*%
X134620000Y-131064000D03*
%TO.P,J2,6,Pin_6*%
%TO.N,/RX*%
X137160000Y-131064000D03*
%TO.P,J2,7,Pin_7*%
%TO.N,GND*%
X134620000Y-133604000D03*
%TO.P,J2,8,Pin_8*%
X137160000Y-133604000D03*
%TD*%
D14*
%TO.N,GND*%
X136652000Y-122682000D03*
D15*
%TO.N,/RX*%
X141224000Y-135128000D03*
D14*
%TO.N,GND*%
X152400000Y-133858000D03*
X142494000Y-129286000D03*
X151638000Y-130048000D03*
X155448000Y-130048000D03*
X149098000Y-130302000D03*
X142722506Y-134039161D03*
%TO.N,+3V3*%
X146558000Y-133350000D03*
X144780000Y-137922000D03*
%TO.N,VBUS*%
X160020000Y-127000000D03*
X159766000Y-130650000D03*
%TD*%
D16*
%TO.N,/RX*%
X141224000Y-135128000D02*
X137160000Y-131064000D01*
D17*
%TO.N,+3V3*%
X146558000Y-136144000D02*
X144780000Y-137922000D01*
X146558000Y-133350000D02*
X146558000Y-136144000D01*
%TO.N,VBUS*%
X159766000Y-127254000D02*
X160020000Y-127000000D01*
X159766000Y-130650000D02*
X159766000Y-127254000D01*
D16*
%TO.N,/TX*%
X137160000Y-128524000D02*
X134620000Y-131064000D01*
%TD*%
%TA.AperFunction,Conductor*%
%TO.N,GND*%
G36*
X166136539Y-120520185D02*
G01*
X166182294Y-120572989D01*
X166193500Y-120624500D01*
X166193500Y-125074806D01*
X166173815Y-125141845D01*
X166121011Y-125187600D01*
X166051853Y-125197544D01*
X166000611Y-125177909D01*
X165977634Y-125162557D01*
X165977622Y-125162550D01*
X165805646Y-125091316D01*
X165805638Y-125091314D01*
X165623077Y-125055000D01*
X165450000Y-125055000D01*
X165450000Y-125750000D01*
X164950000Y-125750000D01*
X164950000Y-125055000D01*
X164776923Y-125055000D01*
X164594361Y-125091314D01*
X164594353Y-125091316D01*
X164422377Y-125162550D01*
X164422368Y-125162555D01*
X164267598Y-125265970D01*
X164267594Y-125265973D01*
X164135973Y-125397594D01*
X164135970Y-125397598D01*
X164032555Y-125552368D01*
X164032548Y-125552381D01*
X163961317Y-125724350D01*
X163961316Y-125724355D01*
X163956216Y-125750000D01*
X164825272Y-125750000D01*
X164733386Y-125788060D01*
X164663060Y-125858386D01*
X164625000Y-125950272D01*
X164625000Y-126049728D01*
X164663060Y-126141614D01*
X164733386Y-126211940D01*
X164825272Y-126250000D01*
X163956216Y-126250000D01*
X163961316Y-126275644D01*
X163961317Y-126275649D01*
X164032548Y-126447618D01*
X164032555Y-126447631D01*
X164135970Y-126602401D01*
X164135973Y-126602405D01*
X164267594Y-126734026D01*
X164267598Y-126734029D01*
X164422368Y-126837444D01*
X164422377Y-126837449D01*
X164594353Y-126908683D01*
X164594361Y-126908685D01*
X164776921Y-126944999D01*
X164776924Y-126945000D01*
X164950000Y-126945000D01*
X164950000Y-126250000D01*
X165450000Y-126250000D01*
X165450000Y-126945000D01*
X165623076Y-126945000D01*
X165623078Y-126944999D01*
X165805638Y-126908685D01*
X165805646Y-126908683D01*
X165977622Y-126837449D01*
X165977630Y-126837444D01*
X166000609Y-126822091D01*
X166067286Y-126801213D01*
X166134666Y-126819697D01*
X166181357Y-126871676D01*
X166193500Y-126925193D01*
X166193500Y-132074806D01*
X166173815Y-132141845D01*
X166121011Y-132187600D01*
X166051853Y-132197544D01*
X166000611Y-132177909D01*
X165977634Y-132162557D01*
X165977622Y-132162550D01*
X165805646Y-132091316D01*
X165805638Y-132091314D01*
X165623077Y-132055000D01*
X165450000Y-132055000D01*
X165450000Y-132750000D01*
X164950000Y-132750000D01*
X164950000Y-132055000D01*
X164776923Y-132055000D01*
X164594361Y-132091314D01*
X164594353Y-132091316D01*
X164422377Y-132162550D01*
X164422368Y-132162555D01*
X164267598Y-132265970D01*
X164267594Y-132265973D01*
X164135973Y-132397594D01*
X164135970Y-132397598D01*
X164032555Y-132552368D01*
X164032548Y-132552381D01*
X163961317Y-132724350D01*
X163961316Y-132724355D01*
X163956216Y-132750000D01*
X164825272Y-132750000D01*
X164733386Y-132788060D01*
X164663060Y-132858386D01*
X164625000Y-132950272D01*
X164625000Y-133049728D01*
X164663060Y-133141614D01*
X164733386Y-133211940D01*
X164825272Y-133250000D01*
X163956216Y-133250000D01*
X163961316Y-133275644D01*
X163961317Y-133275649D01*
X164032548Y-133447618D01*
X164032555Y-133447631D01*
X164135970Y-133602401D01*
X164135973Y-133602405D01*
X164267594Y-133734026D01*
X164267598Y-133734029D01*
X164422368Y-133837444D01*
X164422377Y-133837449D01*
X164594353Y-133908683D01*
X164594361Y-133908685D01*
X164776921Y-133944999D01*
X164776924Y-133945000D01*
X164950000Y-133945000D01*
X164950000Y-133250000D01*
X165450000Y-133250000D01*
X165450000Y-133945000D01*
X165623076Y-133945000D01*
X165623078Y-133944999D01*
X165805638Y-133908685D01*
X165805646Y-133908683D01*
X165977622Y-133837449D01*
X165977630Y-133837444D01*
X166000609Y-133822091D01*
X166067286Y-133801213D01*
X166134666Y-133819697D01*
X166181357Y-133871676D01*
X166193500Y-133925193D01*
X166193500Y-138375500D01*
X166173815Y-138442539D01*
X166121011Y-138488294D01*
X166069500Y-138499500D01*
X145646945Y-138499500D01*
X145579906Y-138479815D01*
X145534151Y-138427011D01*
X145524207Y-138357853D01*
X145532384Y-138328047D01*
X145533703Y-138324863D01*
X145597816Y-138170082D01*
X145626718Y-138024781D01*
X145659102Y-137962870D01*
X145660596Y-137961349D01*
X147063277Y-136558669D01*
X147134465Y-136452127D01*
X147183501Y-136333743D01*
X147208500Y-136208069D01*
X147208500Y-136079931D01*
X147208500Y-133944931D01*
X147228185Y-133877892D01*
X147229398Y-133876040D01*
X147255184Y-133837449D01*
X147311703Y-133752863D01*
X147375816Y-133598082D01*
X147408500Y-133433767D01*
X147408500Y-133266233D01*
X147375816Y-133101918D01*
X147311703Y-132947137D01*
X147277828Y-132896440D01*
X147218626Y-132807837D01*
X147100162Y-132689373D01*
X146960860Y-132596295D01*
X146806082Y-132532184D01*
X146806074Y-132532182D01*
X146641771Y-132499500D01*
X146641767Y-132499500D01*
X146474233Y-132499500D01*
X146474228Y-132499500D01*
X146309925Y-132532182D01*
X146309917Y-132532184D01*
X146155139Y-132596295D01*
X146015837Y-132689373D01*
X145897373Y-132807837D01*
X145804295Y-132947139D01*
X145740184Y-133101917D01*
X145740182Y-133101925D01*
X145707500Y-133266228D01*
X145707500Y-133433771D01*
X145740182Y-133598074D01*
X145740184Y-133598082D01*
X145804295Y-133752860D01*
X145804296Y-133752862D01*
X145804297Y-133752863D01*
X145860812Y-133837444D01*
X145886602Y-133876040D01*
X145907480Y-133942717D01*
X145907500Y-133944931D01*
X145907500Y-135823192D01*
X145887815Y-135890231D01*
X145871181Y-135910873D01*
X144740708Y-137041345D01*
X144679385Y-137074830D01*
X144677219Y-137075281D01*
X144531923Y-137104182D01*
X144531917Y-137104184D01*
X144377139Y-137168295D01*
X144237837Y-137261373D01*
X144119373Y-137379837D01*
X144026295Y-137519139D01*
X143962184Y-137673917D01*
X143962182Y-137673925D01*
X143929500Y-137838228D01*
X143929500Y-138005771D01*
X143962182Y-138170074D01*
X143962184Y-138170082D01*
X144027616Y-138328047D01*
X144035085Y-138397516D01*
X144003810Y-138459996D01*
X143943721Y-138495648D01*
X143913055Y-138499500D01*
X133488500Y-138499500D01*
X133421461Y-138479815D01*
X133375706Y-138427011D01*
X133364500Y-138375500D01*
X133364500Y-134488823D01*
X133384185Y-134421784D01*
X133436989Y-134376029D01*
X133498230Y-134365205D01*
X133504728Y-134365716D01*
X134137037Y-133733408D01*
X134154075Y-133796993D01*
X134219901Y-133911007D01*
X134312993Y-134004099D01*
X134427007Y-134069925D01*
X134490590Y-134086962D01*
X133858282Y-134719269D01*
X133858282Y-134719270D01*
X133912449Y-134758624D01*
X134101782Y-134855095D01*
X134303870Y-134920757D01*
X134513754Y-134954000D01*
X134726246Y-134954000D01*
X134936127Y-134920757D01*
X134936130Y-134920757D01*
X135138217Y-134855095D01*
X135327554Y-134758622D01*
X135381716Y-134719270D01*
X135381717Y-134719270D01*
X134749408Y-134086962D01*
X134812993Y-134069925D01*
X134927007Y-134004099D01*
X135020099Y-133911007D01*
X135085925Y-133796993D01*
X135102962Y-133733408D01*
X135735270Y-134365717D01*
X135735270Y-134365716D01*
X135774622Y-134311554D01*
X135779514Y-134301954D01*
X135827488Y-134251157D01*
X135895308Y-134234361D01*
X135961444Y-134256897D01*
X136000486Y-134301954D01*
X136005375Y-134311550D01*
X136044728Y-134365716D01*
X136677037Y-133733408D01*
X136694075Y-133796993D01*
X136759901Y-133911007D01*
X136852993Y-134004099D01*
X136967007Y-134069925D01*
X137030590Y-134086962D01*
X136398282Y-134719269D01*
X136398282Y-134719270D01*
X136452449Y-134758624D01*
X136641782Y-134855095D01*
X136843870Y-134920757D01*
X137053754Y-134954000D01*
X137266246Y-134954000D01*
X137476127Y-134920757D01*
X137476130Y-134920757D01*
X137678217Y-134855095D01*
X137867554Y-134758622D01*
X137921716Y-134719270D01*
X137921717Y-134719270D01*
X137289408Y-134086962D01*
X137352993Y-134069925D01*
X137467007Y-134004099D01*
X137560099Y-133911007D01*
X137625925Y-133796993D01*
X137642962Y-133733408D01*
X138275270Y-134365717D01*
X138275270Y-134365716D01*
X138314622Y-134311554D01*
X138411095Y-134122217D01*
X138476757Y-133920130D01*
X138476757Y-133920127D01*
X138510000Y-133710246D01*
X138510000Y-133597952D01*
X138529685Y-133530913D01*
X138582489Y-133485158D01*
X138651647Y-133475214D01*
X138715203Y-133504239D01*
X138721681Y-133510271D01*
X140398205Y-135186795D01*
X140431690Y-135248118D01*
X140432141Y-135250285D01*
X140454261Y-135361489D01*
X140454264Y-135361501D01*
X140514602Y-135507172D01*
X140514609Y-135507185D01*
X140602210Y-135638288D01*
X140602213Y-135638292D01*
X140713707Y-135749786D01*
X140713711Y-135749789D01*
X140844814Y-135837390D01*
X140844827Y-135837397D01*
X140990498Y-135897735D01*
X140990503Y-135897737D01*
X141145153Y-135928499D01*
X141145156Y-135928500D01*
X141145158Y-135928500D01*
X141302844Y-135928500D01*
X141302845Y-135928499D01*
X141457497Y-135897737D01*
X141603179Y-135837394D01*
X141734289Y-135749789D01*
X141845789Y-135638289D01*
X141933394Y-135507179D01*
X141993737Y-135361497D01*
X142024500Y-135206842D01*
X142024500Y-135049158D01*
X142024500Y-135049155D01*
X142024499Y-135049153D01*
X141993738Y-134894510D01*
X141993737Y-134894503D01*
X141937454Y-134758622D01*
X141933397Y-134748827D01*
X141933390Y-134748814D01*
X141845789Y-134617711D01*
X141845786Y-134617707D01*
X141734292Y-134506213D01*
X141734288Y-134506210D01*
X141603185Y-134418609D01*
X141603172Y-134418602D01*
X141457501Y-134358264D01*
X141457489Y-134358261D01*
X141346285Y-134336141D01*
X141284374Y-134303756D01*
X141282795Y-134302205D01*
X138730589Y-131749999D01*
X161525789Y-131749999D01*
X161525790Y-131750000D01*
X162243763Y-131750000D01*
X162225000Y-131795299D01*
X162225000Y-132204701D01*
X162243763Y-132250000D01*
X161525789Y-132250000D01*
X161562466Y-132434389D01*
X161562468Y-132434397D01*
X161635964Y-132611833D01*
X161635969Y-132611842D01*
X161742667Y-132771526D01*
X161742670Y-132771530D01*
X161878471Y-132907331D01*
X162038157Y-133014030D01*
X162038167Y-133014035D01*
X162215599Y-133087530D01*
X162215606Y-133087533D01*
X162250000Y-133094373D01*
X162250000Y-132265056D01*
X162266866Y-132305775D01*
X162344225Y-132383134D01*
X162445299Y-132425000D01*
X162554701Y-132425000D01*
X162655775Y-132383134D01*
X162733134Y-132305775D01*
X162750000Y-132265056D01*
X162750000Y-133094373D01*
X162784393Y-133087532D01*
X162784400Y-133087530D01*
X162961832Y-133014035D01*
X162961842Y-133014030D01*
X163121529Y-132907331D01*
X163121530Y-132907329D01*
X163257329Y-132771530D01*
X163257332Y-132771526D01*
X163295477Y-132714440D01*
X163364030Y-132611842D01*
X163364035Y-132611833D01*
X163437531Y-132434397D01*
X163437533Y-132434389D01*
X163474210Y-132250000D01*
X162756237Y-132250000D01*
X162775000Y-132204701D01*
X162775000Y-131795299D01*
X162756237Y-131750000D01*
X163474210Y-131750000D01*
X163474210Y-131749999D01*
X163437533Y-131565610D01*
X163437531Y-131565602D01*
X163364035Y-131388166D01*
X163364030Y-131388157D01*
X163257332Y-131228473D01*
X163257329Y-131228469D01*
X163121530Y-131092670D01*
X163121526Y-131092667D01*
X162961842Y-130985969D01*
X162961833Y-130985964D01*
X162784397Y-130912468D01*
X162784389Y-130912466D01*
X162750000Y-130905625D01*
X162750000Y-131734943D01*
X162733134Y-131694225D01*
X162655775Y-131616866D01*
X162554701Y-131575000D01*
X162445299Y-131575000D01*
X162344225Y-131616866D01*
X162266866Y-131694225D01*
X162250000Y-131734943D01*
X162250000Y-130905625D01*
X162215610Y-130912466D01*
X162215602Y-130912468D01*
X162038166Y-130985964D01*
X162038157Y-130985969D01*
X161878473Y-131092667D01*
X161878469Y-131092670D01*
X161742670Y-131228469D01*
X161742667Y-131228473D01*
X161635969Y-131388157D01*
X161635964Y-131388166D01*
X161562468Y-131565602D01*
X161562466Y-131565610D01*
X161525789Y-131749999D01*
X138730589Y-131749999D01*
X138502428Y-131521838D01*
X138468943Y-131460515D01*
X138472177Y-131395841D01*
X138477246Y-131380243D01*
X138510500Y-131170287D01*
X138510500Y-130957713D01*
X138477246Y-130747757D01*
X138418263Y-130566228D01*
X158915500Y-130566228D01*
X158915500Y-130733771D01*
X158948182Y-130898074D01*
X158948184Y-130898082D01*
X159012295Y-131052860D01*
X159105373Y-131192162D01*
X159223837Y-131310626D01*
X159316494Y-131372537D01*
X159363137Y-131403703D01*
X159517918Y-131467816D01*
X159682228Y-131500499D01*
X159682232Y-131500500D01*
X159682233Y-131500500D01*
X159849768Y-131500500D01*
X159849769Y-131500499D01*
X160014082Y-131467816D01*
X160168863Y-131403703D01*
X160308162Y-131310626D01*
X160426626Y-131192162D01*
X160519703Y-131052863D01*
X160583816Y-130898082D01*
X160616500Y-130733767D01*
X160616500Y-130566233D01*
X160583816Y-130401918D01*
X160519703Y-130247137D01*
X160437398Y-130123959D01*
X160416520Y-130057281D01*
X160416500Y-130055068D01*
X160416500Y-127824234D01*
X160436185Y-127757195D01*
X160471609Y-127721132D01*
X160489994Y-127708846D01*
X160562162Y-127660626D01*
X160680626Y-127542162D01*
X160773703Y-127402863D01*
X160837816Y-127248082D01*
X160846445Y-127204701D01*
X160848871Y-127192507D01*
X160848876Y-127192479D01*
X160852153Y-127176004D01*
X160870500Y-127083767D01*
X160870500Y-126916233D01*
X160848876Y-126807520D01*
X160848876Y-126807518D01*
X160837817Y-126751923D01*
X160837816Y-126751922D01*
X160837816Y-126751918D01*
X160837021Y-126749999D01*
X161525789Y-126749999D01*
X161525790Y-126750000D01*
X162243763Y-126750000D01*
X162225000Y-126795299D01*
X162225000Y-127204701D01*
X162243763Y-127250000D01*
X161525789Y-127250000D01*
X161562466Y-127434389D01*
X161562468Y-127434397D01*
X161635964Y-127611833D01*
X161635969Y-127611842D01*
X161742667Y-127771526D01*
X161742670Y-127771530D01*
X161878469Y-127907329D01*
X161878473Y-127907332D01*
X162038157Y-128014030D01*
X162038167Y-128014035D01*
X162215599Y-128087530D01*
X162215606Y-128087533D01*
X162250000Y-128094373D01*
X162250000Y-127265056D01*
X162266866Y-127305775D01*
X162344225Y-127383134D01*
X162445299Y-127425000D01*
X162554701Y-127425000D01*
X162655775Y-127383134D01*
X162733134Y-127305775D01*
X162750000Y-127265056D01*
X162750000Y-128094372D01*
X162784393Y-128087533D01*
X162784400Y-128087530D01*
X162961832Y-128014035D01*
X162961842Y-128014030D01*
X163121526Y-127907332D01*
X163121530Y-127907329D01*
X163257329Y-127771530D01*
X163257332Y-127771526D01*
X163364030Y-127611842D01*
X163364035Y-127611833D01*
X163437531Y-127434397D01*
X163437533Y-127434389D01*
X163474210Y-127250000D01*
X162756237Y-127250000D01*
X162775000Y-127204701D01*
X162775000Y-126795299D01*
X162756237Y-126750000D01*
X163474210Y-126750000D01*
X163474210Y-126749999D01*
X163437533Y-126565610D01*
X163437531Y-126565602D01*
X163364035Y-126388166D01*
X163364030Y-126388157D01*
X163295477Y-126285560D01*
X163257332Y-126228473D01*
X163257329Y-126228469D01*
X163121529Y-126092669D01*
X163121526Y-126092667D01*
X162961842Y-125985969D01*
X162961833Y-125985964D01*
X162784785Y-125912628D01*
X162750000Y-125927920D01*
X162750000Y-126734943D01*
X162733134Y-126694225D01*
X162655775Y-126616866D01*
X162554701Y-126575000D01*
X162445299Y-126575000D01*
X162344225Y-126616866D01*
X162266866Y-126694225D01*
X162250000Y-126734943D01*
X162250000Y-125905625D01*
X162215610Y-125912466D01*
X162215602Y-125912468D01*
X162038166Y-125985964D01*
X162038157Y-125985969D01*
X161878473Y-126092667D01*
X161878471Y-126092669D01*
X161742670Y-126228469D01*
X161742667Y-126228473D01*
X161635969Y-126388157D01*
X161635964Y-126388166D01*
X161562468Y-126565602D01*
X161562466Y-126565610D01*
X161525789Y-126749999D01*
X160837021Y-126749999D01*
X160775885Y-126602405D01*
X160773704Y-126597139D01*
X160680626Y-126457837D01*
X160562162Y-126339373D01*
X160422860Y-126246295D01*
X160268082Y-126182184D01*
X160268074Y-126182182D01*
X160103771Y-126149500D01*
X160103767Y-126149500D01*
X159936233Y-126149500D01*
X159936228Y-126149500D01*
X159771925Y-126182182D01*
X159771917Y-126182184D01*
X159617139Y-126246295D01*
X159477837Y-126339373D01*
X159359373Y-126457837D01*
X159266295Y-126597139D01*
X159202184Y-126751917D01*
X159202182Y-126751925D01*
X159169500Y-126916228D01*
X159169500Y-126969576D01*
X159160061Y-127017028D01*
X159140500Y-127064251D01*
X159140497Y-127064261D01*
X159115500Y-127189928D01*
X159115500Y-130055068D01*
X159095815Y-130122107D01*
X159094602Y-130123959D01*
X159012295Y-130247139D01*
X158948184Y-130401917D01*
X158948182Y-130401925D01*
X158915500Y-130566228D01*
X138418263Y-130566228D01*
X138411557Y-130545588D01*
X138411555Y-130545585D01*
X138411555Y-130545583D01*
X138338357Y-130401925D01*
X138315051Y-130356184D01*
X138315049Y-130356181D01*
X138315048Y-130356179D01*
X138190109Y-130184213D01*
X138039786Y-130033890D01*
X137867820Y-129908951D01*
X137867115Y-129908591D01*
X137859054Y-129904485D01*
X137808259Y-129856512D01*
X137791463Y-129788692D01*
X137813999Y-129722556D01*
X137859054Y-129683515D01*
X137867816Y-129679051D01*
X137889789Y-129663086D01*
X138039786Y-129554109D01*
X138039788Y-129554106D01*
X138039792Y-129554104D01*
X138190104Y-129403792D01*
X138190106Y-129403788D01*
X138190109Y-129403786D01*
X138315048Y-129231820D01*
X138315047Y-129231820D01*
X138315051Y-129231816D01*
X138411557Y-129042412D01*
X138477246Y-128840243D01*
X138510500Y-128630287D01*
X138510500Y-128417713D01*
X138477246Y-128207757D01*
X138411557Y-128005588D01*
X138315051Y-127816184D01*
X138315049Y-127816181D01*
X138315048Y-127816179D01*
X138190109Y-127644213D01*
X138076569Y-127530673D01*
X138043084Y-127469350D01*
X138048068Y-127399658D01*
X138089940Y-127343725D01*
X138120915Y-127326810D01*
X138252331Y-127277796D01*
X138367546Y-127191546D01*
X138453796Y-127076331D01*
X138504091Y-126941483D01*
X138510500Y-126881873D01*
X138510499Y-125086128D01*
X138504091Y-125026517D01*
X138453796Y-124891669D01*
X138453795Y-124891668D01*
X138453793Y-124891664D01*
X138367547Y-124776455D01*
X138367544Y-124776452D01*
X138252335Y-124690206D01*
X138252328Y-124690202D01*
X138117482Y-124639908D01*
X138117483Y-124639908D01*
X138057883Y-124633501D01*
X138057881Y-124633500D01*
X138057873Y-124633500D01*
X138057864Y-124633500D01*
X136262129Y-124633500D01*
X136262123Y-124633501D01*
X136202516Y-124639908D01*
X136067671Y-124690202D01*
X136067669Y-124690203D01*
X135964311Y-124767578D01*
X135898847Y-124791995D01*
X135830574Y-124777144D01*
X135815689Y-124767578D01*
X135712330Y-124690203D01*
X135712328Y-124690202D01*
X135577482Y-124639908D01*
X135577483Y-124639908D01*
X135517883Y-124633501D01*
X135517881Y-124633500D01*
X135517873Y-124633500D01*
X135517864Y-124633500D01*
X133722129Y-124633500D01*
X133722123Y-124633501D01*
X133662515Y-124639909D01*
X133531832Y-124688650D01*
X133462141Y-124693634D01*
X133400818Y-124660148D01*
X133367334Y-124598825D01*
X133364500Y-124572468D01*
X133364500Y-120624500D01*
X133384185Y-120557461D01*
X133436989Y-120511706D01*
X133488500Y-120500500D01*
X166069500Y-120500500D01*
X166136539Y-120520185D01*
G37*
%TD.AperFunction*%
%TA.AperFunction,Conductor*%
G36*
X133569703Y-131921481D02*
G01*
X133588822Y-131942315D01*
X133589890Y-131943785D01*
X133589894Y-131943790D01*
X133740213Y-132094109D01*
X133912179Y-132219048D01*
X133912181Y-132219049D01*
X133912184Y-132219051D01*
X133921493Y-132223794D01*
X133972290Y-132271766D01*
X133989087Y-132339587D01*
X133966552Y-132405722D01*
X133921505Y-132444760D01*
X133912446Y-132449376D01*
X133912440Y-132449380D01*
X133858282Y-132488727D01*
X133858282Y-132488728D01*
X134490591Y-133121037D01*
X134427007Y-133138075D01*
X134312993Y-133203901D01*
X134219901Y-133296993D01*
X134154075Y-133411007D01*
X134137037Y-133474591D01*
X133504727Y-132842281D01*
X133498228Y-132842793D01*
X133429851Y-132828428D01*
X133380094Y-132779377D01*
X133364500Y-132719175D01*
X133364500Y-132015194D01*
X133384185Y-131948155D01*
X133436989Y-131902400D01*
X133506147Y-131892456D01*
X133569703Y-131921481D01*
G37*
%TD.AperFunction*%
%TA.AperFunction,Conductor*%
G36*
X135961444Y-131717999D02*
G01*
X136000486Y-131763056D01*
X136004951Y-131771820D01*
X136129890Y-131943786D01*
X136280213Y-132094109D01*
X136452179Y-132219048D01*
X136452181Y-132219049D01*
X136452184Y-132219051D01*
X136461493Y-132223794D01*
X136512290Y-132271766D01*
X136529087Y-132339587D01*
X136506552Y-132405722D01*
X136461505Y-132444760D01*
X136452446Y-132449376D01*
X136452440Y-132449380D01*
X136398282Y-132488727D01*
X136398282Y-132488728D01*
X137030591Y-133121037D01*
X136967007Y-133138075D01*
X136852993Y-133203901D01*
X136759901Y-133296993D01*
X136694075Y-133411007D01*
X136677037Y-133474591D01*
X136044728Y-132842282D01*
X136044727Y-132842282D01*
X136005380Y-132896440D01*
X136000483Y-132906051D01*
X135952506Y-132956845D01*
X135884684Y-132973638D01*
X135818550Y-132951098D01*
X135779516Y-132906048D01*
X135774626Y-132896452D01*
X135735270Y-132842282D01*
X135735269Y-132842282D01*
X135102962Y-133474590D01*
X135085925Y-133411007D01*
X135020099Y-133296993D01*
X134927007Y-133203901D01*
X134812993Y-133138075D01*
X134749409Y-133121037D01*
X135381716Y-132488728D01*
X135327547Y-132449373D01*
X135327547Y-132449372D01*
X135318500Y-132444763D01*
X135267706Y-132396788D01*
X135250912Y-132328966D01*
X135273451Y-132262832D01*
X135318508Y-132223793D01*
X135327816Y-132219051D01*
X135434082Y-132141845D01*
X135499786Y-132094109D01*
X135499788Y-132094106D01*
X135499792Y-132094104D01*
X135650104Y-131943792D01*
X135650106Y-131943788D01*
X135650109Y-131943786D01*
X135775048Y-131771820D01*
X135775047Y-131771820D01*
X135775051Y-131771816D01*
X135779514Y-131763054D01*
X135827488Y-131712259D01*
X135895308Y-131695463D01*
X135961444Y-131717999D01*
G37*
%TD.AperFunction*%
%TD*%
M02*
