%TF.GenerationSoftware,KiCad,Pcbnew,9.0.1-9.0.1-0~ubuntu24.10.1*%
%TF.CreationDate,2025-04-24T18:54:48+02:00*%
%TF.ProjectId,usb_uart_1V8,7573625f-7561-4727-945f-3156382e6b69,0.5*%
%TF.SameCoordinates,Original*%
%TF.FileFunction,Paste,Top*%
%TF.FilePolarity,Positive*%
%FSLAX46Y46*%
G04 Gerber Fmt 4.6, Leading zero omitted, Abs format (unit mm)*
G04 Created by KiCad (PCBNEW 9.0.1-9.0.1-0~ubuntu24.10.1) date 2025-04-24 18:54:48*
%MOMM*%
%LPD*%
G01*
G04 APERTURE LIST*
G04 Aperture macros list*
%AMRoundRect*
0 Rectangle with rounded corners*
0 $1 Rounding radius*
0 $2 $3 $4 $5 $6 $7 $8 $9 X,Y pos of 4 corners*
0 Add a 4 corners polygon primitive as box body*
4,1,4,$2,$3,$4,$5,$6,$7,$8,$9,$2,$3,0*
0 Add four circle primitives for the rounded corners*
1,1,$1+$1,$2,$3*
1,1,$1+$1,$4,$5*
1,1,$1+$1,$6,$7*
1,1,$1+$1,$8,$9*
0 Add four rect primitives between the rounded corners*
20,1,$1+$1,$2,$3,$4,$5,0*
20,1,$1+$1,$4,$5,$6,$7,0*
20,1,$1+$1,$6,$7,$8,$9,0*
20,1,$1+$1,$8,$9,$2,$3,0*%
G04 Aperture macros list end*
%ADD10RoundRect,0.155000X0.155000X-0.212500X0.155000X0.212500X-0.155000X0.212500X-0.155000X-0.212500X0*%
%ADD11RoundRect,0.155000X-0.155000X0.212500X-0.155000X-0.212500X0.155000X-0.212500X0.155000X0.212500X0*%
%ADD12RoundRect,0.150000X0.425000X-0.150000X0.425000X0.150000X-0.425000X0.150000X-0.425000X-0.150000X0*%
%ADD13RoundRect,0.075000X0.500000X-0.075000X0.500000X0.075000X-0.500000X0.075000X-0.500000X-0.075000X0*%
%ADD14O,2.100000X1.000000*%
%ADD15O,1.800000X1.000000*%
%ADD16RoundRect,0.250000X-0.450000X0.262500X-0.450000X-0.262500X0.450000X-0.262500X0.450000X0.262500X0*%
%ADD17RoundRect,0.160000X0.160000X-0.197500X0.160000X0.197500X-0.160000X0.197500X-0.160000X-0.197500X0*%
%ADD18RoundRect,0.150000X-0.587500X-0.150000X0.587500X-0.150000X0.587500X0.150000X-0.587500X0.150000X0*%
%ADD19RoundRect,0.243750X-0.243750X-0.456250X0.243750X-0.456250X0.243750X0.456250X-0.243750X0.456250X0*%
%ADD20RoundRect,0.237500X-0.237500X0.250000X-0.237500X-0.250000X0.237500X-0.250000X0.237500X0.250000X0*%
%ADD21RoundRect,0.140000X-0.140000X-0.170000X0.140000X-0.170000X0.140000X0.170000X-0.140000X0.170000X0*%
%ADD22RoundRect,0.250000X-0.325000X-0.650000X0.325000X-0.650000X0.325000X0.650000X-0.325000X0.650000X0*%
%ADD23RoundRect,0.140000X0.140000X0.170000X-0.140000X0.170000X-0.140000X-0.170000X0.140000X-0.170000X0*%
%ADD24RoundRect,0.140000X0.170000X-0.140000X0.170000X0.140000X-0.170000X0.140000X-0.170000X-0.140000X0*%
%ADD25RoundRect,0.237500X0.250000X0.237500X-0.250000X0.237500X-0.250000X-0.237500X0.250000X-0.237500X0*%
%ADD26RoundRect,0.140000X-0.170000X0.140000X-0.170000X-0.140000X0.170000X-0.140000X0.170000X0.140000X0*%
%ADD27RoundRect,0.160000X-0.160000X0.197500X-0.160000X-0.197500X0.160000X-0.197500X0.160000X0.197500X0*%
%ADD28RoundRect,0.087500X0.087500X-0.537500X0.087500X0.537500X-0.087500X0.537500X-0.087500X-0.537500X0*%
%ADD29R,0.450000X1.750000*%
%ADD30RoundRect,0.243750X0.243750X0.456250X-0.243750X0.456250X-0.243750X-0.456250X0.243750X-0.456250X0*%
G04 APERTURE END LIST*
D10*
%TO.C,R10*%
X159766000Y-126043500D03*
X159766000Y-124908500D03*
%TD*%
D11*
%TO.C,R9*%
X159766000Y-131258500D03*
X159766000Y-132393500D03*
%TD*%
D12*
%TO.C,J1*%
X161928000Y-132740000D03*
X161928000Y-131940000D03*
D13*
X161928000Y-130790000D03*
X161928000Y-129790000D03*
X161928000Y-129290000D03*
X161928000Y-128290000D03*
D12*
X161928000Y-127140000D03*
X161928000Y-126340000D03*
X161928000Y-126340000D03*
X161928000Y-127140000D03*
D13*
X161928000Y-127790000D03*
X161928000Y-128790000D03*
X161928000Y-130290000D03*
X161928000Y-131290000D03*
D12*
X161928000Y-131940000D03*
X161928000Y-132740000D03*
D14*
X162503000Y-133860000D03*
D15*
X166683000Y-133860000D03*
D14*
X162503000Y-125220000D03*
D15*
X166683000Y-125220000D03*
%TD*%
D16*
%TO.C,FB1*%
X160020000Y-135953500D03*
X160020000Y-137778500D03*
%TD*%
D17*
%TO.C,R6*%
X140303000Y-133185500D03*
X140303000Y-131990500D03*
%TD*%
D18*
%TO.C,Q1*%
X142917758Y-125917742D03*
X142917758Y-127817742D03*
X144792758Y-126867742D03*
%TD*%
D19*
%TO.C,D2*%
X153748500Y-122428000D03*
X155623500Y-122428000D03*
%TD*%
D20*
%TO.C,R1*%
X167894000Y-121261500D03*
X167894000Y-123086500D03*
%TD*%
%TO.C,R7*%
X140221258Y-122531500D03*
X140221258Y-124356500D03*
%TD*%
D21*
%TO.C,C5*%
X142289000Y-130812258D03*
X143249000Y-130812258D03*
%TD*%
D19*
%TO.C,D4*%
X144187758Y-123444000D03*
X146062758Y-123444000D03*
%TD*%
D20*
%TO.C,R8*%
X140221258Y-126087500D03*
X140221258Y-127912500D03*
%TD*%
D22*
%TO.C,C2*%
X164641000Y-136652000D03*
X167591000Y-136652000D03*
%TD*%
D23*
%TO.C,C4*%
X143249000Y-137416258D03*
X142289000Y-137416258D03*
%TD*%
D24*
%TO.C,C1*%
X162560000Y-137346000D03*
X162560000Y-136386000D03*
%TD*%
D25*
%TO.C,R2*%
X151280500Y-122428000D03*
X149455500Y-122428000D03*
%TD*%
D26*
%TO.C,C3*%
X146304000Y-128806000D03*
X146304000Y-129766000D03*
%TD*%
D25*
%TO.C,R3*%
X151280500Y-125222000D03*
X149455500Y-125222000D03*
%TD*%
D19*
%TO.C,D3*%
X153748500Y-125222000D03*
X155623500Y-125222000D03*
%TD*%
D17*
%TO.C,R4*%
X145309000Y-136743758D03*
X145309000Y-135548758D03*
%TD*%
D24*
%TO.C,C6*%
X137668000Y-123670000D03*
X137668000Y-122710000D03*
%TD*%
D27*
%TO.C,R5*%
X145563000Y-131484758D03*
X145563000Y-132679758D03*
%TD*%
D28*
%TO.C,U2*%
X142097000Y-135382000D03*
X142597000Y-135382000D03*
X143097000Y-135382000D03*
X143597000Y-135382000D03*
X143597000Y-132582000D03*
X143097000Y-132582000D03*
X142597000Y-132582000D03*
X142097000Y-132582000D03*
%TD*%
D29*
%TO.C,U1*%
X148429000Y-135735742D03*
X149079000Y-135735742D03*
X149729000Y-135735742D03*
X150379000Y-135735742D03*
X151029000Y-135735742D03*
X151679000Y-135735742D03*
X152329000Y-135735742D03*
X152979000Y-135735742D03*
X153629000Y-135735742D03*
X154279000Y-135735742D03*
X154929000Y-135735742D03*
X155579000Y-135735742D03*
X156229000Y-135735742D03*
X156879000Y-135735742D03*
X156879000Y-128535742D03*
X156229000Y-128535742D03*
X155579000Y-128535742D03*
X154929000Y-128535742D03*
X154279000Y-128535742D03*
X153629000Y-128535742D03*
X152979000Y-128535742D03*
X152329000Y-128535742D03*
X151679000Y-128535742D03*
X151029000Y-128535742D03*
X150379000Y-128535742D03*
X149729000Y-128535742D03*
X149079000Y-128535742D03*
X148429000Y-128535742D03*
%TD*%
D30*
%TO.C,D1*%
X165529500Y-121666000D03*
X163654500Y-121666000D03*
%TD*%
M02*
