%TF.GenerationSoftware,KiCad,Pcbnew,9.0.1-9.0.1-0~ubuntu24.10.1*%
%TF.CreationDate,2025-04-24T18:54:48+02:00*%
%TF.ProjectId,usb_uart_1V8,7573625f-7561-4727-945f-3156382e6b69,0.5*%
%TF.SameCoordinates,Original*%
%TF.FileFunction,Legend,Bot*%
%TF.FilePolarity,Positive*%
%FSLAX46Y46*%
G04 Gerber Fmt 4.6, Leading zero omitted, Abs format (unit mm)*
G04 Created by KiCad (PCBNEW 9.0.1-9.0.1-0~ubuntu24.10.1) date 2025-04-24 18:54:48*
%MOMM*%
%LPD*%
G01*
G04 APERTURE LIST*
%ADD10C,0.153000*%
%ADD11C,0.000000*%
G04 APERTURE END LIST*
D10*
X144187247Y-137045663D02*
X144187247Y-137855186D01*
X144187247Y-137855186D02*
X144139628Y-137950424D01*
X144139628Y-137950424D02*
X144092009Y-137998044D01*
X144092009Y-137998044D02*
X143996771Y-138045663D01*
X143996771Y-138045663D02*
X143806295Y-138045663D01*
X143806295Y-138045663D02*
X143711057Y-137998044D01*
X143711057Y-137998044D02*
X143663438Y-137950424D01*
X143663438Y-137950424D02*
X143615819Y-137855186D01*
X143615819Y-137855186D02*
X143615819Y-137045663D01*
X143187247Y-137998044D02*
X143044390Y-138045663D01*
X143044390Y-138045663D02*
X142806295Y-138045663D01*
X142806295Y-138045663D02*
X142711057Y-137998044D01*
X142711057Y-137998044D02*
X142663438Y-137950424D01*
X142663438Y-137950424D02*
X142615819Y-137855186D01*
X142615819Y-137855186D02*
X142615819Y-137759948D01*
X142615819Y-137759948D02*
X142663438Y-137664710D01*
X142663438Y-137664710D02*
X142711057Y-137617091D01*
X142711057Y-137617091D02*
X142806295Y-137569472D01*
X142806295Y-137569472D02*
X142996771Y-137521853D01*
X142996771Y-137521853D02*
X143092009Y-137474234D01*
X143092009Y-137474234D02*
X143139628Y-137426615D01*
X143139628Y-137426615D02*
X143187247Y-137331377D01*
X143187247Y-137331377D02*
X143187247Y-137236139D01*
X143187247Y-137236139D02*
X143139628Y-137140901D01*
X143139628Y-137140901D02*
X143092009Y-137093282D01*
X143092009Y-137093282D02*
X142996771Y-137045663D01*
X142996771Y-137045663D02*
X142758676Y-137045663D01*
X142758676Y-137045663D02*
X142615819Y-137093282D01*
X141853914Y-137521853D02*
X141711057Y-137569472D01*
X141711057Y-137569472D02*
X141663438Y-137617091D01*
X141663438Y-137617091D02*
X141615819Y-137712329D01*
X141615819Y-137712329D02*
X141615819Y-137855186D01*
X141615819Y-137855186D02*
X141663438Y-137950424D01*
X141663438Y-137950424D02*
X141711057Y-137998044D01*
X141711057Y-137998044D02*
X141806295Y-138045663D01*
X141806295Y-138045663D02*
X142187247Y-138045663D01*
X142187247Y-138045663D02*
X142187247Y-137045663D01*
X142187247Y-137045663D02*
X141853914Y-137045663D01*
X141853914Y-137045663D02*
X141758676Y-137093282D01*
X141758676Y-137093282D02*
X141711057Y-137140901D01*
X141711057Y-137140901D02*
X141663438Y-137236139D01*
X141663438Y-137236139D02*
X141663438Y-137331377D01*
X141663438Y-137331377D02*
X141711057Y-137426615D01*
X141711057Y-137426615D02*
X141758676Y-137474234D01*
X141758676Y-137474234D02*
X141853914Y-137521853D01*
X141853914Y-137521853D02*
X142187247Y-137521853D01*
X140472962Y-136998044D02*
X141330104Y-138283758D01*
X140139628Y-137045663D02*
X140139628Y-137855186D01*
X140139628Y-137855186D02*
X140092009Y-137950424D01*
X140092009Y-137950424D02*
X140044390Y-137998044D01*
X140044390Y-137998044D02*
X139949152Y-138045663D01*
X139949152Y-138045663D02*
X139758676Y-138045663D01*
X139758676Y-138045663D02*
X139663438Y-137998044D01*
X139663438Y-137998044D02*
X139615819Y-137950424D01*
X139615819Y-137950424D02*
X139568200Y-137855186D01*
X139568200Y-137855186D02*
X139568200Y-137045663D01*
X138663438Y-138045663D02*
X138663438Y-137521853D01*
X138663438Y-137521853D02*
X138711057Y-137426615D01*
X138711057Y-137426615D02*
X138806295Y-137378996D01*
X138806295Y-137378996D02*
X138996771Y-137378996D01*
X138996771Y-137378996D02*
X139092009Y-137426615D01*
X138663438Y-137998044D02*
X138758676Y-138045663D01*
X138758676Y-138045663D02*
X138996771Y-138045663D01*
X138996771Y-138045663D02*
X139092009Y-137998044D01*
X139092009Y-137998044D02*
X139139628Y-137902805D01*
X139139628Y-137902805D02*
X139139628Y-137807567D01*
X139139628Y-137807567D02*
X139092009Y-137712329D01*
X139092009Y-137712329D02*
X138996771Y-137664710D01*
X138996771Y-137664710D02*
X138758676Y-137664710D01*
X138758676Y-137664710D02*
X138663438Y-137617091D01*
X138187247Y-138045663D02*
X138187247Y-137378996D01*
X138187247Y-137569472D02*
X138139628Y-137474234D01*
X138139628Y-137474234D02*
X138092009Y-137426615D01*
X138092009Y-137426615D02*
X137996771Y-137378996D01*
X137996771Y-137378996D02*
X137901533Y-137378996D01*
X137711056Y-137378996D02*
X137330104Y-137378996D01*
X137568199Y-137045663D02*
X137568199Y-137902805D01*
X137568199Y-137902805D02*
X137520580Y-137998044D01*
X137520580Y-137998044D02*
X137425342Y-138045663D01*
X137425342Y-138045663D02*
X137330104Y-138045663D01*
X136330103Y-137378996D02*
X136092008Y-138045663D01*
X136092008Y-138045663D02*
X135853913Y-137378996D01*
X135282484Y-137045663D02*
X135187246Y-137045663D01*
X135187246Y-137045663D02*
X135092008Y-137093282D01*
X135092008Y-137093282D02*
X135044389Y-137140901D01*
X135044389Y-137140901D02*
X134996770Y-137236139D01*
X134996770Y-137236139D02*
X134949151Y-137426615D01*
X134949151Y-137426615D02*
X134949151Y-137664710D01*
X134949151Y-137664710D02*
X134996770Y-137855186D01*
X134996770Y-137855186D02*
X135044389Y-137950424D01*
X135044389Y-137950424D02*
X135092008Y-137998044D01*
X135092008Y-137998044D02*
X135187246Y-138045663D01*
X135187246Y-138045663D02*
X135282484Y-138045663D01*
X135282484Y-138045663D02*
X135377722Y-137998044D01*
X135377722Y-137998044D02*
X135425341Y-137950424D01*
X135425341Y-137950424D02*
X135472960Y-137855186D01*
X135472960Y-137855186D02*
X135520579Y-137664710D01*
X135520579Y-137664710D02*
X135520579Y-137426615D01*
X135520579Y-137426615D02*
X135472960Y-137236139D01*
X135472960Y-137236139D02*
X135425341Y-137140901D01*
X135425341Y-137140901D02*
X135377722Y-137093282D01*
X135377722Y-137093282D02*
X135282484Y-137045663D01*
X134520579Y-137950424D02*
X134472960Y-137998044D01*
X134472960Y-137998044D02*
X134520579Y-138045663D01*
X134520579Y-138045663D02*
X134568198Y-137998044D01*
X134568198Y-137998044D02*
X134520579Y-137950424D01*
X134520579Y-137950424D02*
X134520579Y-138045663D01*
X133568199Y-137045663D02*
X134044389Y-137045663D01*
X134044389Y-137045663D02*
X134092008Y-137521853D01*
X134092008Y-137521853D02*
X134044389Y-137474234D01*
X134044389Y-137474234D02*
X133949151Y-137426615D01*
X133949151Y-137426615D02*
X133711056Y-137426615D01*
X133711056Y-137426615D02*
X133615818Y-137474234D01*
X133615818Y-137474234D02*
X133568199Y-137521853D01*
X133568199Y-137521853D02*
X133520580Y-137617091D01*
X133520580Y-137617091D02*
X133520580Y-137855186D01*
X133520580Y-137855186D02*
X133568199Y-137950424D01*
X133568199Y-137950424D02*
X133615818Y-137998044D01*
X133615818Y-137998044D02*
X133711056Y-138045663D01*
X133711056Y-138045663D02*
X133949151Y-138045663D01*
X133949151Y-138045663D02*
X134044389Y-137998044D01*
X134044389Y-137998044D02*
X134092008Y-137950424D01*
D11*
%TO.C,G\u002A\u002A\u002A*%
G36*
X151716622Y-123302477D02*
G01*
X151831539Y-123303148D01*
X151930305Y-123304779D01*
X152016026Y-123307623D01*
X152091812Y-123311935D01*
X152160769Y-123317970D01*
X152226007Y-123325983D01*
X152290633Y-123336228D01*
X152357755Y-123348959D01*
X152430480Y-123364432D01*
X152571285Y-123399214D01*
X152779960Y-123464940D01*
X152983271Y-123546670D01*
X153181696Y-123644798D01*
X153375714Y-123759716D01*
X153565803Y-123891816D01*
X153752441Y-124041489D01*
X153936105Y-124209129D01*
X154117274Y-124395127D01*
X154296426Y-124599877D01*
X154474038Y-124823769D01*
X154650589Y-125067196D01*
X154826557Y-125330551D01*
X154831844Y-125338790D01*
X154864959Y-125390999D01*
X154902139Y-125450471D01*
X154942039Y-125514975D01*
X154983318Y-125582281D01*
X155024631Y-125650159D01*
X155064637Y-125716379D01*
X155101992Y-125778711D01*
X155135353Y-125834924D01*
X155163377Y-125882789D01*
X155184721Y-125920075D01*
X155198042Y-125944552D01*
X155201997Y-125953991D01*
X155198229Y-125951077D01*
X155181817Y-125935474D01*
X155153742Y-125907714D01*
X155115449Y-125869256D01*
X155068384Y-125821562D01*
X155013992Y-125766093D01*
X154953718Y-125704308D01*
X154889008Y-125637669D01*
X154825154Y-125572096D01*
X154717175Y-125462555D01*
X154607132Y-125352459D01*
X154497295Y-125244014D01*
X154389935Y-125139426D01*
X154287323Y-125040900D01*
X154191730Y-124950644D01*
X154105425Y-124870862D01*
X154030680Y-124803761D01*
X153854882Y-124653317D01*
X153633413Y-124476569D01*
X153417014Y-124318711D01*
X153205144Y-124179453D01*
X152997261Y-124058504D01*
X152792823Y-123955577D01*
X152591288Y-123870381D01*
X152392114Y-123802627D01*
X152194759Y-123752026D01*
X151998680Y-123718287D01*
X151990911Y-123717325D01*
X151931264Y-123711932D01*
X151856011Y-123707703D01*
X151769191Y-123704666D01*
X151674844Y-123702848D01*
X151577009Y-123702278D01*
X151479728Y-123702982D01*
X151387039Y-123704989D01*
X151302984Y-123708326D01*
X151231600Y-123713021D01*
X151077700Y-123728337D01*
X150819092Y-123765568D01*
X150573841Y-123816423D01*
X150340412Y-123881413D01*
X150117273Y-123961053D01*
X149902887Y-124055852D01*
X149695721Y-124166325D01*
X149494240Y-124292982D01*
X149446388Y-124325811D01*
X149378412Y-124374201D01*
X149313289Y-124423089D01*
X149248946Y-124474285D01*
X149183310Y-124529599D01*
X149114308Y-124590840D01*
X149039866Y-124659818D01*
X148957911Y-124738345D01*
X148866371Y-124828229D01*
X148763171Y-124931281D01*
X148703569Y-124991183D01*
X148630448Y-125064554D01*
X148570766Y-125123947D01*
X148523950Y-125169562D01*
X148489428Y-125201601D01*
X148466627Y-125220269D01*
X148454976Y-125225766D01*
X148453901Y-125218295D01*
X148462830Y-125198058D01*
X148481191Y-125165258D01*
X148508411Y-125120098D01*
X148543918Y-125062778D01*
X148587140Y-124993503D01*
X148726809Y-124782314D01*
X148892271Y-124561999D01*
X149066759Y-124359804D01*
X149250456Y-124175596D01*
X149443549Y-124009239D01*
X149646222Y-123860600D01*
X149858662Y-123729542D01*
X150081053Y-123615933D01*
X150313580Y-123519637D01*
X150556429Y-123440520D01*
X150809785Y-123378446D01*
X150902787Y-123359817D01*
X150991810Y-123343699D01*
X151075644Y-123330776D01*
X151157929Y-123320730D01*
X151242306Y-123313239D01*
X151332417Y-123307983D01*
X151431902Y-123304642D01*
X151544403Y-123302895D01*
X151673560Y-123302422D01*
X151716622Y-123302477D01*
G37*
G36*
X155768245Y-134117427D02*
G01*
X155766709Y-134129576D01*
X155760872Y-134155603D01*
X155751781Y-134190740D01*
X155683859Y-134418542D01*
X155580962Y-134707724D01*
X155460589Y-134994788D01*
X155324190Y-135276775D01*
X155173216Y-135550730D01*
X155009116Y-135813698D01*
X154833343Y-136062720D01*
X154645809Y-136298527D01*
X154448319Y-136519977D01*
X154242599Y-136725219D01*
X154029285Y-136913851D01*
X153809011Y-137085470D01*
X153582415Y-137239673D01*
X153350132Y-137376058D01*
X153112799Y-137494223D01*
X152871051Y-137593764D01*
X152625525Y-137674280D01*
X152376856Y-137735367D01*
X152125680Y-137776622D01*
X152118660Y-137777452D01*
X152062423Y-137782289D01*
X151993056Y-137785880D01*
X151914735Y-137788226D01*
X151831638Y-137789330D01*
X151747941Y-137789194D01*
X151667819Y-137787820D01*
X151595451Y-137785210D01*
X151535013Y-137781367D01*
X151490680Y-137776292D01*
X151481008Y-137774700D01*
X151258916Y-137730479D01*
X151028172Y-137670499D01*
X150791521Y-137595698D01*
X150551708Y-137507015D01*
X150311477Y-137405389D01*
X150073573Y-137291758D01*
X149980747Y-137243849D01*
X149737844Y-137108908D01*
X149509980Y-136967889D01*
X149297898Y-136821390D01*
X149102340Y-136670005D01*
X148924045Y-136514330D01*
X148763757Y-136354961D01*
X148622216Y-136192494D01*
X148500164Y-136027525D01*
X148496600Y-136022234D01*
X148470312Y-135982480D01*
X148449411Y-135949612D01*
X148435939Y-135926916D01*
X148431936Y-135917678D01*
X148432158Y-135917654D01*
X148443371Y-135922961D01*
X148469927Y-135937341D01*
X148509888Y-135959693D01*
X148561315Y-135988917D01*
X148622271Y-136023912D01*
X148690817Y-136063577D01*
X148765013Y-136106811D01*
X148914151Y-136193515D01*
X149139993Y-136322652D01*
X149351525Y-136440632D01*
X149550022Y-136547989D01*
X149736757Y-136645257D01*
X149913005Y-136732968D01*
X150080038Y-136811658D01*
X150239132Y-136881860D01*
X150391561Y-136944107D01*
X150538597Y-136998934D01*
X150681515Y-137046873D01*
X150821589Y-137088459D01*
X150960092Y-137124226D01*
X151098299Y-137154706D01*
X151237484Y-137180434D01*
X151378920Y-137201944D01*
X151422087Y-137206784D01*
X151494785Y-137212201D01*
X151580581Y-137216349D01*
X151675356Y-137219199D01*
X151774990Y-137220725D01*
X151875364Y-137220899D01*
X151972360Y-137219692D01*
X152061857Y-137217076D01*
X152139737Y-137213025D01*
X152201880Y-137207509D01*
X152300453Y-137194830D01*
X152566433Y-137149574D01*
X152819514Y-137089373D01*
X153060938Y-137013641D01*
X153291949Y-136921791D01*
X153513789Y-136813235D01*
X153727701Y-136687388D01*
X153934926Y-136543661D01*
X154136709Y-136381468D01*
X154334291Y-136200223D01*
X154388333Y-136146747D01*
X154484170Y-136047665D01*
X154577747Y-135945003D01*
X154669931Y-135837509D01*
X154761591Y-135723929D01*
X154853596Y-135603012D01*
X154946813Y-135473504D01*
X155042111Y-135334154D01*
X155140358Y-135183709D01*
X155242423Y-135020917D01*
X155349173Y-134844524D01*
X155461478Y-134653279D01*
X155580204Y-134445928D01*
X155706222Y-134221220D01*
X155728548Y-134181578D01*
X155747998Y-134148073D01*
X155761827Y-134125410D01*
X155767965Y-134117080D01*
X155768245Y-134117427D01*
G37*
G36*
X148602074Y-125981516D02*
G01*
X148637587Y-125986386D01*
X148691207Y-125995188D01*
X148762147Y-126007765D01*
X148849619Y-126023962D01*
X148952837Y-126043622D01*
X149071014Y-126066589D01*
X149203362Y-126092707D01*
X149349095Y-126121821D01*
X149507426Y-126153773D01*
X149677566Y-126188407D01*
X149858730Y-126225569D01*
X150050131Y-126265101D01*
X150250981Y-126306848D01*
X150460493Y-126350653D01*
X150677880Y-126396360D01*
X151293554Y-126530427D01*
X151963232Y-126686513D01*
X152617743Y-126850258D01*
X153259248Y-127022282D01*
X153889901Y-127203207D01*
X154511862Y-127393654D01*
X155127287Y-127594244D01*
X155738334Y-127805597D01*
X156347160Y-128028335D01*
X156628984Y-128135814D01*
X157033000Y-128295516D01*
X157427913Y-128458318D01*
X157812488Y-128623637D01*
X158185493Y-128790893D01*
X158545693Y-128959503D01*
X158891855Y-129128886D01*
X159222744Y-129298461D01*
X159537127Y-129467647D01*
X159833771Y-129635860D01*
X160111440Y-129802521D01*
X160189808Y-129851502D01*
X160303921Y-129924284D01*
X160423280Y-130001895D01*
X160545057Y-130082418D01*
X160666423Y-130163934D01*
X160784550Y-130244523D01*
X160896608Y-130322267D01*
X160999768Y-130395247D01*
X161091202Y-130461544D01*
X161168080Y-130519239D01*
X161176892Y-130526045D01*
X161216007Y-130556900D01*
X161259089Y-130591703D01*
X161303309Y-130628072D01*
X161345834Y-130663624D01*
X161383837Y-130695980D01*
X161414485Y-130722758D01*
X161434950Y-130741576D01*
X161442400Y-130750053D01*
X161442268Y-130750625D01*
X161439772Y-130751113D01*
X161432782Y-130749165D01*
X161419560Y-130744001D01*
X161398373Y-130734843D01*
X161367484Y-130720912D01*
X161325157Y-130701429D01*
X161269658Y-130675615D01*
X161199251Y-130642693D01*
X161112200Y-130601882D01*
X161103859Y-130597971D01*
X160858474Y-130484614D01*
X160594464Y-130365764D01*
X160312644Y-130241735D01*
X160013830Y-130112838D01*
X159698836Y-129979389D01*
X159368479Y-129841700D01*
X159023573Y-129700084D01*
X158664934Y-129554854D01*
X158293378Y-129406324D01*
X157909719Y-129254807D01*
X157514773Y-129100616D01*
X157109356Y-128944064D01*
X156694283Y-128785465D01*
X156270368Y-128625132D01*
X155838429Y-128463378D01*
X155399279Y-128300517D01*
X154953734Y-128136861D01*
X154502610Y-127972724D01*
X154046722Y-127808419D01*
X153586886Y-127644259D01*
X153123916Y-127480558D01*
X152658628Y-127317629D01*
X152191838Y-127155785D01*
X151724360Y-126995339D01*
X151572937Y-126943724D01*
X151400023Y-126885038D01*
X151233808Y-126828944D01*
X151072548Y-126774882D01*
X150914499Y-126722291D01*
X150757916Y-126670610D01*
X150601054Y-126619278D01*
X150442169Y-126567735D01*
X150279517Y-126515419D01*
X150111351Y-126461771D01*
X149935929Y-126406229D01*
X149751506Y-126348233D01*
X149556336Y-126287222D01*
X149348675Y-126222634D01*
X149126780Y-126153911D01*
X148888904Y-126080490D01*
X148633304Y-126001810D01*
X148611599Y-125994627D01*
X148590727Y-125986170D01*
X148584380Y-125981154D01*
X148585454Y-125980733D01*
X148602074Y-125981516D01*
G37*
G36*
X151277613Y-129669050D02*
G01*
X151279468Y-129675221D01*
X151279530Y-129699898D01*
X151276230Y-129740500D01*
X151269962Y-129794546D01*
X151261118Y-129859552D01*
X151250090Y-129933033D01*
X151237270Y-130012508D01*
X151223052Y-130095493D01*
X151207828Y-130179504D01*
X151191990Y-130262059D01*
X151175931Y-130340674D01*
X151160044Y-130412865D01*
X151138759Y-130499910D01*
X151079863Y-130704034D01*
X151006889Y-130916766D01*
X150921102Y-131135305D01*
X150823769Y-131356853D01*
X150716155Y-131578612D01*
X150599524Y-131797782D01*
X150475144Y-132011565D01*
X150344278Y-132217160D01*
X150296909Y-132287458D01*
X150146285Y-132500609D01*
X149991255Y-132703818D01*
X149828223Y-132901500D01*
X149653591Y-133098072D01*
X149463760Y-133297949D01*
X149462038Y-133299709D01*
X149252280Y-133507762D01*
X149038845Y-133706752D01*
X148818510Y-133899409D01*
X148588052Y-134088463D01*
X148344247Y-134276644D01*
X148083870Y-134466684D01*
X148072731Y-134474580D01*
X148009288Y-134518756D01*
X147935236Y-134569264D01*
X147853984Y-134623863D01*
X147768946Y-134680310D01*
X147683532Y-134736365D01*
X147601156Y-134789785D01*
X147525227Y-134838330D01*
X147459158Y-134879757D01*
X147406360Y-134911825D01*
X147344108Y-134948171D01*
X147251958Y-135000588D01*
X147150606Y-135056908D01*
X147041476Y-135116418D01*
X146925995Y-135178405D01*
X146805588Y-135242157D01*
X146681682Y-135306960D01*
X146555702Y-135372102D01*
X146429075Y-135436871D01*
X146303226Y-135500554D01*
X146179581Y-135562438D01*
X146059566Y-135621810D01*
X145944607Y-135677959D01*
X145836130Y-135730170D01*
X145735560Y-135777733D01*
X145644324Y-135819933D01*
X145563847Y-135856058D01*
X145495556Y-135885397D01*
X145440876Y-135907235D01*
X145401233Y-135920860D01*
X145378052Y-135925560D01*
X145373907Y-135924416D01*
X145375323Y-135917423D01*
X145387534Y-135903370D01*
X145411484Y-135881450D01*
X145448120Y-135850855D01*
X145498387Y-135810778D01*
X145563232Y-135760413D01*
X145643600Y-135698953D01*
X145701443Y-135654945D01*
X145802719Y-135577830D01*
X145890976Y-135510512D01*
X145968316Y-135451360D01*
X146036841Y-135398746D01*
X146098653Y-135351039D01*
X146155853Y-135306610D01*
X146210543Y-135263830D01*
X146264825Y-135221068D01*
X146320801Y-135176694D01*
X146380572Y-135129080D01*
X146446240Y-135076595D01*
X146556741Y-134987673D01*
X146914002Y-134693127D01*
X147263854Y-134393904D01*
X147605589Y-134090788D01*
X147938498Y-133784565D01*
X148261875Y-133476017D01*
X148575011Y-133165928D01*
X148877199Y-132855083D01*
X149167730Y-132544265D01*
X149445896Y-132234258D01*
X149710990Y-131925846D01*
X149962304Y-131619814D01*
X150199130Y-131316944D01*
X150420759Y-131018021D01*
X150626485Y-130723829D01*
X150815599Y-130435152D01*
X150987393Y-130152774D01*
X151141159Y-129877478D01*
X151142772Y-129874449D01*
X151182204Y-129801532D01*
X151213785Y-129745719D01*
X151238315Y-129705787D01*
X151256596Y-129680514D01*
X151269429Y-129668676D01*
X151277613Y-129669050D01*
G37*
G36*
X159009974Y-132298936D02*
G01*
X159011892Y-132303496D01*
X159001698Y-132313469D01*
X158978203Y-132329639D01*
X158940221Y-132352788D01*
X158886562Y-132383701D01*
X158816040Y-132423161D01*
X158641092Y-132519021D01*
X158153498Y-132774889D01*
X157648220Y-133024130D01*
X157126518Y-133266309D01*
X156589649Y-133500989D01*
X156038871Y-133727735D01*
X155475442Y-133946110D01*
X154900620Y-134155679D01*
X154315664Y-134356006D01*
X153721832Y-134546655D01*
X153120381Y-134727189D01*
X152512569Y-134897174D01*
X151899655Y-135056174D01*
X151282897Y-135203751D01*
X150663553Y-135339471D01*
X150042880Y-135462898D01*
X150006599Y-135469708D01*
X149847604Y-135498809D01*
X149680976Y-135528200D01*
X149508250Y-135557664D01*
X149330962Y-135586989D01*
X149150648Y-135615959D01*
X148968841Y-135644361D01*
X148787079Y-135671979D01*
X148606896Y-135698600D01*
X148429828Y-135724009D01*
X148257409Y-135747991D01*
X148091177Y-135770333D01*
X147932665Y-135790820D01*
X147783409Y-135809237D01*
X147644945Y-135825371D01*
X147518808Y-135839006D01*
X147406533Y-135849929D01*
X147309656Y-135857924D01*
X147229712Y-135862779D01*
X147168237Y-135864277D01*
X147134173Y-135863685D01*
X147116089Y-135861690D01*
X147112393Y-135857401D01*
X147120075Y-135849920D01*
X147124523Y-135846808D01*
X147132050Y-135842423D01*
X147142294Y-135837446D01*
X147156097Y-135831625D01*
X147174297Y-135824708D01*
X147197737Y-135816444D01*
X147227255Y-135806580D01*
X147263693Y-135794866D01*
X147307891Y-135781049D01*
X147360690Y-135764877D01*
X147422929Y-135746100D01*
X147495449Y-135724465D01*
X147579090Y-135699721D01*
X147674694Y-135671616D01*
X147783100Y-135639898D01*
X147905149Y-135604315D01*
X148041680Y-135564617D01*
X148193536Y-135520550D01*
X148361555Y-135471864D01*
X148546579Y-135418307D01*
X148749447Y-135359626D01*
X148971000Y-135295571D01*
X149208841Y-135226787D01*
X149856893Y-135039033D01*
X150485763Y-134856329D01*
X151095790Y-134678576D01*
X151687315Y-134505671D01*
X152260678Y-134337513D01*
X152816220Y-134174000D01*
X153354281Y-134015030D01*
X153875201Y-133860503D01*
X154379322Y-133710316D01*
X154866984Y-133564368D01*
X155338527Y-133422557D01*
X155794291Y-133284782D01*
X156234618Y-133150941D01*
X156659847Y-133020933D01*
X157070320Y-132894655D01*
X157466376Y-132772007D01*
X157848356Y-132652887D01*
X158216600Y-132537193D01*
X158335313Y-132499791D01*
X158469796Y-132457549D01*
X158586680Y-132421006D01*
X158686938Y-132389869D01*
X158771547Y-132363841D01*
X158841480Y-132342627D01*
X158897713Y-132325933D01*
X158941222Y-132313462D01*
X158972982Y-132304920D01*
X158993967Y-132300011D01*
X159005154Y-132298440D01*
X159009974Y-132298936D01*
G37*
G36*
X147693757Y-121835355D02*
G01*
X147699799Y-121859066D01*
X147708617Y-121899592D01*
X147718372Y-121948978D01*
X147727843Y-122001280D01*
X147732768Y-122033280D01*
X147741568Y-122119992D01*
X147745703Y-122213606D01*
X147745275Y-122308765D01*
X147740382Y-122400108D01*
X147731125Y-122482280D01*
X147717604Y-122549920D01*
X147688255Y-122639850D01*
X147641984Y-122736362D01*
X147585089Y-122818036D01*
X147518636Y-122884032D01*
X147443691Y-122933510D01*
X147361320Y-122965631D01*
X147272589Y-122979556D01*
X147178564Y-122974445D01*
X147164447Y-122972075D01*
X147071227Y-122945794D01*
X146989657Y-122902954D01*
X146919875Y-122843731D01*
X146862020Y-122768300D01*
X146816229Y-122676836D01*
X146782642Y-122569514D01*
X146761397Y-122446510D01*
X146757937Y-122409670D01*
X146754229Y-122313149D01*
X146756283Y-122207220D01*
X146763696Y-122098806D01*
X146776066Y-121994831D01*
X146792992Y-121902220D01*
X146803867Y-121853960D01*
X146889214Y-121853960D01*
X146904252Y-121854080D01*
X146940184Y-121855479D01*
X146965184Y-121858119D01*
X146974559Y-121861580D01*
X146974479Y-121862788D01*
X146972006Y-121879178D01*
X146966772Y-121908966D01*
X146959724Y-121946716D01*
X146946437Y-122025049D01*
X146933761Y-122135196D01*
X146929162Y-122237353D01*
X146932618Y-122328847D01*
X146944110Y-122407006D01*
X146963619Y-122469157D01*
X146972054Y-122486677D01*
X147013825Y-122545617D01*
X147069548Y-122590134D01*
X147138464Y-122619741D01*
X147219811Y-122633948D01*
X147288152Y-122633729D01*
X147366044Y-122618023D01*
X147432860Y-122585497D01*
X147487882Y-122536660D01*
X147530392Y-122472025D01*
X147559671Y-122392103D01*
X147561373Y-122385078D01*
X147570473Y-122321308D01*
X147572554Y-122244943D01*
X147567902Y-122161609D01*
X147556804Y-122076933D01*
X147539546Y-121996540D01*
X147532588Y-121969923D01*
X147523491Y-121933713D01*
X147517648Y-121908535D01*
X147516087Y-121898681D01*
X147519355Y-121896465D01*
X147536292Y-121885321D01*
X147564246Y-121867058D01*
X147599400Y-121844175D01*
X147680680Y-121791349D01*
X147693757Y-121835355D01*
G37*
G36*
X147081866Y-127807720D02*
G01*
X147080145Y-127814580D01*
X147073309Y-127841182D01*
X147062899Y-127881288D01*
X147049987Y-127930776D01*
X147035646Y-127985520D01*
X147005354Y-128108053D01*
X146972943Y-128253685D01*
X146940397Y-128413780D01*
X146908217Y-128585355D01*
X146876902Y-128765426D01*
X146846950Y-128951010D01*
X146818862Y-129139121D01*
X146793135Y-129326777D01*
X146770269Y-129510993D01*
X146750763Y-129688785D01*
X146744781Y-129753706D01*
X146739357Y-129828409D01*
X146735079Y-129908517D01*
X146731959Y-129995267D01*
X146730006Y-130089901D01*
X146729232Y-130193657D01*
X146729649Y-130307775D01*
X146731266Y-130433495D01*
X146734095Y-130572057D01*
X146738147Y-130724700D01*
X146743433Y-130892665D01*
X146749963Y-131077190D01*
X146757750Y-131279515D01*
X146766803Y-131500880D01*
X146769116Y-131555541D01*
X146773261Y-131651167D01*
X146777505Y-131746462D01*
X146781663Y-131837432D01*
X146785552Y-131920081D01*
X146788988Y-131990415D01*
X146791788Y-132044440D01*
X146794043Y-132087921D01*
X146796873Y-132149268D01*
X146799036Y-132204584D01*
X146800352Y-132249119D01*
X146800641Y-132278120D01*
X146799831Y-132334000D01*
X146785100Y-132288280D01*
X146780151Y-132271899D01*
X146769796Y-132235304D01*
X146756457Y-132186524D01*
X146741322Y-132129917D01*
X146725578Y-132069840D01*
X146722986Y-132059815D01*
X146645588Y-131723229D01*
X146585767Y-131381809D01*
X146543179Y-131033232D01*
X146517476Y-130675173D01*
X146516660Y-130656778D01*
X146514036Y-130568710D01*
X146512689Y-130467020D01*
X146512551Y-130355947D01*
X146513549Y-130239735D01*
X146515615Y-130122623D01*
X146518677Y-130008853D01*
X146522666Y-129902667D01*
X146527511Y-129808306D01*
X146533142Y-129730011D01*
X146545890Y-129603515D01*
X146590525Y-129298712D01*
X146655060Y-128990812D01*
X146739419Y-128680119D01*
X146843521Y-128366934D01*
X146967290Y-128051560D01*
X146990275Y-127997509D01*
X147019111Y-127930980D01*
X147043347Y-127876649D01*
X147062361Y-127835837D01*
X147075532Y-127809864D01*
X147082241Y-127800051D01*
X147081866Y-127807720D01*
G37*
G36*
X147736557Y-123512580D02*
G01*
X147736554Y-123738640D01*
X147370797Y-123931550D01*
X147337947Y-123948897D01*
X147260963Y-123989725D01*
X147190638Y-124027265D01*
X147128862Y-124060492D01*
X147077525Y-124088381D01*
X147038515Y-124109908D01*
X147013724Y-124124050D01*
X147005040Y-124129782D01*
X147006242Y-124130814D01*
X147021199Y-124139414D01*
X147051734Y-124155695D01*
X147095924Y-124178671D01*
X147151848Y-124207353D01*
X147217584Y-124240754D01*
X147291209Y-124277886D01*
X147370800Y-124317760D01*
X147736560Y-124500415D01*
X147736560Y-124726588D01*
X147736560Y-124952760D01*
X147253960Y-124952760D01*
X146771360Y-124952760D01*
X146771360Y-124805440D01*
X146771360Y-124658120D01*
X147058380Y-124658928D01*
X147135276Y-124659394D01*
X147213052Y-124660351D01*
X147285283Y-124661708D01*
X147348273Y-124663381D01*
X147398330Y-124665288D01*
X147431760Y-124667345D01*
X147447371Y-124668660D01*
X147484358Y-124671232D01*
X147511002Y-124672292D01*
X147522364Y-124671607D01*
X147520720Y-124670229D01*
X147504683Y-124661234D01*
X147473157Y-124644738D01*
X147428016Y-124621687D01*
X147371131Y-124593027D01*
X147304376Y-124559703D01*
X147229622Y-124522662D01*
X147148742Y-124482850D01*
X146770876Y-124297440D01*
X146773658Y-124141056D01*
X146776440Y-123984671D01*
X147150270Y-123786752D01*
X147190810Y-123765264D01*
X147267927Y-123724239D01*
X147338144Y-123686692D01*
X147399615Y-123653622D01*
X147450493Y-123626028D01*
X147488933Y-123604908D01*
X147513087Y-123591262D01*
X147521110Y-123586089D01*
X147518163Y-123585736D01*
X147498826Y-123585864D01*
X147464577Y-123587006D01*
X147419010Y-123589030D01*
X147365720Y-123591806D01*
X147307110Y-123594475D01*
X147233728Y-123596894D01*
X147152590Y-123598869D01*
X147070019Y-123600247D01*
X146992340Y-123600874D01*
X146771360Y-123601480D01*
X146771360Y-123444000D01*
X146771360Y-123286520D01*
X147253960Y-123286520D01*
X147736560Y-123286520D01*
X147736557Y-123512580D01*
G37*
G36*
X153949672Y-130672795D02*
G01*
X154004726Y-130674050D01*
X154070508Y-130676042D01*
X154144579Y-130678682D01*
X154224501Y-130681884D01*
X154307834Y-130685561D01*
X154392141Y-130689624D01*
X154474983Y-130693987D01*
X154553920Y-130698562D01*
X154662203Y-130705494D01*
X154853276Y-130719508D01*
X155025756Y-130734651D01*
X155179357Y-130750889D01*
X155313797Y-130768186D01*
X155428790Y-130786509D01*
X155524053Y-130805821D01*
X155599301Y-130826090D01*
X155674995Y-130858731D01*
X155757443Y-130911754D01*
X155844390Y-130984490D01*
X155863315Y-131002410D01*
X155897350Y-131037368D01*
X155928720Y-131074234D01*
X155958650Y-131115148D01*
X155988363Y-131162251D01*
X156019082Y-131217682D01*
X156052031Y-131283583D01*
X156088432Y-131362093D01*
X156129510Y-131455353D01*
X156176487Y-131565504D01*
X156190892Y-131599647D01*
X156157266Y-131575997D01*
X156142513Y-131565478D01*
X156111627Y-131543146D01*
X156073161Y-131515117D01*
X156032200Y-131485086D01*
X156026992Y-131481263D01*
X155947045Y-131424173D01*
X155855418Y-131361214D01*
X155757761Y-131296153D01*
X155659723Y-131232758D01*
X155566952Y-131174796D01*
X155534642Y-131155500D01*
X155477857Y-131124240D01*
X155419229Y-131095860D01*
X155355163Y-131068891D01*
X155282061Y-131041864D01*
X155196329Y-131013310D01*
X155094369Y-130981760D01*
X155080090Y-130977532D01*
X155026380Y-130962371D01*
X154956782Y-130943514D01*
X154874186Y-130921688D01*
X154781485Y-130897623D01*
X154681570Y-130872047D01*
X154577332Y-130845688D01*
X154471664Y-130819274D01*
X154367456Y-130793535D01*
X154267600Y-130769198D01*
X154174988Y-130746992D01*
X154092511Y-130727645D01*
X154023060Y-130711886D01*
X153995615Y-130705732D01*
X153947195Y-130694459D01*
X153908370Y-130684866D01*
X153882563Y-130677815D01*
X153873200Y-130674168D01*
X153881502Y-130672844D01*
X153907785Y-130672364D01*
X153949672Y-130672795D01*
G37*
G36*
X152607881Y-128617195D02*
G01*
X152644040Y-128619560D01*
X152697711Y-128624326D01*
X152770220Y-128631540D01*
X152883021Y-128643771D01*
X153136833Y-128675819D01*
X153392808Y-128714104D01*
X153647744Y-128757980D01*
X153898441Y-128806805D01*
X154141696Y-128859934D01*
X154374309Y-128916724D01*
X154593079Y-128976530D01*
X154794803Y-129038709D01*
X154892262Y-129072483D01*
X155118351Y-129165315D01*
X155333152Y-129274831D01*
X155537503Y-129401482D01*
X155732240Y-129545720D01*
X155773357Y-129580002D01*
X155821831Y-129622353D01*
X155874375Y-129669734D01*
X155928218Y-129719523D01*
X155980588Y-129769095D01*
X156028714Y-129815826D01*
X156069824Y-129857092D01*
X156101146Y-129890270D01*
X156119909Y-129912735D01*
X156140287Y-129941352D01*
X156116724Y-129932168D01*
X156103531Y-129926867D01*
X156073365Y-129914614D01*
X156028831Y-129896466D01*
X155972218Y-129873358D01*
X155905816Y-129846224D01*
X155831914Y-129815999D01*
X155752800Y-129783618D01*
X155710063Y-129766126D01*
X155523415Y-129689950D01*
X155350060Y-129619632D01*
X155187823Y-129554363D01*
X155034529Y-129493333D01*
X154888005Y-129435734D01*
X154746075Y-129380757D01*
X154606564Y-129327593D01*
X154467298Y-129275433D01*
X154326103Y-129223468D01*
X154180804Y-129170889D01*
X154029225Y-129116888D01*
X153869194Y-129060656D01*
X153698534Y-129001383D01*
X153515072Y-128938260D01*
X153316632Y-128870480D01*
X153101040Y-128797232D01*
X153072943Y-128787705D01*
X152978456Y-128755661D01*
X152890125Y-128725695D01*
X152809820Y-128698443D01*
X152739410Y-128674538D01*
X152680767Y-128654617D01*
X152635758Y-128639314D01*
X152606255Y-128629263D01*
X152594126Y-128625101D01*
X152591192Y-128624016D01*
X152582784Y-128619471D01*
X152587904Y-128617182D01*
X152607881Y-128617195D01*
G37*
G36*
X155615351Y-131635246D02*
G01*
X155600777Y-131650941D01*
X155572872Y-131675774D01*
X155533637Y-131708223D01*
X155485071Y-131746772D01*
X155429172Y-131789901D01*
X155367940Y-131836092D01*
X155303374Y-131883825D01*
X155237474Y-131931581D01*
X155172239Y-131977843D01*
X155109668Y-132021091D01*
X155051760Y-132059806D01*
X154959686Y-132118999D01*
X154822159Y-132202448D01*
X154692911Y-132273702D01*
X154568321Y-132334213D01*
X154444766Y-132385436D01*
X154318623Y-132428825D01*
X154186270Y-132465831D01*
X154044083Y-132497909D01*
X153888440Y-132526512D01*
X153747538Y-132548248D01*
X153568747Y-132571625D01*
X153379739Y-132592388D01*
X153185499Y-132610135D01*
X152991010Y-132624459D01*
X152801254Y-132634956D01*
X152621217Y-132641222D01*
X152455880Y-132642852D01*
X152262840Y-132641836D01*
X152857200Y-132522200D01*
X152964993Y-132500485D01*
X153095484Y-132474118D01*
X153209055Y-132451031D01*
X153307439Y-132430836D01*
X153392372Y-132413143D01*
X153465587Y-132397565D01*
X153528820Y-132383711D01*
X153583805Y-132371194D01*
X153632276Y-132359624D01*
X153675969Y-132348612D01*
X153716617Y-132337769D01*
X153755955Y-132326706D01*
X153795718Y-132315035D01*
X153837640Y-132302366D01*
X153920637Y-132276215D01*
X154040053Y-132236464D01*
X154174151Y-132189840D01*
X154320783Y-132137146D01*
X154477798Y-132079187D01*
X154643049Y-132016768D01*
X154814386Y-131950694D01*
X154989659Y-131881769D01*
X155166720Y-131810798D01*
X155343420Y-131738585D01*
X155359326Y-131732028D01*
X155427291Y-131704206D01*
X155488403Y-131679500D01*
X155540280Y-131658849D01*
X155580543Y-131643195D01*
X155606810Y-131633477D01*
X155616702Y-131630635D01*
X155615351Y-131635246D01*
G37*
G36*
X156502831Y-129973260D02*
G01*
X156497353Y-129992640D01*
X156483047Y-130024723D01*
X156461720Y-130066123D01*
X156435177Y-130113451D01*
X156405226Y-130163320D01*
X156373673Y-130212342D01*
X156327128Y-130278258D01*
X156276460Y-130339518D01*
X156226977Y-130386471D01*
X156175818Y-130421781D01*
X156120117Y-130448108D01*
X156098351Y-130456247D01*
X155978107Y-130493778D01*
X155839673Y-130525922D01*
X155684267Y-130552496D01*
X155513107Y-130573319D01*
X155327411Y-130588207D01*
X155128397Y-130596976D01*
X154934920Y-130602302D01*
X155178760Y-130535866D01*
X155257679Y-130514217D01*
X155418520Y-130468998D01*
X155561221Y-130427195D01*
X155687014Y-130388409D01*
X155797127Y-130352244D01*
X155892791Y-130318301D01*
X155975235Y-130286183D01*
X156045688Y-130255492D01*
X156080122Y-130238118D01*
X156138054Y-130205233D01*
X156206129Y-130163434D01*
X156281020Y-130114839D01*
X156359401Y-130061568D01*
X156437941Y-130005739D01*
X156443975Y-130001406D01*
X156472638Y-129982520D01*
X156493558Y-129971510D01*
X156502562Y-129970644D01*
X156502831Y-129973260D01*
G37*
G36*
X153863040Y-130667760D02*
G01*
X153857960Y-130672840D01*
X153852880Y-130667760D01*
X153857960Y-130662680D01*
X153863040Y-130667760D01*
G37*
G36*
X163055128Y-127747218D02*
G01*
X163065965Y-127764166D01*
X163077503Y-127788804D01*
X163086867Y-127815600D01*
X163092490Y-127840636D01*
X163094392Y-127865192D01*
X163091101Y-127906247D01*
X163080358Y-127945876D01*
X163062835Y-127981918D01*
X163039203Y-128012208D01*
X163018978Y-128032611D01*
X163053330Y-128032611D01*
X163087683Y-128032611D01*
X163087683Y-128095018D01*
X163087683Y-128157426D01*
X162773243Y-128157426D01*
X162458803Y-128157426D01*
X162458803Y-128095253D01*
X162458803Y-128033079D01*
X162668830Y-128031645D01*
X162668872Y-128031644D01*
X162721811Y-128031266D01*
X162766060Y-128030842D01*
X162802529Y-128030265D01*
X162832130Y-128029423D01*
X162855772Y-128028206D01*
X162874365Y-128026505D01*
X162888822Y-128024209D01*
X162900050Y-128021208D01*
X162908963Y-128017392D01*
X162916468Y-128012650D01*
X162923478Y-128006874D01*
X162930902Y-127999952D01*
X162940315Y-127989717D01*
X162956230Y-127963134D01*
X162965103Y-127933025D01*
X162966704Y-127901611D01*
X162960802Y-127871114D01*
X162947164Y-127843755D01*
X162944339Y-127839817D01*
X162941500Y-127835123D01*
X162940907Y-127830672D01*
X162943400Y-127825378D01*
X162949814Y-127818156D01*
X162960989Y-127807922D01*
X162977762Y-127793591D01*
X163000971Y-127774077D01*
X163046275Y-127735964D01*
X163055128Y-127747218D01*
G37*
G36*
X163056305Y-130276858D02*
G01*
X163063935Y-130290114D01*
X163073970Y-130311040D01*
X163087844Y-130347952D01*
X163093940Y-130386393D01*
X163092168Y-130428089D01*
X163083470Y-130468137D01*
X163066728Y-130505355D01*
X163041756Y-130538373D01*
X163019160Y-130562529D01*
X163053421Y-130562529D01*
X163087683Y-130562529D01*
X163087683Y-130624937D01*
X163087683Y-130687345D01*
X162773243Y-130687345D01*
X162458803Y-130687345D01*
X162458803Y-130625174D01*
X162458803Y-130563002D01*
X162666430Y-130561566D01*
X162679108Y-130561478D01*
X162727059Y-130561127D01*
X162766574Y-130560774D01*
X162798595Y-130560367D01*
X162824063Y-130559856D01*
X162843921Y-130559189D01*
X162859110Y-130558317D01*
X162870573Y-130557188D01*
X162879251Y-130555752D01*
X162886087Y-130553958D01*
X162892022Y-130551755D01*
X162897999Y-130549093D01*
X162914884Y-130540320D01*
X162938103Y-130522636D01*
X162953660Y-130500959D01*
X162962404Y-130473910D01*
X162965184Y-130440114D01*
X162965185Y-130439792D01*
X162964767Y-130419040D01*
X162962910Y-130404305D01*
X162958846Y-130392068D01*
X162951808Y-130378813D01*
X162938350Y-130355916D01*
X162951808Y-130344587D01*
X162957935Y-130339423D01*
X162971145Y-130328278D01*
X162987893Y-130314140D01*
X163005982Y-130298863D01*
X163012005Y-130293761D01*
X163028929Y-130279723D01*
X163040693Y-130272001D01*
X163049188Y-130270933D01*
X163056305Y-130276858D01*
G37*
G36*
X164038890Y-127587065D02*
G01*
X164045989Y-127594190D01*
X164053769Y-127608215D01*
X164063951Y-127629360D01*
X164067047Y-127635858D01*
X164072602Y-127648773D01*
X164076107Y-127660534D01*
X164078031Y-127673828D01*
X164078841Y-127691344D01*
X164079008Y-127715771D01*
X164078987Y-127726708D01*
X164078608Y-127748055D01*
X164077384Y-127763620D01*
X164074845Y-127776118D01*
X164070521Y-127788264D01*
X164063942Y-127802774D01*
X164054819Y-127819935D01*
X164042543Y-127839346D01*
X164030980Y-127854380D01*
X164013082Y-127874191D01*
X164044845Y-127874191D01*
X164076607Y-127874191D01*
X164076607Y-127938999D01*
X164076607Y-128003807D01*
X163762028Y-128003807D01*
X163447449Y-128003807D01*
X163448789Y-127940199D01*
X163450128Y-127876591D01*
X163661355Y-127874191D01*
X163675739Y-127874028D01*
X163726353Y-127873435D01*
X163768508Y-127872819D01*
X163803112Y-127872057D01*
X163831074Y-127871022D01*
X163853303Y-127869589D01*
X163870708Y-127867634D01*
X163884197Y-127865030D01*
X163894679Y-127861653D01*
X163903062Y-127857377D01*
X163910257Y-127852078D01*
X163917171Y-127845629D01*
X163924713Y-127837907D01*
X163924728Y-127837892D01*
X163942032Y-127813522D01*
X163952410Y-127784577D01*
X163955624Y-127753370D01*
X163951436Y-127722214D01*
X163939606Y-127693421D01*
X163937465Y-127689722D01*
X163931405Y-127677720D01*
X163930198Y-127670498D01*
X163933282Y-127665569D01*
X163933616Y-127665266D01*
X163940341Y-127659413D01*
X163952596Y-127648916D01*
X163968753Y-127635167D01*
X163987182Y-127619557D01*
X164004476Y-127604891D01*
X164019854Y-127592635D01*
X164030752Y-127586620D01*
X164038890Y-127587065D01*
G37*
G36*
X164076607Y-128202997D02*
G01*
X164076607Y-128267840D01*
X163876182Y-128267867D01*
X163869842Y-128267870D01*
X163822982Y-128268018D01*
X163780141Y-128268377D01*
X163742250Y-128268925D01*
X163710240Y-128269642D01*
X163685039Y-128270508D01*
X163667579Y-128271504D01*
X163658789Y-128272608D01*
X163630107Y-128284704D01*
X163604121Y-128304726D01*
X163584728Y-128330597D01*
X163579687Y-128341073D01*
X163571294Y-128371640D01*
X163570515Y-128403348D01*
X163577000Y-128434080D01*
X163590393Y-128461719D01*
X163610343Y-128484146D01*
X163613942Y-128487079D01*
X163622131Y-128493177D01*
X163630668Y-128498223D01*
X163640479Y-128502316D01*
X163652489Y-128505555D01*
X163667623Y-128508039D01*
X163686807Y-128509869D01*
X163710966Y-128511143D01*
X163741024Y-128511960D01*
X163777908Y-128512421D01*
X163822543Y-128512625D01*
X163875853Y-128512671D01*
X164076607Y-128512671D01*
X164076607Y-128577479D01*
X164076607Y-128642287D01*
X163859380Y-128642204D01*
X163825551Y-128642173D01*
X163773722Y-128642004D01*
X163730048Y-128641618D01*
X163693610Y-128640934D01*
X163663490Y-128639869D01*
X163638770Y-128638343D01*
X163618531Y-128636273D01*
X163601855Y-128633578D01*
X163587823Y-128630177D01*
X163575518Y-128625987D01*
X163564021Y-128620927D01*
X163552413Y-128614915D01*
X163531845Y-128602115D01*
X163498789Y-128572992D01*
X163472182Y-128537090D01*
X163452575Y-128495070D01*
X163447988Y-128480410D01*
X163445028Y-128464573D01*
X163444017Y-128446065D01*
X163444583Y-128421460D01*
X163444863Y-128415753D01*
X163449073Y-128378328D01*
X163457707Y-128347183D01*
X163471641Y-128319950D01*
X163491754Y-128294260D01*
X163515900Y-128267840D01*
X163481675Y-128267840D01*
X163447449Y-128267840D01*
X163448789Y-128204232D01*
X163450128Y-128140624D01*
X163763368Y-128139389D01*
X164076607Y-128138154D01*
X164076607Y-128202997D01*
G37*
G36*
X163592657Y-127133143D02*
G01*
X163634373Y-127180198D01*
X163615242Y-127199521D01*
X163607602Y-127208109D01*
X163594035Y-127226632D01*
X163583127Y-127245279D01*
X163582789Y-127245968D01*
X163576230Y-127260881D01*
X163572466Y-127274538D01*
X163570826Y-127290548D01*
X163570640Y-127312520D01*
X163573381Y-127347675D01*
X163581435Y-127377270D01*
X163595645Y-127402491D01*
X163616865Y-127425426D01*
X163636795Y-127440856D01*
X163660526Y-127453168D01*
X163688142Y-127461329D01*
X163721427Y-127465853D01*
X163762168Y-127467253D01*
X163780335Y-127466953D01*
X163825598Y-127462790D01*
X163863274Y-127453467D01*
X163893944Y-127438645D01*
X163918184Y-127417988D01*
X163936572Y-127391158D01*
X163949687Y-127357817D01*
X163952308Y-127347564D01*
X163955990Y-127309404D01*
X163950455Y-127271507D01*
X163935953Y-127234943D01*
X163912736Y-127200783D01*
X163893405Y-127177857D01*
X163908993Y-127159978D01*
X163909099Y-127159857D01*
X163920398Y-127147026D01*
X163934977Y-127130638D01*
X163949706Y-127114209D01*
X163974831Y-127086320D01*
X164000516Y-127112655D01*
X164015562Y-127128987D01*
X164043441Y-127166743D01*
X164063042Y-127206695D01*
X164075113Y-127250602D01*
X164080404Y-127300221D01*
X164080930Y-127319893D01*
X164079881Y-127353253D01*
X164075558Y-127382367D01*
X164067349Y-127410590D01*
X164054640Y-127441279D01*
X164051640Y-127447453D01*
X164031767Y-127478793D01*
X164005580Y-127509094D01*
X163975619Y-127535714D01*
X163944422Y-127556010D01*
X163933313Y-127561650D01*
X163904165Y-127574264D01*
X163874777Y-127583258D01*
X163842848Y-127589100D01*
X163806079Y-127592262D01*
X163762168Y-127593211D01*
X163745023Y-127593089D01*
X163703918Y-127591370D01*
X163669134Y-127587258D01*
X163638392Y-127580283D01*
X163609412Y-127569980D01*
X163579913Y-127555882D01*
X163551118Y-127537554D01*
X163517165Y-127507020D01*
X163488164Y-127470443D01*
X163465505Y-127429643D01*
X163450579Y-127386444D01*
X163449087Y-127379636D01*
X163444888Y-127347619D01*
X163443687Y-127311796D01*
X163445491Y-127276436D01*
X163450308Y-127245806D01*
X163455227Y-127228400D01*
X163471763Y-127188895D01*
X163494658Y-127150528D01*
X163522137Y-127116493D01*
X163550941Y-127086088D01*
X163592657Y-127133143D01*
G37*
G36*
X163746080Y-130208119D02*
G01*
X163789675Y-130208400D01*
X163827473Y-130208934D01*
X163858525Y-130209706D01*
X163881879Y-130210701D01*
X163896585Y-130211907D01*
X163930168Y-130218758D01*
X163971621Y-130235217D01*
X164007961Y-130259507D01*
X164038492Y-130291133D01*
X164062516Y-130329599D01*
X164068174Y-130341313D01*
X164073324Y-130353564D01*
X164076514Y-130365047D01*
X164078212Y-130378354D01*
X164078887Y-130396078D01*
X164079008Y-130420811D01*
X164079006Y-130423585D01*
X164078742Y-130448537D01*
X164077777Y-130466634D01*
X164075755Y-130480383D01*
X164072322Y-130492291D01*
X164067124Y-130504864D01*
X164060399Y-130517958D01*
X164047886Y-130538306D01*
X164034664Y-130556471D01*
X164014089Y-130581732D01*
X164045348Y-130581732D01*
X164076607Y-130581732D01*
X164076607Y-130646540D01*
X164076607Y-130711348D01*
X163765368Y-130711348D01*
X163746570Y-130711342D01*
X163693653Y-130711258D01*
X163643860Y-130711083D01*
X163598001Y-130710825D01*
X163556885Y-130710492D01*
X163521322Y-130710093D01*
X163492121Y-130709637D01*
X163470093Y-130709132D01*
X163456047Y-130708588D01*
X163450792Y-130708011D01*
X163450669Y-130707845D01*
X163449535Y-130701236D01*
X163448804Y-130687160D01*
X163448536Y-130667566D01*
X163448792Y-130644403D01*
X163450128Y-130584132D01*
X163658955Y-130581732D01*
X163711067Y-130581123D01*
X163754564Y-130580527D01*
X163790319Y-130579831D01*
X163819263Y-130578925D01*
X163842326Y-130577696D01*
X163860437Y-130576032D01*
X163874526Y-130573822D01*
X163885524Y-130570953D01*
X163894360Y-130567313D01*
X163901964Y-130562791D01*
X163909267Y-130557274D01*
X163917198Y-130550651D01*
X163930300Y-130537884D01*
X163944030Y-130516793D01*
X163951689Y-130491290D01*
X163954109Y-130459316D01*
X163953705Y-130438518D01*
X163951872Y-130423684D01*
X163947851Y-130411436D01*
X163940883Y-130398271D01*
X163935924Y-130390605D01*
X163923435Y-130374908D01*
X163911096Y-130363062D01*
X163908292Y-130360948D01*
X163900066Y-130355228D01*
X163891556Y-130350493D01*
X163881831Y-130346650D01*
X163869957Y-130343607D01*
X163855005Y-130341271D01*
X163836041Y-130339549D01*
X163812135Y-130338348D01*
X163782355Y-130337576D01*
X163745768Y-130337139D01*
X163701444Y-130336945D01*
X163648451Y-130336901D01*
X163447449Y-130336901D01*
X163448789Y-130273293D01*
X163450128Y-130209685D01*
X163654154Y-130208305D01*
X163697640Y-130208103D01*
X163746080Y-130208119D01*
G37*
G36*
X163341054Y-129826837D02*
G01*
X163342393Y-129890445D01*
X163183679Y-129890445D01*
X163024964Y-129890445D01*
X163044108Y-129915801D01*
X163047478Y-129920356D01*
X163071948Y-129961103D01*
X163087579Y-130003018D01*
X163094400Y-130045214D01*
X163092444Y-130086803D01*
X163081740Y-130126897D01*
X163062321Y-130164608D01*
X163034216Y-130199049D01*
X163030608Y-130202623D01*
X163013484Y-130218169D01*
X162996255Y-130230810D01*
X162977739Y-130240830D01*
X162956749Y-130248516D01*
X162932102Y-130254153D01*
X162902612Y-130258026D01*
X162867096Y-130260420D01*
X162824368Y-130261621D01*
X162775870Y-130261900D01*
X162773243Y-130261915D01*
X162761419Y-130261887D01*
X162712474Y-130261329D01*
X162671675Y-130259857D01*
X162637843Y-130257190D01*
X162609795Y-130253046D01*
X162586352Y-130247144D01*
X162566332Y-130239202D01*
X162548555Y-130228938D01*
X162531838Y-130216070D01*
X162515002Y-130200318D01*
X162502379Y-130186672D01*
X162477360Y-130150338D01*
X162461229Y-130110387D01*
X162459002Y-130100928D01*
X162455602Y-130070424D01*
X162456104Y-130036727D01*
X162458772Y-130015844D01*
X162579669Y-130015844D01*
X162580847Y-130026719D01*
X162583832Y-130042497D01*
X162587178Y-130056419D01*
X162596582Y-130079659D01*
X162610503Y-130098263D01*
X162629741Y-130112618D01*
X162655097Y-130123111D01*
X162687371Y-130130127D01*
X162727361Y-130134053D01*
X162775870Y-130135275D01*
X162780751Y-130135268D01*
X162819229Y-130134510D01*
X162850123Y-130132322D01*
X162875184Y-130128443D01*
X162896165Y-130122612D01*
X162914818Y-130114567D01*
X162927972Y-130106095D01*
X162946400Y-130086209D01*
X162959300Y-130061264D01*
X162966476Y-130033155D01*
X162967736Y-130003779D01*
X162962883Y-129975034D01*
X162951724Y-129948815D01*
X162934063Y-129927020D01*
X162924112Y-129918920D01*
X162907759Y-129909254D01*
X162888165Y-129902098D01*
X162863751Y-129897053D01*
X162832937Y-129893722D01*
X162794146Y-129891706D01*
X162767923Y-129891148D01*
X162720216Y-129892507D01*
X162680656Y-129897476D01*
X162648631Y-129906327D01*
X162623533Y-129919334D01*
X162604752Y-129936771D01*
X162591678Y-129958909D01*
X162583701Y-129986024D01*
X162582697Y-129991332D01*
X162580290Y-130005504D01*
X162579669Y-130015844D01*
X162458772Y-130015844D01*
X162460305Y-130003843D01*
X162468005Y-129975777D01*
X162475473Y-129959500D01*
X162487245Y-129938486D01*
X162499898Y-129919369D01*
X162521191Y-129890445D01*
X162489858Y-129890445D01*
X162458525Y-129890445D01*
X162459864Y-129826837D01*
X162461204Y-129763229D01*
X162900459Y-129763229D01*
X163339714Y-129763229D01*
X163341054Y-129826837D01*
G37*
G36*
X162805647Y-127217821D02*
G01*
X162824393Y-127218568D01*
X162861837Y-127220960D01*
X162890265Y-127224275D01*
X162910060Y-127228552D01*
X162947631Y-127242981D01*
X162989858Y-127267729D01*
X163025669Y-127299053D01*
X163054517Y-127336217D01*
X163075855Y-127378485D01*
X163089135Y-127425122D01*
X163093808Y-127475391D01*
X163093797Y-127479451D01*
X163089060Y-127529023D01*
X163075958Y-127574036D01*
X163054705Y-127614229D01*
X163025518Y-127649337D01*
X162988612Y-127679098D01*
X162944200Y-127703248D01*
X162892499Y-127721525D01*
X162880219Y-127724697D01*
X162864969Y-127727768D01*
X162850001Y-127729652D01*
X162848501Y-127729841D01*
X162828721Y-127731094D01*
X162803533Y-127731704D01*
X162770843Y-127731848D01*
X162753342Y-127731810D01*
X162726262Y-127731522D01*
X162705538Y-127730767D01*
X162689042Y-127729323D01*
X162674647Y-127726971D01*
X162660226Y-127723489D01*
X162643653Y-127718657D01*
X162637018Y-127716565D01*
X162613673Y-127708243D01*
X162591551Y-127699103D01*
X162574683Y-127690775D01*
X162558402Y-127680373D01*
X162525151Y-127651438D01*
X162497038Y-127615873D01*
X162475204Y-127575279D01*
X162460792Y-127531258D01*
X162460210Y-127528599D01*
X162455955Y-127496636D01*
X162454996Y-127459861D01*
X162457147Y-127421791D01*
X162462223Y-127385943D01*
X162470040Y-127355834D01*
X162471425Y-127352010D01*
X162484589Y-127322637D01*
X162501863Y-127292421D01*
X162521134Y-127264754D01*
X162540288Y-127243032D01*
X162555160Y-127228783D01*
X162565789Y-127241572D01*
X162568075Y-127244323D01*
X162577704Y-127255910D01*
X162590555Y-127271376D01*
X162604495Y-127288153D01*
X162632571Y-127321946D01*
X162617619Y-127340823D01*
X162605245Y-127358372D01*
X162587244Y-127394812D01*
X162576851Y-127433616D01*
X162574497Y-127472799D01*
X162580615Y-127510379D01*
X162581304Y-127512661D01*
X162595376Y-127542540D01*
X162616634Y-127568059D01*
X162643348Y-127587907D01*
X162673785Y-127600776D01*
X162706215Y-127605357D01*
X162727637Y-127605357D01*
X162727637Y-127475088D01*
X162833251Y-127475088D01*
X162833251Y-127605357D01*
X162850001Y-127605357D01*
X162865972Y-127603411D01*
X162888890Y-127596687D01*
X162912064Y-127586572D01*
X162931574Y-127574546D01*
X162946488Y-127559438D01*
X162960975Y-127535370D01*
X162970702Y-127507476D01*
X162974338Y-127478738D01*
X162973889Y-127465850D01*
X162971617Y-127446074D01*
X162968044Y-127430539D01*
X162960525Y-127414265D01*
X162942020Y-127390615D01*
X162917041Y-127370759D01*
X162887421Y-127356040D01*
X162854995Y-127347800D01*
X162833251Y-127344819D01*
X162833251Y-127475088D01*
X162727637Y-127475088D01*
X162727637Y-127410260D01*
X162727637Y-127215163D01*
X162805647Y-127217821D01*
G37*
G36*
X163807046Y-132026162D02*
G01*
X163847990Y-132029100D01*
X163884212Y-132033946D01*
X163913387Y-132040701D01*
X163923933Y-132044255D01*
X163965596Y-132064337D01*
X164002520Y-132092024D01*
X164033663Y-132126221D01*
X164057982Y-132165834D01*
X164074434Y-132209768D01*
X164075905Y-132216413D01*
X164078679Y-132236037D01*
X164080611Y-132259774D01*
X164081351Y-132283875D01*
X164080015Y-132317565D01*
X164073080Y-132359591D01*
X164059570Y-132396783D01*
X164038753Y-132430992D01*
X164009895Y-132464065D01*
X164002653Y-132471113D01*
X163970912Y-132497006D01*
X163937037Y-132515873D01*
X163897711Y-132529656D01*
X163892367Y-132530932D01*
X163870893Y-132534136D01*
X163842595Y-132536477D01*
X163809519Y-132537959D01*
X163773712Y-132538587D01*
X163765146Y-132538535D01*
X163737221Y-132538365D01*
X163702092Y-132537298D01*
X163670373Y-132535389D01*
X163644110Y-132532644D01*
X163625350Y-132529066D01*
X163609384Y-132524186D01*
X163575536Y-132509889D01*
X163545124Y-132490323D01*
X163514910Y-132463569D01*
X163487164Y-132431584D01*
X163465467Y-132394884D01*
X163450573Y-132353155D01*
X163447809Y-132340334D01*
X163444399Y-132310229D01*
X163443793Y-132283226D01*
X163569747Y-132283226D01*
X163573388Y-132315394D01*
X163584626Y-132344915D01*
X163602951Y-132370493D01*
X163627854Y-132390834D01*
X163658826Y-132404643D01*
X163659900Y-132404953D01*
X163678353Y-132408423D01*
X163703601Y-132410884D01*
X163733311Y-132412337D01*
X163765146Y-132412784D01*
X163796773Y-132412225D01*
X163825855Y-132410662D01*
X163850058Y-132408096D01*
X163867048Y-132404529D01*
X163893948Y-132393191D01*
X163920388Y-132373944D01*
X163939205Y-132348885D01*
X163950455Y-132317937D01*
X163954192Y-132281018D01*
X163954101Y-132271957D01*
X163952687Y-132252430D01*
X163948908Y-132236825D01*
X163941928Y-132221054D01*
X163939660Y-132216902D01*
X163920878Y-132192632D01*
X163896230Y-132172857D01*
X163868779Y-132160128D01*
X163857565Y-132157950D01*
X163837218Y-132155969D01*
X163811273Y-132154640D01*
X163781888Y-132153960D01*
X163751223Y-132153929D01*
X163721438Y-132154545D01*
X163694692Y-132155807D01*
X163673144Y-132157714D01*
X163658955Y-132160263D01*
X163629199Y-132172745D01*
X163604193Y-132192436D01*
X163585838Y-132218932D01*
X163574210Y-132249705D01*
X163569747Y-132283226D01*
X163443793Y-132283226D01*
X163443647Y-132276735D01*
X163445565Y-132243718D01*
X163450165Y-132215046D01*
X163461069Y-132180177D01*
X163480839Y-132142399D01*
X163508947Y-132107464D01*
X163540027Y-132078750D01*
X163574336Y-132056023D01*
X163611254Y-132040650D01*
X163612998Y-132040119D01*
X163642625Y-132033507D01*
X163679171Y-132028805D01*
X163720309Y-132026014D01*
X163763710Y-132025133D01*
X163807046Y-132026162D01*
G37*
G36*
X163799372Y-130818143D02*
G01*
X163819469Y-130818753D01*
X163847157Y-130819951D01*
X163868231Y-130821533D01*
X163884576Y-130823712D01*
X163898072Y-130826701D01*
X163910603Y-130830712D01*
X163949286Y-130847688D01*
X163989749Y-130874025D01*
X164023157Y-130906814D01*
X164049746Y-130946295D01*
X164069748Y-130992705D01*
X164070743Y-130995680D01*
X164076007Y-131012679D01*
X164079272Y-131027283D01*
X164080879Y-131042486D01*
X164081173Y-131061281D01*
X164080493Y-131086662D01*
X164079827Y-131104014D01*
X164078603Y-131123616D01*
X164076511Y-131138453D01*
X164072891Y-131151413D01*
X164067084Y-131165384D01*
X164058430Y-131183254D01*
X164054688Y-131190552D01*
X164029501Y-131229489D01*
X163998539Y-131261836D01*
X163961352Y-131287856D01*
X163917488Y-131307815D01*
X163866497Y-131321979D01*
X163817218Y-131329242D01*
X163807929Y-131330611D01*
X163797917Y-131331476D01*
X163737522Y-131332783D01*
X163680687Y-131327277D01*
X163628265Y-131315209D01*
X163581109Y-131296830D01*
X163540072Y-131272389D01*
X163506008Y-131242136D01*
X163501619Y-131237064D01*
X163484734Y-131212892D01*
X163469025Y-131183887D01*
X163456338Y-131153773D01*
X163448522Y-131126272D01*
X163447954Y-131123115D01*
X163444990Y-131096950D01*
X163443766Y-131066172D01*
X163444244Y-131034301D01*
X163446384Y-131004859D01*
X163450148Y-130981365D01*
X163453264Y-130969659D01*
X163468548Y-130929895D01*
X163489871Y-130891501D01*
X163515119Y-130858481D01*
X163517558Y-130855830D01*
X163529494Y-130843406D01*
X163538722Y-130834666D01*
X163543416Y-130831363D01*
X163547690Y-130834826D01*
X163556739Y-130844262D01*
X163569234Y-130858229D01*
X163583849Y-130875286D01*
X163595077Y-130888711D01*
X163606833Y-130903292D01*
X163613713Y-130913131D01*
X163616538Y-130919739D01*
X163616134Y-130924623D01*
X163613322Y-130929293D01*
X163592215Y-130959983D01*
X163577192Y-130987645D01*
X163568017Y-131013822D01*
X163563884Y-131040830D01*
X163563986Y-131070985D01*
X163566628Y-131093422D01*
X163577220Y-131128456D01*
X163595106Y-131157362D01*
X163619967Y-131179803D01*
X163651484Y-131195439D01*
X163689338Y-131203933D01*
X163716562Y-131207132D01*
X163716562Y-131207068D01*
X163817218Y-131207068D01*
X163842304Y-131203740D01*
X163876021Y-131195834D01*
X163906575Y-131181379D01*
X163930615Y-131161501D01*
X163940758Y-131149290D01*
X163953266Y-131128107D01*
X163959933Y-131104554D01*
X163961959Y-131075334D01*
X163959352Y-131046704D01*
X163948736Y-131014818D01*
X163930527Y-130988123D01*
X163905349Y-130967264D01*
X163873824Y-130952888D01*
X163836577Y-130945639D01*
X163819775Y-130944177D01*
X163818496Y-131075623D01*
X163817218Y-131207068D01*
X163716562Y-131207068D01*
X163716562Y-131011502D01*
X163716562Y-130815872D01*
X163799372Y-130818143D01*
G37*
G36*
X163811190Y-128750925D02*
G01*
X163851667Y-128752925D01*
X163885452Y-128756817D01*
X163914032Y-128763031D01*
X163938895Y-128771999D01*
X163961528Y-128784153D01*
X163983419Y-128799923D01*
X164006055Y-128819742D01*
X164031961Y-128847880D01*
X164056849Y-128887103D01*
X164074271Y-128932039D01*
X164078414Y-128953793D01*
X164080593Y-128982341D01*
X164080725Y-129013960D01*
X164078895Y-129045521D01*
X164075192Y-129073892D01*
X164069702Y-129095945D01*
X164067889Y-129100755D01*
X164054194Y-129128736D01*
X164035655Y-129157600D01*
X164014658Y-129183947D01*
X163993590Y-129204377D01*
X163973096Y-129219536D01*
X163947917Y-129234221D01*
X163920737Y-129245395D01*
X163890064Y-129253434D01*
X163854406Y-129258713D01*
X163812271Y-129261605D01*
X163762168Y-129262486D01*
X163733374Y-129262241D01*
X163687954Y-129260380D01*
X163649771Y-129256317D01*
X163617377Y-129249611D01*
X163589330Y-129239820D01*
X163564184Y-129226503D01*
X163540493Y-129209218D01*
X163516814Y-129187524D01*
X163504695Y-129174919D01*
X163479752Y-129143519D01*
X163462126Y-129111158D01*
X163450392Y-129075433D01*
X163449928Y-129073425D01*
X163446723Y-129054002D01*
X163444362Y-129030282D01*
X163443327Y-129006942D01*
X163443351Y-129001846D01*
X163570042Y-129001846D01*
X163572707Y-129033761D01*
X163582101Y-129063535D01*
X163597792Y-129089242D01*
X163619345Y-129108955D01*
X163631774Y-129116674D01*
X163645245Y-129123347D01*
X163659734Y-129128120D01*
X163676955Y-129131301D01*
X163698624Y-129133192D01*
X163726457Y-129134099D01*
X163762168Y-129134326D01*
X163797629Y-129134071D01*
X163827062Y-129133082D01*
X163850032Y-129131059D01*
X163868140Y-129127699D01*
X163882990Y-129122699D01*
X163896183Y-129115757D01*
X163909322Y-129106571D01*
X163920987Y-129096512D01*
X163939663Y-129072032D01*
X163950591Y-129042519D01*
X163954092Y-129007262D01*
X163953785Y-128996582D01*
X163947892Y-128961114D01*
X163934539Y-128931639D01*
X163913759Y-128908216D01*
X163885586Y-128890902D01*
X163878001Y-128887971D01*
X163853330Y-128881834D01*
X163822459Y-128877488D01*
X163787711Y-128874995D01*
X163751411Y-128874416D01*
X163715881Y-128875814D01*
X163683445Y-128879251D01*
X163656425Y-128884788D01*
X163648685Y-128887328D01*
X163622059Y-128901626D01*
X163599132Y-128922265D01*
X163582799Y-128946806D01*
X163574542Y-128969715D01*
X163570042Y-129001846D01*
X163443351Y-129001846D01*
X163443375Y-128996630D01*
X163448296Y-128947454D01*
X163461212Y-128903247D01*
X163482366Y-128863374D01*
X163512001Y-128827202D01*
X163515048Y-128824128D01*
X163537427Y-128803398D01*
X163559640Y-128786792D01*
X163583072Y-128773892D01*
X163609107Y-128764281D01*
X163639130Y-128757541D01*
X163674524Y-128753257D01*
X163716676Y-128751010D01*
X163766968Y-128750384D01*
X163811190Y-128750925D01*
G37*
G36*
X162704834Y-130827558D02*
G01*
X162950865Y-130828963D01*
X162979669Y-130842408D01*
X162993050Y-130849250D01*
X163024449Y-130871432D01*
X163049702Y-130899638D01*
X163069006Y-130934283D01*
X163082559Y-130975781D01*
X163090558Y-131024546D01*
X163093200Y-131080995D01*
X163093183Y-131086558D01*
X163090919Y-131134565D01*
X163084547Y-131175305D01*
X163073621Y-131210250D01*
X163057695Y-131240872D01*
X163036322Y-131268642D01*
X163029337Y-131276340D01*
X163019091Y-131286572D01*
X163010780Y-131291458D01*
X163002834Y-131290554D01*
X162993682Y-131283417D01*
X162981754Y-131269606D01*
X162965478Y-131248677D01*
X162928481Y-131200638D01*
X162945095Y-131182249D01*
X162954112Y-131171265D01*
X162964028Y-131154326D01*
X162970246Y-131134743D01*
X162973399Y-131110253D01*
X162974121Y-131078594D01*
X162973962Y-131068117D01*
X162972051Y-131035827D01*
X162967751Y-131010793D01*
X162960674Y-130991326D01*
X162950431Y-130975740D01*
X162938860Y-130965249D01*
X162921747Y-130957250D01*
X162898698Y-130952798D01*
X162868055Y-130951405D01*
X162833251Y-130951378D01*
X162833251Y-131034315D01*
X162832788Y-131079844D01*
X162831149Y-131121187D01*
X162828178Y-131155374D01*
X162823725Y-131183646D01*
X162817638Y-131207245D01*
X162809767Y-131227413D01*
X162797613Y-131249329D01*
X162772144Y-131280092D01*
X162740551Y-131304009D01*
X162703788Y-131320423D01*
X162662808Y-131328677D01*
X162658200Y-131328789D01*
X162634627Y-131329363D01*
X162594052Y-131323081D01*
X162557127Y-131308455D01*
X162524628Y-131286068D01*
X162497336Y-131256501D01*
X162476027Y-131220338D01*
X162461481Y-131178158D01*
X162458253Y-131160706D01*
X162455399Y-131130809D01*
X162454597Y-131098353D01*
X162455208Y-131083890D01*
X162574405Y-131083890D01*
X162574946Y-131110607D01*
X162577080Y-131133630D01*
X162580901Y-131150326D01*
X162583823Y-131157530D01*
X162598346Y-131181709D01*
X162616512Y-131198727D01*
X162636928Y-131208383D01*
X162658200Y-131210476D01*
X162678938Y-131204806D01*
X162697747Y-131191172D01*
X162713235Y-131169374D01*
X162715028Y-131165840D01*
X162718668Y-131157786D01*
X162721373Y-131149373D01*
X162723315Y-131139059D01*
X162724669Y-131125305D01*
X162725609Y-131106570D01*
X162726309Y-131081315D01*
X162726942Y-131047999D01*
X162728647Y-130949927D01*
X162680098Y-130952602D01*
X162652508Y-130954912D01*
X162627859Y-130959525D01*
X162609709Y-130966858D01*
X162596450Y-130977597D01*
X162586471Y-130992427D01*
X162586324Y-130992712D01*
X162581418Y-131007889D01*
X162577734Y-131029899D01*
X162575365Y-131056110D01*
X162574405Y-131083890D01*
X162455208Y-131083890D01*
X162455909Y-131067303D01*
X162459395Y-131041626D01*
X162467635Y-131012967D01*
X162481368Y-130986802D01*
X162500563Y-130966244D01*
X162518598Y-130951378D01*
X162488701Y-130951378D01*
X162458803Y-130951378D01*
X162458803Y-130888766D01*
X162458803Y-130826154D01*
X162704834Y-130827558D01*
G37*
G36*
X163084543Y-128811096D02*
G01*
X163085778Y-128818400D01*
X163086775Y-128833008D01*
X163087440Y-128853209D01*
X163087683Y-128877291D01*
X163087683Y-128944274D01*
X163072081Y-128948516D01*
X163063585Y-128950827D01*
X162991091Y-128970549D01*
X162927305Y-128987925D01*
X162871720Y-129003095D01*
X162823831Y-129016200D01*
X162783131Y-129027381D01*
X162749115Y-129036779D01*
X162721276Y-129044535D01*
X162699108Y-129050789D01*
X162682106Y-129055683D01*
X162669763Y-129059358D01*
X162661573Y-129061953D01*
X162657030Y-129063611D01*
X162655628Y-129064473D01*
X162659923Y-129066388D01*
X162672484Y-129070940D01*
X162692423Y-129077823D01*
X162718849Y-129086737D01*
X162750870Y-129097386D01*
X162787596Y-129109471D01*
X162828136Y-129122694D01*
X162871600Y-129136756D01*
X163087572Y-129206358D01*
X163087627Y-129252848D01*
X163087683Y-129299338D01*
X162952066Y-129343152D01*
X162926079Y-129351552D01*
X162868370Y-129370237D01*
X162819009Y-129386281D01*
X162777429Y-129399875D01*
X162743061Y-129411213D01*
X162715336Y-129420489D01*
X162693687Y-129427895D01*
X162677544Y-129433626D01*
X162666340Y-129437875D01*
X162659505Y-129440835D01*
X162656473Y-129442700D01*
X162656674Y-129443662D01*
X162660781Y-129444871D01*
X162673449Y-129448437D01*
X162693640Y-129454056D01*
X162720400Y-129461465D01*
X162752776Y-129470399D01*
X162789813Y-129480596D01*
X162830557Y-129491791D01*
X162874056Y-129503721D01*
X163085282Y-129561603D01*
X163086618Y-129627612D01*
X163086758Y-129635262D01*
X163086893Y-129661972D01*
X163086251Y-129680077D01*
X163084780Y-129690365D01*
X163082432Y-129693620D01*
X163078423Y-129692551D01*
X163066027Y-129688832D01*
X163046168Y-129682723D01*
X163019745Y-129674508D01*
X162987659Y-129664472D01*
X162950811Y-129652900D01*
X162910100Y-129640077D01*
X162866427Y-129626288D01*
X162820693Y-129611818D01*
X162773798Y-129596951D01*
X162726642Y-129581974D01*
X162680126Y-129567170D01*
X162635150Y-129552824D01*
X162592615Y-129539222D01*
X162553421Y-129526649D01*
X162518469Y-129515389D01*
X162488659Y-129505727D01*
X162458506Y-129495913D01*
X162459855Y-129440185D01*
X162461204Y-129384457D01*
X162678472Y-129319692D01*
X162721856Y-129306675D01*
X162762399Y-129294345D01*
X162798999Y-129283048D01*
X162830775Y-129273063D01*
X162856851Y-129264669D01*
X162876349Y-129258144D01*
X162888391Y-129253769D01*
X162892099Y-129251821D01*
X162887587Y-129250100D01*
X162874688Y-129245881D01*
X162854355Y-129239490D01*
X162827512Y-129231209D01*
X162795081Y-129221319D01*
X162757984Y-129210105D01*
X162717144Y-129197849D01*
X162673484Y-129184833D01*
X162458511Y-129120951D01*
X162459857Y-129065243D01*
X162461204Y-129009534D01*
X162770843Y-128910193D01*
X162800017Y-128900837D01*
X162851030Y-128884496D01*
X162898942Y-128869174D01*
X162942998Y-128855109D01*
X162982443Y-128842543D01*
X163016523Y-128831714D01*
X163044481Y-128822863D01*
X163065564Y-128816231D01*
X163079016Y-128812056D01*
X163084082Y-128810580D01*
X163084543Y-128811096D01*
G37*
G36*
X163793152Y-126539639D02*
G01*
X163824771Y-126540238D01*
X163849955Y-126541863D01*
X163871293Y-126544746D01*
X163891374Y-126549119D01*
X163903596Y-126552509D01*
X163949747Y-126570889D01*
X163989513Y-126596436D01*
X164022819Y-126629077D01*
X164049589Y-126668744D01*
X164069748Y-126715366D01*
X164070743Y-126718341D01*
X164076007Y-126735340D01*
X164079272Y-126749944D01*
X164080879Y-126765147D01*
X164081173Y-126783942D01*
X164080493Y-126809323D01*
X164079827Y-126826676D01*
X164078603Y-126846277D01*
X164076511Y-126861114D01*
X164072891Y-126874074D01*
X164067084Y-126888045D01*
X164058430Y-126905915D01*
X164053369Y-126915677D01*
X164028293Y-126953752D01*
X163997625Y-126985363D01*
X163960832Y-127010823D01*
X163917378Y-127030449D01*
X163866729Y-127044556D01*
X163817218Y-127052106D01*
X163808351Y-127053458D01*
X163793588Y-127054764D01*
X163734829Y-127055732D01*
X163679067Y-127049923D01*
X163627304Y-127037632D01*
X163580539Y-127019152D01*
X163539774Y-126994776D01*
X163506008Y-126964797D01*
X163501619Y-126959725D01*
X163484734Y-126935553D01*
X163469025Y-126906548D01*
X163456338Y-126876434D01*
X163448522Y-126848933D01*
X163447954Y-126845776D01*
X163444990Y-126819611D01*
X163443766Y-126788833D01*
X163444244Y-126756962D01*
X163446384Y-126727520D01*
X163450148Y-126704026D01*
X163455542Y-126685699D01*
X163464198Y-126662473D01*
X163473780Y-126641133D01*
X163479420Y-126630930D01*
X163490442Y-126613837D01*
X163503235Y-126596238D01*
X163516399Y-126579848D01*
X163528536Y-126566377D01*
X163538246Y-126557537D01*
X163544131Y-126555041D01*
X163544545Y-126555275D01*
X163549942Y-126560400D01*
X163559553Y-126570752D01*
X163571856Y-126584566D01*
X163585331Y-126600077D01*
X163598459Y-126615519D01*
X163609718Y-126629126D01*
X163617588Y-126639133D01*
X163620550Y-126643775D01*
X163619741Y-126645532D01*
X163614303Y-126652987D01*
X163605433Y-126663585D01*
X163598902Y-126671920D01*
X163587551Y-126689345D01*
X163577830Y-126707425D01*
X163574733Y-126714265D01*
X163569861Y-126727481D01*
X163567012Y-126741156D01*
X163565677Y-126758332D01*
X163565346Y-126782053D01*
X163565465Y-126798811D01*
X163566298Y-126817008D01*
X163568375Y-126830462D01*
X163572208Y-126842047D01*
X163578312Y-126854637D01*
X163595610Y-126880094D01*
X163621691Y-126903211D01*
X163653569Y-126919045D01*
X163690519Y-126927127D01*
X163716562Y-126929815D01*
X163716562Y-126929729D01*
X163817218Y-126929729D01*
X163842304Y-126926401D01*
X163876021Y-126918495D01*
X163906575Y-126904040D01*
X163930615Y-126884162D01*
X163940758Y-126871951D01*
X163953266Y-126850768D01*
X163959933Y-126827215D01*
X163961959Y-126797995D01*
X163959352Y-126769366D01*
X163948736Y-126737479D01*
X163930527Y-126710784D01*
X163905349Y-126689926D01*
X163873824Y-126675549D01*
X163836577Y-126668300D01*
X163819775Y-126666839D01*
X163818496Y-126798284D01*
X163817218Y-126929729D01*
X163716562Y-126929729D01*
X163716562Y-126734719D01*
X163716562Y-126539622D01*
X163785403Y-126539622D01*
X163793152Y-126539639D01*
G37*
G36*
X162702434Y-128297638D02*
G01*
X162715875Y-128297716D01*
X162768388Y-128298032D01*
X162812366Y-128298346D01*
X162848677Y-128298697D01*
X162878187Y-128299125D01*
X162901763Y-128299670D01*
X162920271Y-128300371D01*
X162934578Y-128301269D01*
X162945552Y-128302404D01*
X162954058Y-128303814D01*
X162960962Y-128305541D01*
X162967133Y-128307625D01*
X162973436Y-128310104D01*
X162981583Y-128313620D01*
X163015541Y-128334237D01*
X163043335Y-128362035D01*
X163064996Y-128397076D01*
X163080557Y-128439422D01*
X163090049Y-128489134D01*
X163093502Y-128546275D01*
X163093508Y-128559244D01*
X163091978Y-128599513D01*
X163087765Y-128633199D01*
X163080514Y-128662446D01*
X163069872Y-128689400D01*
X163065709Y-128697280D01*
X163055686Y-128712772D01*
X163043478Y-128728937D01*
X163030598Y-128744046D01*
X163018555Y-128756375D01*
X163008860Y-128764197D01*
X163003025Y-128765786D01*
X162998536Y-128761161D01*
X162989543Y-128750415D01*
X162977405Y-128735195D01*
X162963441Y-128717124D01*
X162928625Y-128671408D01*
X162944730Y-128655304D01*
X162949785Y-128649702D01*
X162963917Y-128625315D01*
X162972568Y-128593910D01*
X162975584Y-128556262D01*
X162972812Y-128513145D01*
X162968155Y-128484742D01*
X162960613Y-128460703D01*
X162949366Y-128443772D01*
X162933107Y-128432672D01*
X162910528Y-128426126D01*
X162880319Y-128422857D01*
X162834567Y-128420127D01*
X162831987Y-128532408D01*
X162831847Y-128538363D01*
X162830720Y-128578149D01*
X162829262Y-128610028D01*
X162827206Y-128635493D01*
X162824285Y-128656039D01*
X162820232Y-128673161D01*
X162814777Y-128688354D01*
X162807655Y-128703112D01*
X162798597Y-128718931D01*
X162779661Y-128744146D01*
X162751768Y-128768085D01*
X162719334Y-128785490D01*
X162683831Y-128796226D01*
X162661050Y-128798641D01*
X162646731Y-128800159D01*
X162609507Y-128797154D01*
X162573631Y-128787076D01*
X162540575Y-128769790D01*
X162511811Y-128745163D01*
X162498537Y-128728445D01*
X162481605Y-128700559D01*
X162467694Y-128670291D01*
X162458917Y-128641767D01*
X162457579Y-128632023D01*
X162456359Y-128613145D01*
X162455822Y-128589968D01*
X162456079Y-128565478D01*
X162456179Y-128562176D01*
X162456522Y-128556679D01*
X162575212Y-128556679D01*
X162575983Y-128588196D01*
X162578911Y-128612676D01*
X162584421Y-128631845D01*
X162592938Y-128647433D01*
X162604888Y-128661166D01*
X162616847Y-128671206D01*
X162629603Y-128676869D01*
X162647073Y-128679352D01*
X162661050Y-128679466D01*
X162683428Y-128673996D01*
X162700949Y-128660558D01*
X162714594Y-128638559D01*
X162717144Y-128632580D01*
X162720147Y-128623493D01*
X162722371Y-128612720D01*
X162723981Y-128598679D01*
X162725142Y-128579787D01*
X162726017Y-128554459D01*
X162726769Y-128521113D01*
X162726811Y-128519007D01*
X162727375Y-128486972D01*
X162727577Y-128463180D01*
X162727330Y-128446352D01*
X162726547Y-128435208D01*
X162725142Y-128428466D01*
X162723026Y-128424848D01*
X162720114Y-128423072D01*
X162716986Y-128422456D01*
X162704883Y-128422105D01*
X162687196Y-128422874D01*
X162666552Y-128424684D01*
X162646979Y-128427216D01*
X162624937Y-128432086D01*
X162608881Y-128439294D01*
X162596669Y-128449913D01*
X162586163Y-128465019D01*
X162582850Y-128471571D01*
X162579675Y-128481662D01*
X162577568Y-128495308D01*
X162576244Y-128514525D01*
X162575421Y-128541326D01*
X162575212Y-128556679D01*
X162456522Y-128556679D01*
X162458351Y-128527384D01*
X162462737Y-128499947D01*
X162469962Y-128477907D01*
X162480652Y-128459306D01*
X162495431Y-128442186D01*
X162516158Y-128421460D01*
X162487481Y-128421460D01*
X162458803Y-128421460D01*
X162458803Y-128358846D01*
X162458803Y-128296232D01*
X162702434Y-128297638D01*
G37*
G36*
X163673903Y-129338490D02*
G01*
X163707023Y-129345532D01*
X163735591Y-129358267D01*
X163761749Y-129377415D01*
X163777413Y-129392629D01*
X163791588Y-129410663D01*
X163802738Y-129431173D01*
X163811353Y-129455580D01*
X163817924Y-129485307D01*
X163822941Y-129521774D01*
X163826893Y-129566404D01*
X163827560Y-129575382D01*
X163830347Y-129607788D01*
X163833352Y-129632498D01*
X163836939Y-129651052D01*
X163841468Y-129664988D01*
X163847301Y-129675844D01*
X163854799Y-129685159D01*
X163854926Y-129685295D01*
X163872590Y-129697903D01*
X163893350Y-129701439D01*
X163917120Y-129695887D01*
X163934155Y-129686404D01*
X163947149Y-129672120D01*
X163955761Y-129652194D01*
X163960492Y-129625455D01*
X163961839Y-129590730D01*
X163960808Y-129566607D01*
X163955400Y-129533139D01*
X163944554Y-129500038D01*
X163927363Y-129463974D01*
X163924371Y-129458271D01*
X163916726Y-129442495D01*
X163911917Y-129430651D01*
X163910881Y-129424956D01*
X163914749Y-129420734D01*
X163924428Y-129411836D01*
X163937909Y-129400132D01*
X163953353Y-129387143D01*
X163968925Y-129374391D01*
X163982785Y-129363398D01*
X163993097Y-129355686D01*
X163998024Y-129352777D01*
X163999934Y-129353589D01*
X164006839Y-129360705D01*
X164016334Y-129373560D01*
X164027185Y-129390206D01*
X164038157Y-129408697D01*
X164048016Y-129427087D01*
X164055527Y-129443429D01*
X164062753Y-129462885D01*
X164073346Y-129502101D01*
X164079372Y-129544522D01*
X164081324Y-129592999D01*
X164079546Y-129638074D01*
X164073357Y-129678345D01*
X164062201Y-129713135D01*
X164045531Y-129744129D01*
X164022799Y-129773012D01*
X164014989Y-129780969D01*
X163993500Y-129798866D01*
X163971907Y-129812222D01*
X163971041Y-129812646D01*
X163958074Y-129818536D01*
X163946383Y-129822325D01*
X163933250Y-129824468D01*
X163915956Y-129825420D01*
X163891784Y-129825636D01*
X163861039Y-129824727D01*
X163835195Y-129821245D01*
X163813852Y-129814350D01*
X163794472Y-129803205D01*
X163774516Y-129786974D01*
X163769145Y-129781990D01*
X163754110Y-129765946D01*
X163741955Y-129748661D01*
X163732195Y-129728743D01*
X163724341Y-129704798D01*
X163717907Y-129675432D01*
X163712405Y-129639252D01*
X163707348Y-129594865D01*
X163704505Y-129568363D01*
X163700615Y-129538008D01*
X163696548Y-129514989D01*
X163691918Y-129497984D01*
X163686337Y-129485671D01*
X163679419Y-129476728D01*
X163670778Y-129469834D01*
X163669569Y-129469088D01*
X163653148Y-129464042D01*
X163633209Y-129464158D01*
X163613639Y-129468993D01*
X163598323Y-129478103D01*
X163583603Y-129495116D01*
X163573439Y-129515385D01*
X163567182Y-129540870D01*
X163564103Y-129573605D01*
X163564013Y-129575653D01*
X163565835Y-129627593D01*
X163575902Y-129674857D01*
X163594362Y-129717918D01*
X163621362Y-129757250D01*
X163640361Y-129780075D01*
X163600536Y-129823258D01*
X163599977Y-129823864D01*
X163584228Y-129840420D01*
X163570494Y-129853956D01*
X163560234Y-129863090D01*
X163554907Y-129866442D01*
X163548691Y-129862625D01*
X163538861Y-129852260D01*
X163526727Y-129837065D01*
X163513587Y-129818759D01*
X163500737Y-129799063D01*
X163489474Y-129779694D01*
X163488561Y-129777993D01*
X163471906Y-129743884D01*
X163459750Y-129711145D01*
X163450090Y-129674417D01*
X163446926Y-129656073D01*
X163444220Y-129621861D01*
X163444178Y-129584020D01*
X163446656Y-129545800D01*
X163451512Y-129510451D01*
X163458601Y-129481222D01*
X163459705Y-129477884D01*
X163478276Y-129434286D01*
X163502158Y-129398481D01*
X163531680Y-129370068D01*
X163567167Y-129348649D01*
X163572718Y-129346116D01*
X163586377Y-129340883D01*
X163599956Y-129337886D01*
X163616673Y-129336584D01*
X163639752Y-129336435D01*
X163673903Y-129338490D01*
G37*
G36*
X162719349Y-131417090D02*
G01*
X162774840Y-131417378D01*
X162822288Y-131417910D01*
X162861381Y-131418679D01*
X162891810Y-131419678D01*
X162913262Y-131420902D01*
X162925426Y-131422342D01*
X162950246Y-131429042D01*
X162989054Y-131446523D01*
X163022386Y-131470544D01*
X163049857Y-131500005D01*
X163071082Y-131533806D01*
X163085677Y-131570850D01*
X163093257Y-131610036D01*
X163093438Y-131650266D01*
X163085835Y-131690439D01*
X163070064Y-131729458D01*
X163045740Y-131766223D01*
X163025164Y-131791484D01*
X163270424Y-131791484D01*
X163515685Y-131791484D01*
X163498196Y-131771082D01*
X163497255Y-131769963D01*
X163486167Y-131754716D01*
X163473928Y-131735043D01*
X163463017Y-131714907D01*
X163458583Y-131705857D01*
X163452281Y-131691824D01*
X163448379Y-131679711D01*
X163446301Y-131666639D01*
X163445696Y-131654254D01*
X163570236Y-131654254D01*
X163571025Y-131686366D01*
X163577971Y-131716684D01*
X163590890Y-131742275D01*
X163602564Y-131754679D01*
X163626240Y-131769174D01*
X163657810Y-131780085D01*
X163696622Y-131787257D01*
X163742026Y-131790539D01*
X163793372Y-131789778D01*
X163819612Y-131787923D01*
X163857006Y-131782815D01*
X163886836Y-131774817D01*
X163910226Y-131763471D01*
X163928303Y-131748315D01*
X163942190Y-131728890D01*
X163949209Y-131711360D01*
X163954040Y-131684747D01*
X163954644Y-131655877D01*
X163950998Y-131628275D01*
X163943075Y-131605466D01*
X163934566Y-131591737D01*
X163920189Y-131576523D01*
X163901546Y-131564809D01*
X163877604Y-131556252D01*
X163847328Y-131550510D01*
X163809687Y-131547241D01*
X163763645Y-131546104D01*
X163733230Y-131546411D01*
X163691557Y-131548810D01*
X163657736Y-131553827D01*
X163630836Y-131561772D01*
X163609924Y-131572953D01*
X163594068Y-131587681D01*
X163582338Y-131606262D01*
X163575788Y-131623281D01*
X163570236Y-131654254D01*
X163445696Y-131654254D01*
X163445475Y-131649728D01*
X163445328Y-131626096D01*
X163445334Y-131620089D01*
X163445646Y-131597763D01*
X163446790Y-131581597D01*
X163449265Y-131568770D01*
X163453568Y-131556462D01*
X163460197Y-131541853D01*
X163466679Y-131529236D01*
X163492246Y-131492333D01*
X163524032Y-131462475D01*
X163561409Y-131440169D01*
X163603748Y-131425924D01*
X163610402Y-131424670D01*
X163627324Y-131422707D01*
X163650643Y-131421244D01*
X163681157Y-131420248D01*
X163719665Y-131419687D01*
X163766968Y-131419532D01*
X163794048Y-131419608D01*
X163838282Y-131420158D01*
X163874782Y-131421466D01*
X163904763Y-131423798D01*
X163929441Y-131427422D01*
X163950030Y-131432607D01*
X163967746Y-131439618D01*
X163983804Y-131448723D01*
X163999419Y-131460191D01*
X164015806Y-131474287D01*
X164043291Y-131504206D01*
X164064519Y-131540357D01*
X164077199Y-131580808D01*
X164081408Y-131625744D01*
X164081404Y-131627513D01*
X164078527Y-131668067D01*
X164069640Y-131703653D01*
X164053753Y-131737062D01*
X164029876Y-131771082D01*
X164013557Y-131791484D01*
X164045082Y-131791484D01*
X164076607Y-131791484D01*
X164076607Y-131853892D01*
X164076607Y-131916300D01*
X163742026Y-131916300D01*
X163267705Y-131916300D01*
X162458803Y-131916300D01*
X162458803Y-131853892D01*
X162458803Y-131791484D01*
X162657157Y-131791484D01*
X162664709Y-131791484D01*
X162716219Y-131791419D01*
X162759208Y-131791182D01*
X162794630Y-131790683D01*
X162823436Y-131789829D01*
X162846582Y-131788530D01*
X162865019Y-131786692D01*
X162879700Y-131784226D01*
X162891580Y-131781038D01*
X162901610Y-131777038D01*
X162910745Y-131772134D01*
X162919936Y-131766235D01*
X162939905Y-131747515D01*
X162955158Y-131722209D01*
X162964562Y-131692850D01*
X162967400Y-131661689D01*
X162962956Y-131630980D01*
X162959534Y-131621304D01*
X162945686Y-131597460D01*
X162926153Y-131575879D01*
X162903544Y-131559689D01*
X162902408Y-131559086D01*
X162897425Y-131556637D01*
X162892007Y-131554607D01*
X162885238Y-131552944D01*
X162876200Y-131551597D01*
X162863977Y-131550513D01*
X162847652Y-131549641D01*
X162826310Y-131548930D01*
X162799033Y-131548327D01*
X162764905Y-131547781D01*
X162723010Y-131547240D01*
X162672430Y-131546653D01*
X162461204Y-131544253D01*
X162459864Y-131480645D01*
X162458525Y-131417037D01*
X162679256Y-131417037D01*
X162719349Y-131417090D01*
G37*
G36*
X166744518Y-127217708D02*
G01*
X166744692Y-127217901D01*
X166747056Y-127221652D01*
X166749690Y-127228159D01*
X166752734Y-127238093D01*
X166756331Y-127252123D01*
X166760624Y-127270917D01*
X166765754Y-127295147D01*
X166771864Y-127325480D01*
X166779095Y-127362587D01*
X166787589Y-127407137D01*
X166797489Y-127459800D01*
X166808937Y-127521244D01*
X166815575Y-127556911D01*
X166826304Y-127614172D01*
X166835566Y-127662968D01*
X166843496Y-127703936D01*
X166850226Y-127737712D01*
X166855891Y-127764932D01*
X166860625Y-127786232D01*
X166864563Y-127802248D01*
X166867837Y-127813617D01*
X166870583Y-127820974D01*
X166872934Y-127824957D01*
X166875428Y-127826838D01*
X166886264Y-127832829D01*
X166904334Y-127841754D01*
X166928575Y-127853156D01*
X166957922Y-127866575D01*
X166991313Y-127881554D01*
X167027684Y-127897634D01*
X167065972Y-127914358D01*
X167105113Y-127931266D01*
X167144046Y-127947901D01*
X167181705Y-127963805D01*
X167217028Y-127978519D01*
X167248952Y-127991586D01*
X167276413Y-128002546D01*
X167298348Y-128010942D01*
X167313694Y-128016316D01*
X167321388Y-128018209D01*
X167321499Y-128018207D01*
X167327234Y-128016289D01*
X167338011Y-128010624D01*
X167354177Y-128000985D01*
X167376082Y-127987146D01*
X167404073Y-127968879D01*
X167438497Y-127945957D01*
X167479704Y-127918154D01*
X167528039Y-127885242D01*
X167583853Y-127846994D01*
X167589494Y-127843120D01*
X167633841Y-127812795D01*
X167675873Y-127784268D01*
X167714896Y-127758000D01*
X167750212Y-127734449D01*
X167781124Y-127714077D01*
X167806936Y-127697341D01*
X167826950Y-127684702D01*
X167840471Y-127676618D01*
X167846802Y-127673551D01*
X167849050Y-127673416D01*
X167852691Y-127674174D01*
X167857427Y-127676464D01*
X167863774Y-127680766D01*
X167872247Y-127687561D01*
X167883361Y-127697327D01*
X167897633Y-127710545D01*
X167915577Y-127727696D01*
X167937709Y-127749258D01*
X167964545Y-127775713D01*
X167996601Y-127807540D01*
X168034391Y-127845219D01*
X168078431Y-127889230D01*
X168107860Y-127918687D01*
X168149381Y-127960373D01*
X168184736Y-127996065D01*
X168214347Y-128026209D01*
X168238638Y-128051251D01*
X168258031Y-128071638D01*
X168272950Y-128087817D01*
X168283817Y-128100235D01*
X168291056Y-128109338D01*
X168295088Y-128115574D01*
X168296339Y-128119388D01*
X168293913Y-128125994D01*
X168285893Y-128140473D01*
X168272256Y-128162616D01*
X168252989Y-128192439D01*
X168228084Y-128229958D01*
X168197528Y-128275192D01*
X168161311Y-128328155D01*
X168130134Y-128373529D01*
X168094889Y-128424834D01*
X168064450Y-128469181D01*
X168038464Y-128507107D01*
X168016580Y-128539149D01*
X167998446Y-128565845D01*
X167983709Y-128587733D01*
X167972018Y-128605348D01*
X167963021Y-128619229D01*
X167956365Y-128629913D01*
X167951699Y-128637937D01*
X167948671Y-128643838D01*
X167946928Y-128648154D01*
X167946119Y-128651422D01*
X167945892Y-128654179D01*
X167945895Y-128656962D01*
X167945930Y-128657553D01*
X167948244Y-128666590D01*
X167953847Y-128683171D01*
X167962287Y-128706196D01*
X167973114Y-128734565D01*
X167985874Y-128767181D01*
X168000116Y-128802942D01*
X168015388Y-128840751D01*
X168031239Y-128879508D01*
X168047216Y-128918113D01*
X168062867Y-128955468D01*
X168077741Y-128990474D01*
X168091386Y-129022030D01*
X168103350Y-129049038D01*
X168113181Y-129070399D01*
X168120428Y-129085014D01*
X168124637Y-129091782D01*
X168126080Y-129092998D01*
X168130335Y-129095449D01*
X168137050Y-129098103D01*
X168146926Y-129101107D01*
X168160660Y-129104613D01*
X168178952Y-129108769D01*
X168202501Y-129113725D01*
X168232005Y-129119630D01*
X168268164Y-129126634D01*
X168311676Y-129134888D01*
X168363240Y-129144539D01*
X168423555Y-129155737D01*
X168424563Y-129155924D01*
X168476282Y-129165499D01*
X168525527Y-129174613D01*
X168571429Y-129183105D01*
X168613117Y-129190814D01*
X168649719Y-129197578D01*
X168680364Y-129203238D01*
X168704182Y-129207631D01*
X168720301Y-129210597D01*
X168727851Y-129211975D01*
X168727923Y-129211988D01*
X168741998Y-129216667D01*
X168753054Y-129223818D01*
X168753443Y-129224218D01*
X168755192Y-129226505D01*
X168756685Y-129229847D01*
X168757943Y-129234959D01*
X168758985Y-129242551D01*
X168759832Y-129253336D01*
X168760504Y-129268026D01*
X168761021Y-129287332D01*
X168761403Y-129311968D01*
X168761671Y-129342644D01*
X168761844Y-129380074D01*
X168761943Y-129424968D01*
X168761987Y-129478040D01*
X168761997Y-129540000D01*
X168761996Y-129575791D01*
X168761976Y-129632601D01*
X168761916Y-129680926D01*
X168761793Y-129721479D01*
X168761587Y-129754975D01*
X168761276Y-129782130D01*
X168760838Y-129803658D01*
X168760251Y-129820273D01*
X168759494Y-129832692D01*
X168758545Y-129841627D01*
X168757382Y-129847795D01*
X168755984Y-129851910D01*
X168754330Y-129854687D01*
X168752396Y-129856840D01*
X168744718Y-129863358D01*
X168738454Y-129866442D01*
X168738006Y-129866491D01*
X168730523Y-129867738D01*
X168714601Y-129870555D01*
X168691049Y-129874796D01*
X168660677Y-129880313D01*
X168624293Y-129886957D01*
X168582706Y-129894581D01*
X168536725Y-129903039D01*
X168487158Y-129912181D01*
X168434816Y-129921860D01*
X168424693Y-129923735D01*
X168365469Y-129934718D01*
X168314864Y-129944150D01*
X168272167Y-129952187D01*
X168236666Y-129958986D01*
X168207649Y-129964703D01*
X168184404Y-129969495D01*
X168166218Y-129973518D01*
X168152380Y-129976928D01*
X168142178Y-129979883D01*
X168134900Y-129982537D01*
X168129834Y-129985049D01*
X168126267Y-129987574D01*
X168123487Y-129990269D01*
X168119098Y-129997413D01*
X168111650Y-130012421D01*
X168101643Y-130034137D01*
X168089533Y-130061453D01*
X168075774Y-130093260D01*
X168060823Y-130128449D01*
X168045134Y-130165913D01*
X168029164Y-130204542D01*
X168013367Y-130243229D01*
X167998198Y-130280865D01*
X167984114Y-130316341D01*
X167971569Y-130348550D01*
X167961020Y-130376382D01*
X167952921Y-130398730D01*
X167947727Y-130414484D01*
X167945895Y-130422536D01*
X167946281Y-130426307D01*
X167951037Y-130439684D01*
X167961508Y-130458746D01*
X167978066Y-130484203D01*
X167979592Y-130486438D01*
X167989750Y-130501285D01*
X168004536Y-130522870D01*
X168023286Y-130550226D01*
X168045337Y-130582385D01*
X168070026Y-130618381D01*
X168096690Y-130657245D01*
X168124665Y-130698012D01*
X168153288Y-130739713D01*
X168165533Y-130757574D01*
X168200601Y-130809028D01*
X168230108Y-130852837D01*
X168254113Y-130889094D01*
X168272678Y-130917893D01*
X168285863Y-130939329D01*
X168293730Y-130953494D01*
X168296339Y-130960482D01*
X168295713Y-130963029D01*
X168292603Y-130968455D01*
X168286499Y-130976528D01*
X168276972Y-130987701D01*
X168263594Y-131002427D01*
X168245935Y-131021159D01*
X168223568Y-131044350D01*
X168196062Y-131072454D01*
X168162990Y-131105923D01*
X168123923Y-131145211D01*
X168078431Y-131190771D01*
X168045861Y-131223326D01*
X168006403Y-131262700D01*
X167972821Y-131296088D01*
X167944601Y-131323973D01*
X167921226Y-131346834D01*
X167902181Y-131365150D01*
X167886950Y-131379402D01*
X167875019Y-131390070D01*
X167865871Y-131397634D01*
X167858991Y-131402574D01*
X167853863Y-131405370D01*
X167849972Y-131406502D01*
X167846802Y-131406450D01*
X167846430Y-131406357D01*
X167839168Y-131402641D01*
X167824801Y-131393967D01*
X167804028Y-131380793D01*
X167777544Y-131363580D01*
X167746047Y-131342787D01*
X167710232Y-131318874D01*
X167670797Y-131292300D01*
X167628439Y-131263524D01*
X167583853Y-131233007D01*
X167552512Y-131211496D01*
X167504095Y-131178368D01*
X167462694Y-131150207D01*
X167427774Y-131126664D01*
X167398800Y-131107395D01*
X167375236Y-131092052D01*
X167356546Y-131080288D01*
X167342194Y-131071756D01*
X167331647Y-131066111D01*
X167324367Y-131063006D01*
X167319820Y-131062093D01*
X167319727Y-131062097D01*
X167312198Y-131064131D01*
X167296828Y-131069634D01*
X167274543Y-131078231D01*
X167246266Y-131089547D01*
X167212925Y-131103207D01*
X167175443Y-131118837D01*
X167134746Y-131136061D01*
X167091759Y-131154505D01*
X167069732Y-131164033D01*
X167020350Y-131185532D01*
X166979065Y-131203742D01*
X166945318Y-131218924D01*
X166918551Y-131231342D01*
X166898205Y-131241258D01*
X166883722Y-131248934D01*
X166874542Y-131254633D01*
X166870107Y-131258617D01*
X166869983Y-131258805D01*
X166867123Y-131266406D01*
X166862935Y-131282290D01*
X166857387Y-131306627D01*
X166850442Y-131339588D01*
X166842066Y-131381341D01*
X166832224Y-131432057D01*
X166820881Y-131491905D01*
X166808003Y-131561055D01*
X166797703Y-131616587D01*
X166787703Y-131670039D01*
X166779115Y-131715300D01*
X166771798Y-131753034D01*
X166765612Y-131783907D01*
X166760417Y-131808584D01*
X166756071Y-131827729D01*
X166752436Y-131842008D01*
X166749369Y-131852084D01*
X166746731Y-131858625D01*
X166744381Y-131862293D01*
X166734469Y-131873094D01*
X166428904Y-131873094D01*
X166123338Y-131873094D01*
X166113462Y-131862293D01*
X166111780Y-131859876D01*
X166109200Y-131854074D01*
X166106212Y-131844830D01*
X166102676Y-131831475D01*
X166098449Y-131813343D01*
X166093388Y-131789766D01*
X166087352Y-131760075D01*
X166080199Y-131723603D01*
X166071787Y-131679682D01*
X166061974Y-131627645D01*
X166050617Y-131566823D01*
X166041157Y-131516404D01*
X166031866Y-131467707D01*
X166023080Y-131422468D01*
X166014974Y-131381543D01*
X166007720Y-131345786D01*
X166001493Y-131316054D01*
X165996466Y-131293202D01*
X165992812Y-131278085D01*
X165990705Y-131271558D01*
X165989620Y-131270358D01*
X165983091Y-131265972D01*
X165970826Y-131259580D01*
X165952362Y-131250983D01*
X165927238Y-131239979D01*
X165894988Y-131226369D01*
X165855151Y-131209954D01*
X165807264Y-131190532D01*
X165750863Y-131167903D01*
X165742507Y-131164565D01*
X165691776Y-131144336D01*
X165649086Y-131127409D01*
X165613692Y-131113518D01*
X165584849Y-131102396D01*
X165561812Y-131093779D01*
X165543836Y-131087400D01*
X165530176Y-131082994D01*
X165520086Y-131080296D01*
X165512823Y-131079038D01*
X165507640Y-131078957D01*
X165503793Y-131079785D01*
X165498724Y-131082520D01*
X165486098Y-131090368D01*
X165466962Y-131102756D01*
X165442060Y-131119186D01*
X165412139Y-131139158D01*
X165377944Y-131162176D01*
X165340221Y-131187741D01*
X165299716Y-131215355D01*
X165257175Y-131244520D01*
X165223479Y-131267611D01*
X165181781Y-131295976D01*
X165142986Y-131322133D01*
X165107805Y-131345614D01*
X165076950Y-131365951D01*
X165051131Y-131382675D01*
X165031060Y-131395320D01*
X165017448Y-131403416D01*
X165011005Y-131406496D01*
X165008817Y-131406625D01*
X165005177Y-131405869D01*
X165000440Y-131403579D01*
X164994091Y-131399276D01*
X164985615Y-131392481D01*
X164974496Y-131382712D01*
X164960218Y-131369490D01*
X164942268Y-131352336D01*
X164920128Y-131330768D01*
X164893285Y-131304308D01*
X164861222Y-131272475D01*
X164823424Y-131234789D01*
X164779376Y-131190771D01*
X164747029Y-131158391D01*
X164706010Y-131117199D01*
X164671121Y-131081966D01*
X164641935Y-131052242D01*
X164618026Y-131027576D01*
X164598966Y-131007516D01*
X164584328Y-130991611D01*
X164573687Y-130979411D01*
X164566614Y-130970464D01*
X164562684Y-130964319D01*
X164561468Y-130960526D01*
X164563031Y-130955880D01*
X164569680Y-130943522D01*
X164581600Y-130923905D01*
X164598849Y-130896941D01*
X164621486Y-130862542D01*
X164649566Y-130820620D01*
X164683148Y-130771087D01*
X164722289Y-130713856D01*
X164748413Y-130675733D01*
X164780183Y-130629160D01*
X164806986Y-130589562D01*
X164829151Y-130556432D01*
X164847005Y-130529261D01*
X164860877Y-130507542D01*
X164871096Y-130490767D01*
X164877988Y-130478429D01*
X164881883Y-130470019D01*
X164883109Y-130465031D01*
X164883101Y-130464713D01*
X164880433Y-130454710D01*
X164873114Y-130436927D01*
X164861360Y-130411828D01*
X164845388Y-130379877D01*
X164825414Y-130341535D01*
X164822270Y-130335585D01*
X164803262Y-130298961D01*
X164788442Y-130269186D01*
X164777979Y-130246617D01*
X164772038Y-130231612D01*
X164770788Y-130224531D01*
X164776214Y-130217408D01*
X164786478Y-130210085D01*
X164787170Y-130209758D01*
X164795319Y-130206226D01*
X164811617Y-130199331D01*
X164835483Y-130189313D01*
X164866335Y-130176416D01*
X164903592Y-130160879D01*
X164946674Y-130142946D01*
X164994998Y-130122858D01*
X165047984Y-130100857D01*
X165105052Y-130077185D01*
X165165618Y-130052083D01*
X165229103Y-130025793D01*
X165294925Y-129998557D01*
X165308592Y-129992905D01*
X165388802Y-129959774D01*
X165460600Y-129930196D01*
X165524362Y-129904021D01*
X165580464Y-129881099D01*
X165629284Y-129861280D01*
X165671196Y-129844415D01*
X165706577Y-129830355D01*
X165735804Y-129818949D01*
X165759252Y-129810047D01*
X165777299Y-129803501D01*
X165790320Y-129799160D01*
X165798691Y-129796875D01*
X165802788Y-129796495D01*
X165803011Y-129796554D01*
X165812556Y-129802615D01*
X165825026Y-129816605D01*
X165840831Y-129838980D01*
X165874330Y-129888051D01*
X165911579Y-129937798D01*
X165947886Y-129980585D01*
X165984330Y-130017583D01*
X166021991Y-130049964D01*
X166061950Y-130078901D01*
X166075952Y-130088021D01*
X166142277Y-130125599D01*
X166209453Y-130154123D01*
X166278761Y-130173978D01*
X166351484Y-130185549D01*
X166428904Y-130189221D01*
X166436511Y-130189165D01*
X166514424Y-130183575D01*
X166589445Y-130169212D01*
X166661053Y-130146569D01*
X166728729Y-130116142D01*
X166791955Y-130078426D01*
X166850211Y-130033913D01*
X166902977Y-129983100D01*
X166949735Y-129926481D01*
X166989965Y-129864551D01*
X167023148Y-129797803D01*
X167048765Y-129726733D01*
X167066297Y-129651836D01*
X167075223Y-129573605D01*
X167076052Y-129552861D01*
X167073218Y-129474929D01*
X167061060Y-129398628D01*
X167039760Y-129324501D01*
X167009499Y-129253088D01*
X166970461Y-129184931D01*
X166922828Y-129120571D01*
X166908574Y-129104029D01*
X166853545Y-129049328D01*
X166793002Y-129002239D01*
X166727553Y-128963046D01*
X166657809Y-128932033D01*
X166584380Y-128909483D01*
X166507874Y-128895679D01*
X166428904Y-128890906D01*
X166412096Y-128891040D01*
X166335746Y-128896332D01*
X166263831Y-128909602D01*
X166195076Y-128931231D01*
X166128207Y-128961603D01*
X166061950Y-129001100D01*
X166027768Y-129025544D01*
X165989805Y-129057370D01*
X165953182Y-129093670D01*
X165916823Y-129135609D01*
X165879653Y-129184351D01*
X165840598Y-129241062D01*
X165825189Y-129262859D01*
X165812306Y-129277394D01*
X165802626Y-129283547D01*
X165798664Y-129283164D01*
X165790112Y-129280799D01*
X165776686Y-129276288D01*
X165758027Y-129269486D01*
X165733771Y-129260249D01*
X165703559Y-129248433D01*
X165667028Y-129233895D01*
X165623817Y-129216491D01*
X165573566Y-129196077D01*
X165515912Y-129172509D01*
X165450495Y-129145644D01*
X165376953Y-129115337D01*
X165294925Y-129081444D01*
X165278431Y-129074621D01*
X165213134Y-129047597D01*
X165150318Y-129021579D01*
X165090564Y-128996809D01*
X165034454Y-128973528D01*
X164982568Y-128951978D01*
X164935489Y-128932401D01*
X164893796Y-128915040D01*
X164858072Y-128900135D01*
X164828896Y-128887928D01*
X164806852Y-128878661D01*
X164792519Y-128872577D01*
X164786478Y-128869916D01*
X164777121Y-128863411D01*
X164770750Y-128855371D01*
X164770669Y-128855088D01*
X164772297Y-128847215D01*
X164778694Y-128831342D01*
X164789748Y-128807712D01*
X164805346Y-128776566D01*
X164825376Y-128738147D01*
X164827810Y-128733537D01*
X164847036Y-128696470D01*
X164862434Y-128665503D01*
X164873750Y-128641181D01*
X164880726Y-128624052D01*
X164883109Y-128614662D01*
X164882617Y-128611895D01*
X164879651Y-128604682D01*
X164873723Y-128593598D01*
X164864511Y-128578145D01*
X164851693Y-128557826D01*
X164834950Y-128532146D01*
X164813959Y-128500605D01*
X164788399Y-128462709D01*
X164757949Y-128417959D01*
X164722289Y-128365859D01*
X164698824Y-128331582D01*
X164662431Y-128278073D01*
X164631616Y-128232270D01*
X164606384Y-128194185D01*
X164586746Y-128163831D01*
X164572708Y-128141220D01*
X164564280Y-128126364D01*
X164561468Y-128119277D01*
X164561838Y-128117484D01*
X164564637Y-128112336D01*
X164570534Y-128104435D01*
X164579947Y-128093340D01*
X164593295Y-128078611D01*
X164610993Y-128059807D01*
X164633461Y-128036487D01*
X164661116Y-128008211D01*
X164694375Y-127974536D01*
X164733656Y-127935023D01*
X164779376Y-127889230D01*
X164811240Y-127857380D01*
X164850807Y-127817897D01*
X164884489Y-127784407D01*
X164912801Y-127756429D01*
X164936259Y-127733485D01*
X164955378Y-127715093D01*
X164970673Y-127700773D01*
X164982660Y-127690047D01*
X164991853Y-127682434D01*
X164998769Y-127677453D01*
X165003923Y-127674626D01*
X165007830Y-127673472D01*
X165011005Y-127673511D01*
X165015349Y-127675447D01*
X165027407Y-127682457D01*
X165046080Y-127694118D01*
X165070655Y-127709960D01*
X165100416Y-127729513D01*
X165134652Y-127752308D01*
X165172649Y-127777876D01*
X165213693Y-127805747D01*
X165257071Y-127835451D01*
X165293478Y-127860424D01*
X165334324Y-127888297D01*
X165372500Y-127914194D01*
X165407259Y-127937618D01*
X165437856Y-127958069D01*
X165463544Y-127975049D01*
X165483576Y-127988060D01*
X165497207Y-127996603D01*
X165503690Y-128000180D01*
X165504370Y-128000401D01*
X165508408Y-128001093D01*
X165513882Y-128000839D01*
X165521537Y-127999372D01*
X165532119Y-127996428D01*
X165546375Y-127991741D01*
X165565052Y-127985043D01*
X165588896Y-127976069D01*
X165618652Y-127964554D01*
X165655068Y-127950231D01*
X165698890Y-127932834D01*
X165750863Y-127912098D01*
X165781826Y-127899695D01*
X165836753Y-127877501D01*
X165882973Y-127858534D01*
X165920678Y-127842711D01*
X165950061Y-127829950D01*
X165971315Y-127820167D01*
X165984632Y-127813280D01*
X165990206Y-127809205D01*
X165991779Y-127806670D01*
X165993307Y-127803613D01*
X165994908Y-127799378D01*
X165996721Y-127793278D01*
X165998885Y-127784624D01*
X166001540Y-127772726D01*
X166004824Y-127756896D01*
X166008877Y-127736445D01*
X166013839Y-127710685D01*
X166019847Y-127678927D01*
X166027043Y-127640482D01*
X166035564Y-127594662D01*
X166045551Y-127540778D01*
X166057142Y-127478141D01*
X166058411Y-127471282D01*
X166068748Y-127415702D01*
X166077591Y-127368772D01*
X166085097Y-127329765D01*
X166091422Y-127297957D01*
X166096723Y-127272624D01*
X166101155Y-127253040D01*
X166104876Y-127238482D01*
X166108041Y-127228223D01*
X166110807Y-127221540D01*
X166113330Y-127217708D01*
X166123338Y-127206907D01*
X166428904Y-127206907D01*
X166734469Y-127206907D01*
X166744518Y-127217708D01*
G37*
G36*
X139567948Y-125868216D02*
G01*
X139587174Y-125879632D01*
X139613725Y-125902486D01*
X139635050Y-125931803D01*
X139651644Y-125968800D01*
X139664004Y-126014693D01*
X139672625Y-126070698D01*
X139678004Y-126138031D01*
X139682207Y-126216684D01*
X139516557Y-126216684D01*
X139350908Y-126216684D01*
X139354503Y-126121980D01*
X139354824Y-126114164D01*
X139359671Y-126050858D01*
X139368443Y-125998495D01*
X139381655Y-125955772D01*
X139399823Y-125921381D01*
X139423462Y-125894018D01*
X139453088Y-125872375D01*
X139457566Y-125869857D01*
X139494281Y-125856718D01*
X139531508Y-125856155D01*
X139567948Y-125868216D01*
G37*
G36*
X139539872Y-131147245D02*
G01*
X139567848Y-131160549D01*
X139598175Y-131184986D01*
X139604021Y-131190604D01*
X139626833Y-131216607D01*
X139644599Y-131245441D01*
X139657969Y-131279084D01*
X139667592Y-131319512D01*
X139674116Y-131368701D01*
X139678192Y-131428628D01*
X139682148Y-131513701D01*
X139517461Y-131513701D01*
X139352773Y-131513701D01*
X139352773Y-131442699D01*
X139353496Y-131404384D01*
X139359321Y-131336416D01*
X139371149Y-131279295D01*
X139389172Y-131232584D01*
X139413583Y-131195847D01*
X139444577Y-131168647D01*
X139482346Y-131150550D01*
X139511729Y-131144324D01*
X139539872Y-131147245D01*
G37*
G36*
X141085615Y-124914565D02*
G01*
X141109060Y-124914941D01*
X141149301Y-124915916D01*
X141184228Y-124917185D01*
X141211960Y-124918657D01*
X141230614Y-124920241D01*
X141238310Y-124921850D01*
X141241145Y-124928868D01*
X141243793Y-124947434D01*
X141245395Y-124974753D01*
X141245925Y-125008572D01*
X141245356Y-125046633D01*
X141243658Y-125086683D01*
X141240805Y-125126466D01*
X141239350Y-125141540D01*
X141229679Y-125205471D01*
X141214776Y-125259421D01*
X141193881Y-125305130D01*
X141166239Y-125344340D01*
X141131092Y-125378792D01*
X141127090Y-125382089D01*
X141100965Y-125400774D01*
X141075584Y-125412337D01*
X141046507Y-125418287D01*
X141009295Y-125420128D01*
X140987652Y-125419900D01*
X140954249Y-125416824D01*
X140927406Y-125409131D01*
X140903179Y-125395452D01*
X140877621Y-125374418D01*
X140861720Y-125359224D01*
X140840286Y-125334390D01*
X140824978Y-125308295D01*
X140812567Y-125276062D01*
X140812082Y-125274495D01*
X140807933Y-125250927D01*
X140805758Y-125215693D01*
X140805620Y-125169740D01*
X140806323Y-125137231D01*
X140807557Y-125112443D01*
X140809957Y-125093838D01*
X140814191Y-125078004D01*
X140820927Y-125061534D01*
X140830833Y-125041018D01*
X140836866Y-125029363D01*
X140862625Y-124989815D01*
X140896439Y-124952780D01*
X140938258Y-124912623D01*
X141085615Y-124914565D01*
G37*
G36*
X141832645Y-122975873D02*
G01*
X141849048Y-123007161D01*
X141872386Y-123063170D01*
X141885956Y-123116592D01*
X141890553Y-123170097D01*
X141889379Y-123208643D01*
X141883977Y-123243186D01*
X141873058Y-123274691D01*
X141855367Y-123308070D01*
X141852025Y-123313453D01*
X141821632Y-123350154D01*
X141780312Y-123382644D01*
X141727701Y-123411127D01*
X141663436Y-123435803D01*
X141587151Y-123456874D01*
X141582827Y-123457868D01*
X141563873Y-123461658D01*
X141543227Y-123464695D01*
X141519032Y-123467106D01*
X141489429Y-123469017D01*
X141452559Y-123470553D01*
X141406565Y-123471841D01*
X141349588Y-123473007D01*
X141336460Y-123473243D01*
X141284335Y-123474076D01*
X141242677Y-123474470D01*
X141209546Y-123474350D01*
X141183000Y-123473638D01*
X141161100Y-123472258D01*
X141141904Y-123470134D01*
X141123473Y-123467190D01*
X141103865Y-123463349D01*
X141047456Y-123448173D01*
X140992441Y-123425883D01*
X140943928Y-123398260D01*
X140903492Y-123366368D01*
X140872706Y-123331269D01*
X140853142Y-123294025D01*
X140851374Y-123288527D01*
X140845212Y-123256277D01*
X140842648Y-123216889D01*
X140843622Y-123174627D01*
X140848072Y-123133756D01*
X140855937Y-123098541D01*
X140872678Y-123052515D01*
X140898187Y-122998306D01*
X140926989Y-122950190D01*
X140945705Y-122922902D01*
X141374430Y-122922902D01*
X141803155Y-122922902D01*
X141832645Y-122975873D01*
G37*
G36*
X140485919Y-128355359D02*
G01*
X140544868Y-128386856D01*
X141423329Y-128386856D01*
X142301789Y-128386856D01*
X142298143Y-128714840D01*
X142297925Y-128733916D01*
X142297121Y-128796568D01*
X142296241Y-128854923D01*
X142295312Y-128907760D01*
X142294360Y-128953858D01*
X142293412Y-128991998D01*
X142292496Y-129020958D01*
X142291637Y-129039518D01*
X142290863Y-129046458D01*
X142290763Y-129046539D01*
X142283310Y-129045311D01*
X142268007Y-129039104D01*
X142248039Y-129029204D01*
X142215929Y-129014952D01*
X142162851Y-129002412D01*
X142153846Y-129001704D01*
X142131098Y-129000802D01*
X142097252Y-128999981D01*
X142053308Y-128999241D01*
X142000263Y-128998582D01*
X141939113Y-128998003D01*
X141870856Y-128997504D01*
X141796490Y-128997085D01*
X141717012Y-128996745D01*
X141633419Y-128996485D01*
X141546710Y-128996304D01*
X141457880Y-128996202D01*
X141367928Y-128996178D01*
X141277850Y-128996232D01*
X141188645Y-128996364D01*
X141101310Y-128996573D01*
X141016842Y-128996860D01*
X140936239Y-128997224D01*
X140860497Y-128997664D01*
X140790615Y-128998181D01*
X140727589Y-128998774D01*
X140672418Y-128999443D01*
X140626098Y-129000188D01*
X140589626Y-129001008D01*
X140564001Y-129001903D01*
X140550220Y-129002872D01*
X140547059Y-129003304D01*
X140514570Y-129009319D01*
X140488654Y-129018148D01*
X140463542Y-129031708D01*
X140428228Y-129053672D01*
X140424521Y-129014008D01*
X140424451Y-129013238D01*
X140423294Y-128993183D01*
X140422288Y-128962208D01*
X140421440Y-128922130D01*
X140420755Y-128874768D01*
X140420237Y-128821938D01*
X140419893Y-128765458D01*
X140419728Y-128707146D01*
X140419746Y-128648820D01*
X140419954Y-128592297D01*
X140420356Y-128539394D01*
X140420958Y-128491930D01*
X140421766Y-128451721D01*
X140422784Y-128420586D01*
X140426970Y-128323862D01*
X140485919Y-128355359D01*
G37*
G36*
X140484409Y-129269981D02*
G01*
X140503727Y-129288053D01*
X140529529Y-129311318D01*
X140557885Y-129335903D01*
X140589410Y-129362270D01*
X140624716Y-129390884D01*
X140664418Y-129422210D01*
X140709127Y-129456711D01*
X140759457Y-129494851D01*
X140816023Y-129537095D01*
X140879436Y-129583907D01*
X140950312Y-129635750D01*
X141029262Y-129693089D01*
X141116900Y-129756388D01*
X141213840Y-129826110D01*
X141320695Y-129902721D01*
X141327847Y-129907841D01*
X141407145Y-129964540D01*
X141476727Y-130014127D01*
X141537203Y-130057016D01*
X141589184Y-130093623D01*
X141633280Y-130124364D01*
X141670101Y-130149653D01*
X141700258Y-130169907D01*
X141724361Y-130185541D01*
X141743020Y-130196970D01*
X141756846Y-130204610D01*
X141766449Y-130208875D01*
X141772439Y-130210182D01*
X141775373Y-130209499D01*
X141784722Y-130204708D01*
X141799721Y-130194990D01*
X141820900Y-130179939D01*
X141848793Y-130159151D01*
X141883931Y-130132221D01*
X141926848Y-130098742D01*
X141978074Y-130058309D01*
X142038144Y-130010518D01*
X142107588Y-129954962D01*
X142173252Y-129902287D01*
X142275252Y-129820301D01*
X142367897Y-129745595D01*
X142451657Y-129677769D01*
X142527003Y-129616421D01*
X142594405Y-129561151D01*
X142654332Y-129511555D01*
X142707255Y-129467234D01*
X142753645Y-129427786D01*
X142793970Y-129392810D01*
X142828703Y-129361905D01*
X142858312Y-129334669D01*
X142883269Y-129310700D01*
X142904042Y-129289599D01*
X142921103Y-129270962D01*
X142934922Y-129254390D01*
X142945969Y-129239481D01*
X142964376Y-129212835D01*
X142968441Y-129254105D01*
X142969040Y-129264102D01*
X142969783Y-129287271D01*
X142970494Y-129320969D01*
X142971159Y-129363904D01*
X142971761Y-129414784D01*
X142972287Y-129472316D01*
X142972722Y-129535208D01*
X142973050Y-129602166D01*
X142973256Y-129671900D01*
X142973370Y-129737692D01*
X142973427Y-129807447D01*
X142973370Y-129866099D01*
X142973177Y-129914606D01*
X142972822Y-129953925D01*
X142972283Y-129985014D01*
X142971536Y-130008829D01*
X142970557Y-130026329D01*
X142969323Y-130038471D01*
X142967810Y-130046212D01*
X142965993Y-130050510D01*
X142963851Y-130052322D01*
X142955912Y-130053972D01*
X142937738Y-130055592D01*
X142915275Y-130056219D01*
X142889073Y-130058727D01*
X142845401Y-130071311D01*
X142796146Y-130094203D01*
X142742081Y-130127088D01*
X142725538Y-130138556D01*
X142697494Y-130158789D01*
X142662500Y-130184639D01*
X142621631Y-130215271D01*
X142575961Y-130249849D01*
X142526563Y-130287536D01*
X142474512Y-130327498D01*
X142420881Y-130368899D01*
X142366746Y-130410902D01*
X142313179Y-130452672D01*
X142261254Y-130493372D01*
X142212047Y-130532168D01*
X142166630Y-130568223D01*
X142126077Y-130600702D01*
X142091464Y-130628769D01*
X142063863Y-130651587D01*
X142044348Y-130668322D01*
X142033995Y-130678137D01*
X142021764Y-130691861D01*
X142294030Y-130691671D01*
X142392864Y-130691319D01*
X142487015Y-130690360D01*
X142571015Y-130688811D01*
X142644418Y-130686690D01*
X142706778Y-130684011D01*
X142757646Y-130680791D01*
X142796576Y-130677046D01*
X142823122Y-130672792D01*
X142830245Y-130670914D01*
X142853866Y-130662692D01*
X142882193Y-130650909D01*
X142910563Y-130637450D01*
X142965900Y-130609263D01*
X142969898Y-130642536D01*
X142970513Y-130649956D01*
X142971426Y-130671208D01*
X142972189Y-130702223D01*
X142972803Y-130741590D01*
X142973274Y-130787896D01*
X142973605Y-130839727D01*
X142973800Y-130895671D01*
X142973861Y-130954315D01*
X142973794Y-131014247D01*
X142973601Y-131074053D01*
X142973286Y-131132321D01*
X142972854Y-131187637D01*
X142972307Y-131238590D01*
X142971649Y-131283766D01*
X142970884Y-131321752D01*
X142970016Y-131351136D01*
X142969048Y-131370504D01*
X142967984Y-131378444D01*
X142967749Y-131378808D01*
X142962268Y-131383073D01*
X142953244Y-131380821D01*
X142937441Y-131371295D01*
X142922603Y-131361776D01*
X142886662Y-131342167D01*
X142851925Y-131329336D01*
X142813136Y-131321164D01*
X142799137Y-131319729D01*
X142771692Y-131318157D01*
X142733287Y-131316728D01*
X142684743Y-131315439D01*
X142626879Y-131314290D01*
X142560518Y-131313278D01*
X142486480Y-131312401D01*
X142405585Y-131311658D01*
X142318654Y-131311045D01*
X142226508Y-131310561D01*
X142129968Y-131310205D01*
X142029854Y-131309974D01*
X141926987Y-131309865D01*
X141822189Y-131309878D01*
X141716278Y-131310010D01*
X141610077Y-131310260D01*
X141504406Y-131310624D01*
X141400086Y-131311101D01*
X141297937Y-131311690D01*
X141198781Y-131312388D01*
X141103437Y-131313192D01*
X141012727Y-131314102D01*
X140927472Y-131315116D01*
X140848491Y-131316230D01*
X140776607Y-131317443D01*
X140712639Y-131318754D01*
X140657408Y-131320160D01*
X140611736Y-131321659D01*
X140576442Y-131323249D01*
X140552348Y-131324928D01*
X140540274Y-131326694D01*
X140539446Y-131326961D01*
X140522032Y-131334235D01*
X140498897Y-131345897D01*
X140474814Y-131359552D01*
X140470414Y-131362188D01*
X140449994Y-131373923D01*
X140434275Y-131382173D01*
X140426359Y-131385289D01*
X140425463Y-131380746D01*
X140424524Y-131364659D01*
X140423703Y-131338244D01*
X140423001Y-131302859D01*
X140422416Y-131259859D01*
X140421950Y-131210600D01*
X140421601Y-131156438D01*
X140421369Y-131098729D01*
X140421255Y-131038829D01*
X140421257Y-130978093D01*
X140421376Y-130917879D01*
X140421612Y-130859540D01*
X140421963Y-130804435D01*
X140422430Y-130753917D01*
X140423013Y-130709344D01*
X140423712Y-130672072D01*
X140424525Y-130643455D01*
X140425454Y-130624851D01*
X140426497Y-130617615D01*
X140427691Y-130617180D01*
X140437998Y-130619283D01*
X140455723Y-130626027D01*
X140477862Y-130636317D01*
X140501369Y-130647386D01*
X140536787Y-130660911D01*
X140574688Y-130671126D01*
X140618517Y-130678897D01*
X140671722Y-130685093D01*
X140673228Y-130685233D01*
X140694459Y-130686565D01*
X140725508Y-130687748D01*
X140764961Y-130688778D01*
X140811399Y-130689653D01*
X140863409Y-130690372D01*
X140919572Y-130690934D01*
X140978473Y-130691334D01*
X141038696Y-130691573D01*
X141098825Y-130691648D01*
X141157444Y-130691557D01*
X141213135Y-130691298D01*
X141264484Y-130690868D01*
X141310073Y-130690267D01*
X141348488Y-130689492D01*
X141378311Y-130688542D01*
X141398126Y-130687413D01*
X141406518Y-130686105D01*
X141406998Y-130685761D01*
X141408040Y-130683750D01*
X141406882Y-130680508D01*
X141402842Y-130675507D01*
X141395241Y-130668218D01*
X141383396Y-130658112D01*
X141366629Y-130644660D01*
X141344258Y-130627333D01*
X141315603Y-130605603D01*
X141279982Y-130578940D01*
X141236716Y-130546816D01*
X141185124Y-130508702D01*
X141124525Y-130464070D01*
X141054239Y-130412389D01*
X140978215Y-130356703D01*
X140904170Y-130302989D01*
X140838719Y-130256246D01*
X140781048Y-130216008D01*
X140730342Y-130181809D01*
X140685786Y-130153184D01*
X140646567Y-130129669D01*
X140611870Y-130110799D01*
X140580880Y-130096107D01*
X140552783Y-130085130D01*
X140526764Y-130077402D01*
X140502009Y-130072458D01*
X140477704Y-130069832D01*
X140453034Y-130069060D01*
X140418597Y-130069060D01*
X140418597Y-129638225D01*
X140418597Y-129207390D01*
X140484409Y-129269981D01*
G37*
G36*
X144078354Y-127000001D02*
G01*
X144078354Y-132386906D01*
X142147973Y-132386906D01*
X141478001Y-132386906D01*
X139553782Y-132386906D01*
X138877647Y-132386906D01*
X138877647Y-131523129D01*
X139245451Y-131523129D01*
X139245993Y-131553952D01*
X139247342Y-131576587D01*
X139249570Y-131588724D01*
X139250508Y-131590812D01*
X139254553Y-131598223D01*
X139260010Y-131604219D01*
X139268148Y-131608951D01*
X139280237Y-131612570D01*
X139297547Y-131615229D01*
X139321349Y-131617078D01*
X139352912Y-131618268D01*
X139393506Y-131618952D01*
X139444402Y-131619281D01*
X139506868Y-131619405D01*
X139553782Y-131619426D01*
X139610296Y-131619244D01*
X139656066Y-131618634D01*
X139692324Y-131617392D01*
X139720301Y-131615317D01*
X139741226Y-131612207D01*
X139756331Y-131607859D01*
X139766847Y-131602073D01*
X139774004Y-131594645D01*
X139779034Y-131585373D01*
X139783166Y-131574057D01*
X139784845Y-131567012D01*
X139787206Y-131543980D01*
X139788060Y-131511797D01*
X139787498Y-131472891D01*
X139785611Y-131429690D01*
X139782489Y-131384624D01*
X139778224Y-131340122D01*
X139772904Y-131298610D01*
X139772508Y-131295982D01*
X139757631Y-131230077D01*
X139734579Y-131173979D01*
X139703110Y-131127407D01*
X139662987Y-131090076D01*
X139613968Y-131061705D01*
X139591122Y-131053967D01*
X139555816Y-131042010D01*
X139555011Y-131041812D01*
X139533464Y-131036777D01*
X139517596Y-131034573D01*
X139502924Y-131035455D01*
X139484966Y-131039677D01*
X139459239Y-131047493D01*
X139450744Y-131050250D01*
X139394113Y-131075319D01*
X139346801Y-131109184D01*
X139308697Y-131151967D01*
X139279687Y-131203791D01*
X139259657Y-131264779D01*
X139258212Y-131272025D01*
X139255118Y-131295523D01*
X139252328Y-131326993D01*
X139249914Y-131364128D01*
X139247947Y-131404617D01*
X139246500Y-131446153D01*
X139245644Y-131486427D01*
X139245451Y-131523129D01*
X138877647Y-131523129D01*
X138877647Y-130561047D01*
X139244672Y-130561047D01*
X139244855Y-130606367D01*
X139245298Y-130648048D01*
X139246008Y-130684114D01*
X139246996Y-130712590D01*
X139248271Y-130731501D01*
X139248584Y-130733993D01*
X139253487Y-130751760D01*
X139261009Y-130763604D01*
X139263703Y-130765072D01*
X139272561Y-130767234D01*
X139287748Y-130769025D01*
X139310350Y-130770491D01*
X139341452Y-130771683D01*
X139382139Y-130772647D01*
X139433496Y-130773433D01*
X139496609Y-130774088D01*
X139540244Y-130774394D01*
X139591122Y-130774553D01*
X139637338Y-130774484D01*
X139677257Y-130774200D01*
X139709244Y-130773714D01*
X139731661Y-130773037D01*
X139742875Y-130772183D01*
X139746892Y-130771415D01*
X139757209Y-130768789D01*
X139765516Y-130764627D01*
X139772034Y-130757672D01*
X139776981Y-130746669D01*
X139780576Y-130730362D01*
X139783039Y-130707494D01*
X139784589Y-130676809D01*
X139785444Y-130637051D01*
X139785825Y-130586965D01*
X139785950Y-130525293D01*
X139785964Y-130476543D01*
X139785838Y-130428043D01*
X139785489Y-130389836D01*
X139784850Y-130360526D01*
X139783853Y-130338718D01*
X139782431Y-130323016D01*
X139780514Y-130312022D01*
X139778036Y-130304342D01*
X139774929Y-130298580D01*
X139763605Y-130284857D01*
X139750475Y-130274319D01*
X139744323Y-130271826D01*
X139724369Y-130270643D01*
X139705042Y-130276956D01*
X139692026Y-130289306D01*
X139690893Y-130292683D01*
X139688359Y-130309149D01*
X139685884Y-130337210D01*
X139683523Y-130376004D01*
X139681333Y-130424668D01*
X139679371Y-130482340D01*
X139679181Y-130488727D01*
X139677729Y-130534850D01*
X139676286Y-130576394D01*
X139674920Y-130611706D01*
X139673698Y-130639137D01*
X139672687Y-130657034D01*
X139671957Y-130663746D01*
X139671838Y-130663833D01*
X139664066Y-130665486D01*
X139647176Y-130667716D01*
X139624591Y-130670066D01*
X139618566Y-130670626D01*
X139579339Y-130674272D01*
X139576126Y-130551719D01*
X139575137Y-130518170D01*
X139573294Y-130477022D01*
X139570646Y-130446261D01*
X139566751Y-130424409D01*
X139561169Y-130409986D01*
X139553461Y-130401515D01*
X139543186Y-130397516D01*
X139529904Y-130396512D01*
X139519236Y-130397040D01*
X139500707Y-130402551D01*
X139487936Y-130415484D01*
X139479601Y-130437605D01*
X139474383Y-130470677D01*
X139472820Y-130488699D01*
X139470791Y-130522772D01*
X139469334Y-130560713D01*
X139468691Y-130597157D01*
X139468344Y-130672599D01*
X139411482Y-130672599D01*
X139354620Y-130672599D01*
X139350650Y-130497637D01*
X139349452Y-130450775D01*
X139348079Y-130407150D01*
X139346616Y-130368842D01*
X139345143Y-130337731D01*
X139343738Y-130315700D01*
X139342483Y-130304627D01*
X139335968Y-130290382D01*
X139322766Y-130276410D01*
X139313401Y-130271329D01*
X139300492Y-130269625D01*
X139282107Y-130273774D01*
X139268026Y-130279003D01*
X139256998Y-130288478D01*
X139250330Y-130305201D01*
X139249821Y-130307815D01*
X139248463Y-130323306D01*
X139247296Y-130348985D01*
X139246331Y-130382875D01*
X139245576Y-130423001D01*
X139245042Y-130467389D01*
X139244737Y-130514062D01*
X139244672Y-130561047D01*
X138877647Y-130561047D01*
X138877647Y-130229982D01*
X140037048Y-130229982D01*
X140037066Y-130349645D01*
X140037119Y-130466196D01*
X140037210Y-130578939D01*
X140037338Y-130687176D01*
X140037505Y-130790210D01*
X140037711Y-130887344D01*
X140037958Y-130977882D01*
X140038246Y-131061127D01*
X140038576Y-131136381D01*
X140038948Y-131202948D01*
X140039365Y-131260130D01*
X140039825Y-131307232D01*
X140040331Y-131343555D01*
X140040456Y-131350645D01*
X140041763Y-131412181D01*
X140043314Y-131465556D01*
X140045067Y-131509833D01*
X140046979Y-131544078D01*
X140049008Y-131567354D01*
X140051109Y-131578725D01*
X140061715Y-131592715D01*
X140079451Y-131603831D01*
X140081749Y-131604440D01*
X140089555Y-131605481D01*
X140102498Y-131606458D01*
X140121059Y-131607378D01*
X140145719Y-131608246D01*
X140176959Y-131609067D01*
X140215262Y-131609846D01*
X140261109Y-131610591D01*
X140314981Y-131611305D01*
X140377360Y-131611995D01*
X140448728Y-131612667D01*
X140529566Y-131613325D01*
X140620356Y-131613976D01*
X140721579Y-131614625D01*
X140833718Y-131615277D01*
X140957252Y-131615939D01*
X141092665Y-131616616D01*
X141240437Y-131617313D01*
X141241391Y-131617317D01*
X141439171Y-131618150D01*
X141628990Y-131618797D01*
X141810577Y-131619257D01*
X141983662Y-131619535D01*
X142147973Y-131619631D01*
X142303240Y-131619547D01*
X142449190Y-131619285D01*
X142585554Y-131618847D01*
X142712059Y-131618235D01*
X142828436Y-131617451D01*
X142934412Y-131616495D01*
X143029716Y-131615371D01*
X143114078Y-131614080D01*
X143187227Y-131612624D01*
X143248890Y-131611005D01*
X143298798Y-131609224D01*
X143336679Y-131607284D01*
X143362261Y-131605185D01*
X143375275Y-131602931D01*
X143379927Y-131601561D01*
X143384790Y-131600479D01*
X143389236Y-131599385D01*
X143393285Y-131597744D01*
X143396957Y-131595022D01*
X143400272Y-131590683D01*
X143403249Y-131584193D01*
X143405908Y-131575018D01*
X143408270Y-131562624D01*
X143410353Y-131546475D01*
X143412177Y-131526037D01*
X143413763Y-131500776D01*
X143415130Y-131470158D01*
X143416298Y-131433647D01*
X143417287Y-131390709D01*
X143418116Y-131340809D01*
X143418806Y-131283414D01*
X143419376Y-131217989D01*
X143419845Y-131143998D01*
X143420235Y-131060908D01*
X143420564Y-130968184D01*
X143420852Y-130865291D01*
X143421119Y-130751696D01*
X143421385Y-130626863D01*
X143421670Y-130490258D01*
X143421993Y-130341346D01*
X143424695Y-129140097D01*
X143373692Y-129137184D01*
X143351824Y-129135935D01*
X143327359Y-129134291D01*
X143277495Y-129128690D01*
X143234779Y-129119878D01*
X143195322Y-129106925D01*
X143155232Y-129088900D01*
X143093075Y-129050827D01*
X143037967Y-129002768D01*
X142991101Y-128946136D01*
X142953360Y-128882191D01*
X142925628Y-128812193D01*
X142908788Y-128737403D01*
X142905979Y-128711991D01*
X142906847Y-128656534D01*
X143022303Y-128656534D01*
X143022776Y-128721446D01*
X143035855Y-128784414D01*
X143061445Y-128844938D01*
X143099450Y-128902519D01*
X143116748Y-128922595D01*
X143163187Y-128962841D01*
X143217018Y-128992894D01*
X143277519Y-129012406D01*
X143343966Y-129021024D01*
X143373692Y-129021341D01*
X143438435Y-129014099D01*
X143497382Y-128995527D01*
X143551065Y-128965422D01*
X143600018Y-128923581D01*
X143620298Y-128901016D01*
X143656268Y-128848104D01*
X143681236Y-128791051D01*
X143695203Y-128731393D01*
X143698169Y-128670668D01*
X143690133Y-128610415D01*
X143671096Y-128552172D01*
X143641057Y-128497476D01*
X143600017Y-128447865D01*
X143563224Y-128416104D01*
X143509538Y-128383412D01*
X143451266Y-128361038D01*
X143390280Y-128349303D01*
X143328453Y-128348525D01*
X143267659Y-128359027D01*
X143209769Y-128381128D01*
X143181804Y-128397069D01*
X143134227Y-128433677D01*
X143092906Y-128477888D01*
X143060036Y-128527174D01*
X143037812Y-128579011D01*
X143034532Y-128590177D01*
X143022303Y-128656534D01*
X142906847Y-128656534D01*
X142907041Y-128644168D01*
X142920662Y-128576052D01*
X142946938Y-128507047D01*
X142951045Y-128498456D01*
X142990035Y-128430890D01*
X143036070Y-128373904D01*
X143089474Y-128327151D01*
X143150574Y-128290286D01*
X143169983Y-128281070D01*
X143211618Y-128264305D01*
X143252778Y-128252771D01*
X143297850Y-128245392D01*
X143351219Y-128241092D01*
X143423451Y-128237273D01*
X143423451Y-128200608D01*
X143422866Y-128181036D01*
X143419587Y-128165536D01*
X143411507Y-128151392D01*
X143396523Y-128133350D01*
X143369595Y-128102758D01*
X141757658Y-128106551D01*
X141704732Y-128106679D01*
X141696309Y-128106701D01*
X141562403Y-128107050D01*
X141423431Y-128107455D01*
X141288375Y-128107891D01*
X141157791Y-128108352D01*
X141032238Y-128108838D01*
X140912274Y-128109344D01*
X140798457Y-128109867D01*
X140691343Y-128110405D01*
X140591493Y-128110953D01*
X140499463Y-128111510D01*
X140415810Y-128112071D01*
X140341094Y-128112634D01*
X140275872Y-128113195D01*
X140220702Y-128113751D01*
X140176141Y-128114300D01*
X140142748Y-128114837D01*
X140121080Y-128115361D01*
X140111696Y-128115867D01*
X140089959Y-128120347D01*
X140072748Y-128127495D01*
X140060902Y-128139065D01*
X140053073Y-128157161D01*
X140047910Y-128183888D01*
X140044063Y-128221352D01*
X140043559Y-128232477D01*
X140043010Y-128256499D01*
X140042479Y-128292044D01*
X140041968Y-128338415D01*
X140041477Y-128394917D01*
X140041007Y-128460851D01*
X140040560Y-128535522D01*
X140040135Y-128618231D01*
X140039733Y-128708283D01*
X140039357Y-128804980D01*
X140039005Y-128907625D01*
X140038680Y-129015521D01*
X140038382Y-129127972D01*
X140038111Y-129244280D01*
X140037869Y-129363749D01*
X140037657Y-129485681D01*
X140037475Y-129609380D01*
X140037324Y-129734149D01*
X140037205Y-129859290D01*
X140037119Y-129984107D01*
X140037066Y-130107904D01*
X140037048Y-130229982D01*
X138877647Y-130229982D01*
X138877647Y-129767964D01*
X139244002Y-129767964D01*
X139245016Y-129819010D01*
X139248001Y-129869347D01*
X139252768Y-129916956D01*
X139259129Y-129959821D01*
X139266894Y-129995924D01*
X139275874Y-130023247D01*
X139285880Y-130039774D01*
X139288206Y-130041842D01*
X139306065Y-130048934D01*
X139327394Y-130047464D01*
X139347140Y-130037611D01*
X139362191Y-130025423D01*
X139360332Y-129836966D01*
X139359990Y-129800331D01*
X139359670Y-129753254D01*
X139359672Y-129716487D01*
X139360071Y-129688494D01*
X139360942Y-129667739D01*
X139362361Y-129652685D01*
X139364402Y-129641796D01*
X139367142Y-129633536D01*
X139370655Y-129626368D01*
X139373829Y-129620768D01*
X139386431Y-129602641D01*
X139397873Y-129593955D01*
X139408457Y-129595191D01*
X139418485Y-129606828D01*
X139428259Y-129629349D01*
X139438082Y-129663233D01*
X139448256Y-129708962D01*
X139459083Y-129767015D01*
X139467327Y-129812113D01*
X139479159Y-129869405D01*
X139490515Y-129915401D01*
X139501265Y-129949595D01*
X139511280Y-129971483D01*
X139519099Y-129982397D01*
X139533945Y-130000397D01*
X139551095Y-130019300D01*
X139556497Y-130024931D01*
X139571158Y-130039025D01*
X139583230Y-130046439D01*
X139597452Y-130049316D01*
X139618566Y-130049798D01*
X139649333Y-130047200D01*
X139686690Y-130034665D01*
X139717961Y-130011375D01*
X139743658Y-129976912D01*
X139764291Y-129930859D01*
X139768647Y-129916839D01*
X139777408Y-129875481D01*
X139783565Y-129825778D01*
X139786898Y-129770763D01*
X139787186Y-129713466D01*
X139784209Y-129656920D01*
X139780664Y-129621139D01*
X139772603Y-129566933D01*
X139762275Y-129525096D01*
X139753766Y-129505170D01*
X139749612Y-129495442D01*
X139734548Y-129477786D01*
X139717015Y-129471942D01*
X139707125Y-129473536D01*
X139688927Y-129481502D01*
X139672708Y-129493234D01*
X139663737Y-129505421D01*
X139663191Y-129510896D01*
X139663477Y-129528135D01*
X139664947Y-129554103D01*
X139667456Y-129586385D01*
X139670855Y-129622572D01*
X139671921Y-129633182D01*
X139675766Y-129675782D01*
X139677859Y-129710254D01*
X139678271Y-129740369D01*
X139677076Y-129769894D01*
X139674347Y-129802599D01*
X139674305Y-129803024D01*
X139668068Y-129851875D01*
X139660125Y-129889464D01*
X139650633Y-129915482D01*
X139639748Y-129929619D01*
X139627628Y-129931566D01*
X139614427Y-129921015D01*
X139606640Y-129908565D01*
X139597823Y-129886514D01*
X139589138Y-129855375D01*
X139580245Y-129813907D01*
X139570808Y-129760870D01*
X139566605Y-129735820D01*
X139557549Y-129684748D01*
X139549309Y-129643768D01*
X139541334Y-129611019D01*
X139533073Y-129584638D01*
X139523975Y-129562764D01*
X139513490Y-129543534D01*
X139501066Y-129525086D01*
X139500368Y-129524135D01*
X139472283Y-129495914D01*
X139438384Y-129478129D01*
X139400865Y-129471942D01*
X139387549Y-129472498D01*
X139360921Y-129478599D01*
X139336758Y-129492920D01*
X139311424Y-129517305D01*
X139286040Y-129551563D01*
X139263146Y-129601508D01*
X139250177Y-129658858D01*
X139248644Y-129671810D01*
X139245148Y-129718224D01*
X139244002Y-129767964D01*
X138877647Y-129767964D01*
X138877647Y-129165308D01*
X139244963Y-129165308D01*
X139255314Y-129183921D01*
X139277650Y-129200506D01*
X139278136Y-129200765D01*
X139284832Y-129203675D01*
X139293596Y-129206021D01*
X139305776Y-129207863D01*
X139322718Y-129209261D01*
X139345768Y-129210278D01*
X139376273Y-129210973D01*
X139415579Y-129211409D01*
X139465033Y-129211644D01*
X139525982Y-129211742D01*
X139753766Y-129211906D01*
X139768595Y-129185066D01*
X139772710Y-129176879D01*
X139779573Y-129152054D01*
X139776209Y-129131963D01*
X139762766Y-129118311D01*
X139758587Y-129117179D01*
X139742255Y-129115247D01*
X139716044Y-129113406D01*
X139681835Y-129111695D01*
X139641510Y-129110155D01*
X139596951Y-129108827D01*
X139550039Y-129107751D01*
X139508008Y-129107056D01*
X139502657Y-129106968D01*
X139456687Y-129106518D01*
X139414010Y-129106443D01*
X139376508Y-129106782D01*
X139346064Y-129107576D01*
X139324559Y-129108865D01*
X139306079Y-129110870D01*
X139284210Y-129114783D01*
X139269588Y-129120403D01*
X139258748Y-129128781D01*
X139246880Y-129145742D01*
X139244963Y-129165308D01*
X138877647Y-129165308D01*
X138877647Y-128478158D01*
X139247252Y-128478158D01*
X139248853Y-128534653D01*
X139254025Y-128586903D01*
X139262687Y-128630840D01*
X139272841Y-128661517D01*
X139299667Y-128714584D01*
X139335667Y-128762082D01*
X139378990Y-128801761D01*
X139427781Y-128831369D01*
X139432831Y-128833696D01*
X139472519Y-128848579D01*
X139508008Y-128854246D01*
X139543345Y-128850886D01*
X139582578Y-128838693D01*
X139631824Y-128815355D01*
X139675155Y-128784477D01*
X139710234Y-128746173D01*
X139737853Y-128699351D01*
X139758809Y-128642917D01*
X139773897Y-128575779D01*
X139775386Y-128566362D01*
X139779827Y-128524811D01*
X139781857Y-128479756D01*
X139781561Y-128434434D01*
X139779020Y-128392085D01*
X139774320Y-128355945D01*
X139767542Y-128329253D01*
X139755161Y-128303156D01*
X139737451Y-128281771D01*
X139717653Y-128271770D01*
X139696808Y-128273626D01*
X139675958Y-128287809D01*
X139669373Y-128294782D01*
X139663355Y-128304785D01*
X139662266Y-128317390D01*
X139665014Y-128337569D01*
X139665694Y-128342336D01*
X139667621Y-128364318D01*
X139669176Y-128394685D01*
X139670215Y-128430071D01*
X139670594Y-128467114D01*
X139670517Y-128492030D01*
X139669901Y-128525270D01*
X139668382Y-128550660D01*
X139665623Y-128571321D01*
X139661286Y-128590372D01*
X139655033Y-128610935D01*
X139640637Y-128647008D01*
X139616286Y-128686732D01*
X139586808Y-128715895D01*
X139552894Y-128733860D01*
X139515233Y-128739990D01*
X139507788Y-128739774D01*
X139470520Y-128731588D01*
X139437505Y-128712313D01*
X139409253Y-128682980D01*
X139386276Y-128644619D01*
X139369083Y-128598261D01*
X139358187Y-128544935D01*
X139354098Y-128485673D01*
X139357327Y-128421504D01*
X139361651Y-128389972D01*
X139368652Y-128362783D01*
X139378469Y-128345794D01*
X139391980Y-128337595D01*
X139410060Y-128336776D01*
X139416179Y-128337770D01*
X139422213Y-128341105D01*
X139425909Y-128349126D01*
X139428305Y-128364543D01*
X139430436Y-128390066D01*
X139431514Y-128403050D01*
X139436019Y-128436656D01*
X139442705Y-128459969D01*
X139452283Y-128474883D01*
X139465465Y-128483291D01*
X139486776Y-128486946D01*
X139509086Y-128479917D01*
X139526717Y-128461449D01*
X139528021Y-128459234D01*
X139532709Y-128448875D01*
X139535860Y-128435720D01*
X139537758Y-128417257D01*
X139538692Y-128390979D01*
X139538947Y-128354375D01*
X139538830Y-128326326D01*
X139537813Y-128294273D01*
X139535058Y-128271795D01*
X139529745Y-128256946D01*
X139521057Y-128247779D01*
X139516499Y-128245858D01*
X139508174Y-128242349D01*
X139490277Y-128238708D01*
X139477427Y-128236947D01*
X139447963Y-128234538D01*
X139415121Y-128233408D01*
X139382136Y-128233517D01*
X139352241Y-128234826D01*
X139328673Y-128237294D01*
X139314666Y-128240881D01*
X139304643Y-128249078D01*
X139290533Y-128268518D01*
X139276864Y-128294794D01*
X139265282Y-128324630D01*
X139257434Y-128354753D01*
X139255064Y-128368696D01*
X139249296Y-128421483D01*
X139247252Y-128478158D01*
X138877647Y-128478158D01*
X138877647Y-127925740D01*
X139244990Y-127925740D01*
X139254986Y-127944632D01*
X139277650Y-127961490D01*
X139283881Y-127964390D01*
X139292233Y-127966875D01*
X139303739Y-127968818D01*
X139319782Y-127970283D01*
X139341747Y-127971336D01*
X139371017Y-127972042D01*
X139408976Y-127972465D01*
X139457009Y-127972671D01*
X139516499Y-127972726D01*
X139574324Y-127972676D01*
X139622659Y-127972477D01*
X139660881Y-127972065D01*
X139690378Y-127971372D01*
X139712534Y-127970335D01*
X139728737Y-127968887D01*
X139740371Y-127966963D01*
X139748822Y-127964496D01*
X139755477Y-127961423D01*
X139760379Y-127958616D01*
X139779158Y-127943156D01*
X139785681Y-127926196D01*
X139780441Y-127906656D01*
X139778724Y-127903670D01*
X139767369Y-127887685D01*
X139747691Y-127862874D01*
X139720045Y-127829651D01*
X139684787Y-127788435D01*
X139642271Y-127739642D01*
X139592854Y-127683688D01*
X139536890Y-127620990D01*
X139517280Y-127599015D01*
X139490875Y-127569059D01*
X139468520Y-127543253D01*
X139451357Y-127522938D01*
X139440530Y-127509456D01*
X139437185Y-127504146D01*
X139440812Y-127503491D01*
X139455674Y-127502232D01*
X139480323Y-127500676D01*
X139512973Y-127498925D01*
X139551837Y-127497080D01*
X139595128Y-127495240D01*
X139625469Y-127493948D01*
X139666372Y-127491955D01*
X139701833Y-127489933D01*
X139730006Y-127487999D01*
X139749042Y-127486271D01*
X139757092Y-127484870D01*
X139757549Y-127484559D01*
X139765168Y-127475659D01*
X139773942Y-127461092D01*
X139776096Y-127456817D01*
X139780544Y-127444383D01*
X139779748Y-127432142D01*
X139773674Y-127414152D01*
X139763249Y-127386855D01*
X139737573Y-127386280D01*
X139559616Y-127382297D01*
X139548793Y-127382058D01*
X139482140Y-127380833D01*
X139426910Y-127380374D01*
X139381881Y-127380779D01*
X139345832Y-127382148D01*
X139317541Y-127384582D01*
X139295785Y-127388180D01*
X139279342Y-127393042D01*
X139266992Y-127399267D01*
X139257511Y-127406955D01*
X139255807Y-127408699D01*
X139245980Y-127423449D01*
X139246008Y-127438814D01*
X139249294Y-127446946D01*
X139261934Y-127467387D01*
X139283203Y-127496014D01*
X139312729Y-127532359D01*
X139350140Y-127575954D01*
X139395063Y-127626331D01*
X139424819Y-127659272D01*
X139462045Y-127700735D01*
X139496243Y-127739105D01*
X139526476Y-127773315D01*
X139551807Y-127802299D01*
X139571301Y-127824990D01*
X139584020Y-127840321D01*
X139589028Y-127847227D01*
X139586530Y-127849359D01*
X139575834Y-127851628D01*
X139556085Y-127853892D01*
X139526525Y-127856207D01*
X139486398Y-127858634D01*
X139434946Y-127861229D01*
X139371413Y-127864053D01*
X139357307Y-127864695D01*
X139325183Y-127866508D01*
X139298544Y-127868500D01*
X139279841Y-127870470D01*
X139271522Y-127872219D01*
X139264310Y-127879450D01*
X139254486Y-127892291D01*
X139247642Y-127904752D01*
X139244990Y-127925740D01*
X138877647Y-127925740D01*
X138877647Y-127000001D01*
X138877647Y-126825428D01*
X139244091Y-126825428D01*
X139244139Y-126870961D01*
X139244455Y-126915541D01*
X139245030Y-126957186D01*
X139245855Y-126993916D01*
X139246920Y-127023748D01*
X139248215Y-127044703D01*
X139249732Y-127054799D01*
X139251703Y-127059507D01*
X139255296Y-127066172D01*
X139260388Y-127071556D01*
X139268239Y-127075822D01*
X139280109Y-127079136D01*
X139297258Y-127081659D01*
X139320946Y-127083557D01*
X139352434Y-127084993D01*
X139392981Y-127086131D01*
X139443848Y-127087135D01*
X139506294Y-127088168D01*
X139737573Y-127091886D01*
X139763474Y-127074745D01*
X139789376Y-127057604D01*
X139788970Y-126905205D01*
X139788895Y-126887932D01*
X139788412Y-126839384D01*
X139787791Y-126803759D01*
X140381230Y-126803759D01*
X140382134Y-126853168D01*
X140384401Y-126894060D01*
X140386372Y-126915018D01*
X140404440Y-127029300D01*
X140434370Y-127138994D01*
X140475948Y-127243623D01*
X140528959Y-127342712D01*
X140593188Y-127435788D01*
X140668421Y-127522375D01*
X140677666Y-127531815D01*
X140770836Y-127617250D01*
X140870832Y-127692012D01*
X140977812Y-127756177D01*
X141091932Y-127809819D01*
X141213352Y-127853015D01*
X141342230Y-127885839D01*
X141478723Y-127908367D01*
X141563900Y-127916844D01*
X141696309Y-127921878D01*
X141827182Y-127917158D01*
X141955160Y-127902908D01*
X142078880Y-127879352D01*
X142196982Y-127846713D01*
X142308102Y-127805216D01*
X142410881Y-127755084D01*
X142454447Y-127729410D01*
X142541198Y-127669274D01*
X142625323Y-127599276D01*
X142704721Y-127521398D01*
X142777288Y-127437620D01*
X142840921Y-127349925D01*
X142886697Y-127271999D01*
X142930930Y-127175752D01*
X142965921Y-127074092D01*
X142991172Y-126969145D01*
X143006184Y-126863040D01*
X143010460Y-126757900D01*
X143003502Y-126655854D01*
X142999003Y-126623434D01*
X142985044Y-126546351D01*
X142966294Y-126470975D01*
X142941878Y-126394428D01*
X142910918Y-126313833D01*
X142872537Y-126226315D01*
X142868012Y-126216465D01*
X142851360Y-126179697D01*
X142835219Y-126143345D01*
X142821236Y-126111146D01*
X142811059Y-126086837D01*
X142807719Y-126078812D01*
X142797808Y-126057563D01*
X142789255Y-126042711D01*
X142783615Y-126037077D01*
X142782305Y-126037537D01*
X142772070Y-126043311D01*
X142753179Y-126054974D01*
X142727019Y-126071605D01*
X142694977Y-126092284D01*
X142658442Y-126116092D01*
X142618800Y-126142107D01*
X142577440Y-126169411D01*
X142535749Y-126197083D01*
X142495114Y-126224202D01*
X142456924Y-126249850D01*
X142422566Y-126273105D01*
X142393427Y-126293047D01*
X142370896Y-126308757D01*
X142356360Y-126319314D01*
X142351206Y-126323798D01*
X142354924Y-126330118D01*
X142364904Y-126343316D01*
X142378953Y-126360456D01*
X142422640Y-126415659D01*
X142465167Y-126479764D01*
X142495992Y-126540361D01*
X142514906Y-126597083D01*
X142519426Y-126623992D01*
X142522724Y-126661487D01*
X142524383Y-126704235D01*
X142524406Y-126748638D01*
X142522794Y-126791097D01*
X142519553Y-126828015D01*
X142514684Y-126855793D01*
X142494129Y-126917665D01*
X142459680Y-126984614D01*
X142414227Y-127045008D01*
X142357814Y-127098804D01*
X142290488Y-127145960D01*
X142212293Y-127186435D01*
X142123274Y-127220187D01*
X142103798Y-127226336D01*
X142049845Y-127241878D01*
X141998202Y-127254101D01*
X141946355Y-127263332D01*
X141891792Y-127269897D01*
X141831998Y-127274121D01*
X141764463Y-127276332D01*
X141686671Y-127276854D01*
X141679943Y-127276832D01*
X141591968Y-127275290D01*
X141514411Y-127271236D01*
X141445184Y-127264341D01*
X141382195Y-127254275D01*
X141323355Y-127240710D01*
X141266573Y-127223315D01*
X141209759Y-127201763D01*
X141173614Y-127185273D01*
X141111788Y-127149791D01*
X141053555Y-127107437D01*
X141000741Y-127059931D01*
X140955173Y-127008992D01*
X140918676Y-126956339D01*
X140893078Y-126903691D01*
X140891444Y-126899313D01*
X140877919Y-126859989D01*
X140869012Y-126825585D01*
X140864052Y-126791699D01*
X140862370Y-126753926D01*
X140863297Y-126707862D01*
X140864304Y-126685285D01*
X140866745Y-126651090D01*
X140870445Y-126623628D01*
X140876013Y-126598930D01*
X140884063Y-126573029D01*
X140901638Y-126526648D01*
X140938190Y-126451844D01*
X140984740Y-126378842D01*
X141042580Y-126305462D01*
X141073916Y-126269037D01*
X141009295Y-126229076D01*
X140991845Y-126218285D01*
X140957225Y-126196946D01*
X140903015Y-126163803D01*
X140850546Y-126132037D01*
X140800965Y-126102322D01*
X140755420Y-126075331D01*
X140715056Y-126051737D01*
X140681020Y-126032214D01*
X140654459Y-126017435D01*
X140636520Y-126008073D01*
X140628350Y-126004803D01*
X140623391Y-126006677D01*
X140614317Y-126015708D01*
X140602230Y-126032876D01*
X140586704Y-126058905D01*
X140567313Y-126094522D01*
X140543630Y-126140452D01*
X140515230Y-126197422D01*
X140488031Y-126254124D01*
X140460978Y-126315464D01*
X140439426Y-126371788D01*
X140422438Y-126426164D01*
X140409073Y-126481659D01*
X140398394Y-126541342D01*
X140389460Y-126608281D01*
X140385950Y-126646876D01*
X140383213Y-126696369D01*
X140381615Y-126750078D01*
X140381230Y-126803759D01*
X139787791Y-126803759D01*
X139787578Y-126791575D01*
X139786465Y-126747532D01*
X139785145Y-126710279D01*
X139783690Y-126682841D01*
X139781323Y-126652373D01*
X139778753Y-126630700D01*
X139775451Y-126616674D01*
X139770785Y-126607648D01*
X139764123Y-126600978D01*
X139753215Y-126594122D01*
X139748614Y-126593017D01*
X139731353Y-126588871D01*
X139710639Y-126592865D01*
X139695240Y-126605813D01*
X139693532Y-126608744D01*
X139690464Y-126616687D01*
X139687981Y-126628336D01*
X139685962Y-126645214D01*
X139684285Y-126668842D01*
X139682828Y-126700745D01*
X139681469Y-126742442D01*
X139680087Y-126795458D01*
X139680077Y-126795896D01*
X139678755Y-126841820D01*
X139677164Y-126883532D01*
X139675398Y-126919307D01*
X139673557Y-126947418D01*
X139671737Y-126966141D01*
X139670036Y-126973749D01*
X139661713Y-126976904D01*
X139644196Y-126980378D01*
X139621597Y-126983244D01*
X139579021Y-126987361D01*
X139576005Y-126863663D01*
X139575955Y-126861648D01*
X139574757Y-126822619D01*
X139573261Y-126787648D01*
X139571595Y-126758931D01*
X139569883Y-126738663D01*
X139568253Y-126729040D01*
X139567817Y-126728163D01*
X139557899Y-126718771D01*
X139542007Y-126711015D01*
X139532689Y-126708901D01*
X139510077Y-126710353D01*
X139490461Y-126719549D01*
X139478386Y-126734790D01*
X139476841Y-126744311D01*
X139475092Y-126764538D01*
X139473307Y-126793163D01*
X139471624Y-126827948D01*
X139470182Y-126866651D01*
X139466335Y-126987159D01*
X139410586Y-126987159D01*
X139354838Y-126987159D01*
X139350709Y-126803198D01*
X139349902Y-126767858D01*
X139348607Y-126718645D01*
X139347135Y-126680082D01*
X139345214Y-126650802D01*
X139342572Y-126629438D01*
X139338938Y-126614625D01*
X139334040Y-126604996D01*
X139327608Y-126599185D01*
X139319369Y-126595825D01*
X139309051Y-126593550D01*
X139291361Y-126593611D01*
X139271917Y-126598548D01*
X139264928Y-126601681D01*
X139257488Y-126607126D01*
X139253018Y-126616037D01*
X139250232Y-126631530D01*
X139247838Y-126656718D01*
X139246770Y-126673369D01*
X139245651Y-126702910D01*
X139244837Y-126739421D01*
X139244321Y-126780920D01*
X139244091Y-126825428D01*
X138877647Y-126825428D01*
X138877647Y-126245989D01*
X139243795Y-126245989D01*
X139244072Y-126267602D01*
X139245135Y-126282535D01*
X139247078Y-126292558D01*
X139249996Y-126299444D01*
X139253981Y-126304964D01*
X139254602Y-126305687D01*
X139262363Y-126312476D01*
X139273367Y-126318040D01*
X139288813Y-126322493D01*
X139309901Y-126325950D01*
X139337829Y-126328523D01*
X139373798Y-126330326D01*
X139419006Y-126331474D01*
X139474653Y-126332079D01*
X139541939Y-126332255D01*
X139748614Y-126332255D01*
X139762727Y-126317232D01*
X139768949Y-126309601D01*
X139778962Y-126290277D01*
X139785564Y-126264748D01*
X139788843Y-126231756D01*
X139788887Y-126190044D01*
X139785783Y-126138355D01*
X139779619Y-126075430D01*
X139773917Y-126029478D01*
X139766567Y-125985191D01*
X139757835Y-125948500D01*
X139747031Y-125916577D01*
X139745981Y-125914257D01*
X139733462Y-125886591D01*
X139725791Y-125873019D01*
X139697860Y-125836834D01*
X139662078Y-125803579D01*
X139621546Y-125775523D01*
X139579366Y-125754934D01*
X139538641Y-125744082D01*
X139536722Y-125743847D01*
X139505384Y-125744270D01*
X139468805Y-125750765D01*
X139431927Y-125762154D01*
X139399691Y-125777256D01*
X139382261Y-125788584D01*
X139341394Y-125824544D01*
X139306035Y-125869165D01*
X139278165Y-125919675D01*
X139259765Y-125973298D01*
X139258889Y-125977233D01*
X139254707Y-126004753D01*
X139251091Y-126043840D01*
X139248123Y-126093435D01*
X139245886Y-126152478D01*
X139245224Y-126175637D01*
X139244210Y-126215925D01*
X139243795Y-126245989D01*
X138877647Y-126245989D01*
X138877647Y-125313907D01*
X140383147Y-125313907D01*
X140384141Y-125403523D01*
X140395997Y-125488957D01*
X140419119Y-125572556D01*
X140453908Y-125656664D01*
X140487727Y-125719207D01*
X140533924Y-125784068D01*
X140587729Y-125839593D01*
X140650434Y-125887081D01*
X140723331Y-125927832D01*
X140760223Y-125944770D01*
X140805955Y-125962485D01*
X140850196Y-125974943D01*
X140896478Y-125982891D01*
X140948333Y-125987074D01*
X141009295Y-125988240D01*
X141054793Y-125987667D01*
X141100989Y-125985329D01*
X141139884Y-125980699D01*
X141174481Y-125973259D01*
X141207784Y-125962490D01*
X141242795Y-125947871D01*
X141282707Y-125927454D01*
X141348245Y-125883074D01*
X141408726Y-125828060D01*
X141463311Y-125763460D01*
X141511162Y-125690323D01*
X141551439Y-125609695D01*
X141583304Y-125522623D01*
X141589659Y-125500312D01*
X141604728Y-125433835D01*
X141617243Y-125357778D01*
X141626975Y-125274362D01*
X141633692Y-125185808D01*
X141637165Y-125094335D01*
X141637166Y-125002166D01*
X141636923Y-124987372D01*
X141636767Y-124955584D01*
X141637142Y-124929512D01*
X141637997Y-124911531D01*
X141639281Y-124904012D01*
X141640193Y-124903585D01*
X141650585Y-124903583D01*
X141669371Y-124905958D01*
X141693263Y-124910326D01*
X141737103Y-124920791D01*
X141789579Y-124938792D01*
X141831740Y-124961307D01*
X141864864Y-124989253D01*
X141890233Y-125023550D01*
X141909127Y-125065115D01*
X141912130Y-125073956D01*
X141916545Y-125090004D01*
X141919227Y-125106899D01*
X141920411Y-125127634D01*
X141920337Y-125155202D01*
X141919241Y-125192594D01*
X141918569Y-125208663D01*
X141915112Y-125255325D01*
X141909076Y-125299588D01*
X141899818Y-125344225D01*
X141886697Y-125392009D01*
X141869074Y-125445712D01*
X141846307Y-125508107D01*
X141839553Y-125526347D01*
X141828720Y-125557375D01*
X141820478Y-125583361D01*
X141815537Y-125602004D01*
X141814605Y-125611004D01*
X141818170Y-125614883D01*
X141831590Y-125623949D01*
X141852310Y-125635510D01*
X141877644Y-125647990D01*
X141887481Y-125652512D01*
X141918522Y-125666397D01*
X141954537Y-125682077D01*
X141993666Y-125698784D01*
X142034045Y-125715751D01*
X142073814Y-125732212D01*
X142111111Y-125747400D01*
X142144073Y-125760548D01*
X142170838Y-125770889D01*
X142189546Y-125777655D01*
X142198334Y-125780081D01*
X142198799Y-125780061D01*
X142204929Y-125774978D01*
X142210456Y-125759950D01*
X142215925Y-125733532D01*
X142219239Y-125716027D01*
X142225400Y-125686287D01*
X142233351Y-125649699D01*
X142242427Y-125609318D01*
X142251961Y-125568201D01*
X142261248Y-125528473D01*
X142281031Y-125440634D01*
X142297252Y-125362739D01*
X142310075Y-125293146D01*
X142319663Y-125230212D01*
X142326179Y-125172294D01*
X142329788Y-125117750D01*
X142330652Y-125064937D01*
X142328934Y-125012212D01*
X142324799Y-124957932D01*
X142318410Y-124900456D01*
X142314839Y-124874648D01*
X142295721Y-124781397D01*
X142268044Y-124696037D01*
X142232129Y-124619085D01*
X142188295Y-124551056D01*
X142136860Y-124492469D01*
X142078145Y-124443838D01*
X142012469Y-124405681D01*
X141989280Y-124395020D01*
X141934235Y-124372868D01*
X141879512Y-124355937D01*
X141821867Y-124343467D01*
X141758055Y-124334697D01*
X141684832Y-124328867D01*
X141665447Y-124327933D01*
X141631087Y-124326682D01*
X141586281Y-124325341D01*
X141532348Y-124323939D01*
X141470607Y-124322504D01*
X141402376Y-124321066D01*
X141328974Y-124319654D01*
X141251719Y-124318295D01*
X141235363Y-124318034D01*
X141171929Y-124317020D01*
X141090924Y-124315857D01*
X141015208Y-124314779D01*
X140938652Y-124313579D01*
X140865841Y-124312327D01*
X140797913Y-124311049D01*
X140736004Y-124309769D01*
X140681251Y-124308511D01*
X140634791Y-124307302D01*
X140597761Y-124306165D01*
X140571298Y-124305125D01*
X140556539Y-124304207D01*
X140550998Y-124303630D01*
X140519076Y-124298640D01*
X140492696Y-124290450D01*
X140465532Y-124277182D01*
X140464086Y-124276386D01*
X140444052Y-124266508D01*
X140428501Y-124260836D01*
X140420694Y-124260577D01*
X140419609Y-124267518D01*
X140418478Y-124286081D01*
X140417360Y-124314961D01*
X140416289Y-124352880D01*
X140415294Y-124398556D01*
X140414408Y-124450710D01*
X140413663Y-124508064D01*
X140413089Y-124569337D01*
X140410784Y-124872798D01*
X140450946Y-124876996D01*
X140469064Y-124878651D01*
X140496726Y-124880482D01*
X140519059Y-124881194D01*
X140526833Y-124881385D01*
X140541280Y-124883105D01*
X140547010Y-124886031D01*
X140545321Y-124889820D01*
X140537551Y-124902474D01*
X140524910Y-124921399D01*
X140508994Y-124944156D01*
X140489150Y-124973106D01*
X140448900Y-125042271D01*
X140419208Y-125111970D01*
X140398881Y-125185337D01*
X140386726Y-125265506D01*
X140383147Y-125313907D01*
X138877647Y-125313907D01*
X138877647Y-124361760D01*
X139244395Y-124361760D01*
X139251852Y-124380850D01*
X139254178Y-124383348D01*
X139268626Y-124394372D01*
X139293154Y-124409882D01*
X139326578Y-124429185D01*
X139367713Y-124451589D01*
X139415374Y-124476403D01*
X139439606Y-124489151D01*
X139461184Y-124501315D01*
X139475805Y-124510515D01*
X139481186Y-124515397D01*
X139476518Y-124519401D01*
X139462084Y-124528340D01*
X139439663Y-124541066D01*
X139411067Y-124556554D01*
X139378109Y-124573777D01*
X139349160Y-124588904D01*
X139317180Y-124606227D01*
X139290079Y-124621570D01*
X139270061Y-124633679D01*
X139259328Y-124641304D01*
X139258082Y-124642492D01*
X139245858Y-124661979D01*
X139245585Y-124682849D01*
X139257356Y-124702308D01*
X139264831Y-124708000D01*
X139284118Y-124719519D01*
X139312332Y-124734646D01*
X139347785Y-124752608D01*
X139388789Y-124772633D01*
X139433654Y-124793946D01*
X139480693Y-124815777D01*
X139528216Y-124837351D01*
X139574534Y-124857896D01*
X139617959Y-124876638D01*
X139656802Y-124892806D01*
X139689375Y-124905627D01*
X139713988Y-124914327D01*
X139728954Y-124918133D01*
X139745981Y-124918993D01*
X139758084Y-124914923D01*
X139769082Y-124903519D01*
X139770576Y-124901574D01*
X139781368Y-124880171D01*
X139779637Y-124860482D01*
X139765298Y-124841121D01*
X139756932Y-124835138D01*
X139737884Y-124823871D01*
X139710509Y-124808873D01*
X139676571Y-124791088D01*
X139637840Y-124771457D01*
X139596081Y-124750921D01*
X139558196Y-124732432D01*
X139520921Y-124713941D01*
X139488957Y-124697768D01*
X139463873Y-124684718D01*
X139447238Y-124675595D01*
X139440620Y-124671204D01*
X139442032Y-124668608D01*
X139452510Y-124660541D01*
X139471463Y-124648556D01*
X139497070Y-124633781D01*
X139527509Y-124617344D01*
X139542495Y-124609437D01*
X139589237Y-124583510D01*
X139624180Y-124561136D01*
X139647418Y-124541349D01*
X139659044Y-124523184D01*
X139659151Y-124505675D01*
X139647832Y-124487856D01*
X139625180Y-124468764D01*
X139591288Y-124447431D01*
X139546250Y-124422894D01*
X139521047Y-124409567D01*
X139492659Y-124394238D01*
X139468833Y-124381035D01*
X139452995Y-124371836D01*
X139428015Y-124356497D01*
X139591039Y-124276101D01*
X139595858Y-124273721D01*
X139638552Y-124252384D01*
X139677858Y-124232300D01*
X139712140Y-124214337D01*
X139739766Y-124199363D01*
X139759100Y-124188246D01*
X139768509Y-124181854D01*
X139778425Y-124167926D01*
X139782955Y-124151896D01*
X139779578Y-124139179D01*
X139768157Y-124122705D01*
X139752642Y-124109626D01*
X139737220Y-124104298D01*
X139725799Y-124106495D01*
X139703567Y-124113775D01*
X139672990Y-124125415D01*
X139635721Y-124140658D01*
X139593410Y-124158743D01*
X139547707Y-124178915D01*
X139500264Y-124200414D01*
X139452730Y-124222482D01*
X139406757Y-124244362D01*
X139363994Y-124265294D01*
X139326094Y-124284520D01*
X139294705Y-124301284D01*
X139271480Y-124314825D01*
X139269116Y-124316511D01*
X139258069Y-124324387D01*
X139247105Y-124340816D01*
X139244395Y-124361760D01*
X138877647Y-124361760D01*
X138877647Y-123824259D01*
X139245409Y-123824259D01*
X139245877Y-123842929D01*
X139256393Y-123865129D01*
X139269116Y-123885996D01*
X139514800Y-123885947D01*
X139760483Y-123885898D01*
X139775089Y-123860321D01*
X139789694Y-123834744D01*
X139776563Y-123809005D01*
X139763432Y-123783266D01*
X139727932Y-123783266D01*
X139516806Y-123783266D01*
X139270179Y-123783266D01*
X139256901Y-123801914D01*
X139255026Y-123804611D01*
X139245409Y-123824259D01*
X138877647Y-123824259D01*
X138877647Y-123305612D01*
X139245951Y-123305612D01*
X139245994Y-123323872D01*
X139258069Y-123343394D01*
X139260590Y-123346084D01*
X139270223Y-123353324D01*
X139283710Y-123359144D01*
X139302336Y-123363686D01*
X139327383Y-123367093D01*
X139360133Y-123369507D01*
X139401870Y-123371070D01*
X139453875Y-123371926D01*
X139517432Y-123372217D01*
X139678880Y-123372346D01*
X139681157Y-123475645D01*
X139681876Y-123506587D01*
X139682839Y-123536680D01*
X139684146Y-123557637D01*
X139686123Y-123571543D01*
X139689097Y-123580485D01*
X139693393Y-123586549D01*
X139699339Y-123591820D01*
X139705695Y-123596058D01*
X139727932Y-123601719D01*
X139752096Y-123597339D01*
X139774245Y-123583362D01*
X139789376Y-123569147D01*
X139789376Y-123409856D01*
X140381978Y-123409856D01*
X140385029Y-123457135D01*
X140392360Y-123502351D01*
X140404373Y-123549031D01*
X140421476Y-123600706D01*
X140431217Y-123626269D01*
X140470850Y-123707311D01*
X140521228Y-123781740D01*
X140581983Y-123849270D01*
X140652748Y-123909615D01*
X140733155Y-123962487D01*
X140822837Y-124007602D01*
X140921427Y-124044673D01*
X141028557Y-124073415D01*
X141042914Y-124076493D01*
X141061774Y-124080104D01*
X141080397Y-124082887D01*
X141100654Y-124084945D01*
X141124410Y-124086382D01*
X141153535Y-124087302D01*
X141189897Y-124087807D01*
X141235363Y-124088001D01*
X141291802Y-124087988D01*
X141343656Y-124087750D01*
X141410581Y-124086707D01*
X141468565Y-124084659D01*
X141519917Y-124081409D01*
X141566948Y-124076758D01*
X141611968Y-124070506D01*
X141657285Y-124062454D01*
X141705212Y-124052405D01*
X141759338Y-124039030D01*
X141859479Y-124006431D01*
X141951318Y-123965686D01*
X142034343Y-123917156D01*
X142108043Y-123861205D01*
X142171907Y-123798197D01*
X142225423Y-123728494D01*
X142268080Y-123652461D01*
X142281299Y-123623374D01*
X142296152Y-123586543D01*
X142306935Y-123552217D01*
X142314245Y-123517336D01*
X142318675Y-123478841D01*
X142320821Y-123433671D01*
X142321276Y-123378767D01*
X142320910Y-123341840D01*
X142318417Y-123274346D01*
X142313120Y-123216161D01*
X142304465Y-123165011D01*
X142291897Y-123118623D01*
X142274860Y-123074724D01*
X142252799Y-123031042D01*
X142225159Y-122985303D01*
X142221437Y-122979478D01*
X142209049Y-122959286D01*
X142200377Y-122943889D01*
X142197111Y-122936240D01*
X142199540Y-122934451D01*
X142213057Y-122931882D01*
X142237277Y-122929695D01*
X142270886Y-122927888D01*
X142312570Y-122926463D01*
X142361012Y-122925419D01*
X142414900Y-122924758D01*
X142472917Y-122924479D01*
X142533750Y-122924583D01*
X142596084Y-122925070D01*
X142658603Y-122925940D01*
X142719994Y-122927194D01*
X142778941Y-122928832D01*
X142834131Y-122930855D01*
X142884247Y-122933262D01*
X142927976Y-122936055D01*
X142968011Y-122939371D01*
X143001028Y-122943249D01*
X143026919Y-122948201D01*
X143048631Y-122954963D01*
X143069113Y-122964270D01*
X143091311Y-122976859D01*
X143128102Y-122999013D01*
X143128102Y-122662399D01*
X143128102Y-122325784D01*
X141925839Y-122325728D01*
X141865989Y-122325719D01*
X141718451Y-122325649D01*
X141578432Y-122325511D01*
X141446342Y-122325305D01*
X141322588Y-122325035D01*
X141207582Y-122324703D01*
X141101731Y-122324310D01*
X141005447Y-122323859D01*
X140919137Y-122323351D01*
X140843213Y-122322789D01*
X140778082Y-122322175D01*
X140724155Y-122321511D01*
X140681840Y-122320799D01*
X140651548Y-122320040D01*
X140633688Y-122319238D01*
X140627561Y-122318790D01*
X140578680Y-122314202D01*
X140539388Y-122308143D01*
X140506771Y-122299893D01*
X140477917Y-122288736D01*
X140449912Y-122273954D01*
X140437435Y-122267109D01*
X140423080Y-122260827D01*
X140415955Y-122259939D01*
X140415872Y-122260098D01*
X140415127Y-122268398D01*
X140414434Y-122288154D01*
X140413806Y-122318115D01*
X140413259Y-122357032D01*
X140412808Y-122403655D01*
X140412467Y-122456733D01*
X140412252Y-122515018D01*
X140412177Y-122577259D01*
X140412177Y-122890799D01*
X140479214Y-122890799D01*
X140500187Y-122891046D01*
X140524696Y-122892071D01*
X140542015Y-122893710D01*
X140549319Y-122895762D01*
X140548570Y-122900484D01*
X140541850Y-122913007D01*
X140530341Y-122929470D01*
X140514982Y-122950592D01*
X140489917Y-122988864D01*
X140465591Y-123029993D01*
X140444479Y-123069720D01*
X140429055Y-123103790D01*
X140423507Y-123118241D01*
X140409840Y-123159109D01*
X140399786Y-123199915D01*
X140392412Y-123244951D01*
X140386787Y-123298509D01*
X140382800Y-123356984D01*
X140381978Y-123409856D01*
X139789376Y-123409856D01*
X139789376Y-123312948D01*
X139789376Y-123056748D01*
X139770608Y-123037980D01*
X139767437Y-123034974D01*
X139760441Y-123030856D01*
X139744747Y-123021617D01*
X139721147Y-123020392D01*
X139698593Y-123031476D01*
X139693436Y-123036059D01*
X139689292Y-123041873D01*
X139686375Y-123050521D01*
X139684400Y-123064003D01*
X139683083Y-123084320D01*
X139682141Y-123113475D01*
X139681289Y-123153468D01*
X139679143Y-123263196D01*
X139480151Y-123263196D01*
X139281158Y-123263196D01*
X139262390Y-123281964D01*
X139258088Y-123286483D01*
X139245951Y-123305612D01*
X138877647Y-123305612D01*
X138877647Y-122792995D01*
X139244341Y-122792995D01*
X139247892Y-122803913D01*
X139259112Y-122818209D01*
X139274602Y-122836224D01*
X139517522Y-122836224D01*
X139760441Y-122836224D01*
X139773303Y-122812162D01*
X139775555Y-122807902D01*
X139781892Y-122793375D01*
X139782003Y-122782796D01*
X139776301Y-122770428D01*
X139774008Y-122766577D01*
X139763054Y-122753827D01*
X139747570Y-122744611D01*
X139725487Y-122738276D01*
X139694736Y-122734170D01*
X139653246Y-122731641D01*
X139577495Y-122728521D01*
X139577495Y-122543689D01*
X139577495Y-122358858D01*
X139667966Y-122356767D01*
X139674420Y-122356617D01*
X139708507Y-122355670D01*
X139732368Y-122354468D01*
X139748259Y-122352630D01*
X139758440Y-122349779D01*
X139765166Y-122345535D01*
X139770696Y-122339519D01*
X139781353Y-122319007D01*
X139779909Y-122297466D01*
X139765924Y-122274426D01*
X139748894Y-122254187D01*
X139516030Y-122256277D01*
X139283166Y-122258368D01*
X139266715Y-122273830D01*
X139265863Y-122274640D01*
X139253683Y-122288588D01*
X139246612Y-122300796D01*
X139246091Y-122310003D01*
X139251276Y-122327532D01*
X139261139Y-122344108D01*
X139272803Y-122353899D01*
X139275003Y-122354429D01*
X139288870Y-122355790D01*
X139312031Y-122356888D01*
X139341869Y-122357620D01*
X139375770Y-122357887D01*
X139468344Y-122357887D01*
X139468344Y-122543233D01*
X139468344Y-122728579D01*
X139386481Y-122731696D01*
X139372989Y-122732277D01*
X139329483Y-122735496D01*
X139296894Y-122740657D01*
X139273759Y-122748193D01*
X139258616Y-122758538D01*
X139250002Y-122772125D01*
X139247285Y-122779519D01*
X139244341Y-122792995D01*
X138877647Y-122792995D01*
X138877647Y-121613095D01*
X141478001Y-121613095D01*
X144078354Y-121613095D01*
X144078354Y-127000001D01*
G37*
%TD*%
M02*
