%TF.GenerationSoftware,KiCad,Pcbnew,9.0.0-9.0.0-2~ubuntu24.10.1*%
%TF.CreationDate,2025-03-31T19:00:45+02:00*%
%TF.ProjectId,usb_uart_1V8,7573625f-7561-4727-945f-3156382e6b69,1*%
%TF.SameCoordinates,Original*%
%TF.FileFunction,Copper,L2,Bot*%
%TF.FilePolarity,Positive*%
%FSLAX46Y46*%
G04 Gerber Fmt 4.6, Leading zero omitted, Abs format (unit mm)*
G04 Created by KiCad (PCBNEW 9.0.0-9.0.0-2~ubuntu24.10.1) date 2025-03-31 19:00:45*
%MOMM*%
%LPD*%
G01*
G04 APERTURE LIST*
%TA.AperFunction,ComponentPad*%
%ADD10R,1.700000X1.700000*%
%TD*%
%TA.AperFunction,ComponentPad*%
%ADD11O,1.700000X1.700000*%
%TD*%
%TA.AperFunction,HeatsinkPad*%
%ADD12O,1.550000X0.890000*%
%TD*%
%TA.AperFunction,HeatsinkPad*%
%ADD13O,0.950000X1.250000*%
%TD*%
%TA.AperFunction,ViaPad*%
%ADD14C,0.700000*%
%TD*%
%TA.AperFunction,ViaPad*%
%ADD15C,0.600000*%
%TD*%
%TA.AperFunction,Conductor*%
%ADD16C,0.250000*%
%TD*%
%TA.AperFunction,Conductor*%
%ADD17C,0.300000*%
%TD*%
G04 APERTURE END LIST*
D10*
%TO.P,J3,1,Pin_1*%
%TO.N,VCC_TTL*%
X134620000Y-125730000D03*
D11*
%TO.P,J3,2,Pin_2*%
%TO.N,/TX*%
X134620000Y-128270000D03*
%TO.P,J3,3,Pin_3*%
%TO.N,/RX*%
X134620000Y-130810000D03*
%TO.P,J3,4,Pin_4*%
%TO.N,GND*%
X134620000Y-133350000D03*
%TD*%
D12*
%TO.P,J1,6,Shield*%
%TO.N,GND*%
X165200000Y-126000000D03*
D13*
X162500000Y-127000000D03*
X162500000Y-132000000D03*
D12*
X165200000Y-133000000D03*
%TD*%
D10*
%TO.P,J2,1,Pin_1*%
%TO.N,VCC_TTL*%
X129794000Y-125730000D03*
D11*
%TO.P,J2,2,Pin_2*%
%TO.N,/RX*%
X129794000Y-128270000D03*
%TO.P,J2,3,Pin_3*%
%TO.N,/TX*%
X129794000Y-130810000D03*
%TO.P,J2,4,Pin_4*%
%TO.N,GND*%
X129794000Y-133350000D03*
%TD*%
D14*
%TO.N,+3V3*%
X147320000Y-132080000D03*
X144780000Y-134620000D03*
X144744000Y-137029742D03*
%TO.N,GND*%
X150876000Y-134366000D03*
X152446000Y-130103742D03*
X149098000Y-130103742D03*
D15*
X141048000Y-129153742D03*
%TD*%
D16*
%TO.N,/TX*%
X131904000Y-130780000D02*
X129794000Y-130780000D01*
D17*
%TO.N,+3V3*%
X144780000Y-134620000D02*
X147320000Y-132080000D01*
X144744000Y-134656000D02*
X144780000Y-134620000D01*
X144744000Y-137029742D02*
X144744000Y-134656000D01*
D16*
%TO.N,/TX*%
X134444000Y-128240000D02*
X131904000Y-130780000D01*
%TD*%
%TA.AperFunction,Conductor*%
%TO.N,GND*%
G36*
X166136539Y-120520185D02*
G01*
X166182294Y-120572989D01*
X166193500Y-120624500D01*
X166193500Y-125074806D01*
X166173815Y-125141845D01*
X166121011Y-125187600D01*
X166051853Y-125197544D01*
X166000611Y-125177909D01*
X165977634Y-125162557D01*
X165977622Y-125162550D01*
X165805646Y-125091316D01*
X165805638Y-125091314D01*
X165623077Y-125055000D01*
X165450000Y-125055000D01*
X165450000Y-125750000D01*
X164950000Y-125750000D01*
X164950000Y-125055000D01*
X164776923Y-125055000D01*
X164594361Y-125091314D01*
X164594353Y-125091316D01*
X164422377Y-125162550D01*
X164422368Y-125162555D01*
X164267598Y-125265970D01*
X164267594Y-125265973D01*
X164135973Y-125397594D01*
X164135970Y-125397598D01*
X164032555Y-125552368D01*
X164032548Y-125552381D01*
X163961317Y-125724350D01*
X163961316Y-125724355D01*
X163956216Y-125750000D01*
X164825272Y-125750000D01*
X164733386Y-125788060D01*
X164663060Y-125858386D01*
X164625000Y-125950272D01*
X164625000Y-126049728D01*
X164663060Y-126141614D01*
X164733386Y-126211940D01*
X164825272Y-126250000D01*
X163956216Y-126250000D01*
X163961316Y-126275644D01*
X163961317Y-126275649D01*
X164032548Y-126447618D01*
X164032555Y-126447631D01*
X164135970Y-126602401D01*
X164135973Y-126602405D01*
X164267594Y-126734026D01*
X164267598Y-126734029D01*
X164422368Y-126837444D01*
X164422377Y-126837449D01*
X164594353Y-126908683D01*
X164594361Y-126908685D01*
X164776921Y-126944999D01*
X164776924Y-126945000D01*
X164950000Y-126945000D01*
X164950000Y-126250000D01*
X165450000Y-126250000D01*
X165450000Y-126945000D01*
X165623076Y-126945000D01*
X165623078Y-126944999D01*
X165805638Y-126908685D01*
X165805646Y-126908683D01*
X165977622Y-126837449D01*
X165977630Y-126837444D01*
X166000609Y-126822091D01*
X166067286Y-126801213D01*
X166134666Y-126819697D01*
X166181357Y-126871676D01*
X166193500Y-126925193D01*
X166193500Y-132074806D01*
X166173815Y-132141845D01*
X166121011Y-132187600D01*
X166051853Y-132197544D01*
X166000611Y-132177909D01*
X165977634Y-132162557D01*
X165977622Y-132162550D01*
X165805646Y-132091316D01*
X165805638Y-132091314D01*
X165623077Y-132055000D01*
X165450000Y-132055000D01*
X165450000Y-132750000D01*
X164950000Y-132750000D01*
X164950000Y-132055000D01*
X164776923Y-132055000D01*
X164594361Y-132091314D01*
X164594353Y-132091316D01*
X164422377Y-132162550D01*
X164422368Y-132162555D01*
X164267598Y-132265970D01*
X164267594Y-132265973D01*
X164135973Y-132397594D01*
X164135970Y-132397598D01*
X164032555Y-132552368D01*
X164032548Y-132552381D01*
X163961317Y-132724350D01*
X163961316Y-132724355D01*
X163956216Y-132750000D01*
X164825272Y-132750000D01*
X164733386Y-132788060D01*
X164663060Y-132858386D01*
X164625000Y-132950272D01*
X164625000Y-133049728D01*
X164663060Y-133141614D01*
X164733386Y-133211940D01*
X164825272Y-133250000D01*
X163956216Y-133250000D01*
X163961316Y-133275644D01*
X163961317Y-133275649D01*
X164032548Y-133447618D01*
X164032555Y-133447631D01*
X164135970Y-133602401D01*
X164135973Y-133602405D01*
X164267594Y-133734026D01*
X164267598Y-133734029D01*
X164422368Y-133837444D01*
X164422377Y-133837449D01*
X164594353Y-133908683D01*
X164594361Y-133908685D01*
X164776921Y-133944999D01*
X164776924Y-133945000D01*
X164950000Y-133945000D01*
X164950000Y-133250000D01*
X165450000Y-133250000D01*
X165450000Y-133945000D01*
X165623076Y-133945000D01*
X165623078Y-133944999D01*
X165805638Y-133908685D01*
X165805646Y-133908683D01*
X165977622Y-133837449D01*
X165977630Y-133837444D01*
X166000609Y-133822091D01*
X166067286Y-133801213D01*
X166134666Y-133819697D01*
X166181357Y-133871676D01*
X166193500Y-133925193D01*
X166193500Y-138375500D01*
X166173815Y-138442539D01*
X166121011Y-138488294D01*
X166069500Y-138499500D01*
X128154500Y-138499500D01*
X128087461Y-138479815D01*
X128041706Y-138427011D01*
X128030500Y-138375500D01*
X128030500Y-136945970D01*
X143893500Y-136945970D01*
X143893500Y-137113513D01*
X143926182Y-137277816D01*
X143926184Y-137277824D01*
X143990295Y-137432602D01*
X144083373Y-137571904D01*
X144201837Y-137690368D01*
X144294494Y-137752279D01*
X144341137Y-137783445D01*
X144495918Y-137847558D01*
X144660228Y-137880241D01*
X144660232Y-137880242D01*
X144660233Y-137880242D01*
X144827768Y-137880242D01*
X144827769Y-137880241D01*
X144992082Y-137847558D01*
X145146863Y-137783445D01*
X145286162Y-137690368D01*
X145404626Y-137571904D01*
X145497703Y-137432605D01*
X145561816Y-137277824D01*
X145594500Y-137113509D01*
X145594500Y-136945975D01*
X145561816Y-136781660D01*
X145497703Y-136626879D01*
X145415398Y-136503701D01*
X145394520Y-136437023D01*
X145394500Y-136434810D01*
X145394500Y-135259650D01*
X145414185Y-135192611D01*
X145430822Y-135171966D01*
X145440626Y-135162162D01*
X145442846Y-135158839D01*
X145533703Y-135022863D01*
X145597816Y-134868082D01*
X145626718Y-134722781D01*
X145659102Y-134660870D01*
X145660596Y-134659349D01*
X147359293Y-132960652D01*
X147420614Y-132927169D01*
X147422781Y-132926718D01*
X147441360Y-132923022D01*
X147568082Y-132897816D01*
X147722863Y-132833703D01*
X147862162Y-132740626D01*
X147980626Y-132622162D01*
X148073703Y-132482863D01*
X148137816Y-132328082D01*
X148164212Y-132195378D01*
X148164789Y-132192479D01*
X148164789Y-132192478D01*
X148167687Y-132177909D01*
X148170500Y-132163767D01*
X148170500Y-131996233D01*
X148137816Y-131831918D01*
X148103883Y-131749999D01*
X161525789Y-131749999D01*
X161525790Y-131750000D01*
X162243763Y-131750000D01*
X162225000Y-131795299D01*
X162225000Y-132204701D01*
X162243763Y-132250000D01*
X161525789Y-132250000D01*
X161562466Y-132434389D01*
X161562468Y-132434397D01*
X161635964Y-132611833D01*
X161635969Y-132611842D01*
X161742667Y-132771526D01*
X161742670Y-132771530D01*
X161878471Y-132907331D01*
X162038157Y-133014030D01*
X162038167Y-133014035D01*
X162215599Y-133087530D01*
X162215606Y-133087533D01*
X162250000Y-133094373D01*
X162250000Y-132265056D01*
X162266866Y-132305775D01*
X162344225Y-132383134D01*
X162445299Y-132425000D01*
X162554701Y-132425000D01*
X162655775Y-132383134D01*
X162733134Y-132305775D01*
X162750000Y-132265056D01*
X162750000Y-133094373D01*
X162784393Y-133087532D01*
X162784400Y-133087530D01*
X162961832Y-133014035D01*
X162961842Y-133014030D01*
X163121529Y-132907331D01*
X163121530Y-132907329D01*
X163257329Y-132771530D01*
X163257332Y-132771526D01*
X163295477Y-132714440D01*
X163364030Y-132611842D01*
X163364035Y-132611833D01*
X163437531Y-132434397D01*
X163437533Y-132434389D01*
X163474210Y-132250000D01*
X162756237Y-132250000D01*
X162775000Y-132204701D01*
X162775000Y-131795299D01*
X162756237Y-131750000D01*
X163474210Y-131750000D01*
X163474210Y-131749999D01*
X163437533Y-131565610D01*
X163437531Y-131565602D01*
X163364035Y-131388166D01*
X163364030Y-131388157D01*
X163257332Y-131228473D01*
X163257329Y-131228469D01*
X163121530Y-131092670D01*
X163121526Y-131092667D01*
X162961842Y-130985969D01*
X162961833Y-130985964D01*
X162784397Y-130912468D01*
X162784389Y-130912466D01*
X162750000Y-130905625D01*
X162750000Y-131734943D01*
X162733134Y-131694225D01*
X162655775Y-131616866D01*
X162554701Y-131575000D01*
X162445299Y-131575000D01*
X162344225Y-131616866D01*
X162266866Y-131694225D01*
X162250000Y-131734943D01*
X162250000Y-130905625D01*
X162215610Y-130912466D01*
X162215602Y-130912468D01*
X162038166Y-130985964D01*
X162038157Y-130985969D01*
X161878473Y-131092667D01*
X161878469Y-131092670D01*
X161742670Y-131228469D01*
X161742667Y-131228473D01*
X161635969Y-131388157D01*
X161635964Y-131388166D01*
X161562468Y-131565602D01*
X161562466Y-131565610D01*
X161525789Y-131749999D01*
X148103883Y-131749999D01*
X148078942Y-131689786D01*
X148073704Y-131677139D01*
X147980626Y-131537837D01*
X147862162Y-131419373D01*
X147722860Y-131326295D01*
X147568082Y-131262184D01*
X147568074Y-131262182D01*
X147403771Y-131229500D01*
X147403767Y-131229500D01*
X147236233Y-131229500D01*
X147236228Y-131229500D01*
X147071925Y-131262182D01*
X147071917Y-131262184D01*
X146917139Y-131326295D01*
X146777837Y-131419373D01*
X146659373Y-131537837D01*
X146566295Y-131677139D01*
X146502184Y-131831917D01*
X146502182Y-131831923D01*
X146473281Y-131977219D01*
X146440896Y-132039130D01*
X146439345Y-132040708D01*
X144740708Y-133739345D01*
X144679385Y-133772830D01*
X144677219Y-133773281D01*
X144531923Y-133802182D01*
X144531917Y-133802184D01*
X144377139Y-133866295D01*
X144237837Y-133959373D01*
X144119373Y-134077837D01*
X144026295Y-134217139D01*
X143962184Y-134371917D01*
X143962182Y-134371925D01*
X143929500Y-134536228D01*
X143929500Y-134703771D01*
X143962182Y-134868074D01*
X143962184Y-134868082D01*
X144026295Y-135022860D01*
X144072602Y-135092162D01*
X144093480Y-135158839D01*
X144093500Y-135161053D01*
X144093500Y-136434810D01*
X144073815Y-136501849D01*
X144072602Y-136503701D01*
X143990295Y-136626881D01*
X143926184Y-136781659D01*
X143926182Y-136781667D01*
X143893500Y-136945970D01*
X128030500Y-136945970D01*
X128030500Y-124832135D01*
X128443500Y-124832135D01*
X128443500Y-126627870D01*
X128443501Y-126627876D01*
X128449908Y-126687483D01*
X128500202Y-126822328D01*
X128500206Y-126822335D01*
X128586452Y-126937544D01*
X128586455Y-126937547D01*
X128701664Y-127023793D01*
X128701671Y-127023797D01*
X128833082Y-127072810D01*
X128889016Y-127114681D01*
X128913433Y-127180145D01*
X128898582Y-127248418D01*
X128877431Y-127276673D01*
X128763889Y-127390215D01*
X128638951Y-127562179D01*
X128542444Y-127751585D01*
X128476753Y-127953760D01*
X128443500Y-128163713D01*
X128443500Y-128376286D01*
X128476753Y-128586239D01*
X128542444Y-128788414D01*
X128638951Y-128977820D01*
X128763890Y-129149786D01*
X128914213Y-129300109D01*
X129086182Y-129425050D01*
X129094946Y-129429516D01*
X129145742Y-129477491D01*
X129162536Y-129545312D01*
X129139998Y-129611447D01*
X129094946Y-129650484D01*
X129086182Y-129654949D01*
X128914213Y-129779890D01*
X128763890Y-129930213D01*
X128638951Y-130102179D01*
X128542444Y-130291585D01*
X128476753Y-130493760D01*
X128443500Y-130703713D01*
X128443500Y-130916286D01*
X128471436Y-131092670D01*
X128476754Y-131126243D01*
X128529681Y-131289136D01*
X128542444Y-131328414D01*
X128638951Y-131517820D01*
X128763890Y-131689786D01*
X128914213Y-131840109D01*
X129086179Y-131965048D01*
X129086181Y-131965049D01*
X129086184Y-131965051D01*
X129095493Y-131969794D01*
X129146290Y-132017766D01*
X129163087Y-132085587D01*
X129140552Y-132151722D01*
X129095502Y-132190762D01*
X129086443Y-132195378D01*
X128914540Y-132320272D01*
X128914535Y-132320276D01*
X128764276Y-132470535D01*
X128764272Y-132470540D01*
X128639379Y-132642442D01*
X128542904Y-132831782D01*
X128477242Y-133033870D01*
X128477242Y-133033873D01*
X128466769Y-133100000D01*
X129360988Y-133100000D01*
X129328075Y-133157007D01*
X129294000Y-133284174D01*
X129294000Y-133415826D01*
X129328075Y-133542993D01*
X129360988Y-133600000D01*
X128466769Y-133600000D01*
X128477242Y-133666126D01*
X128477242Y-133666129D01*
X128542904Y-133868217D01*
X128639379Y-134057557D01*
X128764272Y-134229459D01*
X128764276Y-134229464D01*
X128914535Y-134379723D01*
X128914540Y-134379727D01*
X129086442Y-134504620D01*
X129275782Y-134601095D01*
X129477871Y-134666757D01*
X129544000Y-134677231D01*
X129544000Y-133783012D01*
X129601007Y-133815925D01*
X129728174Y-133850000D01*
X129859826Y-133850000D01*
X129986993Y-133815925D01*
X130044000Y-133783012D01*
X130044000Y-134677230D01*
X130110126Y-134666757D01*
X130110129Y-134666757D01*
X130312217Y-134601095D01*
X130501557Y-134504620D01*
X130673459Y-134379727D01*
X130673464Y-134379723D01*
X130823723Y-134229464D01*
X130823727Y-134229459D01*
X130948620Y-134057557D01*
X131045095Y-133868217D01*
X131110757Y-133666129D01*
X131110757Y-133666126D01*
X131121231Y-133600000D01*
X130227012Y-133600000D01*
X130259925Y-133542993D01*
X130294000Y-133415826D01*
X130294000Y-133284174D01*
X130259925Y-133157007D01*
X130227012Y-133100000D01*
X131121231Y-133100000D01*
X131110757Y-133033873D01*
X131110757Y-133033870D01*
X131045095Y-132831782D01*
X130948620Y-132642442D01*
X130823727Y-132470540D01*
X130823723Y-132470535D01*
X130673464Y-132320276D01*
X130673459Y-132320272D01*
X130501555Y-132195377D01*
X130492500Y-132190763D01*
X130441706Y-132142788D01*
X130424912Y-132074966D01*
X130447451Y-132008832D01*
X130492508Y-131969793D01*
X130501816Y-131965051D01*
X130581007Y-131907515D01*
X130673786Y-131840109D01*
X130673788Y-131840106D01*
X130673792Y-131840104D01*
X130824104Y-131689792D01*
X130824106Y-131689788D01*
X130824109Y-131689786D01*
X130949050Y-131517817D01*
X130971781Y-131473206D01*
X131019755Y-131422409D01*
X131082266Y-131405500D01*
X131965607Y-131405500D01*
X132026029Y-131393481D01*
X132086452Y-131381463D01*
X132119792Y-131367652D01*
X132200286Y-131334312D01*
X132275710Y-131283914D01*
X132302733Y-131265858D01*
X132389858Y-131178733D01*
X132389859Y-131178730D01*
X133075794Y-130492794D01*
X133137115Y-130459311D01*
X133206807Y-130464295D01*
X133262740Y-130506167D01*
X133287157Y-130571631D01*
X133285946Y-130599874D01*
X133269500Y-130703712D01*
X133269500Y-130916286D01*
X133297436Y-131092670D01*
X133302754Y-131126243D01*
X133355681Y-131289136D01*
X133368444Y-131328414D01*
X133464951Y-131517820D01*
X133589890Y-131689786D01*
X133740213Y-131840109D01*
X133912179Y-131965048D01*
X133912181Y-131965049D01*
X133912184Y-131965051D01*
X133921493Y-131969794D01*
X133972290Y-132017766D01*
X133989087Y-132085587D01*
X133966552Y-132151722D01*
X133921502Y-132190762D01*
X133912443Y-132195378D01*
X133740540Y-132320272D01*
X133740535Y-132320276D01*
X133590276Y-132470535D01*
X133590272Y-132470540D01*
X133465379Y-132642442D01*
X133368904Y-132831782D01*
X133303242Y-133033870D01*
X133303242Y-133033873D01*
X133292769Y-133100000D01*
X134186988Y-133100000D01*
X134154075Y-133157007D01*
X134120000Y-133284174D01*
X134120000Y-133415826D01*
X134154075Y-133542993D01*
X134186988Y-133600000D01*
X133292769Y-133600000D01*
X133303242Y-133666126D01*
X133303242Y-133666129D01*
X133368904Y-133868217D01*
X133465379Y-134057557D01*
X133590272Y-134229459D01*
X133590276Y-134229464D01*
X133740535Y-134379723D01*
X133740540Y-134379727D01*
X133912442Y-134504620D01*
X134101782Y-134601095D01*
X134303871Y-134666757D01*
X134370000Y-134677231D01*
X134370000Y-133783012D01*
X134427007Y-133815925D01*
X134554174Y-133850000D01*
X134685826Y-133850000D01*
X134812993Y-133815925D01*
X134870000Y-133783012D01*
X134870000Y-134677230D01*
X134936126Y-134666757D01*
X134936129Y-134666757D01*
X135138217Y-134601095D01*
X135327557Y-134504620D01*
X135499459Y-134379727D01*
X135499464Y-134379723D01*
X135649723Y-134229464D01*
X135649727Y-134229459D01*
X135774620Y-134057557D01*
X135871095Y-133868217D01*
X135936757Y-133666129D01*
X135936757Y-133666126D01*
X135947231Y-133600000D01*
X135053012Y-133600000D01*
X135085925Y-133542993D01*
X135120000Y-133415826D01*
X135120000Y-133284174D01*
X135085925Y-133157007D01*
X135053012Y-133100000D01*
X135947231Y-133100000D01*
X135936757Y-133033873D01*
X135936757Y-133033870D01*
X135871095Y-132831782D01*
X135774620Y-132642442D01*
X135649727Y-132470540D01*
X135649723Y-132470535D01*
X135499464Y-132320276D01*
X135499459Y-132320272D01*
X135327555Y-132195377D01*
X135318500Y-132190763D01*
X135267706Y-132142788D01*
X135250912Y-132074966D01*
X135273451Y-132008832D01*
X135318508Y-131969793D01*
X135327816Y-131965051D01*
X135407007Y-131907515D01*
X135499786Y-131840109D01*
X135499788Y-131840106D01*
X135499792Y-131840104D01*
X135650104Y-131689792D01*
X135650106Y-131689788D01*
X135650109Y-131689786D01*
X135775048Y-131517820D01*
X135775050Y-131517817D01*
X135775051Y-131517816D01*
X135871557Y-131328412D01*
X135937246Y-131126243D01*
X135970500Y-130916287D01*
X135970500Y-130703713D01*
X135937246Y-130493757D01*
X135871557Y-130291588D01*
X135775051Y-130102184D01*
X135775049Y-130102181D01*
X135775048Y-130102179D01*
X135650109Y-129930213D01*
X135499786Y-129779890D01*
X135327820Y-129654951D01*
X135327115Y-129654591D01*
X135319054Y-129650485D01*
X135268259Y-129602512D01*
X135251463Y-129534692D01*
X135273999Y-129468556D01*
X135319054Y-129429515D01*
X135327816Y-129425051D01*
X135349789Y-129409086D01*
X135499786Y-129300109D01*
X135499788Y-129300106D01*
X135499792Y-129300104D01*
X135650104Y-129149792D01*
X135650106Y-129149788D01*
X135650109Y-129149786D01*
X135775048Y-128977820D01*
X135775047Y-128977820D01*
X135775051Y-128977816D01*
X135871557Y-128788412D01*
X135937246Y-128586243D01*
X135970500Y-128376287D01*
X135970500Y-128163713D01*
X135937246Y-127953757D01*
X135871557Y-127751588D01*
X135775051Y-127562184D01*
X135775049Y-127562181D01*
X135775048Y-127562179D01*
X135650109Y-127390213D01*
X135536569Y-127276673D01*
X135503084Y-127215350D01*
X135508068Y-127145658D01*
X135549940Y-127089725D01*
X135580915Y-127072810D01*
X135712331Y-127023796D01*
X135827546Y-126937546D01*
X135913796Y-126822331D01*
X135920386Y-126804661D01*
X135940774Y-126749999D01*
X161525789Y-126749999D01*
X161525790Y-126750000D01*
X162243763Y-126750000D01*
X162225000Y-126795299D01*
X162225000Y-127204701D01*
X162243763Y-127250000D01*
X161525789Y-127250000D01*
X161562466Y-127434389D01*
X161562468Y-127434397D01*
X161635964Y-127611833D01*
X161635969Y-127611842D01*
X161742667Y-127771526D01*
X161742670Y-127771530D01*
X161878469Y-127907329D01*
X161878473Y-127907332D01*
X162038157Y-128014030D01*
X162038167Y-128014035D01*
X162215599Y-128087530D01*
X162215606Y-128087533D01*
X162250000Y-128094373D01*
X162250000Y-127265056D01*
X162266866Y-127305775D01*
X162344225Y-127383134D01*
X162445299Y-127425000D01*
X162554701Y-127425000D01*
X162655775Y-127383134D01*
X162733134Y-127305775D01*
X162750000Y-127265056D01*
X162750000Y-128094372D01*
X162784393Y-128087533D01*
X162784400Y-128087530D01*
X162961832Y-128014035D01*
X162961842Y-128014030D01*
X163121526Y-127907332D01*
X163121530Y-127907329D01*
X163257329Y-127771530D01*
X163257332Y-127771526D01*
X163364030Y-127611842D01*
X163364035Y-127611833D01*
X163437531Y-127434397D01*
X163437533Y-127434389D01*
X163474210Y-127250000D01*
X162756237Y-127250000D01*
X162775000Y-127204701D01*
X162775000Y-126795299D01*
X162756237Y-126750000D01*
X163474210Y-126750000D01*
X163474210Y-126749999D01*
X163437533Y-126565610D01*
X163437531Y-126565602D01*
X163364035Y-126388166D01*
X163364030Y-126388157D01*
X163295477Y-126285560D01*
X163257332Y-126228473D01*
X163257329Y-126228469D01*
X163121529Y-126092669D01*
X163121526Y-126092667D01*
X162961842Y-125985969D01*
X162961833Y-125985964D01*
X162784785Y-125912628D01*
X162750000Y-125927920D01*
X162750000Y-126734943D01*
X162733134Y-126694225D01*
X162655775Y-126616866D01*
X162554701Y-126575000D01*
X162445299Y-126575000D01*
X162344225Y-126616866D01*
X162266866Y-126694225D01*
X162250000Y-126734943D01*
X162250000Y-125905625D01*
X162215610Y-125912466D01*
X162215602Y-125912468D01*
X162038166Y-125985964D01*
X162038157Y-125985969D01*
X161878473Y-126092667D01*
X161878471Y-126092669D01*
X161742670Y-126228469D01*
X161742667Y-126228473D01*
X161635969Y-126388157D01*
X161635964Y-126388166D01*
X161562468Y-126565602D01*
X161562466Y-126565610D01*
X161525789Y-126749999D01*
X135940774Y-126749999D01*
X135944505Y-126739997D01*
X135964091Y-126687482D01*
X135970500Y-126627873D01*
X135970499Y-124832128D01*
X135964091Y-124772517D01*
X135913796Y-124637669D01*
X135913795Y-124637668D01*
X135913793Y-124637664D01*
X135827547Y-124522455D01*
X135827544Y-124522452D01*
X135712335Y-124436206D01*
X135712328Y-124436202D01*
X135577482Y-124385908D01*
X135577483Y-124385908D01*
X135517883Y-124379501D01*
X135517881Y-124379500D01*
X135517873Y-124379500D01*
X135517864Y-124379500D01*
X133722129Y-124379500D01*
X133722123Y-124379501D01*
X133662516Y-124385908D01*
X133527671Y-124436202D01*
X133527664Y-124436206D01*
X133412455Y-124522452D01*
X133412452Y-124522455D01*
X133326206Y-124637664D01*
X133326202Y-124637671D01*
X133275908Y-124772517D01*
X133269501Y-124832116D01*
X133269501Y-124832123D01*
X133269500Y-124832135D01*
X133269500Y-126627870D01*
X133269501Y-126627876D01*
X133275908Y-126687483D01*
X133326202Y-126822328D01*
X133326206Y-126822335D01*
X133412452Y-126937544D01*
X133412455Y-126937547D01*
X133527664Y-127023793D01*
X133527671Y-127023797D01*
X133659082Y-127072810D01*
X133715016Y-127114681D01*
X133739433Y-127180145D01*
X133724582Y-127248418D01*
X133703431Y-127276673D01*
X133589889Y-127390215D01*
X133464951Y-127562179D01*
X133368444Y-127751585D01*
X133302753Y-127953760D01*
X133269500Y-128163713D01*
X133269500Y-128376292D01*
X133280620Y-128446500D01*
X133271666Y-128515793D01*
X133245828Y-128553579D01*
X131681229Y-130118181D01*
X131619906Y-130151666D01*
X131593548Y-130154500D01*
X131050242Y-130154500D01*
X130983203Y-130134815D01*
X130949923Y-130103385D01*
X130949052Y-130102186D01*
X130949051Y-130102184D01*
X130824104Y-129930208D01*
X130673792Y-129779896D01*
X130673786Y-129779890D01*
X130501820Y-129654951D01*
X130501115Y-129654591D01*
X130493054Y-129650485D01*
X130442259Y-129602512D01*
X130425463Y-129534692D01*
X130447999Y-129468556D01*
X130493054Y-129429515D01*
X130501816Y-129425051D01*
X130523789Y-129409086D01*
X130673786Y-129300109D01*
X130673788Y-129300106D01*
X130673792Y-129300104D01*
X130824104Y-129149792D01*
X130824106Y-129149788D01*
X130824109Y-129149786D01*
X130949048Y-128977820D01*
X130949047Y-128977820D01*
X130949051Y-128977816D01*
X131045557Y-128788412D01*
X131111246Y-128586243D01*
X131144500Y-128376287D01*
X131144500Y-128163713D01*
X131111246Y-127953757D01*
X131045557Y-127751588D01*
X130949051Y-127562184D01*
X130949049Y-127562181D01*
X130949048Y-127562179D01*
X130824109Y-127390213D01*
X130710569Y-127276673D01*
X130677084Y-127215350D01*
X130682068Y-127145658D01*
X130723940Y-127089725D01*
X130754915Y-127072810D01*
X130886331Y-127023796D01*
X131001546Y-126937546D01*
X131087796Y-126822331D01*
X131138091Y-126687483D01*
X131144500Y-126627873D01*
X131144499Y-124832128D01*
X131138091Y-124772517D01*
X131087796Y-124637669D01*
X131087795Y-124637668D01*
X131087793Y-124637664D01*
X131001547Y-124522455D01*
X131001544Y-124522452D01*
X130886335Y-124436206D01*
X130886328Y-124436202D01*
X130751482Y-124385908D01*
X130751483Y-124385908D01*
X130691883Y-124379501D01*
X130691881Y-124379500D01*
X130691873Y-124379500D01*
X130691864Y-124379500D01*
X128896129Y-124379500D01*
X128896123Y-124379501D01*
X128836516Y-124385908D01*
X128701671Y-124436202D01*
X128701664Y-124436206D01*
X128586455Y-124522452D01*
X128586452Y-124522455D01*
X128500206Y-124637664D01*
X128500202Y-124637671D01*
X128449908Y-124772517D01*
X128443501Y-124832116D01*
X128443501Y-124832123D01*
X128443500Y-124832135D01*
X128030500Y-124832135D01*
X128030500Y-120624500D01*
X128050185Y-120557461D01*
X128102989Y-120511706D01*
X128154500Y-120500500D01*
X166069500Y-120500500D01*
X166136539Y-120520185D01*
G37*
%TD.AperFunction*%
%TD*%
M02*
