%TF.GenerationSoftware,KiCad,Pcbnew,9.0.0-9.0.0-2~ubuntu24.10.1*%
%TF.CreationDate,2025-03-31T19:00:45+02:00*%
%TF.ProjectId,usb_uart_1V8,7573625f-7561-4727-945f-3156382e6b69,1*%
%TF.SameCoordinates,Original*%
%TF.FileFunction,Copper,L1,Top*%
%TF.FilePolarity,Positive*%
%FSLAX46Y46*%
G04 Gerber Fmt 4.6, Leading zero omitted, Abs format (unit mm)*
G04 Created by KiCad (PCBNEW 9.0.0-9.0.0-2~ubuntu24.10.1) date 2025-03-31 19:00:45*
%MOMM*%
%LPD*%
G01*
G04 APERTURE LIST*
G04 Aperture macros list*
%AMRoundRect*
0 Rectangle with rounded corners*
0 $1 Rounding radius*
0 $2 $3 $4 $5 $6 $7 $8 $9 X,Y pos of 4 corners*
0 Add a 4 corners polygon primitive as box body*
4,1,4,$2,$3,$4,$5,$6,$7,$8,$9,$2,$3,0*
0 Add four circle primitives for the rounded corners*
1,1,$1+$1,$2,$3*
1,1,$1+$1,$4,$5*
1,1,$1+$1,$6,$7*
1,1,$1+$1,$8,$9*
0 Add four rect primitives between the rounded corners*
20,1,$1+$1,$2,$3,$4,$5,0*
20,1,$1+$1,$4,$5,$6,$7,0*
20,1,$1+$1,$6,$7,$8,$9,0*
20,1,$1+$1,$8,$9,$2,$3,0*%
G04 Aperture macros list end*
%TA.AperFunction,ComponentPad*%
%ADD10R,1.700000X1.700000*%
%TD*%
%TA.AperFunction,ComponentPad*%
%ADD11O,1.700000X1.700000*%
%TD*%
%TA.AperFunction,HeatsinkPad*%
%ADD12O,1.550000X0.890000*%
%TD*%
%TA.AperFunction,SMDPad,CuDef*%
%ADD13RoundRect,0.250000X0.525000X-0.475000X0.525000X0.475000X-0.525000X0.475000X-0.525000X-0.475000X0*%
%TD*%
%TA.AperFunction,HeatsinkPad*%
%ADD14O,0.950000X1.250000*%
%TD*%
%TA.AperFunction,SMDPad,CuDef*%
%ADD15RoundRect,0.250000X0.525000X-0.500000X0.525000X0.500000X-0.525000X0.500000X-0.525000X-0.500000X0*%
%TD*%
%TA.AperFunction,SMDPad,CuDef*%
%ADD16RoundRect,0.100000X0.575000X-0.100000X0.575000X0.100000X-0.575000X0.100000X-0.575000X-0.100000X0*%
%TD*%
%TA.AperFunction,SMDPad,CuDef*%
%ADD17R,0.450000X1.750000*%
%TD*%
%TA.AperFunction,SMDPad,CuDef*%
%ADD18RoundRect,0.140000X-0.170000X0.140000X-0.170000X-0.140000X0.170000X-0.140000X0.170000X0.140000X0*%
%TD*%
%TA.AperFunction,SMDPad,CuDef*%
%ADD19RoundRect,0.150000X-0.587500X-0.150000X0.587500X-0.150000X0.587500X0.150000X-0.587500X0.150000X0*%
%TD*%
%TA.AperFunction,SMDPad,CuDef*%
%ADD20RoundRect,0.087500X0.087500X-0.537500X0.087500X0.537500X-0.087500X0.537500X-0.087500X-0.537500X0*%
%TD*%
%TA.AperFunction,SMDPad,CuDef*%
%ADD21RoundRect,0.135000X-0.185000X0.135000X-0.185000X-0.135000X0.185000X-0.135000X0.185000X0.135000X0*%
%TD*%
%TA.AperFunction,SMDPad,CuDef*%
%ADD22RoundRect,0.135000X0.185000X-0.135000X0.185000X0.135000X-0.185000X0.135000X-0.185000X-0.135000X0*%
%TD*%
%TA.AperFunction,SMDPad,CuDef*%
%ADD23RoundRect,0.135000X-0.135000X-0.185000X0.135000X-0.185000X0.135000X0.185000X-0.135000X0.185000X0*%
%TD*%
%TA.AperFunction,SMDPad,CuDef*%
%ADD24RoundRect,0.135000X0.135000X0.185000X-0.135000X0.185000X-0.135000X-0.185000X0.135000X-0.185000X0*%
%TD*%
%TA.AperFunction,SMDPad,CuDef*%
%ADD25RoundRect,0.250000X-0.325000X-0.650000X0.325000X-0.650000X0.325000X0.650000X-0.325000X0.650000X0*%
%TD*%
%TA.AperFunction,SMDPad,CuDef*%
%ADD26RoundRect,0.140000X-0.140000X-0.170000X0.140000X-0.170000X0.140000X0.170000X-0.140000X0.170000X0*%
%TD*%
%TA.AperFunction,SMDPad,CuDef*%
%ADD27RoundRect,0.140000X0.140000X0.170000X-0.140000X0.170000X-0.140000X-0.170000X0.140000X-0.170000X0*%
%TD*%
%TA.AperFunction,SMDPad,CuDef*%
%ADD28RoundRect,0.218750X-0.218750X-0.256250X0.218750X-0.256250X0.218750X0.256250X-0.218750X0.256250X0*%
%TD*%
%TA.AperFunction,SMDPad,CuDef*%
%ADD29RoundRect,0.218750X-0.256250X0.218750X-0.256250X-0.218750X0.256250X-0.218750X0.256250X0.218750X0*%
%TD*%
%TA.AperFunction,SMDPad,CuDef*%
%ADD30RoundRect,0.250000X0.450000X-0.262500X0.450000X0.262500X-0.450000X0.262500X-0.450000X-0.262500X0*%
%TD*%
%TA.AperFunction,ViaPad*%
%ADD31C,0.700000*%
%TD*%
%TA.AperFunction,ViaPad*%
%ADD32C,0.600000*%
%TD*%
%TA.AperFunction,Conductor*%
%ADD33C,0.250000*%
%TD*%
%TA.AperFunction,Conductor*%
%ADD34C,0.300000*%
%TD*%
%TA.AperFunction,Conductor*%
%ADD35C,0.200000*%
%TD*%
G04 APERTURE END LIST*
D10*
%TO.P,J3,1,Pin_1*%
%TO.N,VCC_TTL*%
X134620000Y-125730000D03*
D11*
%TO.P,J3,2,Pin_2*%
%TO.N,/TX*%
X134620000Y-128270000D03*
%TO.P,J3,3,Pin_3*%
%TO.N,/RX*%
X134620000Y-130810000D03*
%TO.P,J3,4,Pin_4*%
%TO.N,GND*%
X134620000Y-133350000D03*
%TD*%
D12*
%TO.P,J1,6,Shield*%
%TO.N,GND*%
X165200000Y-126000000D03*
D13*
X165200000Y-126475000D03*
D14*
X162500000Y-127000000D03*
D15*
X165200000Y-128500000D03*
X165200000Y-130500000D03*
D14*
X162500000Y-132000000D03*
D13*
X165200000Y-132525000D03*
D12*
X165200000Y-133000000D03*
D16*
%TO.P,J1,5,GND*%
X162500000Y-128200000D03*
%TO.P,J1,4,ID*%
%TO.N,unconnected-(J1-ID-Pad4)*%
X162500000Y-128850000D03*
%TO.P,J1,3,D+*%
%TO.N,/D+*%
X162500000Y-129500000D03*
%TO.P,J1,2,D-*%
%TO.N,/D-*%
X162500000Y-130150000D03*
%TO.P,J1,1,VBUS*%
%TO.N,Net-(J1-VBUS)*%
X162500000Y-130800000D03*
%TD*%
D10*
%TO.P,J2,1,Pin_1*%
%TO.N,VCC_TTL*%
X129794000Y-125730000D03*
D11*
%TO.P,J2,2,Pin_2*%
%TO.N,/RX*%
X129794000Y-128270000D03*
%TO.P,J2,3,Pin_3*%
%TO.N,/TX*%
X129794000Y-130810000D03*
%TO.P,J2,4,Pin_4*%
%TO.N,GND*%
X129794000Y-133350000D03*
%TD*%
D17*
%TO.P,U1,1,TXD*%
%TO.N,/TX_3V3*%
X146951000Y-135735742D03*
%TO.P,U1,2,DTR*%
%TO.N,unconnected-(U1-DTR-Pad2)*%
X147601000Y-135735742D03*
%TO.P,U1,3,RTS*%
%TO.N,unconnected-(U1-RTS-Pad3)*%
X148251000Y-135735742D03*
%TO.P,U1,4,VCCIO*%
%TO.N,+3V3*%
X148901000Y-135735742D03*
%TO.P,U1,5,RXD*%
%TO.N,/RX_3V3*%
X149551000Y-135735742D03*
%TO.P,U1,6,RI*%
%TO.N,unconnected-(U1-RI-Pad6)*%
X150201000Y-135735742D03*
%TO.P,U1,7,GND*%
%TO.N,GND*%
X150851000Y-135735742D03*
%TO.P,U1,8*%
%TO.N,N/C*%
X151501000Y-135735742D03*
%TO.P,U1,9,DCR*%
%TO.N,unconnected-(U1-DCR-Pad9)*%
X152151000Y-135735742D03*
%TO.P,U1,10,DCD*%
%TO.N,unconnected-(U1-DCD-Pad10)*%
X152801000Y-135735742D03*
%TO.P,U1,11,CTS*%
%TO.N,unconnected-(U1-CTS-Pad11)*%
X153451000Y-135735742D03*
%TO.P,U1,12,CBUS4*%
%TO.N,unconnected-(U1-CBUS4-Pad12)*%
X154101000Y-135735742D03*
%TO.P,U1,13,CBUS2*%
%TO.N,unconnected-(U1-CBUS2-Pad13)*%
X154751000Y-135735742D03*
%TO.P,U1,14,CBUS3*%
%TO.N,unconnected-(U1-CBUS3-Pad14)*%
X155401000Y-135735742D03*
%TO.P,U1,15,USBD+*%
%TO.N,/D+*%
X155401000Y-128535742D03*
%TO.P,U1,16,USBD-*%
%TO.N,/D-*%
X154751000Y-128535742D03*
%TO.P,U1,17,3V3OUT*%
%TO.N,+3V3*%
X154101000Y-128535742D03*
%TO.P,U1,18,GND*%
%TO.N,GND*%
X153451000Y-128535742D03*
%TO.P,U1,19,~{RESET}*%
%TO.N,unconnected-(U1-~{RESET}-Pad19)*%
X152801000Y-128535742D03*
%TO.P,U1,20,VCC*%
%TO.N,VBUS*%
X152151000Y-128535742D03*
%TO.P,U1,21,GND*%
%TO.N,GND*%
X151501000Y-128535742D03*
%TO.P,U1,22,CBUS1*%
%TO.N,/RXL*%
X150851000Y-128535742D03*
%TO.P,U1,23,CBUS0*%
%TO.N,/TXL*%
X150201000Y-128535742D03*
%TO.P,U1,24*%
%TO.N,N/C*%
X149551000Y-128535742D03*
%TO.P,U1,25,AGND*%
%TO.N,GND*%
X148901000Y-128535742D03*
%TO.P,U1,26,TEST*%
X148251000Y-128535742D03*
%TO.P,U1,27,OSCI*%
%TO.N,unconnected-(U1-OSCI-Pad27)*%
X147601000Y-128535742D03*
%TO.P,U1,28,OSCO*%
%TO.N,unconnected-(U1-OSCO-Pad28)*%
X146951000Y-128535742D03*
%TD*%
D18*
%TO.P,C3,2*%
%TO.N,GND*%
X158312000Y-137092000D03*
%TO.P,C3,1*%
%TO.N,VBUS*%
X158312000Y-136132000D03*
%TD*%
D19*
%TO.P,Q1,3,C*%
%TO.N,Net-(Q1-C)*%
X143763500Y-126867742D03*
%TO.P,Q1,2,E*%
%TO.N,GND*%
X141888500Y-127817742D03*
%TO.P,Q1,1,B*%
%TO.N,Net-(Q1-B)*%
X141888500Y-125917742D03*
%TD*%
D20*
%TO.P,U2,1,B2*%
%TO.N,/RX*%
X138520000Y-135125742D03*
%TO.P,U2,2,GND*%
%TO.N,GND*%
X139020000Y-135125742D03*
%TO.P,U2,3,VCCA*%
%TO.N,+3V3*%
X139520000Y-135125742D03*
%TO.P,U2,4,A2Y*%
%TO.N,/RX_3V3*%
X140020000Y-135125742D03*
%TO.P,U2,5,A1*%
%TO.N,/TX_3V3*%
X140020000Y-132325742D03*
%TO.P,U2,6,OE*%
%TO.N,Net-(U2-OE)*%
X139520000Y-132325742D03*
%TO.P,U2,7,VCCB*%
%TO.N,VCC_TTL*%
X139020000Y-132325742D03*
%TO.P,U2,8,B1Y*%
%TO.N,/TX*%
X138520000Y-132325742D03*
%TD*%
D21*
%TO.P,R10,1*%
%TO.N,VCC_TTL*%
X137414000Y-128522000D03*
%TO.P,R10,2*%
%TO.N,/TX*%
X137414000Y-129542000D03*
%TD*%
D22*
%TO.P,R9,1*%
%TO.N,+3V3*%
X142572000Y-137029742D03*
%TO.P,R9,2*%
%TO.N,/RX_3V3*%
X142572000Y-136009742D03*
%TD*%
%TO.P,R8,1*%
%TO.N,+3V3*%
X142572000Y-133473742D03*
%TO.P,R8,2*%
%TO.N,Net-(U2-OE)*%
X142572000Y-132453742D03*
%TD*%
D23*
%TO.P,R1,1*%
%TO.N,Net-(D1-K)*%
X161612000Y-123624000D03*
%TO.P,R1,2*%
%TO.N,GND*%
X162632000Y-123624000D03*
%TD*%
D24*
%TO.P,R4,1*%
%TO.N,Net-(D4-K)*%
X140542000Y-123819742D03*
%TO.P,R4,2*%
%TO.N,Net-(Q1-C)*%
X139522000Y-123819742D03*
%TD*%
%TO.P,R5,1*%
%TO.N,Net-(Q1-B)*%
X139780000Y-125724742D03*
%TO.P,R5,2*%
%TO.N,VCC_TTL*%
X138760000Y-125724742D03*
%TD*%
D25*
%TO.P,C2,1*%
%TO.N,VBUS*%
X161409000Y-136612000D03*
%TO.P,C2,2*%
%TO.N,GND*%
X164359000Y-136612000D03*
%TD*%
D24*
%TO.P,R3,2*%
%TO.N,/RXL*%
X150320191Y-125730000D03*
%TO.P,R3,1*%
%TO.N,Net-(D3-K)*%
X151340191Y-125730000D03*
%TD*%
D26*
%TO.P,C4,1*%
%TO.N,VCC_TTL*%
X131600000Y-136297000D03*
%TO.P,C4,2*%
%TO.N,GND*%
X132560000Y-136297000D03*
%TD*%
D27*
%TO.P,C1,1*%
%TO.N,+3V3*%
X145006000Y-129540000D03*
%TO.P,C1,2*%
%TO.N,GND*%
X144046000Y-129540000D03*
%TD*%
D28*
%TO.P,D4,1,K*%
%TO.N,Net-(D4-K)*%
X142546500Y-123819742D03*
%TO.P,D4,2,A*%
%TO.N,+3V3*%
X144121500Y-123819742D03*
%TD*%
D27*
%TO.P,C6,1*%
%TO.N,+3V3*%
X139750000Y-137027742D03*
%TO.P,C6,2*%
%TO.N,GND*%
X138790000Y-137027742D03*
%TD*%
D26*
%TO.P,C5,1*%
%TO.N,VCC_TTL*%
X138790000Y-130423742D03*
%TO.P,C5,2*%
%TO.N,GND*%
X139750000Y-130423742D03*
%TD*%
D28*
%TO.P,D3,2,A*%
%TO.N,+3V3*%
X154737191Y-125730000D03*
%TO.P,D3,1,K*%
%TO.N,Net-(D3-K)*%
X153162191Y-125730000D03*
%TD*%
D29*
%TO.P,D1,1,K*%
%TO.N,Net-(D1-K)*%
X159074000Y-123886500D03*
%TO.P,D1,2,A*%
%TO.N,VBUS*%
X159074000Y-125461500D03*
%TD*%
D30*
%TO.P,FB1,1*%
%TO.N,Net-(J1-VBUS)*%
X158820000Y-134095500D03*
%TO.P,FB1,2*%
%TO.N,VBUS*%
X158820000Y-132270500D03*
%TD*%
D24*
%TO.P,R2,1*%
%TO.N,Net-(D2-K)*%
X151386000Y-122483742D03*
%TO.P,R2,2*%
%TO.N,/TXL*%
X150366000Y-122483742D03*
%TD*%
D28*
%TO.P,D2,1,K*%
%TO.N,Net-(D2-K)*%
X153162191Y-122483742D03*
%TO.P,D2,2,A*%
%TO.N,+3V3*%
X154737191Y-122483742D03*
%TD*%
D31*
%TO.N,+3V3*%
X147320000Y-132080000D03*
X144780000Y-134620000D03*
X144744000Y-137029742D03*
%TO.N,GND*%
X150876000Y-134366000D03*
X152446000Y-130103742D03*
X149098000Y-130103742D03*
D32*
X141048000Y-129153742D03*
%TD*%
D33*
%TO.N,/D+*%
X159773939Y-129260000D02*
X159773939Y-128759561D01*
X159413939Y-128519561D02*
G75*
G03*
X159173861Y-128759561I-39J-240039D01*
G01*
X160013939Y-129500000D02*
G75*
G02*
X159773900Y-129260000I-39J240000D01*
G01*
X159533939Y-128519561D02*
X159413939Y-128519561D01*
X159773939Y-128759561D02*
G75*
G03*
X159533939Y-128519561I-240039J-39D01*
G01*
X158813939Y-129500000D02*
X158566976Y-129500000D01*
X159173939Y-128759561D02*
X159173939Y-129260000D01*
X158933939Y-129500000D02*
X158813939Y-129500000D01*
X159173939Y-129260000D02*
G75*
G02*
X158933939Y-129500039I-240039J0D01*
G01*
X162500000Y-129500000D02*
X160013939Y-129500000D01*
D34*
%TO.N,VBUS*%
X157226000Y-127000000D02*
X157170258Y-127055742D01*
X157170258Y-127055742D02*
X152446000Y-127055742D01*
X152446000Y-127055742D02*
X152151000Y-127350742D01*
X152151000Y-127350742D02*
X152151000Y-128535742D01*
D33*
%TO.N,Net-(D3-K)*%
X151340191Y-125730000D02*
X153162191Y-125730000D01*
%TO.N,Net-(D2-K)*%
X151386000Y-122483742D02*
X153162191Y-122483742D01*
%TO.N,/TXL*%
X150201000Y-128535742D02*
X150201000Y-126515793D01*
X150201000Y-126515793D02*
X149774191Y-126088984D01*
X149774191Y-126088984D02*
X149774191Y-123075551D01*
X149774191Y-123075551D02*
X150366000Y-122483742D01*
%TO.N,/RXL*%
X150851000Y-128535742D02*
X150851000Y-126260809D01*
X150851000Y-126260809D02*
X150320191Y-125730000D01*
D34*
%TO.N,GND*%
X144046000Y-129032000D02*
X144046000Y-129540000D01*
X141888500Y-127817742D02*
X142831742Y-127817742D01*
X142831742Y-127817742D02*
X144046000Y-129032000D01*
X150851000Y-135735742D02*
X150851000Y-134137000D01*
X150851000Y-134137000D02*
X150876000Y-134112000D01*
D33*
%TO.N,/D+*%
X158566976Y-129500000D02*
X156365258Y-129500000D01*
X156365258Y-129500000D02*
X155401000Y-128535742D01*
%TO.N,/D-*%
X154751000Y-128535742D02*
X154751000Y-129610742D01*
X154751000Y-129610742D02*
X155290258Y-130150000D01*
X155290258Y-130150000D02*
X159933552Y-130150000D01*
D35*
X159933552Y-130150000D02*
X159956519Y-130150000D01*
D33*
X159956519Y-130150000D02*
X162500000Y-130150000D01*
D34*
%TO.N,GND*%
X148251000Y-128535742D02*
X148251000Y-129455000D01*
X148899742Y-130103742D02*
X149098000Y-130103742D01*
X148251000Y-129455000D02*
X148899742Y-130103742D01*
X148901000Y-128535742D02*
X148901000Y-129906742D01*
X148901000Y-129906742D02*
X149098000Y-130103742D01*
X132560000Y-136297000D02*
X132560000Y-135380000D01*
X132560000Y-135380000D02*
X134620000Y-133320000D01*
D33*
%TO.N,/RX*%
X138520000Y-135125742D02*
X134444000Y-131049742D01*
X134444000Y-131049742D02*
X134444000Y-130780000D01*
X134444000Y-130780000D02*
X131880000Y-128216000D01*
X131880000Y-128216000D02*
X129818000Y-128216000D01*
X129818000Y-128216000D02*
X129794000Y-128240000D01*
%TO.N,/TXL*%
X150328809Y-122483743D02*
X150328809Y-122483742D01*
D34*
%TO.N,VCC_TTL*%
X138790000Y-130423742D02*
X138790000Y-128630000D01*
X138790000Y-128630000D02*
X138682000Y-128522000D01*
X138682000Y-128522000D02*
X137414000Y-128522000D01*
%TO.N,+3V3*%
X142572000Y-137029742D02*
X144744000Y-137029742D01*
X154737191Y-125785742D02*
X154737191Y-122529551D01*
X154737191Y-122529551D02*
X154783000Y-122483742D01*
%TO.N,VCC_TTL*%
X139020000Y-132325742D02*
X139020000Y-130653742D01*
X139020000Y-130653742D02*
X138790000Y-130423742D01*
D33*
%TO.N,/TX*%
X134444000Y-128240000D02*
X135746000Y-129542000D01*
X135746000Y-129542000D02*
X137414000Y-129542000D01*
X138520000Y-132325742D02*
X137414000Y-131219742D01*
X137414000Y-131219742D02*
X137414000Y-129542000D01*
D34*
%TO.N,GND*%
X138790000Y-137027742D02*
X138085742Y-137027742D01*
X138085742Y-137027742D02*
X134444000Y-133386000D01*
%TO.N,VCC_TTL*%
X131622000Y-136208000D02*
X131622000Y-136297000D01*
%TO.N,GND*%
X158312000Y-137092000D02*
X158312000Y-137247000D01*
X158312000Y-137247000D02*
X159074000Y-138009000D01*
X159074000Y-138009000D02*
X162962000Y-138009000D01*
X162962000Y-138009000D02*
X164359000Y-136612000D01*
D33*
%TO.N,/TX_3V3*%
X144064000Y-131373742D02*
X140972000Y-131373742D01*
X140972000Y-131373742D02*
X140020000Y-132325742D01*
%TO.N,/RX_3V3*%
X142572000Y-136009742D02*
X145553000Y-136009742D01*
D34*
%TO.N,+3V3*%
X139520000Y-135125742D02*
X139520000Y-134434752D01*
X139520000Y-134434752D02*
X140041010Y-133913742D01*
X140041010Y-133913742D02*
X141188000Y-133913742D01*
X141188000Y-133913742D02*
X141442000Y-133659742D01*
X141442000Y-133659742D02*
X141578000Y-133659742D01*
X141578000Y-133659742D02*
X141764000Y-133473742D01*
X141764000Y-133473742D02*
X142572000Y-133473742D01*
D33*
%TO.N,Net-(U2-OE)*%
X142572000Y-132453742D02*
X141378000Y-132453742D01*
X139520000Y-133261742D02*
X139520000Y-132325742D01*
X141378000Y-132453742D02*
X140426000Y-133405742D01*
X140426000Y-133405742D02*
X139664000Y-133405742D01*
X139664000Y-133405742D02*
X139520000Y-133261742D01*
D34*
%TO.N,GND*%
X153451000Y-128535742D02*
X153451000Y-129584742D01*
X153451000Y-129584742D02*
X152932000Y-130103742D01*
X152932000Y-130103742D02*
X152446000Y-130103742D01*
X151894000Y-130103742D02*
X152446000Y-130103742D01*
X151501000Y-129710742D02*
X151894000Y-130103742D01*
X151501000Y-128535742D02*
X151501000Y-129710742D01*
D33*
%TO.N,/TX_3V3*%
X146951000Y-135735742D02*
X146951000Y-134260742D01*
X146951000Y-134260742D02*
X144064000Y-131373742D01*
%TO.N,/RX_3V3*%
X145553000Y-136009742D02*
X146759000Y-137215742D01*
X146759000Y-137215742D02*
X149196000Y-137215742D01*
X149196000Y-137215742D02*
X149551000Y-136860742D01*
X149551000Y-136860742D02*
X149551000Y-135735742D01*
D34*
%TO.N,+3V3*%
X154101000Y-129980742D02*
X154224000Y-130103742D01*
X154101000Y-128535742D02*
X154101000Y-129980742D01*
X148901000Y-135735742D02*
X148901000Y-133924742D01*
X148890000Y-133913742D02*
X148901000Y-133924742D01*
X148918000Y-135752742D02*
X148901000Y-135735742D01*
D33*
%TO.N,Net-(J1-VBUS)*%
X162500000Y-130800000D02*
X161965000Y-130800000D01*
X161965000Y-130800000D02*
X158820000Y-133945000D01*
X158820000Y-133945000D02*
X158820000Y-134095500D01*
D34*
%TO.N,GND*%
X138790000Y-137027742D02*
X139020000Y-136797742D01*
X139020000Y-136797742D02*
X139020000Y-135125742D01*
%TO.N,+3V3*%
X139750000Y-137027742D02*
X139520000Y-136797742D01*
X139520000Y-136797742D02*
X139520000Y-135125742D01*
X139750000Y-137027742D02*
X142570000Y-137027742D01*
X142570000Y-137027742D02*
X142572000Y-137029742D01*
D33*
%TO.N,/RX_3V3*%
X140020000Y-135125742D02*
X140904000Y-136009742D01*
X140904000Y-136009742D02*
X142572000Y-136009742D01*
%TO.N,Net-(D4-K)*%
X140542000Y-123819742D02*
X142546500Y-123819742D01*
%TO.N,Net-(Q1-C)*%
X143763500Y-126867742D02*
X143763500Y-126377920D01*
X143763500Y-126377920D02*
X141851322Y-124465742D01*
X141851322Y-124465742D02*
X140168000Y-124465742D01*
X140168000Y-124465742D02*
X139522000Y-123819742D01*
D34*
%TO.N,GND*%
X139750000Y-130423742D02*
X139778000Y-130423742D01*
X139778000Y-130423742D02*
X141048000Y-129153742D01*
X141888500Y-128313242D02*
X141888500Y-127817742D01*
X165200000Y-132525000D02*
X165200000Y-130500000D01*
X165200000Y-134677000D02*
X165200000Y-133000000D01*
X164359000Y-136612000D02*
X164359000Y-135518000D01*
X141048000Y-129153742D02*
X141888500Y-128313242D01*
X162500000Y-127000000D02*
X162500000Y-128200000D01*
X163993000Y-123624000D02*
X162632000Y-123624000D01*
X165200000Y-124831000D02*
X163993000Y-123624000D01*
X165200000Y-128500000D02*
X165200000Y-126475000D01*
X165200000Y-126475000D02*
X165200000Y-124831000D01*
X164359000Y-135518000D02*
X165200000Y-134677000D01*
%TO.N,VBUS*%
X161409000Y-136612000D02*
X160929000Y-136132000D01*
X158820000Y-125715500D02*
X159074000Y-125461500D01*
X159074000Y-125461500D02*
X158972500Y-125563000D01*
D33*
%TO.N,Net-(D1-K)*%
X160496500Y-123886500D02*
X160759000Y-123624000D01*
X159074000Y-123886500D02*
X160496500Y-123886500D01*
X160759000Y-123624000D02*
X161612000Y-123624000D01*
%TO.N,Net-(J1-VBUS)*%
X162219000Y-130800000D02*
X162500000Y-130800000D01*
%TO.N,Net-(Q1-B)*%
X139780000Y-125724742D02*
X141695500Y-125724742D01*
X141695500Y-125724742D02*
X141888500Y-125917742D01*
%TD*%
%TA.AperFunction,Conductor*%
%TO.N,VCC_TTL*%
G36*
X138721539Y-120520185D02*
G01*
X138767294Y-120572989D01*
X138778500Y-120624500D01*
X138778500Y-122875242D01*
X138778501Y-122875251D01*
X138790052Y-122982692D01*
X138790054Y-122982704D01*
X138801260Y-123034214D01*
X138835385Y-123136743D01*
X138835387Y-123136746D01*
X138850186Y-123159775D01*
X138869870Y-123226815D01*
X138852602Y-123289934D01*
X138799131Y-123380347D01*
X138799129Y-123380353D01*
X138754335Y-123534533D01*
X138754334Y-123534539D01*
X138751500Y-123570553D01*
X138751500Y-124068911D01*
X138751501Y-124068933D01*
X138754335Y-124104947D01*
X138799129Y-124259130D01*
X138799131Y-124259135D01*
X138880732Y-124397115D01*
X138898000Y-124460236D01*
X138898000Y-126268873D01*
X138878433Y-126291455D01*
X138878430Y-126291459D01*
X138818664Y-126422325D01*
X138798976Y-126489373D01*
X138791286Y-126542862D01*
X138778500Y-126631791D01*
X138778500Y-128160839D01*
X138778521Y-128165409D01*
X138778522Y-128165580D01*
X138778539Y-128167519D01*
X138778600Y-128172061D01*
X138789715Y-128240664D01*
X138801613Y-128314093D01*
X138814478Y-128355182D01*
X138822488Y-128380766D01*
X138822491Y-128380777D01*
X138884587Y-128510568D01*
X138884710Y-128510753D01*
X138886363Y-128514293D01*
X138886899Y-128517819D01*
X138898000Y-128566739D01*
X138898000Y-130423742D01*
X138664000Y-130423742D01*
X138596961Y-130404057D01*
X138551206Y-130351253D01*
X138540000Y-130299742D01*
X138540000Y-129619236D01*
X138539998Y-129619235D01*
X138393094Y-129661915D01*
X138323224Y-129661716D01*
X138264554Y-129623774D01*
X138235711Y-129560135D01*
X138234499Y-129542846D01*
X138234499Y-129342820D01*
X138231665Y-129306796D01*
X138186869Y-129152607D01*
X138152581Y-129094629D01*
X138135398Y-129026905D01*
X138152582Y-128968386D01*
X138186404Y-128911196D01*
X138186405Y-128911194D01*
X138226844Y-128772000D01*
X137674409Y-128772000D01*
X137664680Y-128771618D01*
X137663186Y-128771500D01*
X137164830Y-128771500D01*
X137164813Y-128771501D01*
X137163692Y-128771589D01*
X137163330Y-128771618D01*
X137153607Y-128772000D01*
X136601156Y-128772000D01*
X136597004Y-128777529D01*
X136596861Y-128827775D01*
X136558919Y-128886445D01*
X136495280Y-128915288D01*
X136477984Y-128916500D01*
X136056452Y-128916500D01*
X136027011Y-128907855D01*
X135997025Y-128901332D01*
X135992009Y-128897577D01*
X135989413Y-128896815D01*
X135968771Y-128880181D01*
X135926623Y-128838033D01*
X135893138Y-128776710D01*
X135896372Y-128712036D01*
X135937246Y-128586243D01*
X135970500Y-128376287D01*
X135970500Y-128272000D01*
X136601156Y-128272000D01*
X137164000Y-128272000D01*
X137664000Y-128272000D01*
X138226844Y-128272000D01*
X138186404Y-128132805D01*
X138104738Y-127994714D01*
X138104731Y-127994705D01*
X137991294Y-127881268D01*
X137991285Y-127881261D01*
X137853191Y-127799593D01*
X137853188Y-127799592D01*
X137699130Y-127754834D01*
X137664000Y-127752068D01*
X137664000Y-128272000D01*
X137164000Y-128272000D01*
X137164000Y-127752068D01*
X137163999Y-127752068D01*
X137128869Y-127754834D01*
X137128868Y-127754834D01*
X136974811Y-127799592D01*
X136974808Y-127799593D01*
X136836714Y-127881261D01*
X136836705Y-127881268D01*
X136723268Y-127994705D01*
X136723261Y-127994714D01*
X136641595Y-128132805D01*
X136601156Y-128272000D01*
X135970500Y-128272000D01*
X135970500Y-128163713D01*
X135937246Y-127953757D01*
X135871557Y-127751588D01*
X135775051Y-127562184D01*
X135775049Y-127562181D01*
X135775048Y-127562179D01*
X135650109Y-127390213D01*
X135536181Y-127276285D01*
X135502696Y-127214962D01*
X135507680Y-127145270D01*
X135549552Y-127089337D01*
X135580529Y-127072422D01*
X135712086Y-127023354D01*
X135712093Y-127023350D01*
X135827187Y-126937190D01*
X135827190Y-126937187D01*
X135913350Y-126822093D01*
X135913354Y-126822086D01*
X135963596Y-126687379D01*
X135963598Y-126687372D01*
X135969999Y-126627844D01*
X135970000Y-126627827D01*
X135970000Y-125980000D01*
X135053012Y-125980000D01*
X135056048Y-125974742D01*
X137990069Y-125974742D01*
X137992832Y-126009864D01*
X137992833Y-126009870D01*
X138037592Y-126163930D01*
X138037593Y-126163933D01*
X138119261Y-126302027D01*
X138119268Y-126302036D01*
X138232705Y-126415473D01*
X138232714Y-126415480D01*
X138370805Y-126497146D01*
X138510000Y-126537586D01*
X138510000Y-125974742D01*
X137990069Y-125974742D01*
X135056048Y-125974742D01*
X135085925Y-125922993D01*
X135120000Y-125795826D01*
X135120000Y-125664174D01*
X135085925Y-125537007D01*
X135053012Y-125480000D01*
X135970000Y-125480000D01*
X135970000Y-125474742D01*
X137990069Y-125474742D01*
X138510000Y-125474742D01*
X138510000Y-124911896D01*
X138509998Y-124911895D01*
X138370811Y-124952333D01*
X138370808Y-124952335D01*
X138232714Y-125034003D01*
X138232705Y-125034010D01*
X138119268Y-125147447D01*
X138119261Y-125147456D01*
X138037593Y-125285550D01*
X138037592Y-125285553D01*
X137992833Y-125439613D01*
X137992832Y-125439619D01*
X137990069Y-125474742D01*
X135970000Y-125474742D01*
X135970000Y-124832172D01*
X135969999Y-124832155D01*
X135963598Y-124772627D01*
X135963596Y-124772620D01*
X135913354Y-124637913D01*
X135913350Y-124637906D01*
X135827190Y-124522812D01*
X135827187Y-124522809D01*
X135712093Y-124436649D01*
X135712086Y-124436645D01*
X135577379Y-124386403D01*
X135577372Y-124386401D01*
X135517844Y-124380000D01*
X134870000Y-124380000D01*
X134870000Y-125296988D01*
X134812993Y-125264075D01*
X134685826Y-125230000D01*
X134554174Y-125230000D01*
X134427007Y-125264075D01*
X134370000Y-125296988D01*
X134370000Y-124380000D01*
X133722155Y-124380000D01*
X133662627Y-124386401D01*
X133662620Y-124386403D01*
X133527913Y-124436645D01*
X133527906Y-124436649D01*
X133412812Y-124522809D01*
X133412809Y-124522812D01*
X133326649Y-124637906D01*
X133326645Y-124637913D01*
X133276403Y-124772620D01*
X133276401Y-124772627D01*
X133270000Y-124832155D01*
X133270000Y-125480000D01*
X134186988Y-125480000D01*
X134154075Y-125537007D01*
X134120000Y-125664174D01*
X134120000Y-125795826D01*
X134154075Y-125922993D01*
X134186988Y-125980000D01*
X133270000Y-125980000D01*
X133270000Y-126627844D01*
X133276401Y-126687372D01*
X133276403Y-126687379D01*
X133326645Y-126822086D01*
X133326649Y-126822093D01*
X133412809Y-126937187D01*
X133412812Y-126937190D01*
X133527906Y-127023350D01*
X133527913Y-127023354D01*
X133659470Y-127072422D01*
X133715404Y-127114293D01*
X133739821Y-127179758D01*
X133724969Y-127248031D01*
X133703819Y-127276285D01*
X133589889Y-127390215D01*
X133464951Y-127562179D01*
X133368444Y-127751585D01*
X133368443Y-127751587D01*
X133368443Y-127751588D01*
X133347102Y-127817269D01*
X133302753Y-127953760D01*
X133274395Y-128132805D01*
X133269500Y-128163713D01*
X133269500Y-128376287D01*
X133274155Y-128405677D01*
X133274655Y-128408833D01*
X133265699Y-128478126D01*
X133220702Y-128531578D01*
X133153950Y-128552216D01*
X133086636Y-128533490D01*
X133064500Y-128515910D01*
X132375822Y-127827232D01*
X132365859Y-127817269D01*
X132365858Y-127817267D01*
X132278733Y-127730142D01*
X132227509Y-127695915D01*
X132176286Y-127661688D01*
X132176283Y-127661686D01*
X132176280Y-127661685D01*
X132102603Y-127631168D01*
X132102601Y-127631167D01*
X132095792Y-127628347D01*
X132062452Y-127614537D01*
X132002029Y-127602518D01*
X131997306Y-127601578D01*
X131997304Y-127601578D01*
X131941610Y-127590500D01*
X131941607Y-127590500D01*
X131941606Y-127590500D01*
X131032805Y-127590500D01*
X130965766Y-127570815D01*
X130932488Y-127539387D01*
X130824104Y-127390208D01*
X130710181Y-127276285D01*
X130676696Y-127214962D01*
X130681680Y-127145270D01*
X130723552Y-127089337D01*
X130754529Y-127072422D01*
X130886086Y-127023354D01*
X130886093Y-127023350D01*
X131001187Y-126937190D01*
X131001190Y-126937187D01*
X131087350Y-126822093D01*
X131087354Y-126822086D01*
X131137596Y-126687379D01*
X131137598Y-126687372D01*
X131143999Y-126627844D01*
X131144000Y-126627827D01*
X131144000Y-125980000D01*
X130227012Y-125980000D01*
X130259925Y-125922993D01*
X130294000Y-125795826D01*
X130294000Y-125664174D01*
X130259925Y-125537007D01*
X130227012Y-125480000D01*
X131144000Y-125480000D01*
X131144000Y-124832172D01*
X131143999Y-124832155D01*
X131137598Y-124772627D01*
X131137596Y-124772620D01*
X131087354Y-124637913D01*
X131087350Y-124637906D01*
X131001190Y-124522812D01*
X131001187Y-124522809D01*
X130886093Y-124436649D01*
X130886086Y-124436645D01*
X130751379Y-124386403D01*
X130751372Y-124386401D01*
X130691844Y-124380000D01*
X130044000Y-124380000D01*
X130044000Y-125296988D01*
X129986993Y-125264075D01*
X129859826Y-125230000D01*
X129728174Y-125230000D01*
X129601007Y-125264075D01*
X129544000Y-125296988D01*
X129544000Y-124380000D01*
X128896155Y-124380000D01*
X128836627Y-124386401D01*
X128836620Y-124386403D01*
X128701913Y-124436645D01*
X128701906Y-124436649D01*
X128586812Y-124522809D01*
X128586809Y-124522812D01*
X128500649Y-124637906D01*
X128500645Y-124637913D01*
X128450403Y-124772620D01*
X128450401Y-124772627D01*
X128444000Y-124832155D01*
X128444000Y-125480000D01*
X129360988Y-125480000D01*
X129328075Y-125537007D01*
X129294000Y-125664174D01*
X129294000Y-125795826D01*
X129328075Y-125922993D01*
X129360988Y-125980000D01*
X128444000Y-125980000D01*
X128444000Y-126627844D01*
X128450401Y-126687372D01*
X128450403Y-126687379D01*
X128500645Y-126822086D01*
X128500649Y-126822093D01*
X128586809Y-126937187D01*
X128586812Y-126937190D01*
X128701906Y-127023350D01*
X128701913Y-127023354D01*
X128833470Y-127072422D01*
X128889404Y-127114293D01*
X128913821Y-127179758D01*
X128898969Y-127248031D01*
X128877819Y-127276285D01*
X128763889Y-127390215D01*
X128638951Y-127562179D01*
X128542444Y-127751585D01*
X128542443Y-127751587D01*
X128542443Y-127751588D01*
X128521102Y-127817269D01*
X128476753Y-127953760D01*
X128448395Y-128132805D01*
X128443500Y-128163713D01*
X128443500Y-128376287D01*
X128444211Y-128380777D01*
X128473071Y-128562994D01*
X128476754Y-128586243D01*
X128537110Y-128772000D01*
X128542444Y-128788414D01*
X128638951Y-128977820D01*
X128763890Y-129149786D01*
X128914213Y-129300109D01*
X129086182Y-129425050D01*
X129094946Y-129429516D01*
X129145742Y-129477491D01*
X129162536Y-129545312D01*
X129139998Y-129611447D01*
X129094946Y-129650484D01*
X129086182Y-129654949D01*
X128914213Y-129779890D01*
X128763890Y-129930213D01*
X128638951Y-130102179D01*
X128542444Y-130291585D01*
X128476753Y-130493760D01*
X128453888Y-130638124D01*
X128443500Y-130703713D01*
X128443500Y-130916287D01*
X128476754Y-131126243D01*
X128539703Y-131319980D01*
X128542444Y-131328414D01*
X128638951Y-131517820D01*
X128763890Y-131689786D01*
X128914213Y-131840109D01*
X129086182Y-131965050D01*
X129094946Y-131969516D01*
X129145742Y-132017491D01*
X129162536Y-132085312D01*
X129139998Y-132151447D01*
X129094946Y-132190484D01*
X129086182Y-132194949D01*
X128914213Y-132319890D01*
X128763890Y-132470213D01*
X128638951Y-132642179D01*
X128542444Y-132831585D01*
X128476753Y-133033760D01*
X128443500Y-133243713D01*
X128443500Y-133456286D01*
X128469568Y-133620877D01*
X128476754Y-133666243D01*
X128503189Y-133747602D01*
X128542444Y-133868414D01*
X128638951Y-134057820D01*
X128763890Y-134229786D01*
X128914213Y-134380109D01*
X129086179Y-134505048D01*
X129086181Y-134505049D01*
X129086184Y-134505051D01*
X129275588Y-134601557D01*
X129477757Y-134667246D01*
X129687713Y-134700500D01*
X129687714Y-134700500D01*
X129900286Y-134700500D01*
X129900287Y-134700500D01*
X130110243Y-134667246D01*
X130312412Y-134601557D01*
X130501816Y-134505051D01*
X130533905Y-134481737D01*
X130673786Y-134380109D01*
X130673788Y-134380106D01*
X130673792Y-134380104D01*
X130824104Y-134229792D01*
X130824106Y-134229788D01*
X130824109Y-134229786D01*
X130949048Y-134057820D01*
X130949047Y-134057820D01*
X130949051Y-134057816D01*
X131045557Y-133868412D01*
X131111246Y-133666243D01*
X131144500Y-133456287D01*
X131144500Y-133243713D01*
X131111246Y-133033757D01*
X131045557Y-132831588D01*
X130949051Y-132642184D01*
X130949049Y-132642181D01*
X130949048Y-132642179D01*
X130824109Y-132470213D01*
X130673786Y-132319890D01*
X130501820Y-132194951D01*
X130501115Y-132194591D01*
X130493054Y-132190485D01*
X130442259Y-132142512D01*
X130425463Y-132074692D01*
X130447999Y-132008556D01*
X130493054Y-131969515D01*
X130501816Y-131965051D01*
X130530556Y-131944170D01*
X130673786Y-131840109D01*
X130673788Y-131840106D01*
X130673792Y-131840104D01*
X130824104Y-131689792D01*
X130824106Y-131689788D01*
X130824109Y-131689786D01*
X130949048Y-131517820D01*
X130949047Y-131517820D01*
X130949051Y-131517816D01*
X131045557Y-131328412D01*
X131111246Y-131126243D01*
X131144500Y-130916287D01*
X131144500Y-130703713D01*
X131111246Y-130493757D01*
X131045557Y-130291588D01*
X130949051Y-130102184D01*
X130949049Y-130102181D01*
X130949048Y-130102179D01*
X130824109Y-129930213D01*
X130673786Y-129779890D01*
X130501820Y-129654951D01*
X130497396Y-129652697D01*
X130493054Y-129650485D01*
X130442259Y-129602512D01*
X130425463Y-129534692D01*
X130447999Y-129468556D01*
X130493054Y-129429515D01*
X130501816Y-129425051D01*
X130562091Y-129381259D01*
X130673786Y-129300109D01*
X130673788Y-129300106D01*
X130673792Y-129300104D01*
X130824104Y-129149792D01*
X130824106Y-129149788D01*
X130824109Y-129149786D01*
X130913386Y-129026905D01*
X130949051Y-128977816D01*
X130984009Y-128909205D01*
X131031983Y-128858409D01*
X131094494Y-128841500D01*
X131569548Y-128841500D01*
X131636587Y-128861185D01*
X131657229Y-128877819D01*
X133254032Y-130474623D01*
X133287517Y-130535946D01*
X133288824Y-130581702D01*
X133269500Y-130703707D01*
X133269500Y-130703713D01*
X133269500Y-130916287D01*
X133302754Y-131126243D01*
X133365703Y-131319980D01*
X133368444Y-131328414D01*
X133464951Y-131517820D01*
X133589890Y-131689786D01*
X133740213Y-131840109D01*
X133912182Y-131965050D01*
X133920946Y-131969516D01*
X133971742Y-132017491D01*
X133988536Y-132085312D01*
X133965998Y-132151447D01*
X133920946Y-132190484D01*
X133912182Y-132194949D01*
X133740213Y-132319890D01*
X133589890Y-132470213D01*
X133464951Y-132642179D01*
X133368444Y-132831585D01*
X133302753Y-133033760D01*
X133269500Y-133243713D01*
X133269500Y-133456287D01*
X133269499Y-133456287D01*
X133299850Y-133647916D01*
X133290895Y-133717209D01*
X133265058Y-133754994D01*
X132054722Y-134965331D01*
X132054720Y-134965333D01*
X132034158Y-134996109D01*
X132020582Y-135016428D01*
X132013724Y-135026692D01*
X131983534Y-135071873D01*
X131934499Y-135190255D01*
X131934497Y-135190261D01*
X131909500Y-135315928D01*
X131909500Y-135385860D01*
X131889815Y-135452899D01*
X131859953Y-135485020D01*
X131850000Y-135492493D01*
X131850000Y-135798645D01*
X131832734Y-135861763D01*
X131827507Y-135870600D01*
X131827504Y-135870608D01*
X131782357Y-136026002D01*
X131782356Y-136026008D01*
X131779500Y-136062302D01*
X131779500Y-136531697D01*
X131782356Y-136567991D01*
X131782357Y-136567997D01*
X131827503Y-136723389D01*
X131827505Y-136723393D01*
X131827506Y-136723395D01*
X131832732Y-136732233D01*
X131850000Y-136795352D01*
X131850000Y-137101503D01*
X131996194Y-137059032D01*
X132016384Y-137047091D01*
X132084108Y-137029906D01*
X132142629Y-137047089D01*
X132163605Y-137059494D01*
X132204587Y-137071400D01*
X132319002Y-137104642D01*
X132319005Y-137104642D01*
X132319007Y-137104643D01*
X132355310Y-137107500D01*
X132355318Y-137107500D01*
X132764682Y-137107500D01*
X132764690Y-137107500D01*
X132800993Y-137104643D01*
X132800995Y-137104642D01*
X132800997Y-137104642D01*
X132841975Y-137092736D01*
X132956395Y-137059494D01*
X133095687Y-136977117D01*
X133210117Y-136862687D01*
X133292494Y-136723395D01*
X133337643Y-136567993D01*
X133340500Y-136531690D01*
X133340500Y-136062310D01*
X133337643Y-136026007D01*
X133335608Y-136019004D01*
X133292495Y-135870609D01*
X133292494Y-135870606D01*
X133292494Y-135870605D01*
X133228796Y-135762898D01*
X133211614Y-135695175D01*
X133233774Y-135628912D01*
X133247843Y-135612102D01*
X134166205Y-134693739D01*
X134227526Y-134660256D01*
X134292200Y-134663490D01*
X134303757Y-134667246D01*
X134513713Y-134700500D01*
X134513714Y-134700500D01*
X134726285Y-134700500D01*
X134726287Y-134700500D01*
X134760800Y-134695033D01*
X134830092Y-134703987D01*
X134867879Y-134729825D01*
X137671067Y-137533014D01*
X137671068Y-137533015D01*
X137671071Y-137533017D01*
X137671073Y-137533019D01*
X137777615Y-137604207D01*
X137895998Y-137653243D01*
X137896002Y-137653243D01*
X137896003Y-137653244D01*
X138021670Y-137678242D01*
X138021673Y-137678242D01*
X138173676Y-137678242D01*
X138240715Y-137697927D01*
X138249676Y-137704262D01*
X138254310Y-137707856D01*
X138254313Y-137707859D01*
X138393605Y-137790236D01*
X138434587Y-137802142D01*
X138549002Y-137835384D01*
X138549005Y-137835384D01*
X138549007Y-137835385D01*
X138585310Y-137838242D01*
X138654500Y-137838242D01*
X138721539Y-137857927D01*
X138767294Y-137910731D01*
X138778500Y-137962242D01*
X138778500Y-138375500D01*
X138758815Y-138442539D01*
X138706011Y-138488294D01*
X138654500Y-138499500D01*
X128154500Y-138499500D01*
X128087461Y-138479815D01*
X128041706Y-138427011D01*
X128030500Y-138375500D01*
X128030500Y-136547000D01*
X130821210Y-136547000D01*
X130822854Y-136567910D01*
X130867968Y-136723195D01*
X130950278Y-136862374D01*
X130950285Y-136862383D01*
X131064616Y-136976714D01*
X131064625Y-136976721D01*
X131203804Y-137059031D01*
X131350000Y-137101504D01*
X131350000Y-136547000D01*
X130821210Y-136547000D01*
X128030500Y-136547000D01*
X128030500Y-136046999D01*
X130821209Y-136046999D01*
X130821210Y-136047000D01*
X131350000Y-136047000D01*
X131350000Y-135492494D01*
X131349998Y-135492493D01*
X131203809Y-135534965D01*
X131203806Y-135534967D01*
X131064625Y-135617278D01*
X131064616Y-135617285D01*
X130950285Y-135731616D01*
X130950278Y-135731625D01*
X130867968Y-135870804D01*
X130867966Y-135870809D01*
X130822855Y-136026081D01*
X130822854Y-136026087D01*
X130821209Y-136046999D01*
X128030500Y-136046999D01*
X128030500Y-120624500D01*
X128050185Y-120557461D01*
X128102989Y-120511706D01*
X128154500Y-120500500D01*
X138654500Y-120500500D01*
X138721539Y-120520185D01*
G37*
%TD.AperFunction*%
%TD*%
%TA.AperFunction,Conductor*%
%TO.N,+3V3*%
G36*
X156529039Y-120520185D02*
G01*
X156574794Y-120572989D01*
X156586000Y-120624500D01*
X156586000Y-126281242D01*
X156566315Y-126348281D01*
X156513511Y-126394036D01*
X156462000Y-126405242D01*
X155746004Y-126405242D01*
X155678965Y-126385557D01*
X155633210Y-126332753D01*
X155623266Y-126263595D01*
X155628298Y-126242238D01*
X155664633Y-126132583D01*
X155674690Y-126034150D01*
X155674691Y-126034137D01*
X155674691Y-125980000D01*
X154861191Y-125980000D01*
X154794152Y-125960315D01*
X154748397Y-125907511D01*
X154737191Y-125856000D01*
X154737191Y-125730000D01*
X154611191Y-125730000D01*
X154544152Y-125710315D01*
X154498397Y-125657511D01*
X154487191Y-125606000D01*
X154487191Y-125480000D01*
X154987191Y-125480000D01*
X155674690Y-125480000D01*
X155674690Y-125425864D01*
X155674689Y-125425847D01*
X155664634Y-125327416D01*
X155611784Y-125167927D01*
X155611782Y-125167922D01*
X155523576Y-125024919D01*
X155404771Y-124906114D01*
X155261768Y-124817908D01*
X155261763Y-124817906D01*
X155102274Y-124765057D01*
X155003841Y-124755000D01*
X154987191Y-124755000D01*
X154987191Y-125480000D01*
X154487191Y-125480000D01*
X154487191Y-124754999D01*
X154470547Y-124755000D01*
X154372106Y-124765057D01*
X154212618Y-124817906D01*
X154212613Y-124817908D01*
X154069610Y-124906114D01*
X154037724Y-124938000D01*
X153976400Y-124971485D01*
X153906709Y-124966499D01*
X153862364Y-124938000D01*
X153830083Y-124905719D01*
X153830078Y-124905716D01*
X153686986Y-124817455D01*
X153686980Y-124817452D01*
X153686978Y-124817451D01*
X153527376Y-124764564D01*
X153527374Y-124764563D01*
X153428872Y-124754500D01*
X153428865Y-124754500D01*
X152895517Y-124754500D01*
X152895509Y-124754500D01*
X152797007Y-124764563D01*
X152797006Y-124764564D01*
X152736288Y-124784684D01*
X152637406Y-124817450D01*
X152637395Y-124817455D01*
X152494303Y-124905716D01*
X152494299Y-124905719D01*
X152375411Y-125024607D01*
X152375410Y-125024609D01*
X152362463Y-125045598D01*
X152310517Y-125092321D01*
X152256926Y-125104500D01*
X151984787Y-125104500D01*
X151917748Y-125084815D01*
X151897106Y-125068181D01*
X151867794Y-125038869D01*
X151867786Y-125038863D01*
X151729584Y-124957131D01*
X151729579Y-124957129D01*
X151575399Y-124912335D01*
X151575393Y-124912334D01*
X151539372Y-124909500D01*
X151141021Y-124909500D01*
X151140999Y-124909501D01*
X151104985Y-124912335D01*
X150950802Y-124957129D01*
X150950795Y-124957132D01*
X150893310Y-124991128D01*
X150825586Y-125008309D01*
X150767072Y-124991128D01*
X150709586Y-124957132D01*
X150709579Y-124957129D01*
X150555399Y-124912335D01*
X150555393Y-124912334D01*
X150519349Y-124909498D01*
X150518788Y-124909476D01*
X150518703Y-124909447D01*
X150516945Y-124909309D01*
X150516979Y-124908866D01*
X150452579Y-124887156D01*
X150408948Y-124832584D01*
X150399691Y-124785573D01*
X150399691Y-123428241D01*
X150419376Y-123361202D01*
X150472180Y-123315447D01*
X150523691Y-123304241D01*
X150565168Y-123304241D01*
X150565180Y-123304241D01*
X150601204Y-123301407D01*
X150755393Y-123256611D01*
X150812882Y-123222611D01*
X150880602Y-123205430D01*
X150939117Y-123222611D01*
X150996607Y-123256611D01*
X150996610Y-123256611D01*
X150996612Y-123256613D01*
X151150791Y-123301406D01*
X151150794Y-123301406D01*
X151150796Y-123301407D01*
X151186819Y-123304242D01*
X151585180Y-123304241D01*
X151621204Y-123301407D01*
X151775393Y-123256611D01*
X151913598Y-123174877D01*
X151920330Y-123168145D01*
X151942915Y-123145561D01*
X151969842Y-123130857D01*
X151995661Y-123114265D01*
X152001861Y-123113373D01*
X152004238Y-123112076D01*
X152030596Y-123109242D01*
X152256926Y-123109242D01*
X152323965Y-123128927D01*
X152362463Y-123168143D01*
X152375410Y-123189133D01*
X152375411Y-123189134D01*
X152494299Y-123308022D01*
X152494303Y-123308025D01*
X152637395Y-123396286D01*
X152637398Y-123396287D01*
X152637404Y-123396291D01*
X152797006Y-123449178D01*
X152895517Y-123459242D01*
X152895522Y-123459242D01*
X153428860Y-123459242D01*
X153428865Y-123459242D01*
X153527376Y-123449178D01*
X153686978Y-123396291D01*
X153830082Y-123308023D01*
X153862363Y-123275742D01*
X153923686Y-123242257D01*
X153993378Y-123247241D01*
X154037725Y-123275742D01*
X154069610Y-123307627D01*
X154212613Y-123395833D01*
X154212618Y-123395835D01*
X154372107Y-123448684D01*
X154470547Y-123458741D01*
X154987191Y-123458741D01*
X155003827Y-123458741D01*
X155003843Y-123458740D01*
X155102274Y-123448685D01*
X155261763Y-123395835D01*
X155261768Y-123395833D01*
X155404771Y-123307627D01*
X155523576Y-123188822D01*
X155611782Y-123045819D01*
X155611784Y-123045814D01*
X155664633Y-122886325D01*
X155674690Y-122787892D01*
X155674691Y-122787879D01*
X155674691Y-122733742D01*
X154987191Y-122733742D01*
X154987191Y-123458741D01*
X154470547Y-123458741D01*
X154487191Y-123458740D01*
X154487191Y-122233742D01*
X154987191Y-122233742D01*
X155674690Y-122233742D01*
X155674690Y-122179606D01*
X155674689Y-122179589D01*
X155664634Y-122081158D01*
X155611784Y-121921669D01*
X155611782Y-121921664D01*
X155523576Y-121778661D01*
X155404771Y-121659856D01*
X155261768Y-121571650D01*
X155261763Y-121571648D01*
X155102274Y-121518799D01*
X155003841Y-121508742D01*
X154987191Y-121508742D01*
X154987191Y-122233742D01*
X154487191Y-122233742D01*
X154487191Y-121508741D01*
X154470547Y-121508742D01*
X154372106Y-121518799D01*
X154212618Y-121571648D01*
X154212613Y-121571650D01*
X154069610Y-121659856D01*
X154037724Y-121691742D01*
X153976400Y-121725227D01*
X153906709Y-121720241D01*
X153862364Y-121691742D01*
X153830083Y-121659461D01*
X153830078Y-121659458D01*
X153686986Y-121571197D01*
X153686980Y-121571194D01*
X153686978Y-121571193D01*
X153527376Y-121518306D01*
X153527374Y-121518305D01*
X153428872Y-121508242D01*
X153428865Y-121508242D01*
X152895517Y-121508242D01*
X152895509Y-121508242D01*
X152797007Y-121518305D01*
X152797006Y-121518306D01*
X152717910Y-121544515D01*
X152637406Y-121571192D01*
X152637395Y-121571197D01*
X152494303Y-121659458D01*
X152494299Y-121659461D01*
X152375411Y-121778349D01*
X152375410Y-121778351D01*
X152362463Y-121799340D01*
X152354877Y-121806163D01*
X152350639Y-121815445D01*
X152329339Y-121829133D01*
X152310517Y-121846063D01*
X152298881Y-121848707D01*
X152291861Y-121853219D01*
X152256926Y-121858242D01*
X152030596Y-121858242D01*
X151963557Y-121838557D01*
X151942915Y-121821923D01*
X151913603Y-121792611D01*
X151913595Y-121792605D01*
X151775393Y-121710873D01*
X151775388Y-121710871D01*
X151621208Y-121666077D01*
X151621202Y-121666076D01*
X151585181Y-121663242D01*
X151186830Y-121663242D01*
X151186808Y-121663243D01*
X151150794Y-121666077D01*
X150996611Y-121710871D01*
X150996604Y-121710874D01*
X150939119Y-121744870D01*
X150871395Y-121762051D01*
X150812881Y-121744870D01*
X150755395Y-121710874D01*
X150755388Y-121710871D01*
X150601208Y-121666077D01*
X150601202Y-121666076D01*
X150565181Y-121663242D01*
X150166830Y-121663242D01*
X150166808Y-121663243D01*
X150130794Y-121666077D01*
X149976611Y-121710871D01*
X149976606Y-121710873D01*
X149838404Y-121792605D01*
X149838396Y-121792611D01*
X149724869Y-121906138D01*
X149724863Y-121906146D01*
X149643131Y-122044348D01*
X149643129Y-122044353D01*
X149598335Y-122198533D01*
X149598334Y-122198539D01*
X149595500Y-122234553D01*
X149595500Y-122318289D01*
X149575815Y-122385328D01*
X149559181Y-122405970D01*
X149288335Y-122676815D01*
X149288329Y-122676823D01*
X149219881Y-122779259D01*
X149219880Y-122779261D01*
X149192964Y-122844244D01*
X149181050Y-122873007D01*
X149181048Y-122873012D01*
X149177129Y-122882476D01*
X149172728Y-122893100D01*
X149151052Y-123002077D01*
X149150669Y-123003998D01*
X149150665Y-123004019D01*
X149148691Y-123013940D01*
X149148691Y-126150595D01*
X149172726Y-126271428D01*
X149172731Y-126271445D01*
X149219876Y-126385265D01*
X149219878Y-126385268D01*
X149233224Y-126405242D01*
X149240331Y-126415877D01*
X149288333Y-126487717D01*
X149375458Y-126574842D01*
X149375461Y-126574844D01*
X149383337Y-126582720D01*
X149539181Y-126738564D01*
X149572666Y-126799887D01*
X149575500Y-126826245D01*
X149575500Y-127036242D01*
X149555815Y-127103281D01*
X149503011Y-127149036D01*
X149451501Y-127160242D01*
X149278131Y-127160242D01*
X149278119Y-127160243D01*
X149239253Y-127164421D01*
X149212748Y-127164421D01*
X149173874Y-127160242D01*
X148628130Y-127160242D01*
X148628119Y-127160243D01*
X148589253Y-127164421D01*
X148562748Y-127164421D01*
X148523874Y-127160242D01*
X147978130Y-127160242D01*
X147978119Y-127160243D01*
X147939253Y-127164421D01*
X147912748Y-127164421D01*
X147873874Y-127160242D01*
X147328130Y-127160242D01*
X147328119Y-127160243D01*
X147289253Y-127164421D01*
X147262748Y-127164421D01*
X147223874Y-127160242D01*
X146678129Y-127160242D01*
X146678123Y-127160243D01*
X146618516Y-127166650D01*
X146483671Y-127216944D01*
X146483664Y-127216948D01*
X146368455Y-127303194D01*
X146368452Y-127303197D01*
X146282206Y-127418406D01*
X146282202Y-127418413D01*
X146231908Y-127553259D01*
X146225501Y-127612858D01*
X146225500Y-127612877D01*
X146225500Y-129458612D01*
X146225501Y-129458618D01*
X146231908Y-129518225D01*
X146282202Y-129653070D01*
X146282206Y-129653077D01*
X146368452Y-129768286D01*
X146368455Y-129768289D01*
X146483664Y-129854535D01*
X146483671Y-129854539D01*
X146506721Y-129863136D01*
X146618517Y-129904833D01*
X146678127Y-129911242D01*
X147223872Y-129911241D01*
X147223873Y-129911240D01*
X147223885Y-129911240D01*
X147262744Y-129907062D01*
X147289252Y-129907062D01*
X147328127Y-129911242D01*
X147735933Y-129911241D01*
X147802972Y-129930925D01*
X147823614Y-129947560D01*
X148299728Y-130423674D01*
X148326608Y-130463901D01*
X148344296Y-130506604D01*
X148437373Y-130645904D01*
X148555837Y-130764368D01*
X148623526Y-130809596D01*
X148695137Y-130857445D01*
X148849918Y-130921558D01*
X149014228Y-130954241D01*
X149014232Y-130954242D01*
X149014233Y-130954242D01*
X149181768Y-130954242D01*
X149181769Y-130954241D01*
X149346082Y-130921558D01*
X149500863Y-130857445D01*
X149640162Y-130764368D01*
X149758626Y-130645904D01*
X149851703Y-130506605D01*
X149915816Y-130351824D01*
X149948500Y-130187509D01*
X149948500Y-130035241D01*
X149968185Y-129968202D01*
X150020989Y-129922447D01*
X150072496Y-129911241D01*
X150473872Y-129911241D01*
X150473885Y-129911240D01*
X150512744Y-129907062D01*
X150539252Y-129907062D01*
X150578127Y-129911242D01*
X150797098Y-129911241D01*
X150864138Y-129930925D01*
X150909893Y-129983729D01*
X150911659Y-129987787D01*
X150924532Y-130018864D01*
X150924534Y-130018867D01*
X150924535Y-130018869D01*
X150995723Y-130125411D01*
X150995726Y-130125415D01*
X151479328Y-130609017D01*
X151479331Y-130609019D01*
X151553284Y-130658432D01*
X151585873Y-130680207D01*
X151704256Y-130729243D01*
X151704260Y-130729243D01*
X151704261Y-130729244D01*
X151829928Y-130754242D01*
X151829931Y-130754242D01*
X151851068Y-130754242D01*
X151918107Y-130773927D01*
X151919959Y-130775140D01*
X151971526Y-130809596D01*
X152043137Y-130857445D01*
X152197918Y-130921558D01*
X152362228Y-130954241D01*
X152362232Y-130954242D01*
X152362233Y-130954242D01*
X152529768Y-130954242D01*
X152529769Y-130954241D01*
X152694082Y-130921558D01*
X152848863Y-130857445D01*
X152985887Y-130765887D01*
X153030576Y-130747377D01*
X153121744Y-130729243D01*
X153240127Y-130680207D01*
X153272716Y-130658432D01*
X153346669Y-130609019D01*
X153956277Y-129999411D01*
X154004245Y-129927619D01*
X154057855Y-129882817D01*
X154127180Y-129874108D01*
X154190207Y-129904262D01*
X154210448Y-129927621D01*
X154265141Y-130009474D01*
X154265144Y-130009478D01*
X154356586Y-130100920D01*
X154356608Y-130100940D01*
X154804397Y-130548729D01*
X154804400Y-130548733D01*
X154891525Y-130635858D01*
X154942748Y-130670084D01*
X154993972Y-130704312D01*
X155060502Y-130731869D01*
X155107806Y-130751463D01*
X155168229Y-130763481D01*
X155228651Y-130775500D01*
X156462000Y-130775500D01*
X156529039Y-130795185D01*
X156574794Y-130847989D01*
X156586000Y-130899500D01*
X156586000Y-138375500D01*
X156566315Y-138442539D01*
X156513511Y-138488294D01*
X156462000Y-138499500D01*
X139408000Y-138499500D01*
X139340961Y-138479815D01*
X139295206Y-138427011D01*
X139284000Y-138375500D01*
X139284000Y-137934645D01*
X139303685Y-137867606D01*
X139356489Y-137821851D01*
X139425647Y-137811907D01*
X139442595Y-137815569D01*
X139500000Y-137832246D01*
X139500000Y-137832245D01*
X140000000Y-137832245D01*
X140146195Y-137789773D01*
X140285374Y-137707463D01*
X140285383Y-137707456D01*
X140399714Y-137593125D01*
X140399721Y-137593116D01*
X140482031Y-137453937D01*
X140482033Y-137453932D01*
X140527144Y-137298660D01*
X140527145Y-137298654D01*
X140528633Y-137279742D01*
X141759156Y-137279742D01*
X141799595Y-137418936D01*
X141881261Y-137557027D01*
X141881268Y-137557036D01*
X141994705Y-137670473D01*
X141994714Y-137670480D01*
X142132808Y-137752148D01*
X142132811Y-137752149D01*
X142286871Y-137796908D01*
X142286877Y-137796909D01*
X142322000Y-137799673D01*
X142322000Y-137799672D01*
X142822000Y-137799672D01*
X142857122Y-137796909D01*
X142857128Y-137796908D01*
X143011188Y-137752149D01*
X143011191Y-137752148D01*
X143149285Y-137670480D01*
X143149294Y-137670473D01*
X143262731Y-137557036D01*
X143262738Y-137557027D01*
X143344404Y-137418936D01*
X143384844Y-137279742D01*
X142822000Y-137279742D01*
X142822000Y-137799672D01*
X142322000Y-137799672D01*
X142322000Y-137279742D01*
X141759156Y-137279742D01*
X140528633Y-137279742D01*
X140528790Y-137277742D01*
X140000000Y-137277742D01*
X140000000Y-137832245D01*
X139500000Y-137832245D01*
X139500000Y-137526094D01*
X139517267Y-137462975D01*
X139522494Y-137454137D01*
X139556855Y-137335869D01*
X139567642Y-137298739D01*
X139567643Y-137298733D01*
X139567649Y-137298654D01*
X139570500Y-137262432D01*
X139570500Y-137182342D01*
X139590185Y-137115303D01*
X139591359Y-137113510D01*
X139596465Y-137105869D01*
X139596561Y-137105637D01*
X139597122Y-137104285D01*
X139597685Y-137103585D01*
X139599340Y-137100491D01*
X139599926Y-137100804D01*
X139640965Y-137049883D01*
X139707260Y-137027821D01*
X139711681Y-137027742D01*
X139750000Y-137027742D01*
X139750000Y-136901742D01*
X139769685Y-136834703D01*
X139822489Y-136788948D01*
X139874000Y-136777742D01*
X140528790Y-136777742D01*
X140527145Y-136756830D01*
X140524498Y-136747719D01*
X140524528Y-136736845D01*
X140520332Y-136726814D01*
X140524626Y-136702517D01*
X140524697Y-136677850D01*
X140530600Y-136668720D01*
X140532494Y-136658011D01*
X140549241Y-136639894D01*
X140562638Y-136619179D01*
X140572542Y-136614689D01*
X140579923Y-136606706D01*
X140603803Y-136600520D01*
X140626276Y-136590335D01*
X140638813Y-136591452D01*
X140647561Y-136589187D01*
X140671629Y-136594378D01*
X140682316Y-136595331D01*
X140686728Y-136596782D01*
X140721548Y-136611205D01*
X140737003Y-136614279D01*
X140842391Y-136635241D01*
X140842392Y-136635242D01*
X140842393Y-136635242D01*
X140842394Y-136635242D01*
X141635984Y-136635242D01*
X141703023Y-136654927D01*
X141748778Y-136707731D01*
X141758722Y-136776889D01*
X141758340Y-136778656D01*
X141759155Y-136779742D01*
X142311591Y-136779742D01*
X142321318Y-136780124D01*
X142321516Y-136780139D01*
X142322819Y-136780242D01*
X142821180Y-136780241D01*
X142821193Y-136780240D01*
X142822668Y-136780124D01*
X142832393Y-136779742D01*
X143384845Y-136779742D01*
X143388995Y-136774212D01*
X143389139Y-136723967D01*
X143427081Y-136665297D01*
X143490720Y-136636454D01*
X143508016Y-136635242D01*
X145242548Y-136635242D01*
X145309587Y-136654927D01*
X145330229Y-136671561D01*
X146360263Y-137701597D01*
X146360267Y-137701600D01*
X146462710Y-137770051D01*
X146462711Y-137770051D01*
X146462715Y-137770054D01*
X146529397Y-137797674D01*
X146576548Y-137817205D01*
X146596597Y-137821193D01*
X146652159Y-137832245D01*
X146697392Y-137841243D01*
X146697394Y-137841243D01*
X146826721Y-137841243D01*
X146826741Y-137841242D01*
X149257607Y-137841242D01*
X149318029Y-137829223D01*
X149378452Y-137817205D01*
X149411792Y-137803394D01*
X149492286Y-137770054D01*
X149543509Y-137735826D01*
X149594733Y-137701600D01*
X149681858Y-137614475D01*
X149681859Y-137614473D01*
X149688925Y-137607407D01*
X149688928Y-137607403D01*
X149949729Y-137346602D01*
X149949733Y-137346600D01*
X150036858Y-137259475D01*
X150098898Y-137166624D01*
X150099182Y-137166202D01*
X150125932Y-137143911D01*
X150129970Y-137140534D01*
X150127226Y-137136875D01*
X150127230Y-137136872D01*
X150129974Y-137140531D01*
X150152671Y-137121556D01*
X150152790Y-137121531D01*
X150152859Y-137121474D01*
X150153367Y-137121410D01*
X150202185Y-137111241D01*
X150473872Y-137111241D01*
X150473885Y-137111240D01*
X150512744Y-137107062D01*
X150539252Y-137107062D01*
X150578127Y-137111242D01*
X151123872Y-137111241D01*
X151123873Y-137111240D01*
X151123885Y-137111240D01*
X151162744Y-137107062D01*
X151189252Y-137107062D01*
X151228127Y-137111242D01*
X151773872Y-137111241D01*
X151773873Y-137111240D01*
X151773885Y-137111240D01*
X151812744Y-137107062D01*
X151839252Y-137107062D01*
X151878127Y-137111242D01*
X152423872Y-137111241D01*
X152423873Y-137111240D01*
X152423885Y-137111240D01*
X152462744Y-137107062D01*
X152489252Y-137107062D01*
X152528127Y-137111242D01*
X153073872Y-137111241D01*
X153073873Y-137111240D01*
X153073885Y-137111240D01*
X153112744Y-137107062D01*
X153139252Y-137107062D01*
X153178127Y-137111242D01*
X153723872Y-137111241D01*
X153723873Y-137111240D01*
X153723885Y-137111240D01*
X153762744Y-137107062D01*
X153789252Y-137107062D01*
X153828127Y-137111242D01*
X154373872Y-137111241D01*
X154373873Y-137111240D01*
X154373885Y-137111240D01*
X154412744Y-137107062D01*
X154439252Y-137107062D01*
X154478127Y-137111242D01*
X155023872Y-137111241D01*
X155023873Y-137111240D01*
X155023885Y-137111240D01*
X155062744Y-137107062D01*
X155089252Y-137107062D01*
X155128127Y-137111242D01*
X155673872Y-137111241D01*
X155733483Y-137104833D01*
X155868331Y-137054538D01*
X155983546Y-136968288D01*
X156069796Y-136853073D01*
X156120091Y-136718225D01*
X156126500Y-136658615D01*
X156126499Y-134812870D01*
X156120091Y-134753259D01*
X156069796Y-134618411D01*
X156069795Y-134618410D01*
X156069793Y-134618406D01*
X155983547Y-134503197D01*
X155983544Y-134503194D01*
X155868335Y-134416948D01*
X155868328Y-134416944D01*
X155733486Y-134366652D01*
X155733485Y-134366651D01*
X155733483Y-134366651D01*
X155673873Y-134360242D01*
X155673863Y-134360242D01*
X155128130Y-134360242D01*
X155128119Y-134360243D01*
X155089253Y-134364421D01*
X155062748Y-134364421D01*
X155023874Y-134360242D01*
X154478130Y-134360242D01*
X154478119Y-134360243D01*
X154439253Y-134364421D01*
X154412748Y-134364421D01*
X154373874Y-134360242D01*
X153828130Y-134360242D01*
X153828119Y-134360243D01*
X153789253Y-134364421D01*
X153762748Y-134364421D01*
X153723874Y-134360242D01*
X153178130Y-134360242D01*
X153178119Y-134360243D01*
X153139253Y-134364421D01*
X153112748Y-134364421D01*
X153073874Y-134360242D01*
X152528130Y-134360242D01*
X152528119Y-134360243D01*
X152489253Y-134364421D01*
X152462748Y-134364421D01*
X152423874Y-134360242D01*
X151878130Y-134360242D01*
X151878109Y-134360244D01*
X151857608Y-134362447D01*
X151788850Y-134350038D01*
X151737715Y-134302424D01*
X151722744Y-134263348D01*
X151703952Y-134168875D01*
X151693816Y-134117918D01*
X151630250Y-133964457D01*
X151629704Y-133963139D01*
X151536626Y-133823837D01*
X151418162Y-133705373D01*
X151341391Y-133654077D01*
X151322600Y-133638655D01*
X151290673Y-133606727D01*
X151290667Y-133606722D01*
X151184127Y-133535535D01*
X151184128Y-133535535D01*
X151065743Y-133486499D01*
X151065735Y-133486497D01*
X150940073Y-133461501D01*
X150940069Y-133461501D01*
X150811931Y-133461501D01*
X150811926Y-133461501D01*
X150686263Y-133486497D01*
X150686255Y-133486499D01*
X150567870Y-133535535D01*
X150461332Y-133606722D01*
X150461323Y-133606729D01*
X150429393Y-133638659D01*
X150410606Y-133654078D01*
X150333833Y-133705377D01*
X150333831Y-133705380D01*
X150215376Y-133823834D01*
X150215373Y-133823837D01*
X150122295Y-133963139D01*
X150058184Y-134117917D01*
X150058182Y-134117923D01*
X150029545Y-134261891D01*
X150017790Y-134284361D01*
X150009783Y-134308420D01*
X150001871Y-134314795D01*
X149997160Y-134323802D01*
X149975121Y-134336351D01*
X149955379Y-134352261D01*
X149940525Y-134356051D01*
X149936444Y-134358376D01*
X149921181Y-134360989D01*
X149889255Y-134364421D01*
X149862748Y-134364421D01*
X149823874Y-134360242D01*
X149278132Y-134360242D01*
X149278117Y-134360243D01*
X149252177Y-134363031D01*
X149252170Y-134363033D01*
X149218517Y-134366651D01*
X149083669Y-134416946D01*
X149061864Y-134433268D01*
X149061864Y-134433269D01*
X148975311Y-134498063D01*
X148909846Y-134522480D01*
X148841573Y-134507628D01*
X148826689Y-134498063D01*
X148777576Y-134461297D01*
X148725687Y-134422453D01*
X148689888Y-134374630D01*
X148676000Y-134360742D01*
X148628165Y-134360742D01*
X148591598Y-134364673D01*
X148565092Y-134364673D01*
X148523873Y-134360242D01*
X147978130Y-134360242D01*
X147978119Y-134360243D01*
X147939253Y-134364421D01*
X147923314Y-134365102D01*
X147918009Y-134364987D01*
X147873873Y-134360242D01*
X147699151Y-134360242D01*
X147697813Y-134360213D01*
X147665721Y-134350029D01*
X147633462Y-134340557D01*
X147632548Y-134339502D01*
X147631216Y-134339080D01*
X147609726Y-134313164D01*
X147587707Y-134287753D01*
X147587370Y-134286204D01*
X147586617Y-134285296D01*
X147585911Y-134279498D01*
X147576501Y-134236242D01*
X147576501Y-134199133D01*
X147558349Y-134107884D01*
X147552463Y-134078291D01*
X147505312Y-133964457D01*
X147436858Y-133862009D01*
X147436855Y-133862005D01*
X144560463Y-130985615D01*
X144549859Y-130975011D01*
X144549858Y-130975009D01*
X144462733Y-130887884D01*
X144388692Y-130838411D01*
X144382714Y-130834416D01*
X144382710Y-130834413D01*
X144360290Y-130819432D01*
X144360287Y-130819430D01*
X144360286Y-130819430D01*
X144263262Y-130779242D01*
X144246452Y-130772279D01*
X144141800Y-130751463D01*
X144139394Y-130750984D01*
X144139355Y-130750975D01*
X144125611Y-130748242D01*
X144125607Y-130748242D01*
X144125606Y-130748242D01*
X141033606Y-130748242D01*
X140910393Y-130748242D01*
X140894199Y-130751463D01*
X140894198Y-130751462D01*
X140789555Y-130772277D01*
X140789541Y-130772281D01*
X140699455Y-130809596D01*
X140698696Y-130809677D01*
X140698096Y-130810150D01*
X140663999Y-130813408D01*
X140629986Y-130817065D01*
X140629303Y-130816723D01*
X140628543Y-130816796D01*
X140598130Y-130801119D01*
X140567507Y-130785790D01*
X140567116Y-130785132D01*
X140566439Y-130784783D01*
X140549321Y-130755138D01*
X140531855Y-130725700D01*
X140531755Y-130724718D01*
X140531500Y-130724276D01*
X140530721Y-130714535D01*
X140528143Y-130689142D01*
X140528234Y-130687219D01*
X140530500Y-130658432D01*
X140530500Y-130639598D01*
X140530640Y-130636656D01*
X140541142Y-130606305D01*
X140550185Y-130575510D01*
X140553013Y-130572000D01*
X140553488Y-130570628D01*
X140555211Y-130569272D01*
X140566819Y-130554868D01*
X140848781Y-130272906D01*
X141150931Y-129970755D01*
X141212252Y-129937272D01*
X141214284Y-129936848D01*
X141281497Y-129923479D01*
X141427179Y-129863136D01*
X141558289Y-129775531D01*
X141669789Y-129664031D01*
X141757394Y-129532921D01*
X141817737Y-129387239D01*
X141831079Y-129320158D01*
X141863463Y-129258251D01*
X141864956Y-129256730D01*
X142393776Y-128727912D01*
X142430232Y-128673350D01*
X142483844Y-128628546D01*
X142514721Y-128619647D01*
X142523975Y-128618242D01*
X142541694Y-128618242D01*
X142578569Y-128615340D01*
X142617402Y-128604057D01*
X142625502Y-128602828D01*
X142652320Y-128606468D01*
X142679386Y-128606545D01*
X142687216Y-128611206D01*
X142694737Y-128612227D01*
X142708153Y-128623669D01*
X142731796Y-128637742D01*
X143237822Y-129143767D01*
X143271307Y-129205090D01*
X143269333Y-129262750D01*
X143269495Y-129262780D01*
X143269294Y-129263876D01*
X143269221Y-129266031D01*
X143268358Y-129268999D01*
X143268356Y-129269013D01*
X143265500Y-129305302D01*
X143265500Y-129774697D01*
X143268356Y-129810991D01*
X143268357Y-129810997D01*
X143313504Y-129966390D01*
X143313505Y-129966393D01*
X143395881Y-130105684D01*
X143395887Y-130105692D01*
X143510307Y-130220112D01*
X143510311Y-130220115D01*
X143510313Y-130220117D01*
X143649605Y-130302494D01*
X143690587Y-130314400D01*
X143805002Y-130347642D01*
X143805005Y-130347642D01*
X143805007Y-130347643D01*
X143841310Y-130350500D01*
X143841318Y-130350500D01*
X144250682Y-130350500D01*
X144250690Y-130350500D01*
X144286993Y-130347643D01*
X144286995Y-130347642D01*
X144286997Y-130347642D01*
X144339280Y-130332452D01*
X144442395Y-130302494D01*
X144463369Y-130290089D01*
X144531088Y-130272906D01*
X144589613Y-130290090D01*
X144609803Y-130302031D01*
X144756000Y-130344504D01*
X144756000Y-130344503D01*
X145256000Y-130344503D01*
X145402195Y-130302031D01*
X145541374Y-130219721D01*
X145541383Y-130219714D01*
X145655714Y-130105383D01*
X145655721Y-130105374D01*
X145738031Y-129966195D01*
X145738033Y-129966190D01*
X145783144Y-129810918D01*
X145783145Y-129810912D01*
X145784790Y-129790000D01*
X145256000Y-129790000D01*
X145256000Y-130344503D01*
X144756000Y-130344503D01*
X144756000Y-130038352D01*
X144773267Y-129975233D01*
X144778494Y-129966395D01*
X144787087Y-129936820D01*
X144823642Y-129810997D01*
X144823643Y-129810991D01*
X144823649Y-129810912D01*
X144826500Y-129774690D01*
X144826500Y-129305310D01*
X144823643Y-129269007D01*
X144822778Y-129266031D01*
X144778495Y-129113608D01*
X144778492Y-129113600D01*
X144773266Y-129104763D01*
X144756000Y-129041645D01*
X144756000Y-128766370D01*
X144668389Y-128740655D01*
X144668227Y-128740551D01*
X144668037Y-128740551D01*
X144660218Y-128735494D01*
X145256000Y-128735494D01*
X145256000Y-129290000D01*
X145784790Y-129290000D01*
X145783145Y-129269089D01*
X145738031Y-129113804D01*
X145655721Y-128974625D01*
X145655714Y-128974616D01*
X145541383Y-128860285D01*
X145541374Y-128860278D01*
X145402193Y-128777967D01*
X145402190Y-128777965D01*
X145256001Y-128735493D01*
X145256000Y-128735494D01*
X144660218Y-128735494D01*
X144638895Y-128721704D01*
X144609607Y-128702886D01*
X144609527Y-128702711D01*
X144609367Y-128702608D01*
X144600210Y-128690565D01*
X144551277Y-128617332D01*
X144519833Y-128585888D01*
X144460669Y-128526724D01*
X144147818Y-128213873D01*
X143813869Y-127879923D01*
X143780384Y-127818600D01*
X143785368Y-127748908D01*
X143827240Y-127692975D01*
X143892704Y-127668558D01*
X143901550Y-127668242D01*
X144416686Y-127668242D01*
X144416694Y-127668242D01*
X144453569Y-127665340D01*
X144453571Y-127665339D01*
X144453573Y-127665339D01*
X144495191Y-127653247D01*
X144611398Y-127619486D01*
X144752865Y-127535823D01*
X144869081Y-127419607D01*
X144952744Y-127278140D01*
X144998598Y-127120311D01*
X145001500Y-127083436D01*
X145001500Y-126652048D01*
X144998598Y-126615173D01*
X144990071Y-126585824D01*
X144956307Y-126469607D01*
X144952744Y-126457344D01*
X144869081Y-126315877D01*
X144869079Y-126315875D01*
X144869076Y-126315871D01*
X144752870Y-126199665D01*
X144752862Y-126199659D01*
X144611396Y-126115997D01*
X144611393Y-126115996D01*
X144453573Y-126070144D01*
X144453567Y-126070143D01*
X144416701Y-126067242D01*
X144416694Y-126067242D01*
X144374474Y-126067242D01*
X144307435Y-126047557D01*
X144282273Y-126026157D01*
X144276317Y-126019534D01*
X144273424Y-126015204D01*
X144249358Y-125979187D01*
X144162233Y-125892062D01*
X144162229Y-125892059D01*
X143139608Y-124869438D01*
X143106123Y-124808115D01*
X143111107Y-124738423D01*
X143152979Y-124682490D01*
X143162168Y-124676234D01*
X143214391Y-124644023D01*
X143246672Y-124611742D01*
X143307995Y-124578257D01*
X143377687Y-124583241D01*
X143422034Y-124611742D01*
X143453919Y-124643627D01*
X143596922Y-124731833D01*
X143596927Y-124731835D01*
X143756416Y-124784684D01*
X143854856Y-124794741D01*
X144371500Y-124794741D01*
X144388136Y-124794741D01*
X144388152Y-124794740D01*
X144486583Y-124784685D01*
X144646072Y-124731835D01*
X144646077Y-124731833D01*
X144789080Y-124643627D01*
X144907885Y-124524822D01*
X144996091Y-124381819D01*
X144996093Y-124381814D01*
X145048942Y-124222325D01*
X145058999Y-124123892D01*
X145059000Y-124123879D01*
X145059000Y-124069742D01*
X144371500Y-124069742D01*
X144371500Y-124794741D01*
X143854856Y-124794741D01*
X143871500Y-124794740D01*
X143871500Y-123569742D01*
X144371500Y-123569742D01*
X145058999Y-123569742D01*
X145058999Y-123515606D01*
X145058998Y-123515589D01*
X145048943Y-123417158D01*
X144996093Y-123257669D01*
X144996091Y-123257664D01*
X144907885Y-123114661D01*
X144789080Y-122995856D01*
X144646077Y-122907650D01*
X144646072Y-122907648D01*
X144486583Y-122854799D01*
X144388150Y-122844742D01*
X144371500Y-122844742D01*
X144371500Y-123569742D01*
X143871500Y-123569742D01*
X143871500Y-122844741D01*
X143854856Y-122844742D01*
X143756415Y-122854799D01*
X143596927Y-122907648D01*
X143596922Y-122907650D01*
X143453919Y-122995856D01*
X143422033Y-123027742D01*
X143360709Y-123061227D01*
X143291018Y-123056241D01*
X143246673Y-123027742D01*
X143214392Y-122995461D01*
X143214387Y-122995458D01*
X143071295Y-122907197D01*
X143071289Y-122907194D01*
X143071287Y-122907193D01*
X142911685Y-122854306D01*
X142911683Y-122854305D01*
X142813181Y-122844242D01*
X142813174Y-122844242D01*
X142279826Y-122844242D01*
X142279818Y-122844242D01*
X142181316Y-122854305D01*
X142181315Y-122854306D01*
X142102219Y-122880515D01*
X142021715Y-122907192D01*
X142021704Y-122907197D01*
X141878612Y-122995458D01*
X141878608Y-122995461D01*
X141759720Y-123114349D01*
X141759719Y-123114351D01*
X141746772Y-123135340D01*
X141694826Y-123182063D01*
X141641235Y-123194242D01*
X141186596Y-123194242D01*
X141119557Y-123174557D01*
X141098915Y-123157923D01*
X141069603Y-123128611D01*
X141069595Y-123128605D01*
X140931393Y-123046873D01*
X140931388Y-123046871D01*
X140777208Y-123002077D01*
X140777202Y-123002076D01*
X140741181Y-122999242D01*
X140342830Y-122999242D01*
X140342808Y-122999243D01*
X140306794Y-123002077D01*
X140152611Y-123046871D01*
X140152604Y-123046874D01*
X140095119Y-123080870D01*
X140027395Y-123098051D01*
X139968881Y-123080870D01*
X139911395Y-123046874D01*
X139911388Y-123046871D01*
X139757208Y-123002077D01*
X139757202Y-123002076D01*
X139721188Y-122999242D01*
X139408000Y-122999242D01*
X139340961Y-122979557D01*
X139295206Y-122926753D01*
X139284000Y-122875242D01*
X139284000Y-120624500D01*
X139303685Y-120557461D01*
X139356489Y-120511706D01*
X139408000Y-120500500D01*
X156462000Y-120500500D01*
X156529039Y-120520185D01*
G37*
%TD.AperFunction*%
%TA.AperFunction,Conductor*%
G36*
X143820587Y-132018927D02*
G01*
X143841229Y-132035561D01*
X146266965Y-134461297D01*
X146300450Y-134522620D01*
X146295466Y-134592312D01*
X146285694Y-134610213D01*
X146286454Y-134610628D01*
X146282202Y-134618413D01*
X146231908Y-134753259D01*
X146225501Y-134812858D01*
X146225501Y-134812865D01*
X146225500Y-134812877D01*
X146225500Y-135498288D01*
X146220821Y-135514219D01*
X146221156Y-135530823D01*
X146211180Y-135547053D01*
X146205815Y-135565327D01*
X146193267Y-135576199D01*
X146184571Y-135590349D01*
X146167404Y-135598609D01*
X146153011Y-135611082D01*
X146136575Y-135613445D01*
X146121612Y-135620646D01*
X146102707Y-135618315D01*
X146083853Y-135621026D01*
X146068180Y-135614057D01*
X146052268Y-135612096D01*
X146030506Y-135597308D01*
X146022199Y-135593615D01*
X146017827Y-135589978D01*
X145951733Y-135523884D01*
X145889265Y-135482144D01*
X145849286Y-135455430D01*
X145849287Y-135455430D01*
X145849285Y-135455429D01*
X145775458Y-135424850D01*
X145768645Y-135422028D01*
X145735452Y-135408279D01*
X145675029Y-135396260D01*
X145668258Y-135394913D01*
X145614610Y-135384242D01*
X145614607Y-135384242D01*
X145614606Y-135384242D01*
X143209958Y-135384242D01*
X143146837Y-135366974D01*
X143011393Y-135286873D01*
X143011388Y-135286871D01*
X142857208Y-135242077D01*
X142857202Y-135242076D01*
X142821181Y-135239242D01*
X142322830Y-135239242D01*
X142322808Y-135239243D01*
X142286794Y-135242077D01*
X142132611Y-135286871D01*
X142132606Y-135286873D01*
X141997163Y-135366974D01*
X141934042Y-135384242D01*
X141214452Y-135384242D01*
X141147413Y-135364557D01*
X141126771Y-135347923D01*
X140731819Y-134952971D01*
X140698334Y-134891648D01*
X140695500Y-134865290D01*
X140695500Y-134549708D01*
X140695499Y-134549694D01*
X140694818Y-134544528D01*
X140680365Y-134434743D01*
X140621117Y-134291705D01*
X140550707Y-134199944D01*
X140541632Y-134176470D01*
X140528849Y-134154788D01*
X140529247Y-134144435D01*
X140525513Y-134134775D01*
X140530569Y-134110120D01*
X140531539Y-134084970D01*
X140537470Y-134076477D01*
X140539552Y-134066330D01*
X140557133Y-134048325D01*
X140571547Y-134027689D01*
X140583358Y-134021469D01*
X140588366Y-134016341D01*
X140601951Y-134009765D01*
X140607925Y-134007309D01*
X140608452Y-134007205D01*
X140641792Y-133993394D01*
X140722286Y-133960054D01*
X140773509Y-133925826D01*
X140824733Y-133891600D01*
X140911858Y-133804475D01*
X140911859Y-133804473D01*
X140918925Y-133797407D01*
X140918927Y-133797403D01*
X140992588Y-133723742D01*
X141759156Y-133723742D01*
X141799595Y-133862936D01*
X141881261Y-134001027D01*
X141881268Y-134001036D01*
X141994705Y-134114473D01*
X141994714Y-134114480D01*
X142132808Y-134196148D01*
X142132811Y-134196149D01*
X142286871Y-134240908D01*
X142286877Y-134240909D01*
X142322000Y-134243673D01*
X142322000Y-134243672D01*
X142822000Y-134243672D01*
X142857122Y-134240909D01*
X142857128Y-134240908D01*
X143011188Y-134196149D01*
X143011191Y-134196148D01*
X143149285Y-134114480D01*
X143149294Y-134114473D01*
X143262731Y-134001036D01*
X143262738Y-134001027D01*
X143344404Y-133862936D01*
X143384844Y-133723742D01*
X142822000Y-133723742D01*
X142822000Y-134243672D01*
X142322000Y-134243672D01*
X142322000Y-133723742D01*
X141759156Y-133723742D01*
X140992588Y-133723742D01*
X141543799Y-133172531D01*
X141605121Y-133139048D01*
X141674813Y-133144032D01*
X141730640Y-133185763D01*
X141759155Y-133223742D01*
X142311591Y-133223742D01*
X142321318Y-133224124D01*
X142321516Y-133224139D01*
X142322819Y-133224242D01*
X142821180Y-133224241D01*
X142821193Y-133224240D01*
X142822668Y-133224124D01*
X142832393Y-133223742D01*
X143384844Y-133223742D01*
X143344404Y-133084547D01*
X143310581Y-133027354D01*
X143293398Y-132959630D01*
X143310582Y-132901111D01*
X143344867Y-132843138D01*
X143344869Y-132843135D01*
X143389665Y-132688946D01*
X143392500Y-132652923D01*
X143392499Y-132254562D01*
X143389665Y-132218538D01*
X143372030Y-132157837D01*
X143372229Y-132087967D01*
X143410171Y-132029297D01*
X143473810Y-132000454D01*
X143491106Y-131999242D01*
X143753548Y-131999242D01*
X143820587Y-132018927D01*
G37*
%TD.AperFunction*%
%TD*%
%TA.AperFunction,Conductor*%
%TO.N,VBUS*%
G36*
X166136539Y-120520185D02*
G01*
X166182294Y-120572989D01*
X166193500Y-120624500D01*
X166193500Y-125074205D01*
X166192830Y-125076486D01*
X166193415Y-125078790D01*
X166183036Y-125109838D01*
X166173815Y-125141244D01*
X166172019Y-125142800D01*
X166171265Y-125145056D01*
X166145734Y-125165576D01*
X166121011Y-125186999D01*
X166118659Y-125187337D01*
X166116806Y-125188827D01*
X166084253Y-125192284D01*
X166051853Y-125196943D01*
X166049364Y-125195989D01*
X166047327Y-125196206D01*
X166013853Y-125185018D01*
X166006990Y-125181571D01*
X165977862Y-125162109D01*
X165922880Y-125139334D01*
X165918853Y-125137312D01*
X165896474Y-125116423D01*
X165872643Y-125097218D01*
X165871175Y-125092808D01*
X165867777Y-125089636D01*
X165856944Y-125050050D01*
X165850579Y-125030924D01*
X165851125Y-125028783D01*
X165850500Y-125026499D01*
X165850500Y-124766928D01*
X165825502Y-124641261D01*
X165825501Y-124641260D01*
X165825501Y-124641256D01*
X165776465Y-124522873D01*
X165753139Y-124487963D01*
X165724097Y-124444498D01*
X165705278Y-124416332D01*
X165705272Y-124416325D01*
X164407673Y-123118726D01*
X164379227Y-123099719D01*
X164301127Y-123047535D01*
X164274119Y-123036348D01*
X164182744Y-122998499D01*
X164182738Y-122998497D01*
X164057071Y-122973500D01*
X164057069Y-122973500D01*
X163251596Y-122973500D01*
X163184557Y-122953815D01*
X163163915Y-122937181D01*
X163159603Y-122932869D01*
X163159595Y-122932863D01*
X163021393Y-122851131D01*
X163021388Y-122851129D01*
X162867208Y-122806335D01*
X162867202Y-122806334D01*
X162831181Y-122803500D01*
X162432830Y-122803500D01*
X162432808Y-122803501D01*
X162396794Y-122806335D01*
X162242611Y-122851129D01*
X162242604Y-122851132D01*
X162185119Y-122885128D01*
X162117395Y-122902309D01*
X162058881Y-122885128D01*
X162001395Y-122851132D01*
X162001388Y-122851129D01*
X161847208Y-122806335D01*
X161847202Y-122806334D01*
X161811181Y-122803500D01*
X161412830Y-122803500D01*
X161412808Y-122803501D01*
X161376794Y-122806335D01*
X161222611Y-122851129D01*
X161222606Y-122851131D01*
X161084404Y-122932863D01*
X161084396Y-122932869D01*
X161055085Y-122962181D01*
X160993762Y-122995666D01*
X160967404Y-122998500D01*
X160697389Y-122998500D01*
X160636971Y-123010518D01*
X160599259Y-123018019D01*
X160576550Y-123022536D01*
X160576548Y-123022537D01*
X160543207Y-123036347D01*
X160462718Y-123069685D01*
X160462715Y-123069687D01*
X160462714Y-123069688D01*
X160417771Y-123099719D01*
X160360267Y-123138142D01*
X160273142Y-123225267D01*
X160273139Y-123225270D01*
X160270482Y-123227926D01*
X160267015Y-123230916D01*
X160239205Y-123243532D01*
X160212406Y-123258166D01*
X160205254Y-123258934D01*
X160203387Y-123259782D01*
X160200840Y-123259409D01*
X160186047Y-123261000D01*
X159991832Y-123261000D01*
X159924793Y-123241315D01*
X159904335Y-123222768D01*
X159903388Y-123223716D01*
X159779390Y-123099718D01*
X159779387Y-123099716D01*
X159636295Y-123011455D01*
X159636289Y-123011452D01*
X159636287Y-123011451D01*
X159476685Y-122958564D01*
X159476683Y-122958563D01*
X159378181Y-122948500D01*
X159378174Y-122948500D01*
X158769826Y-122948500D01*
X158769818Y-122948500D01*
X158671316Y-122958563D01*
X158671315Y-122958564D01*
X158592219Y-122984773D01*
X158511715Y-123011450D01*
X158511704Y-123011455D01*
X158368612Y-123099716D01*
X158368610Y-123099718D01*
X158249719Y-123218608D01*
X158249716Y-123218612D01*
X158161455Y-123361704D01*
X158161451Y-123361713D01*
X158108564Y-123521315D01*
X158108564Y-123521316D01*
X158108563Y-123521316D01*
X158098500Y-123619818D01*
X158098500Y-124153181D01*
X158108563Y-124251683D01*
X158161450Y-124411284D01*
X158161455Y-124411295D01*
X158249716Y-124554387D01*
X158249719Y-124554392D01*
X158282000Y-124586673D01*
X158315485Y-124647997D01*
X158310499Y-124717688D01*
X158282000Y-124762033D01*
X158250114Y-124793919D01*
X158161908Y-124936922D01*
X158161906Y-124936927D01*
X158109057Y-125096416D01*
X158099000Y-125194849D01*
X158099000Y-125211500D01*
X160048999Y-125211500D01*
X160048999Y-125194864D01*
X160048998Y-125194847D01*
X160038943Y-125096416D01*
X159986093Y-124936927D01*
X159986091Y-124936922D01*
X159897885Y-124793919D01*
X159866000Y-124762034D01*
X159861740Y-124754233D01*
X159854610Y-124748925D01*
X159845253Y-124724039D01*
X159832515Y-124700711D01*
X159833149Y-124691845D01*
X159830021Y-124683526D01*
X159835602Y-124657536D01*
X159837499Y-124631019D01*
X159843212Y-124622103D01*
X159844692Y-124615214D01*
X159865418Y-124587450D01*
X159865769Y-124586904D01*
X159865999Y-124586673D01*
X159898281Y-124554391D01*
X159898558Y-124553940D01*
X159903920Y-124548551D01*
X159928598Y-124534990D01*
X159951584Y-124518714D01*
X159961113Y-124517124D01*
X159965154Y-124514904D01*
X159971715Y-124515355D01*
X159991832Y-124512000D01*
X160558107Y-124512000D01*
X160618529Y-124499981D01*
X160678952Y-124487963D01*
X160712292Y-124474152D01*
X160792786Y-124440812D01*
X160844009Y-124406584D01*
X160895233Y-124372358D01*
X160938021Y-124329569D01*
X160943002Y-124325526D01*
X160969542Y-124314418D01*
X160994797Y-124300628D01*
X161001373Y-124301098D01*
X161007455Y-124298553D01*
X161035789Y-124303558D01*
X161064489Y-124305611D01*
X161074521Y-124310401D01*
X161076259Y-124310709D01*
X161077429Y-124311790D01*
X161084279Y-124315062D01*
X161084401Y-124315134D01*
X161084402Y-124315135D01*
X161222607Y-124396869D01*
X161222614Y-124396871D01*
X161376791Y-124441664D01*
X161376794Y-124441664D01*
X161376796Y-124441665D01*
X161412819Y-124444500D01*
X161811180Y-124444499D01*
X161847204Y-124441665D01*
X162001393Y-124396869D01*
X162058882Y-124362869D01*
X162126602Y-124345688D01*
X162185117Y-124362869D01*
X162242607Y-124396869D01*
X162242610Y-124396869D01*
X162242612Y-124396871D01*
X162396791Y-124441664D01*
X162396794Y-124441664D01*
X162396796Y-124441665D01*
X162432819Y-124444500D01*
X162831180Y-124444499D01*
X162867204Y-124441665D01*
X163021393Y-124396869D01*
X163159598Y-124315135D01*
X163160315Y-124314418D01*
X163163915Y-124310819D01*
X163225238Y-124277334D01*
X163251596Y-124274500D01*
X163672192Y-124274500D01*
X163739231Y-124294185D01*
X163759873Y-124310819D01*
X164428609Y-124979555D01*
X164462094Y-125040878D01*
X164457110Y-125110570D01*
X164415238Y-125166503D01*
X164409819Y-125170338D01*
X164267279Y-125265581D01*
X164267275Y-125265584D01*
X164135584Y-125397275D01*
X164135578Y-125397283D01*
X164032109Y-125552135D01*
X164032109Y-125552136D01*
X163960835Y-125724207D01*
X163960833Y-125724215D01*
X163960050Y-125728152D01*
X163938425Y-125836869D01*
X163935001Y-125847203D01*
X163933555Y-125861346D01*
X163932412Y-125867093D01*
X163924500Y-125906875D01*
X163924500Y-127000001D01*
X163924501Y-127000019D01*
X163935000Y-127102796D01*
X163935001Y-127102799D01*
X163990185Y-127269331D01*
X163990189Y-127269340D01*
X164076889Y-127409904D01*
X164095329Y-127477296D01*
X164076889Y-127540096D01*
X163990189Y-127680659D01*
X163990186Y-127680666D01*
X163935001Y-127847203D01*
X163935001Y-127847204D01*
X163935000Y-127847204D01*
X163924500Y-127949983D01*
X163924500Y-129050001D01*
X163924501Y-129050019D01*
X163935000Y-129152796D01*
X163935001Y-129152799D01*
X163990185Y-129319331D01*
X163990189Y-129319340D01*
X164061469Y-129434904D01*
X164079909Y-129502296D01*
X164061469Y-129565096D01*
X163990189Y-129680659D01*
X163990186Y-129680666D01*
X163935001Y-129847203D01*
X163935001Y-129847204D01*
X163935000Y-129847204D01*
X163924500Y-129949983D01*
X163924500Y-131050001D01*
X163924501Y-131050019D01*
X163935000Y-131152796D01*
X163935001Y-131152799D01*
X163990185Y-131319331D01*
X163990189Y-131319340D01*
X164076889Y-131459904D01*
X164095329Y-131527296D01*
X164076889Y-131590096D01*
X163990189Y-131730659D01*
X163990185Y-131730668D01*
X163980834Y-131758889D01*
X163935001Y-131897203D01*
X163935001Y-131897204D01*
X163935000Y-131897204D01*
X163924500Y-131999983D01*
X163924500Y-133093128D01*
X163930940Y-133125500D01*
X163933556Y-133138651D01*
X163935001Y-133152797D01*
X163938425Y-133163130D01*
X163939923Y-133170659D01*
X163939922Y-133170660D01*
X163939923Y-133170661D01*
X163960833Y-133275784D01*
X163960835Y-133275792D01*
X164032109Y-133447863D01*
X164032109Y-133447864D01*
X164135578Y-133602716D01*
X164135584Y-133602724D01*
X164267275Y-133734415D01*
X164267283Y-133734421D01*
X164422135Y-133837890D01*
X164422139Y-133837892D01*
X164472952Y-133858939D01*
X164527356Y-133902779D01*
X164549421Y-133969073D01*
X164549500Y-133973500D01*
X164549500Y-134356191D01*
X164529815Y-134423230D01*
X164513181Y-134443872D01*
X163853727Y-135103325D01*
X163853726Y-135103326D01*
X163782532Y-135209877D01*
X163779665Y-135215242D01*
X163778553Y-135214648D01*
X163738829Y-135263934D01*
X163720529Y-135274451D01*
X163714673Y-135277181D01*
X163565342Y-135369289D01*
X163441289Y-135493342D01*
X163349187Y-135642663D01*
X163349185Y-135642668D01*
X163349115Y-135642880D01*
X163294001Y-135809203D01*
X163294001Y-135809204D01*
X163294000Y-135809204D01*
X163283500Y-135911983D01*
X163283500Y-136716191D01*
X163263815Y-136783230D01*
X163247181Y-136803872D01*
X162728873Y-137322181D01*
X162701945Y-137336884D01*
X162676127Y-137353477D01*
X162669926Y-137354368D01*
X162667550Y-137355666D01*
X162641192Y-137358500D01*
X162608000Y-137358500D01*
X162540961Y-137338815D01*
X162495206Y-137286011D01*
X162484000Y-137234500D01*
X162484000Y-136862000D01*
X160334001Y-136862000D01*
X160334001Y-137234500D01*
X160314316Y-137301539D01*
X160261512Y-137347294D01*
X160210001Y-137358500D01*
X159394808Y-137358500D01*
X159365367Y-137349855D01*
X159335381Y-137343332D01*
X159330365Y-137339577D01*
X159327769Y-137338815D01*
X159307127Y-137322181D01*
X159158819Y-137173873D01*
X159125334Y-137112550D01*
X159122500Y-137086192D01*
X159122500Y-136887317D01*
X159122499Y-136887302D01*
X159119643Y-136851008D01*
X159119642Y-136851002D01*
X159074495Y-136695609D01*
X159074494Y-136695605D01*
X159074493Y-136695604D01*
X159062089Y-136674630D01*
X159044906Y-136606909D01*
X159062091Y-136548384D01*
X159074032Y-136528194D01*
X159116504Y-136382000D01*
X158810352Y-136382000D01*
X158747233Y-136364732D01*
X158738395Y-136359506D01*
X158738393Y-136359505D01*
X158738389Y-136359503D01*
X158582997Y-136314357D01*
X158582991Y-136314356D01*
X158546697Y-136311500D01*
X158546690Y-136311500D01*
X158077310Y-136311500D01*
X158077302Y-136311500D01*
X158041008Y-136314356D01*
X158041002Y-136314357D01*
X157885610Y-136359503D01*
X157885605Y-136359506D01*
X157876766Y-136364732D01*
X157813648Y-136382000D01*
X157507496Y-136382000D01*
X157549968Y-136528194D01*
X157561911Y-136548389D01*
X157579092Y-136616113D01*
X157561911Y-136674628D01*
X157549506Y-136695604D01*
X157549504Y-136695609D01*
X157504357Y-136851002D01*
X157504356Y-136851008D01*
X157501500Y-136887302D01*
X157501500Y-137296697D01*
X157504356Y-137332991D01*
X157504357Y-137332997D01*
X157549504Y-137488390D01*
X157549505Y-137488393D01*
X157631881Y-137627684D01*
X157631887Y-137627692D01*
X157746307Y-137742112D01*
X157746311Y-137742115D01*
X157746313Y-137742117D01*
X157885605Y-137824494D01*
X157973351Y-137849986D01*
X158026434Y-137881380D01*
X158432873Y-138287819D01*
X158466358Y-138349142D01*
X158461374Y-138418834D01*
X158419502Y-138474767D01*
X158354038Y-138499184D01*
X158345192Y-138499500D01*
X157234000Y-138499500D01*
X157166961Y-138479815D01*
X157121206Y-138427011D01*
X157110000Y-138375500D01*
X157110000Y-135912013D01*
X160334000Y-135912013D01*
X160334000Y-136362000D01*
X161159000Y-136362000D01*
X161659000Y-136362000D01*
X162483999Y-136362000D01*
X162483999Y-135912028D01*
X162483998Y-135912013D01*
X162473505Y-135809302D01*
X162418358Y-135642880D01*
X162418356Y-135642875D01*
X162326315Y-135493654D01*
X162202345Y-135369684D01*
X162053124Y-135277643D01*
X162053119Y-135277641D01*
X161886697Y-135222494D01*
X161886690Y-135222493D01*
X161783986Y-135212000D01*
X161659000Y-135212000D01*
X161659000Y-136362000D01*
X161159000Y-136362000D01*
X161159000Y-135212000D01*
X161034027Y-135212000D01*
X161034012Y-135212001D01*
X160931302Y-135222494D01*
X160764880Y-135277641D01*
X160764875Y-135277643D01*
X160615654Y-135369684D01*
X160491684Y-135493654D01*
X160399643Y-135642875D01*
X160399641Y-135642880D01*
X160344494Y-135809302D01*
X160344493Y-135809309D01*
X160334000Y-135912013D01*
X157110000Y-135912013D01*
X157110000Y-135882000D01*
X157507496Y-135882000D01*
X158062000Y-135882000D01*
X158562000Y-135882000D01*
X159116504Y-135882000D01*
X159074031Y-135735804D01*
X158991721Y-135596625D01*
X158991714Y-135596616D01*
X158877383Y-135482285D01*
X158877374Y-135482278D01*
X158738195Y-135399968D01*
X158738190Y-135399966D01*
X158588574Y-135356499D01*
X158562000Y-135356499D01*
X158562000Y-135882000D01*
X158062000Y-135882000D01*
X158062000Y-135353210D01*
X158061999Y-135353209D01*
X158041087Y-135354854D01*
X158041081Y-135354855D01*
X157885809Y-135399966D01*
X157885804Y-135399968D01*
X157746625Y-135482278D01*
X157746616Y-135482285D01*
X157632285Y-135596616D01*
X157632278Y-135596625D01*
X157549968Y-135735804D01*
X157507496Y-135882000D01*
X157110000Y-135882000D01*
X157110000Y-131958013D01*
X157620000Y-131958013D01*
X157620000Y-132020500D01*
X158570000Y-132020500D01*
X158570000Y-131258000D01*
X158320029Y-131258000D01*
X158320012Y-131258001D01*
X158217302Y-131268494D01*
X158050880Y-131323641D01*
X158050875Y-131323643D01*
X157901654Y-131415684D01*
X157777684Y-131539654D01*
X157685643Y-131688875D01*
X157685641Y-131688880D01*
X157630494Y-131855302D01*
X157630493Y-131855309D01*
X157620000Y-131958013D01*
X157110000Y-131958013D01*
X157110000Y-130899500D01*
X157129685Y-130832461D01*
X157182489Y-130786706D01*
X157234000Y-130775500D01*
X159894913Y-130775500D01*
X160805547Y-130775500D01*
X160872586Y-130795185D01*
X160918341Y-130847989D01*
X160928285Y-130917147D01*
X160899260Y-130980703D01*
X160893228Y-130987181D01*
X160155003Y-131725404D01*
X160093680Y-131758889D01*
X160023988Y-131753905D01*
X159968055Y-131712033D01*
X159954935Y-131690117D01*
X159954357Y-131688877D01*
X159862315Y-131539654D01*
X159738345Y-131415684D01*
X159589124Y-131323643D01*
X159589119Y-131323641D01*
X159422697Y-131268494D01*
X159422690Y-131268493D01*
X159319986Y-131258000D01*
X159070000Y-131258000D01*
X159070000Y-132146500D01*
X159050315Y-132213539D01*
X158997511Y-132259294D01*
X158946000Y-132270500D01*
X158820000Y-132270500D01*
X158820000Y-132396500D01*
X158800315Y-132463539D01*
X158747511Y-132509294D01*
X158696000Y-132520500D01*
X157620001Y-132520500D01*
X157620001Y-132582986D01*
X157630494Y-132685697D01*
X157685641Y-132852119D01*
X157685643Y-132852124D01*
X157777684Y-133001345D01*
X157871304Y-133094965D01*
X157904789Y-133156288D01*
X157899805Y-133225980D01*
X157871305Y-133270327D01*
X157777287Y-133364345D01*
X157685187Y-133513663D01*
X157685186Y-133513666D01*
X157630001Y-133680203D01*
X157630001Y-133680204D01*
X157630000Y-133680204D01*
X157619500Y-133782983D01*
X157619500Y-134408001D01*
X157619501Y-134408019D01*
X157630000Y-134510796D01*
X157630001Y-134510799D01*
X157685185Y-134677331D01*
X157685186Y-134677334D01*
X157777288Y-134826656D01*
X157901344Y-134950712D01*
X158050666Y-135042814D01*
X158217203Y-135097999D01*
X158319991Y-135108500D01*
X159320008Y-135108499D01*
X159320016Y-135108498D01*
X159320019Y-135108498D01*
X159376302Y-135102748D01*
X159422797Y-135097999D01*
X159589334Y-135042814D01*
X159738656Y-134950712D01*
X159862712Y-134826656D01*
X159954814Y-134677334D01*
X160009999Y-134510797D01*
X160020500Y-134408009D01*
X160020499Y-133782992D01*
X160012222Y-133701970D01*
X160024991Y-133633281D01*
X160047896Y-133601693D01*
X161340388Y-132309201D01*
X161401709Y-132275718D01*
X161471401Y-132280702D01*
X161527334Y-132322574D01*
X161549684Y-132372691D01*
X161561987Y-132434538D01*
X161561989Y-132434547D01*
X161635520Y-132612068D01*
X161635521Y-132612070D01*
X161742279Y-132771844D01*
X161742282Y-132771848D01*
X161878151Y-132907717D01*
X161878155Y-132907720D01*
X162037927Y-133014477D01*
X162037928Y-133014477D01*
X162037929Y-133014478D01*
X162037931Y-133014479D01*
X162202150Y-133082500D01*
X162215457Y-133088012D01*
X162403917Y-133125499D01*
X162403920Y-133125500D01*
X162403922Y-133125500D01*
X162596080Y-133125500D01*
X162596081Y-133125499D01*
X162784543Y-133088012D01*
X162962073Y-133014477D01*
X163121845Y-132907720D01*
X163257720Y-132771845D01*
X163364477Y-132612073D01*
X163438012Y-132434543D01*
X163475500Y-132246078D01*
X163475500Y-131753922D01*
X163475500Y-131753919D01*
X163475499Y-131753917D01*
X163438013Y-131565464D01*
X163438012Y-131565457D01*
X163415617Y-131511393D01*
X163408149Y-131441925D01*
X163439424Y-131379445D01*
X163454693Y-131365565D01*
X163503282Y-131328282D01*
X163599536Y-131202841D01*
X163660044Y-131056762D01*
X163675500Y-130939361D01*
X163675499Y-130660640D01*
X163660044Y-130543238D01*
X163651434Y-130522454D01*
X163643965Y-130452986D01*
X163651435Y-130427545D01*
X163660044Y-130406762D01*
X163675500Y-130289361D01*
X163675499Y-130010640D01*
X163660044Y-129893238D01*
X163651434Y-129872454D01*
X163643965Y-129802986D01*
X163651435Y-129777545D01*
X163660044Y-129756762D01*
X163675500Y-129639361D01*
X163675499Y-129360640D01*
X163660044Y-129243238D01*
X163651434Y-129222454D01*
X163643965Y-129152986D01*
X163651435Y-129127545D01*
X163660044Y-129106762D01*
X163675500Y-128989361D01*
X163675499Y-128710640D01*
X163660044Y-128593238D01*
X163651434Y-128572454D01*
X163643965Y-128502986D01*
X163651435Y-128477545D01*
X163660044Y-128456762D01*
X163675500Y-128339361D01*
X163675499Y-128060640D01*
X163675499Y-128060638D01*
X163675499Y-128060636D01*
X163660046Y-127943246D01*
X163660044Y-127943239D01*
X163660044Y-127943238D01*
X163599536Y-127797159D01*
X163503282Y-127671718D01*
X163485604Y-127658153D01*
X163454692Y-127634433D01*
X163413490Y-127578005D01*
X163409335Y-127508259D01*
X163415615Y-127488612D01*
X163438012Y-127434543D01*
X163475500Y-127246078D01*
X163475500Y-126753922D01*
X163475500Y-126753919D01*
X163475499Y-126753917D01*
X163438013Y-126565464D01*
X163438012Y-126565457D01*
X163364898Y-126388943D01*
X163364479Y-126387931D01*
X163364478Y-126387929D01*
X163257720Y-126228155D01*
X163257717Y-126228151D01*
X163121848Y-126092282D01*
X163121844Y-126092279D01*
X162962070Y-125985521D01*
X162962068Y-125985520D01*
X162784547Y-125911989D01*
X162784535Y-125911986D01*
X162596081Y-125874500D01*
X162596078Y-125874500D01*
X162403922Y-125874500D01*
X162403919Y-125874500D01*
X162215464Y-125911986D01*
X162215452Y-125911989D01*
X162037931Y-125985520D01*
X162037929Y-125985521D01*
X161878155Y-126092279D01*
X161878151Y-126092282D01*
X161742282Y-126228151D01*
X161742279Y-126228155D01*
X161635521Y-126387929D01*
X161635520Y-126387931D01*
X161561989Y-126565452D01*
X161561986Y-126565464D01*
X161524500Y-126753917D01*
X161524500Y-127246082D01*
X161561986Y-127434535D01*
X161561989Y-127434547D01*
X161584381Y-127488606D01*
X161591850Y-127558075D01*
X161560574Y-127620554D01*
X161545307Y-127634433D01*
X161496721Y-127671714D01*
X161400463Y-127797160D01*
X161339956Y-127943237D01*
X161339955Y-127943239D01*
X161324500Y-128060638D01*
X161324500Y-128339363D01*
X161339953Y-128456753D01*
X161339957Y-128456765D01*
X161348566Y-128477550D01*
X161356658Y-128543223D01*
X161354412Y-128558336D01*
X161339956Y-128593238D01*
X161324500Y-128710639D01*
X161324500Y-128759661D01*
X161323154Y-128768723D01*
X161312180Y-128792455D01*
X161304815Y-128817539D01*
X161297752Y-128823658D01*
X161293830Y-128832142D01*
X161271767Y-128846175D01*
X161252011Y-128863294D01*
X161241132Y-128865660D01*
X161234876Y-128869640D01*
X161223094Y-128869584D01*
X161200500Y-128874500D01*
X160523439Y-128874500D01*
X160456400Y-128854815D01*
X160410645Y-128802011D01*
X160399439Y-128750500D01*
X160399439Y-128691809D01*
X160399429Y-128691613D01*
X160399427Y-128674229D01*
X160366151Y-128507047D01*
X160327295Y-128413263D01*
X160300909Y-128349573D01*
X160300906Y-128349568D01*
X160300906Y-128349567D01*
X160253385Y-128278453D01*
X160206199Y-128207839D01*
X160206193Y-128207832D01*
X160085667Y-128087306D01*
X160085660Y-128087300D01*
X159979738Y-128016520D01*
X159943933Y-127992594D01*
X159943931Y-127992593D01*
X159943926Y-127992590D01*
X159786472Y-127927357D01*
X159786453Y-127927349D01*
X159786452Y-127927348D01*
X159619275Y-127894073D01*
X159619265Y-127894072D01*
X159601322Y-127894069D01*
X159601322Y-127894068D01*
X159595579Y-127894067D01*
X159595545Y-127894061D01*
X159534046Y-127894061D01*
X159534042Y-127894061D01*
X159533959Y-127894060D01*
X159458091Y-127894049D01*
X159458090Y-127894049D01*
X159450759Y-127894048D01*
X159450543Y-127894061D01*
X159346983Y-127894061D01*
X159345618Y-127894127D01*
X159328799Y-127894124D01*
X159328795Y-127894125D01*
X159161590Y-127927356D01*
X159004073Y-127992571D01*
X158862314Y-128087259D01*
X158862313Y-128087259D01*
X158741739Y-128207793D01*
X158647008Y-128349520D01*
X158647002Y-128349532D01*
X158581738Y-128507020D01*
X158581737Y-128507021D01*
X158548452Y-128674214D01*
X158548451Y-128674219D01*
X158548448Y-128692123D01*
X158548447Y-128697911D01*
X158548439Y-128697955D01*
X158548439Y-128750500D01*
X158548439Y-128750519D01*
X158538186Y-128785417D01*
X158528754Y-128817539D01*
X158528747Y-128817544D01*
X158528744Y-128817556D01*
X158499526Y-128842864D01*
X158475950Y-128863294D01*
X158475939Y-128863296D01*
X158475933Y-128863302D01*
X158475874Y-128863310D01*
X158424439Y-128874500D01*
X157234000Y-128874500D01*
X157166961Y-128854815D01*
X157121206Y-128802011D01*
X157110000Y-128750500D01*
X157110000Y-125728152D01*
X158099001Y-125728152D01*
X158109056Y-125826583D01*
X158161906Y-125986072D01*
X158161908Y-125986077D01*
X158250114Y-126129080D01*
X158368919Y-126247885D01*
X158511922Y-126336091D01*
X158511927Y-126336093D01*
X158671416Y-126388942D01*
X158769855Y-126398999D01*
X159324000Y-126398999D01*
X159378136Y-126398999D01*
X159378152Y-126398998D01*
X159476583Y-126388943D01*
X159636072Y-126336093D01*
X159636077Y-126336091D01*
X159779080Y-126247885D01*
X159897885Y-126129080D01*
X159986091Y-125986077D01*
X159986093Y-125986072D01*
X160038942Y-125826583D01*
X160048999Y-125728150D01*
X160049000Y-125728137D01*
X160049000Y-125711500D01*
X159324000Y-125711500D01*
X159324000Y-126398999D01*
X158769855Y-126398999D01*
X158823999Y-126398998D01*
X158824000Y-126398998D01*
X158824000Y-125711500D01*
X158099001Y-125711500D01*
X158099001Y-125728152D01*
X157110000Y-125728152D01*
X157110000Y-120624500D01*
X157129685Y-120557461D01*
X157182489Y-120511706D01*
X157234000Y-120500500D01*
X166069500Y-120500500D01*
X166136539Y-120520185D01*
G37*
%TD.AperFunction*%
%TD*%
M02*
